  0
SECTION
  2
HEADER
  9
$ANGDIR
 70
     0
  9
$EXTMAX
 10
62.211549
 20
43.329798
 30
0.000000
  9
$EXTMIN
 10
-1.691718
 20
-1.091431
 30
0.000000
  9
$CECOLOR
 62
   256
  9
$CELTYPE
  6
BYLAYER
  0
ENDSEC
  0
SECTION
  2
TABLES
  0
TABLE
  2
LTYPE
 70
     1
  0
LTYPE
  2
CONTINUOUS
 70
    64
  3
Solid line
 72
    65
 73
     0
 40
0.000000
  0
ENDTAB
  0
TABLE
  2
LAYER
 70
   257
  0
LAYER
  2
0
 70
    64
 62
     7
  6
CONTINUOUS
  0
LAYER
  2
Arquitetura
 70
    64
 62
     1
  6
CONTINUOUS
  0
LAYER
  2
Fiacao
 70
    64
 62
     2
  6
CONTINUOUS
  0
LAYER
  2
Tomada
 70
    64
 62
     3
  6
CONTINUOUS
  0
ENDTAB
  0
ENDSEC
  0
SECTION
  2
BLOCKS
  0
BLOCK
  5
65
330
64
  8
0
  2
FS_interruptor
 70
     0
 10
0.000000
 20
0.000000
 30
0.000000
  3
FS_interruptor
  1
0
  0
ATTDEF
  5
6
330
64
  8
0
 10
0.171000
 20
-0.240000
 30
0.000000
 40
0.100000
  1
segundo
  3
primeiro
  2
NOME
 70
     0
280
0
  0
CIRCLE
  8
LAYER 0
 10
0.100000
 20
0.000000
 30
0.000000
 40
0.100000
  0
ATTDEF
  5
6
330
64
  8
0
 10
0.192000
 20
0.130000
 30
0.000000
 40
0.100000
  1
segundo
  3
primeiro
  2
NOME
 70
     0
280
0
  0
ENDBLK
  0
BLOCK
  5
65
330
64
  8
0
  2
FS_interruptor
 70
     0
 10
0.000000
 20
0.000000
 30
0.000000
  3
FS_interruptor
  1
0
  0
ATTDEF
  5
6
330
64
  8
0
 10
0.171000
 20
-0.240000
 30
0.000000
 40
0.100000
  1
segundo
  3
primeiro
  2
NOME
 70
     0
280
0
  0
CIRCLE
  8
LAYER 0
 10
0.100000
 20
0.000000
 30
0.000000
 40
0.100000
  0
ATTDEF
  5
6
330
64
  8
0
 10
0.192000
 20
0.130000
 30
0.000000
 40
0.100000
  1
segundo
  3
primeiro
  2
NOME
 70
     0
280
0
  0
ENDBLK
  0
BLOCK
  5
65
330
64
  8
0
  2
FS_Lampada
 70
     0
 10
0.000000
 20
0.000000
 30
0.000000
  3
FS_Lampada
  1
0
  0
LINE
  8
0
 10
0.000000
 20
0.000000
 30
0.000000
 11
-0.250000
 21
0.000000
 31
0.000000
  0
LINE
  8
0
 10
0.000000
 20
0.000000
 30
0.000000
 11
0.250000
 21
0.000000
 31
0.000000
  0
CIRCLE
  8
LAYER 0
 10
0.000000
 20
0.000000
 30
0.000000
 40
0.250000
  0
LINE
  8
0
 10
0.000000
 20
-0.250000
 30
0.000000
 11
0.000000
 21
0.000000
 31
0.000000
  0
ATTDEF
  5
6
330
64
  8
0
 10
-0.170000
 20
0.035000
 30
0.000000
 40
0.150000
  1
segundo
  3
primeiro
  2
NOME
 70
     0
280
0
  0
ATTDEF
  5
6
330
64
  8
0
 10
-0.172000
 20
-0.192000
 30
0.000000
 40
0.150000
  1
segundo
  3
primeiro
  2
NOME
 70
     0
280
0
  0
ATTDEF
  5
6
330
64
  8
0
 10
0.023000
 20
-0.191000
 30
0.000000
 40
0.150000
  1
segundo
  3
primeiro
  2
NOME
 70
     0
280
0
  0
ENDBLK
  0
BLOCK
  5
65
330
64
  8
0
  2
FS_Tomada
 70
     0
 10
0.000000
 20
0.000000
 30
0.000000
  3
FS_Tomada
  1
0
  0
LINE
  8
0
 10
0.000000
 20
0.000000
 30
0.000000
 11
0.100000
 21
0.000000
 31
0.000000
  0
LINE
  8
0
 10
0.100000
 20
0.000000
 30
0.000000
 11
0.100000
 21
0.100000
 31
0.000000
  0
LINE
  8
0
 10
0.100000
 20
0.000000
 30
0.000000
 11
0.100000
 21
-0.100000
 31
0.000000
  0
LINE
  8
0
 10
0.200000
 20
0.000000
 30
0.000000
 11
0.100000
 21
0.100000
 31
0.000000
  0
LINE
  8
0
 10
0.100000
 20
-0.100000
 30
0.000000
 11
0.200000
 21
0.000000
 31
0.000000
  0
ATTDEF
  5
6
330
64
  8
0
 10
0.196000
 20
0.095000
 30
0.000000
 40
0.100000
  1
segundo
  3
primeiro
  2
NOME
 70
     0
280
0
  0
ATTDEF
  5
6
330
64
  8
0
 10
0.176000
 20
-0.144000
 30
0.000000
 40
0.100000
  1
segundo
  3
primeiro
  2
NOME
 70
     0
280
0
  0
ENDBLK
  0
BLOCK
  5
65
330
64
  8
0
  2
FS_CaixaCD
 70
     0
 10
0.000000
 20
0.000000
 30
0.000000
  3
FS_CaixaCD
  1
0
  0
LINE
  8
0
 10
0.000000
 20
0.000000
 30
0.000000
 11
0.000000
 21
0.150000
 31
0.000000
  0
LINE
  8
0
 10
0.000000
 20
0.150000
 30
0.000000
 11
0.100000
 21
0.150000
 31
0.000000
  0
LINE
  8
0
 10
0.100000
 20
0.150000
 30
0.000000
 11
0.100000
 21
-0.150000
 31
0.000000
  0
LINE
  8
0
 10
0.100000
 20
-0.150000
 30
0.000000
 11
0.000000
 21
-0.150000
 31
0.000000
  0
LINE
  8
0
 10
0.000000
 20
-0.150000
 30
0.000000
 11
0.000000
 21
0.000000
 31
0.000000
  0
LINE
  8
0
 10
0.000000
 20
0.150000
 30
0.000000
 11
0.100000
 21
-0.150000
 31
0.000000
  0
ATTDEF
  5
6
330
64
  8
0
 10
0.106000
 20
0.132000
 30
0.000000
 40
0.100000
  1
segundo
  3
primeiro
  2
NOME
 70
     0
280
0
  0
ENDBLK
  0
BLOCK
  5
65
330
64
  8
0
  2
FS_CaixaCP
 70
     0
 10
0.000000
 20
0.000000
 30
0.000000
  3
FS_CaixaCP
  1
0
  0
LINE
  8
0
 10
0.000000
 20
0.000000
 30
0.000000
 11
0.000000
 21
0.050000
 31
0.000000
  0
LINE
  8
0
 10
0.000000
 20
0.050000
 30
0.000000
 11
0.050000
 21
0.050000
 31
0.000000
  0
LINE
  8
0
 10
0.050000
 20
0.050000
 30
0.000000
 11
0.050000
 21
-0.050000
 31
0.000000
  0
LINE
  8
0
 10
0.050000
 20
-0.050000
 30
0.000000
 11
0.000000
 21
-0.050000
 31
0.000000
  0
LINE
  8
0
 10
0.000000
 20
-0.050000
 30
0.000000
 11
0.000000
 21
0.000000
 31
0.000000
  0
ATTDEF
  5
6
330
64
  8
0
 10
0.069000
 20
0.049000
 30
0.000000
 40
0.100000
  1
segundo
  3
primeiro
  2
NOME
 70
     0
280
0
  0
ENDBLK
  0
BLOCK
  5
65
330
64
  8
0
  2
PORTA_80
 70
     0
 10
0.000000
 20
0.000000
 30
0.000000
  3
PORTA_80
  1
0
  0
ARC
  5
65
330
1F
  8
0
 10
-0.040000
 20
0.039000
 30
0.000000
 40
0.760000
 50
90.000000
 51
-255.150000
  0
LINE
  8
0
 10
0.000000
 20
0.000000
 30
0.000000
 11
-0.040000
 21
0.000000
 31
0.000000
  0
LINE
  8
0
 10
0.000000
 20
0.800000
 30
0.000000
 11
0.000000
 21
0.000000
 31
0.000000
  0
LINE
  8
0
 10
-0.040000
 20
0.800000
 30
0.000000
 11
0.000000
 21
0.800000
 31
0.000000
  0
LINE
  8
0
 10
-0.040000
 20
0.000000
 30
0.000000
 11
-0.040000
 21
0.800000
 31
0.000000
  0
ARC
  5
65
330
1F
  8
0
 10
-0.040000
 20
0.039000
 30
0.000000
 40
0.760000
 50
90.000000
 51
-255.150000
  0
LINE
  8
0
 10
0.000000
 20
0.000000
 30
0.000000
 11
-0.040000
 21
0.000000
 31
0.000000
  0
LINE
  8
0
 10
0.000000
 20
0.800000
 30
0.000000
 11
0.000000
 21
0.000000
 31
0.000000
  0
LINE
  8
0
 10
-0.040000
 20
0.800000
 30
0.000000
 11
0.000000
 21
0.800000
 31
0.000000
  0
LINE
  8
0
 10
-0.040000
 20
0.000000
 30
0.000000
 11
-0.040000
 21
0.800000
 31
0.000000
  0
ENDBLK
  0
BLOCK
  5
65
330
64
  8
0
  2
PORTA_60
 70
     0
 10
0.000000
 20
0.000000
 30
0.000000
  3
PORTA_60
  1
0
  0
ARC
  5
65
330
1F
  8
0
 10
-0.001000
 20
0.000000
 30
0.000000
 40
0.601000
 50
0.000000
 51
-265.666704
  0
LINE
  8
0
 10
0.040000
 20
0.000000
 30
0.000000
 11
0.000000
 21
0.000000
 31
0.000000
  0
LINE
  8
0
 10
0.040000
 20
0.600000
 30
0.000000
 11
0.040000
 21
0.000000
 31
0.000000
  0
LINE
  8
0
 10
0.000000
 20
0.600000
 30
0.000000
 11
0.040000
 21
0.600000
 31
0.000000
  0
LINE
  8
0
 10
0.000000
 20
0.000000
 30
0.000000
 11
0.000000
 21
0.600000
 31
0.000000
  0
ARC
  5
65
330
1F
  8
0
 10
-0.001000
 20
0.000000
 30
0.000000
 40
0.601000
 50
0.000000
 51
-265.666704
  0
LINE
  8
0
 10
0.040000
 20
0.000000
 30
0.000000
 11
0.000000
 21
0.000000
 31
0.000000
  0
LINE
  8
0
 10
0.040000
 20
0.600000
 30
0.000000
 11
0.040000
 21
0.000000
 31
0.000000
  0
LINE
  8
0
 10
0.000000
 20
0.600000
 30
0.000000
 11
0.040000
 21
0.600000
 31
0.000000
  0
LINE
  8
0
 10
0.000000
 20
0.000000
 30
0.000000
 11
0.000000
 21
0.600000
 31
0.000000
  0
ENDBLK
  0
BLOCK
  5
65
330
64
  8
0
  2
INTERRUPTOR_SIMPLES
 70
     0
 10
0.000000
 20
0.000000
 30
0.000000
  3
INTERRUPTOR_SIMPLES
  1
0
  0
LINE
  8
0
 10
0.000000
 20
-0.100000
 30
0.000000
 11
0.000000
 21
0.100000
 31
0.000000
  0
LINE
  8
0
 10
0.000000
 20
0.000000
 30
0.000000
 11
0.150000
 21
0.000000
 31
0.000000
  0
CIRCLE
  8
LAYER 0
 10
0.225000
 20
0.000000
 30
0.000000
 40
0.075000
  0
ATTDEF
  5
6
330
64
  8
0
 10
0.225000
 20
0.108000
 30
0.000000
 40
0.075000
  1
segundo
  3
primeiro
  2
NOME
 70
     0
280
0
  0
LINE
  8
0
 10
0.000000
 20
-0.100000
 30
0.000000
 11
0.000000
 21
0.100000
 31
0.000000
  0
LINE
  8
0
 10
0.000000
 20
0.000000
 30
0.000000
 11
0.150000
 21
0.000000
 31
0.000000
  0
CIRCLE
  8
LAYER 0
 10
0.225000
 20
0.000000
 30
0.000000
 40
0.075000
  0
ATTDEF
  5
6
330
64
  8
0
 10
0.225000
 20
0.108000
 30
0.000000
 40
0.075000
  1
segundo
  3
primeiro
  2
NOME
 70
     0
280
0
  0
ENDBLK
  0
BLOCK
  5
65
330
64
  8
0
  2
INTERRUPTOR_PARALELO
 70
     0
 10
0.000000
 20
0.000000
 30
0.000000
  3
INTERRUPTOR_PARALELO
  1
0
  0
LINE
  8
0
 10
0.000000
 20
0.100000
 30
0.000000
 11
0.000000
 21
-0.100000
 31
0.000000
  0
LINE
  8
0
 10
0.000000
 20
0.000000
 30
0.000000
 11
-0.150000
 21
0.000000
 31
0.000000
  0
CIRCLE
  8
LAYER 0
 10
-0.225000
 20
0.000000
 30
0.000000
 40
0.075000
  0
ATTDEF
  5
6
330
64
  8
0
 10
-0.315000
 20
0.107000
 30
0.000000
 40
0.075000
  1
segundo
  3
primeiro
  2
NOME
 70
     0
280
0
  0
LINE
  8
0
 10
0.000000
 20
0.100000
 30
0.000000
 11
0.000000
 21
-0.100000
 31
0.000000
  0
LINE
  8
0
 10
0.000000
 20
0.000000
 30
0.000000
 11
-0.150000
 21
0.000000
 31
0.000000
  0
CIRCLE
  8
LAYER 0
 10
-0.225000
 20
0.000000
 30
0.000000
 40
0.075000
  0
ATTDEF
  5
6
330
64
  8
0
 10
-0.315000
 20
0.107000
 30
0.000000
 40
0.075000
  1
segundo
  3
primeiro
  2
NOME
 70
     0
280
0
  0
ENDBLK
  0
BLOCK
  5
65
330
64
  8
0
  2
TOMADA_MEDIA
 70
     0
 10
0.000000
 20
0.000000
 30
0.000000
  3
TOMADA_MEDIA
  1
0
  0
LINE
  8
0
 10
0.000000
 20
-0.100000
 30
0.000000
 11
0.000000
 21
0.100000
 31
0.000000
  0
LINE
  8
0
 10
0.000000
 20
0.000000
 30
0.000000
 11
0.150000
 21
0.000000
 31
0.000000
  0
LINE
  8
0
 10
0.150000
 20
0.000000
 30
0.000000
 11
0.150000
 21
0.100000
 31
0.000000
  0
LINE
  8
0
 10
0.150000
 20
0.000000
 30
0.000000
 11
0.150000
 21
-0.100000
 31
0.000000
  0
LINE
  8
0
 10
0.150000
 20
0.000000
 30
0.000000
 11
0.400000
 21
0.000000
 31
0.000000
  0
LINE
  8
0
 10
0.400000
 20
0.000000
 30
0.000000
 11
0.150000
 21
0.100000
 31
0.000000
  0
LINE
  8
0
 10
0.400000
 20
0.000000
 30
0.000000
 11
0.150000
 21
-0.100000
 31
0.000000
  0
ATTDEF
  5
6
330
64
  8
0
 10
0.150000
 20
0.150000
 30
0.000000
 40
0.075000
  1
segundo
  3
primeiro
  2
NOME
 70
     0
280
0
  0
ATTDEF
  5
6
330
64
  8
0
 10
0.150000
 20
-0.225000
 30
0.000000
 40
0.075000
  1
segundo
  3
primeiro
  2
NOME
 70
     0
280
0
  0
LINE
  8
0
 10
0.000000
 20
-0.100000
 30
0.000000
 11
0.000000
 21
0.100000
 31
0.000000
  0
LINE
  8
0
 10
0.000000
 20
0.000000
 30
0.000000
 11
0.150000
 21
0.000000
 31
0.000000
  0
LINE
  8
0
 10
0.150000
 20
0.000000
 30
0.000000
 11
0.150000
 21
0.100000
 31
0.000000
  0
LINE
  8
0
 10
0.150000
 20
0.000000
 30
0.000000
 11
0.150000
 21
-0.100000
 31
0.000000
  0
LINE
  8
0
 10
0.150000
 20
0.000000
 30
0.000000
 11
0.400000
 21
0.000000
 31
0.000000
  0
LINE
  8
0
 10
0.400000
 20
0.000000
 30
0.000000
 11
0.150000
 21
0.100000
 31
0.000000
  0
LINE
  8
0
 10
0.400000
 20
0.000000
 30
0.000000
 11
0.150000
 21
-0.100000
 31
0.000000
  0
ATTDEF
  5
6
330
64
  8
0
 10
0.150000
 20
0.150000
 30
0.000000
 40
0.075000
  1
segundo
  3
primeiro
  2
NOME
 70
     0
280
0
  0
ATTDEF
  5
6
330
64
  8
0
 10
0.150000
 20
-0.225000
 30
0.000000
 40
0.075000
  1
segundo
  3
primeiro
  2
NOME
 70
     0
280
0
  0
ENDBLK
  0
BLOCK
  5
65
330
64
  8
0
  2
TOMADA_BAIXA
 70
     0
 10
0.000000
 20
0.000000
 30
0.000000
  3
TOMADA_BAIXA
  1
0
  0
LINE
  8
0
 10
0.000000
 20
-0.100000
 30
0.000000
 11
0.000000
 21
0.100000
 31
0.000000
  0
LINE
  8
0
 10
0.000000
 20
0.000000
 30
0.000000
 11
0.150000
 21
0.000000
 31
0.000000
  0
LINE
  8
0
 10
0.150000
 20
0.000000
 30
0.000000
 11
0.150000
 21
0.100000
 31
0.000000
  0
LINE
  8
0
 10
0.150000
 20
0.000000
 30
0.000000
 11
0.150000
 21
-0.100000
 31
0.000000
  0
LINE
  8
0
 10
0.400000
 20
0.000000
 30
0.000000
 11
0.150000
 21
0.100000
 31
0.000000
  0
LINE
  8
0
 10
0.400000
 20
0.000000
 30
0.000000
 11
0.150000
 21
-0.100000
 31
0.000000
  0
ATTDEF
  5
6
330
64
  8
0
 10
0.150000
 20
0.150000
 30
0.000000
 40
0.075000
  1
segundo
  3
primeiro
  2
NOME
 70
     0
280
0
  0
ATTDEF
  5
6
330
64
  8
0
 10
0.150000
 20
-0.225000
 30
0.000000
 40
0.075000
  1
segundo
  3
primeiro
  2
NOME
 70
     0
280
0
  0
LINE
  8
0
 10
0.000000
 20
-0.100000
 30
0.000000
 11
0.000000
 21
0.100000
 31
0.000000
  0
LINE
  8
0
 10
0.000000
 20
0.000000
 30
0.000000
 11
0.150000
 21
0.000000
 31
0.000000
  0
LINE
  8
0
 10
0.150000
 20
0.000000
 30
0.000000
 11
0.150000
 21
0.100000
 31
0.000000
  0
LINE
  8
0
 10
0.150000
 20
0.000000
 30
0.000000
 11
0.150000
 21
-0.100000
 31
0.000000
  0
LINE
  8
0
 10
0.400000
 20
0.000000
 30
0.000000
 11
0.150000
 21
0.100000
 31
0.000000
  0
LINE
  8
0
 10
0.400000
 20
0.000000
 30
0.000000
 11
0.150000
 21
-0.100000
 31
0.000000
  0
ATTDEF
  5
6
330
64
  8
0
 10
0.150000
 20
0.150000
 30
0.000000
 40
0.075000
  1
segundo
  3
primeiro
  2
NOME
 70
     0
280
0
  0
ATTDEF
  5
6
330
64
  8
0
 10
0.150000
 20
-0.225000
 30
0.000000
 40
0.075000
  1
segundo
  3
primeiro
  2
NOME
 70
     0
280
0
  0
ENDBLK
  0
BLOCK
  5
65
330
64
  8
0
  2
TOMADA_ALTA
 70
     0
 10
0.000000
 20
0.000000
 30
0.000000
  3
TOMADA_ALTA
  1
0
  0
LINE
  8
0
 10
0.000000
 20
-0.100000
 30
0.000000
 11
0.000000
 21
0.100000
 31
0.000000
  0
LINE
  8
0
 10
0.000000
 20
0.000000
 30
0.000000
 11
0.150000
 21
0.000000
 31
0.000000
  0
LINE
  8
0
 10
0.150000
 20
0.000000
 30
0.000000
 11
0.150000
 21
0.100000
 31
0.000000
  0
LINE
  8
0
 10
0.150000
 20
0.000000
 30
0.000000
 11
0.150000
 21
-0.100000
 31
0.000000
  0
LINE
  8
0
 10
0.400000
 20
0.000000
 30
0.000000
 11
0.150000
 21
0.100000
 31
0.000000
  0
LINE
  8
0
 10
0.400000
 20
0.000000
 30
0.000000
 11
0.150000
 21
-0.100000
 31
0.000000
  0
ATTDEF
  5
6
330
64
  8
0
 10
0.150000
 20
0.150000
 30
0.000000
 40
0.075000
  1
segundo
  3
primeiro
  2
NOME
 70
     0
280
0
  0
ATTDEF
  5
6
330
64
  8
0
 10
0.150000
 20
-0.225000
 30
0.000000
 40
0.075000
  1
segundo
  3
primeiro
  2
NOME
 70
     0
280
0
  0
LINE
  8
0
 10
0.000000
 20
-0.100000
 30
0.000000
 11
0.000000
 21
0.100000
 31
0.000000
  0
LINE
  8
0
 10
0.000000
 20
0.000000
 30
0.000000
 11
0.150000
 21
0.000000
 31
0.000000
  0
LINE
  8
0
 10
0.150000
 20
0.000000
 30
0.000000
 11
0.150000
 21
0.100000
 31
0.000000
  0
LINE
  8
0
 10
0.150000
 20
0.000000
 30
0.000000
 11
0.150000
 21
-0.100000
 31
0.000000
  0
LINE
  8
0
 10
0.400000
 20
0.000000
 30
0.000000
 11
0.150000
 21
0.100000
 31
0.000000
  0
LINE
  8
0
 10
0.400000
 20
0.000000
 30
0.000000
 11
0.150000
 21
-0.100000
 31
0.000000
  0
ATTDEF
  5
6
330
64
  8
0
 10
0.150000
 20
0.150000
 30
0.000000
 40
0.075000
  1
segundo
  3
primeiro
  2
NOME
 70
     0
280
0
  0
ATTDEF
  5
6
330
64
  8
0
 10
0.150000
 20
-0.225000
 30
0.000000
 40
0.075000
  1
segundo
  3
primeiro
  2
NOME
 70
     0
280
0
  0
ENDBLK
  0
BLOCK
  5
65
330
64
  8
0
  2
FASE_NEUTRO_TERRA
 70
     0
 10
0.000000
 20
0.000000
 30
0.000000
  3
FASE_NEUTRO_TERRA
  1
0
  0
LINE
  8
0
 10
-0.150000
 20
-0.150000
 30
0.000000
 11
-0.150000
 21
0.150000
 31
0.000000
  0
LINE
  8
0
 10
0.000000
 20
-0.150000
 30
0.000000
 11
0.000000
 21
0.150000
 31
0.000000
  0
LINE
  8
0
 10
0.150000
 20
0.000000
 30
0.000000
 11
0.150000
 21
0.150000
 31
0.000000
  0
LINE
  8
0
 10
0.000000
 20
0.150000
 30
0.000000
 11
-0.080000
 21
0.150000
 31
0.000000
  0
LINE
  8
0
 10
0.150000
 20
0.150000
 30
0.000000
 11
0.075000
 21
0.150000
 31
0.000000
  0
LINE
  8
0
 10
0.150000
 20
0.150000
 30
0.000000
 11
0.225000
 21
0.150000
 31
0.000000
  0
ATTDEF
  5
6
330
64
  8
0
 10
0.655000
 20
0.201000
 30
0.000000
 40
0.075000
  1
segundo
  3
primeiro
  2
NOME
 70
     0
280
0
  0
LINE
  8
0
 10
-0.150000
 20
-0.150000
 30
0.000000
 11
-0.150000
 21
0.150000
 31
0.000000
  0
LINE
  8
0
 10
0.000000
 20
-0.150000
 30
0.000000
 11
0.000000
 21
0.150000
 31
0.000000
  0
LINE
  8
0
 10
0.150000
 20
0.000000
 30
0.000000
 11
0.150000
 21
0.150000
 31
0.000000
  0
LINE
  8
0
 10
0.000000
 20
0.150000
 30
0.000000
 11
-0.080000
 21
0.150000
 31
0.000000
  0
LINE
  8
0
 10
0.150000
 20
0.150000
 30
0.000000
 11
0.075000
 21
0.150000
 31
0.000000
  0
LINE
  8
0
 10
0.150000
 20
0.150000
 30
0.000000
 11
0.225000
 21
0.150000
 31
0.000000
  0
ATTDEF
  5
6
330
64
  8
0
 10
0.655000
 20
0.201000
 30
0.000000
 40
0.075000
  1
segundo
  3
primeiro
  2
NOME
 70
     0
280
0
  0
ENDBLK
  0
BLOCK
  5
65
330
64
  8
0
  2
FASE_NEUTRO
 70
     0
 10
0.000000
 20
0.000000
 30
0.000000
  3
FASE_NEUTRO
  1
0
  0
LINE
  8
0
 10
-0.070000
 20
-0.150000
 30
0.000000
 11
-0.070000
 21
0.150000
 31
0.000000
  0
LINE
  8
0
 10
0.080000
 20
-0.150000
 30
0.000000
 11
0.080000
 21
0.150000
 31
0.000000
  0
LINE
  8
0
 10
0.080000
 20
0.150000
 30
0.000000
 11
0.000000
 21
0.150000
 31
0.000000
  0
ATTDEF
  5
6
330
64
  8
0
 10
0.047000
 20
0.201000
 30
0.000000
 40
0.075000
  1
segundo
  3
primeiro
  2
NOME
 70
     0
280
0
  0
LINE
  8
0
 10
-0.070000
 20
-0.150000
 30
0.000000
 11
-0.070000
 21
0.150000
 31
0.000000
  0
LINE
  8
0
 10
0.080000
 20
-0.150000
 30
0.000000
 11
0.080000
 21
0.150000
 31
0.000000
  0
LINE
  8
0
 10
0.080000
 20
0.150000
 30
0.000000
 11
0.000000
 21
0.150000
 31
0.000000
  0
ATTDEF
  5
6
330
64
  8
0
 10
0.047000
 20
0.201000
 30
0.000000
 40
0.075000
  1
segundo
  3
primeiro
  2
NOME
 70
     0
280
0
  0
ENDBLK
  0
BLOCK
  5
65
330
64
  8
0
  2
FASE_RETORNO
 70
     0
 10
0.000000
 20
0.000000
 30
0.000000
  3
FASE_RETORNO
  1
0
  0
LINE
  8
0
 10
-0.081000
 20
-0.150000
 30
0.000000
 11
-0.081000
 21
0.150000
 31
0.000000
  0
LINE
  8
0
 10
0.068000
 20
0.000000
 30
0.000000
 11
0.068000
 21
0.150000
 31
0.000000
  0
ATTDEF
  5
6
330
64
  8
0
 10
-0.752000
 20
0.201000
 30
0.000000
 40
0.075000
  1
segundo
  3
primeiro
  2
NOME
 70
     0
280
0
  0
ATTDEF
  5
6
330
64
  8
0
 10
-0.608000
 20
0.201000
 30
0.000000
 40
0.075000
  1
segundo
  3
primeiro
  2
NOME
 70
     0
280
0
  0
LINE
  8
0
 10
-0.081000
 20
-0.150000
 30
0.000000
 11
-0.081000
 21
0.150000
 31
0.000000
  0
LINE
  8
0
 10
0.068000
 20
0.000000
 30
0.000000
 11
0.068000
 21
0.150000
 31
0.000000
  0
ATTDEF
  5
6
330
64
  8
0
 10
-0.752000
 20
0.201000
 30
0.000000
 40
0.075000
  1
segundo
  3
primeiro
  2
NOME
 70
     0
280
0
  0
ATTDEF
  5
6
330
64
  8
0
 10
-0.608000
 20
0.201000
 30
0.000000
 40
0.075000
  1
segundo
  3
primeiro
  2
NOME
 70
     0
280
0
  0
ENDBLK
  0
BLOCK
  5
65
330
64
  8
0
  2
FASE_PARALELO
 70
     0
 10
0.000000
 20
0.000000
 30
0.000000
  3
FASE_PARALELO
  1
0
  0
LINE
  8
0
 10
-0.150000
 20
-0.150000
 30
0.000000
 11
-0.150000
 21
0.150000
 31
0.000000
  0
LINE
  8
0
 10
0.000000
 20
0.000000
 30
0.000000
 11
0.000000
 21
0.150000
 31
0.000000
  0
LINE
  8
0
 10
0.150000
 20
0.000000
 30
0.000000
 11
0.150000
 21
0.150000
 31
0.000000
  0
ATTDEF
  5
6
330
64
  8
0
 10
-0.007000
 20
0.201000
 30
0.000000
 40
0.075000
  1
segundo
  3
primeiro
  2
NOME
 70
     0
280
0
  0
LINE
  8
0
 10
-0.150000
 20
-0.150000
 30
0.000000
 11
-0.150000
 21
0.150000
 31
0.000000
  0
LINE
  8
0
 10
0.000000
 20
0.000000
 30
0.000000
 11
0.000000
 21
0.150000
 31
0.000000
  0
LINE
  8
0
 10
0.150000
 20
0.000000
 30
0.000000
 11
0.150000
 21
0.150000
 31
0.000000
  0
ATTDEF
  5
6
330
64
  8
0
 10
-0.007000
 20
0.201000
 30
0.000000
 40
0.075000
  1
segundo
  3
primeiro
  2
NOME
 70
     0
280
0
  0
ENDBLK
  0
BLOCK
  5
65
330
64
  8
0
  2
RETORNO_PARALELO
 70
     0
 10
0.000000
 20
0.000000
 30
0.000000
  3
RETORNO_PARALELO
  1
0
  0
LINE
  8
0
 10
-0.150000
 20
0.000000
 30
0.000000
 11
-0.150000
 21
0.150000
 31
0.000000
  0
LINE
  8
0
 10
0.000000
 20
0.000000
 30
0.000000
 11
0.000000
 21
0.150000
 31
0.000000
  0
LINE
  8
0
 10
0.150000
 20
0.000000
 30
0.000000
 11
0.150000
 21
0.150000
 31
0.000000
  0
ATTDEF
  5
6
330
64
  8
0
 10
-0.013000
 20
0.201000
 30
0.000000
 40
0.075000
  1
segundo
  3
primeiro
  2
NOME
 70
     0
280
0
  0
LINE
  8
0
 10
-0.150000
 20
0.000000
 30
0.000000
 11
-0.150000
 21
0.150000
 31
0.000000
  0
LINE
  8
0
 10
0.000000
 20
0.000000
 30
0.000000
 11
0.000000
 21
0.150000
 31
0.000000
  0
LINE
  8
0
 10
0.150000
 20
0.000000
 30
0.000000
 11
0.150000
 21
0.150000
 31
0.000000
  0
ATTDEF
  5
6
330
64
  8
0
 10
-0.013000
 20
0.201000
 30
0.000000
 40
0.075000
  1
segundo
  3
primeiro
  2
NOME
 70
     0
280
0
  0
ENDBLK
  0
BLOCK
  5
65
330
64
  8
0
  2
MeuBloco
 70
     0
 10
0.000000
 20
0.000000
 30
0.000000
  3
MeuBloco
  1
0
  0
LINE
  8
0
 10
0.000000
 20
0.000000
 30
0.000000
 11
0.000000
 21
0.500000
 31
0.000000
  0
LINE
  8
0
 10
0.000000
 20
0.500000
 30
0.000000
 11
0.500000
 21
0.500000
 31
0.000000
  0
ATTDEF
  5
6
330
64
  8
0
 10
0.000000
 20
0.587000
 30
0.000000
 40
0.125000
  1
segundo
  3
primeiro
  2
NOME
 70
     0
280
0
  0
ATTDEF
  5
6
330
64
  8
0
 10
0.182000
 20
0.229000
 30
0.000000
 40
0.125000
  1
segundo
  3
primeiro
  2
NOME
 70
     1
280
0
  0
LINE
  8
0
 10
0.000000
 20
0.000000
 30
0.000000
 11
0.000000
 21
0.500000
 31
0.000000
  0
LINE
  8
0
 10
0.000000
 20
0.500000
 30
0.000000
 11
0.500000
 21
0.500000
 31
0.000000
  0
ATTDEF
  5
6
330
64
  8
0
 10
0.000000
 20
0.587000
 30
0.000000
 40
0.125000
  1
segundo
  3
primeiro
  2
NOME
 70
     0
280
0
  0
ATTDEF
  5
6
330
64
  8
0
 10
0.182000
 20
0.229000
 30
0.000000
 40
0.125000
  1
segundo
  3
primeiro
  2
NOME
 70
     1
280
0
  0
ENDBLK
  0
BLOCK
  5
65
330
64
  8
0
  2
PORTA_80
 70
     0
 10
0.000000
 20
0.000000
 30
0.000000
  3
PORTA_80
  1
0
  0
ARC
  5
65
330
1F
  8
0
 10
-0.040000
 20
0.039000
 30
0.000000
 40
0.760000
 50
90.000000
 51
-260.500000
  0
LINE
  8
0
 10
0.000000
 20
0.000000
 30
0.000000
 11
-0.040000
 21
0.000000
 31
0.000000
  0
LINE
  8
0
 10
0.000000
 20
0.800000
 30
0.000000
 11
0.000000
 21
0.000000
 31
0.000000
  0
LINE
  8
0
 10
-0.040000
 20
0.800000
 30
0.000000
 11
0.000000
 21
0.800000
 31
0.000000
  0
LINE
  8
0
 10
-0.040000
 20
0.000000
 30
0.000000
 11
-0.040000
 21
0.800000
 31
0.000000
  0
ARC
  5
65
330
1F
  8
0
 10
-0.040000
 20
0.039000
 30
0.000000
 40
0.760000
 50
90.000000
 51
-260.500000
  0
LINE
  8
0
 10
0.000000
 20
0.000000
 30
0.000000
 11
-0.040000
 21
0.000000
 31
0.000000
  0
LINE
  8
0
 10
0.000000
 20
0.800000
 30
0.000000
 11
0.000000
 21
0.000000
 31
0.000000
  0
LINE
  8
0
 10
-0.040000
 20
0.800000
 30
0.000000
 11
0.000000
 21
0.800000
 31
0.000000
  0
LINE
  8
0
 10
-0.040000
 20
0.000000
 30
0.000000
 11
-0.040000
 21
0.800000
 31
0.000000
  0
ENDBLK
  0
BLOCK
  5
65
330
64
  8
0
  2
PORTA_60
 70
     0
 10
0.000000
 20
0.000000
 30
0.000000
  3
PORTA_60
  1
0
  0
ARC
  5
65
330
1F
  8
0
 10
-0.001000
 20
0.000000
 30
0.000000
 40
0.601000
 50
0.000000
 51
-267.000000
  0
LINE
  8
0
 10
0.040000
 20
0.000000
 30
0.000000
 11
0.000000
 21
0.000000
 31
0.000000
  0
LINE
  8
0
 10
0.040000
 20
0.600000
 30
0.000000
 11
0.040000
 21
0.000000
 31
0.000000
  0
LINE
  8
0
 10
0.000000
 20
0.600000
 30
0.000000
 11
0.040000
 21
0.600000
 31
0.000000
  0
LINE
  8
0
 10
0.000000
 20
0.000000
 30
0.000000
 11
0.000000
 21
0.600000
 31
0.000000
  0
ARC
  5
65
330
1F
  8
0
 10
-0.001000
 20
0.000000
 30
0.000000
 40
0.601000
 50
0.000000
 51
-267.000000
  0
LINE
  8
0
 10
0.040000
 20
0.000000
 30
0.000000
 11
0.000000
 21
0.000000
 31
0.000000
  0
LINE
  8
0
 10
0.040000
 20
0.600000
 30
0.000000
 11
0.040000
 21
0.000000
 31
0.000000
  0
LINE
  8
0
 10
0.000000
 20
0.600000
 30
0.000000
 11
0.040000
 21
0.600000
 31
0.000000
  0
LINE
  8
0
 10
0.000000
 20
0.000000
 30
0.000000
 11
0.000000
 21
0.600000
 31
0.000000
  0
ENDBLK
  0
BLOCK
  5
65
330
64
  8
0
  2
INTERRUPTOR_SIMPLES
 70
     0
 10
0.000000
 20
0.000000
 30
0.000000
  3
INTERRUPTOR_SIMPLES
  1
0
  0
LINE
  8
0
 10
0.000000
 20
-0.100000
 30
0.000000
 11
0.000000
 21
0.100000
 31
0.000000
  0
LINE
  8
0
 10
0.000000
 20
0.000000
 30
0.000000
 11
0.150000
 21
0.000000
 31
0.000000
  0
CIRCLE
  8
LAYER 0
 10
0.225000
 20
0.000000
 30
0.000000
 40
0.075000
  0
ATTDEF
  5
6
330
64
  8
0
 10
0.225000
 20
0.108000
 30
0.000000
 40
0.075000
  1
segundo
  3
primeiro
  2
NOME
 70
     0
280
0
  0
LINE
  8
0
 10
0.000000
 20
-0.100000
 30
0.000000
 11
0.000000
 21
0.100000
 31
0.000000
  0
LINE
  8
0
 10
0.000000
 20
0.000000
 30
0.000000
 11
0.150000
 21
0.000000
 31
0.000000
  0
CIRCLE
  8
LAYER 0
 10
0.225000
 20
0.000000
 30
0.000000
 40
0.075000
  0
ATTDEF
  5
6
330
64
  8
0
 10
0.225000
 20
0.108000
 30
0.000000
 40
0.075000
  1
segundo
  3
primeiro
  2
NOME
 70
     0
280
0
  0
ENDBLK
  0
BLOCK
  5
65
330
64
  8
0
  2
INTERRUPTOR_PARALELO
 70
     0
 10
0.000000
 20
0.000000
 30
0.000000
  3
INTERRUPTOR_PARALELO
  1
0
  0
LINE
  8
0
 10
0.000000
 20
0.100000
 30
0.000000
 11
0.000000
 21
-0.100000
 31
0.000000
  0
LINE
  8
0
 10
0.000000
 20
0.000000
 30
0.000000
 11
-0.150000
 21
0.000000
 31
0.000000
  0
CIRCLE
  8
LAYER 0
 10
-0.225000
 20
0.000000
 30
0.000000
 40
0.075000
  0
ATTDEF
  5
6
330
64
  8
0
 10
-0.315000
 20
0.107000
 30
0.000000
 40
0.075000
  1
segundo
  3
primeiro
  2
NOME
 70
     0
280
0
  0
LINE
  8
0
 10
0.000000
 20
0.100000
 30
0.000000
 11
0.000000
 21
-0.100000
 31
0.000000
  0
LINE
  8
0
 10
0.000000
 20
0.000000
 30
0.000000
 11
-0.150000
 21
0.000000
 31
0.000000
  0
CIRCLE
  8
LAYER 0
 10
-0.225000
 20
0.000000
 30
0.000000
 40
0.075000
  0
ATTDEF
  5
6
330
64
  8
0
 10
-0.315000
 20
0.107000
 30
0.000000
 40
0.075000
  1
segundo
  3
primeiro
  2
NOME
 70
     0
280
0
  0
ENDBLK
  0
BLOCK
  5
65
330
64
  8
0
  2
TOMADA_MEDIA
 70
     0
 10
0.000000
 20
0.000000
 30
0.000000
  3
TOMADA_MEDIA
  1
0
  0
LINE
  8
0
 10
0.000000
 20
-0.100000
 30
0.000000
 11
0.000000
 21
0.100000
 31
0.000000
  0
LINE
  8
0
 10
0.000000
 20
0.000000
 30
0.000000
 11
0.150000
 21
0.000000
 31
0.000000
  0
LINE
  8
0
 10
0.150000
 20
0.000000
 30
0.000000
 11
0.150000
 21
0.100000
 31
0.000000
  0
LINE
  8
0
 10
0.150000
 20
0.000000
 30
0.000000
 11
0.150000
 21
-0.100000
 31
0.000000
  0
LINE
  8
0
 10
0.150000
 20
0.000000
 30
0.000000
 11
0.400000
 21
0.000000
 31
0.000000
  0
LINE
  8
0
 10
0.400000
 20
0.000000
 30
0.000000
 11
0.150000
 21
0.100000
 31
0.000000
  0
LINE
  8
0
 10
0.400000
 20
0.000000
 30
0.000000
 11
0.150000
 21
-0.100000
 31
0.000000
  0
ATTDEF
  5
6
330
64
  8
0
 10
0.150000
 20
0.150000
 30
0.000000
 40
0.075000
  1
segundo
  3
primeiro
  2
NOME
 70
     0
280
0
  0
ATTDEF
  5
6
330
64
  8
0
 10
0.150000
 20
-0.225000
 30
0.000000
 40
0.075000
  1
segundo
  3
primeiro
  2
NOME
 70
     0
280
0
  0
LINE
  8
0
 10
0.000000
 20
-0.100000
 30
0.000000
 11
0.000000
 21
0.100000
 31
0.000000
  0
LINE
  8
0
 10
0.000000
 20
0.000000
 30
0.000000
 11
0.150000
 21
0.000000
 31
0.000000
  0
LINE
  8
0
 10
0.150000
 20
0.000000
 30
0.000000
 11
0.150000
 21
0.100000
 31
0.000000
  0
LINE
  8
0
 10
0.150000
 20
0.000000
 30
0.000000
 11
0.150000
 21
-0.100000
 31
0.000000
  0
LINE
  8
0
 10
0.150000
 20
0.000000
 30
0.000000
 11
0.400000
 21
0.000000
 31
0.000000
  0
LINE
  8
0
 10
0.400000
 20
0.000000
 30
0.000000
 11
0.150000
 21
0.100000
 31
0.000000
  0
LINE
  8
0
 10
0.400000
 20
0.000000
 30
0.000000
 11
0.150000
 21
-0.100000
 31
0.000000
  0
ATTDEF
  5
6
330
64
  8
0
 10
0.150000
 20
0.150000
 30
0.000000
 40
0.075000
  1
segundo
  3
primeiro
  2
NOME
 70
     0
280
0
  0
ATTDEF
  5
6
330
64
  8
0
 10
0.150000
 20
-0.225000
 30
0.000000
 40
0.075000
  1
segundo
  3
primeiro
  2
NOME
 70
     0
280
0
  0
ENDBLK
  0
BLOCK
  5
65
330
64
  8
0
  2
TOMADA_BAIXA
 70
     0
 10
0.000000
 20
0.000000
 30
0.000000
  3
TOMADA_BAIXA
  1
0
  0
LINE
  8
0
 10
0.000000
 20
-0.100000
 30
0.000000
 11
0.000000
 21
0.100000
 31
0.000000
  0
LINE
  8
0
 10
0.000000
 20
0.000000
 30
0.000000
 11
0.150000
 21
0.000000
 31
0.000000
  0
LINE
  8
0
 10
0.150000
 20
0.000000
 30
0.000000
 11
0.150000
 21
0.100000
 31
0.000000
  0
LINE
  8
0
 10
0.150000
 20
0.000000
 30
0.000000
 11
0.150000
 21
-0.100000
 31
0.000000
  0
LINE
  8
0
 10
0.400000
 20
0.000000
 30
0.000000
 11
0.150000
 21
0.100000
 31
0.000000
  0
LINE
  8
0
 10
0.400000
 20
0.000000
 30
0.000000
 11
0.150000
 21
-0.100000
 31
0.000000
  0
ATTDEF
  5
6
330
64
  8
0
 10
0.150000
 20
0.150000
 30
0.000000
 40
0.075000
  1
segundo
  3
primeiro
  2
NOME
 70
     0
280
0
  0
ATTDEF
  5
6
330
64
  8
0
 10
0.150000
 20
-0.225000
 30
0.000000
 40
0.075000
  1
segundo
  3
primeiro
  2
NOME
 70
     0
280
0
  0
LINE
  8
0
 10
0.000000
 20
-0.100000
 30
0.000000
 11
0.000000
 21
0.100000
 31
0.000000
  0
LINE
  8
0
 10
0.000000
 20
0.000000
 30
0.000000
 11
0.150000
 21
0.000000
 31
0.000000
  0
LINE
  8
0
 10
0.150000
 20
0.000000
 30
0.000000
 11
0.150000
 21
0.100000
 31
0.000000
  0
LINE
  8
0
 10
0.150000
 20
0.000000
 30
0.000000
 11
0.150000
 21
-0.100000
 31
0.000000
  0
LINE
  8
0
 10
0.400000
 20
0.000000
 30
0.000000
 11
0.150000
 21
0.100000
 31
0.000000
  0
LINE
  8
0
 10
0.400000
 20
0.000000
 30
0.000000
 11
0.150000
 21
-0.100000
 31
0.000000
  0
ATTDEF
  5
6
330
64
  8
0
 10
0.150000
 20
0.150000
 30
0.000000
 40
0.075000
  1
segundo
  3
primeiro
  2
NOME
 70
     0
280
0
  0
ATTDEF
  5
6
330
64
  8
0
 10
0.150000
 20
-0.225000
 30
0.000000
 40
0.075000
  1
segundo
  3
primeiro
  2
NOME
 70
     0
280
0
  0
ENDBLK
  0
BLOCK
  5
65
330
64
  8
0
  2
TOMADA_ALTA
 70
     0
 10
0.000000
 20
0.000000
 30
0.000000
  3
TOMADA_ALTA
  1
0
  0
LINE
  8
0
 10
0.000000
 20
-0.100000
 30
0.000000
 11
0.000000
 21
0.100000
 31
0.000000
  0
LINE
  8
0
 10
0.000000
 20
0.000000
 30
0.000000
 11
0.150000
 21
0.000000
 31
0.000000
  0
LINE
  8
0
 10
0.150000
 20
0.000000
 30
0.000000
 11
0.150000
 21
0.100000
 31
0.000000
  0
LINE
  8
0
 10
0.150000
 20
0.000000
 30
0.000000
 11
0.150000
 21
-0.100000
 31
0.000000
  0
LINE
  8
0
 10
0.400000
 20
0.000000
 30
0.000000
 11
0.150000
 21
0.100000
 31
0.000000
  0
LINE
  8
0
 10
0.400000
 20
0.000000
 30
0.000000
 11
0.150000
 21
-0.100000
 31
0.000000
  0
ATTDEF
  5
6
330
64
  8
0
 10
0.150000
 20
0.150000
 30
0.000000
 40
0.075000
  1
segundo
  3
primeiro
  2
NOME
 70
     0
280
0
  0
ATTDEF
  5
6
330
64
  8
0
 10
0.150000
 20
-0.225000
 30
0.000000
 40
0.075000
  1
segundo
  3
primeiro
  2
NOME
 70
     0
280
0
  0
LINE
  8
0
 10
0.000000
 20
-0.100000
 30
0.000000
 11
0.000000
 21
0.100000
 31
0.000000
  0
LINE
  8
0
 10
0.000000
 20
0.000000
 30
0.000000
 11
0.150000
 21
0.000000
 31
0.000000
  0
LINE
  8
0
 10
0.150000
 20
0.000000
 30
0.000000
 11
0.150000
 21
0.100000
 31
0.000000
  0
LINE
  8
0
 10
0.150000
 20
0.000000
 30
0.000000
 11
0.150000
 21
-0.100000
 31
0.000000
  0
LINE
  8
0
 10
0.400000
 20
0.000000
 30
0.000000
 11
0.150000
 21
0.100000
 31
0.000000
  0
LINE
  8
0
 10
0.400000
 20
0.000000
 30
0.000000
 11
0.150000
 21
-0.100000
 31
0.000000
  0
ATTDEF
  5
6
330
64
  8
0
 10
0.150000
 20
0.150000
 30
0.000000
 40
0.075000
  1
segundo
  3
primeiro
  2
NOME
 70
     0
280
0
  0
ATTDEF
  5
6
330
64
  8
0
 10
0.150000
 20
-0.225000
 30
0.000000
 40
0.075000
  1
segundo
  3
primeiro
  2
NOME
 70
     0
280
0
  0
ENDBLK
  0
BLOCK
  5
65
330
64
  8
0
  2
FASE_NEUTRO_TERRA
 70
     0
 10
0.000000
 20
0.000000
 30
0.000000
  3
FASE_NEUTRO_TERRA
  1
0
  0
LINE
  8
0
 10
-0.150000
 20
-0.150000
 30
0.000000
 11
-0.150000
 21
0.150000
 31
0.000000
  0
LINE
  8
0
 10
0.000000
 20
-0.150000
 30
0.000000
 11
0.000000
 21
0.150000
 31
0.000000
  0
LINE
  8
0
 10
0.150000
 20
0.000000
 30
0.000000
 11
0.150000
 21
0.150000
 31
0.000000
  0
LINE
  8
0
 10
0.000000
 20
0.150000
 30
0.000000
 11
-0.080000
 21
0.150000
 31
0.000000
  0
LINE
  8
0
 10
0.150000
 20
0.150000
 30
0.000000
 11
0.075000
 21
0.150000
 31
0.000000
  0
LINE
  8
0
 10
0.150000
 20
0.150000
 30
0.000000
 11
0.225000
 21
0.150000
 31
0.000000
  0
ATTDEF
  5
6
330
64
  8
0
 10
0.655000
 20
0.201000
 30
0.000000
 40
0.075000
  1
segundo
  3
primeiro
  2
NOME
 70
     0
280
0
  0
LINE
  8
0
 10
-0.150000
 20
-0.150000
 30
0.000000
 11
-0.150000
 21
0.150000
 31
0.000000
  0
LINE
  8
0
 10
0.000000
 20
-0.150000
 30
0.000000
 11
0.000000
 21
0.150000
 31
0.000000
  0
LINE
  8
0
 10
0.150000
 20
0.000000
 30
0.000000
 11
0.150000
 21
0.150000
 31
0.000000
  0
LINE
  8
0
 10
0.000000
 20
0.150000
 30
0.000000
 11
-0.080000
 21
0.150000
 31
0.000000
  0
LINE
  8
0
 10
0.150000
 20
0.150000
 30
0.000000
 11
0.075000
 21
0.150000
 31
0.000000
  0
LINE
  8
0
 10
0.150000
 20
0.150000
 30
0.000000
 11
0.225000
 21
0.150000
 31
0.000000
  0
ATTDEF
  5
6
330
64
  8
0
 10
0.655000
 20
0.201000
 30
0.000000
 40
0.075000
  1
segundo
  3
primeiro
  2
NOME
 70
     0
280
0
  0
ENDBLK
  0
BLOCK
  5
65
330
64
  8
0
  2
FASE_NEUTRO
 70
     0
 10
0.000000
 20
0.000000
 30
0.000000
  3
FASE_NEUTRO
  1
0
  0
LINE
  8
0
 10
-0.070000
 20
-0.150000
 30
0.000000
 11
-0.070000
 21
0.150000
 31
0.000000
  0
LINE
  8
0
 10
0.080000
 20
-0.150000
 30
0.000000
 11
0.080000
 21
0.150000
 31
0.000000
  0
LINE
  8
0
 10
0.080000
 20
0.150000
 30
0.000000
 11
0.000000
 21
0.150000
 31
0.000000
  0
ATTDEF
  5
6
330
64
  8
0
 10
0.047000
 20
0.201000
 30
0.000000
 40
0.075000
  1
segundo
  3
primeiro
  2
NOME
 70
     0
280
0
  0
LINE
  8
0
 10
-0.070000
 20
-0.150000
 30
0.000000
 11
-0.070000
 21
0.150000
 31
0.000000
  0
LINE
  8
0
 10
0.080000
 20
-0.150000
 30
0.000000
 11
0.080000
 21
0.150000
 31
0.000000
  0
LINE
  8
0
 10
0.080000
 20
0.150000
 30
0.000000
 11
0.000000
 21
0.150000
 31
0.000000
  0
ATTDEF
  5
6
330
64
  8
0
 10
0.047000
 20
0.201000
 30
0.000000
 40
0.075000
  1
segundo
  3
primeiro
  2
NOME
 70
     0
280
0
  0
ENDBLK
  0
BLOCK
  5
65
330
64
  8
0
  2
FASE_RETORNO
 70
     0
 10
0.000000
 20
0.000000
 30
0.000000
  3
FASE_RETORNO
  1
0
  0
LINE
  8
0
 10
-0.081000
 20
-0.150000
 30
0.000000
 11
-0.081000
 21
0.150000
 31
0.000000
  0
LINE
  8
0
 10
0.068000
 20
0.000000
 30
0.000000
 11
0.068000
 21
0.150000
 31
0.000000
  0
ATTDEF
  5
6
330
64
  8
0
 10
-0.752000
 20
0.201000
 30
0.000000
 40
0.075000
  1
segundo
  3
primeiro
  2
NOME
 70
     0
280
0
  0
ATTDEF
  5
6
330
64
  8
0
 10
-0.608000
 20
0.201000
 30
0.000000
 40
0.075000
  1
segundo
  3
primeiro
  2
NOME
 70
     0
280
0
  0
LINE
  8
0
 10
-0.081000
 20
-0.150000
 30
0.000000
 11
-0.081000
 21
0.150000
 31
0.000000
  0
LINE
  8
0
 10
0.068000
 20
0.000000
 30
0.000000
 11
0.068000
 21
0.150000
 31
0.000000
  0
ATTDEF
  5
6
330
64
  8
0
 10
-0.752000
 20
0.201000
 30
0.000000
 40
0.075000
  1
segundo
  3
primeiro
  2
NOME
 70
     0
280
0
  0
ATTDEF
  5
6
330
64
  8
0
 10
-0.608000
 20
0.201000
 30
0.000000
 40
0.075000
  1
segundo
  3
primeiro
  2
NOME
 70
     0
280
0
  0
ENDBLK
  0
BLOCK
  5
65
330
64
  8
0
  2
FASE_PARALELO
 70
     0
 10
0.000000
 20
0.000000
 30
0.000000
  3
FASE_PARALELO
  1
0
  0
LINE
  8
0
 10
-0.150000
 20
-0.150000
 30
0.000000
 11
-0.150000
 21
0.150000
 31
0.000000
  0
LINE
  8
0
 10
0.000000
 20
0.000000
 30
0.000000
 11
0.000000
 21
0.150000
 31
0.000000
  0
LINE
  8
0
 10
0.150000
 20
0.000000
 30
0.000000
 11
0.150000
 21
0.150000
 31
0.000000
  0
ATTDEF
  5
6
330
64
  8
0
 10
-0.007000
 20
0.201000
 30
0.000000
 40
0.075000
  1
segundo
  3
primeiro
  2
NOME
 70
     0
280
0
  0
LINE
  8
0
 10
-0.150000
 20
-0.150000
 30
0.000000
 11
-0.150000
 21
0.150000
 31
0.000000
  0
LINE
  8
0
 10
0.000000
 20
0.000000
 30
0.000000
 11
0.000000
 21
0.150000
 31
0.000000
  0
LINE
  8
0
 10
0.150000
 20
0.000000
 30
0.000000
 11
0.150000
 21
0.150000
 31
0.000000
  0
ATTDEF
  5
6
330
64
  8
0
 10
-0.007000
 20
0.201000
 30
0.000000
 40
0.075000
  1
segundo
  3
primeiro
  2
NOME
 70
     0
280
0
  0
ENDBLK
  0
BLOCK
  5
65
330
64
  8
0
  2
RETORNO_PARALELO
 70
     0
 10
0.000000
 20
0.000000
 30
0.000000
  3
RETORNO_PARALELO
  1
0
  0
LINE
  8
0
 10
-0.150000
 20
0.000000
 30
0.000000
 11
-0.150000
 21
0.150000
 31
0.000000
  0
LINE
  8
0
 10
0.000000
 20
0.000000
 30
0.000000
 11
0.000000
 21
0.150000
 31
0.000000
  0
LINE
  8
0
 10
0.150000
 20
0.000000
 30
0.000000
 11
0.150000
 21
0.150000
 31
0.000000
  0
ATTDEF
  5
6
330
64
  8
0
 10
-0.013000
 20
0.201000
 30
0.000000
 40
0.075000
  1
segundo
  3
primeiro
  2
NOME
 70
     0
280
0
  0
LINE
  8
0
 10
-0.150000
 20
0.000000
 30
0.000000
 11
-0.150000
 21
0.150000
 31
0.000000
  0
LINE
  8
0
 10
0.000000
 20
0.000000
 30
0.000000
 11
0.000000
 21
0.150000
 31
0.000000
  0
LINE
  8
0
 10
0.150000
 20
0.000000
 30
0.000000
 11
0.150000
 21
0.150000
 31
0.000000
  0
ATTDEF
  5
6
330
64
  8
0
 10
-0.013000
 20
0.201000
 30
0.000000
 40
0.075000
  1
segundo
  3
primeiro
  2
NOME
 70
     0
280
0
  0
ENDBLK
  0
BLOCK
  5
65
330
64
  8
0
  2
MeuBloco
 70
     0
 10
0.000000
 20
0.000000
 30
0.000000
  3
MeuBloco
  1
0
  0
LINE
  8
0
 10
0.000000
 20
0.000000
 30
0.000000
 11
0.000000
 21
0.500000
 31
0.000000
  0
LINE
  8
0
 10
0.000000
 20
0.500000
 30
0.000000
 11
0.500000
 21
0.500000
 31
0.000000
  0
ATTDEF
  5
6
330
64
  8
0
 10
0.000000
 20
0.587000
 30
0.000000
 40
0.125000
  1
segundo
  3
primeiro
  2
NOME
 70
     0
280
0
  0
ATTDEF
  5
6
330
64
  8
0
 10
0.182000
 20
0.229000
 30
0.000000
 40
0.125000
  1
segundo
  3
primeiro
  2
NOME
 70
     1
280
0
  0
LINE
  8
0
 10
0.000000
 20
0.000000
 30
0.000000
 11
0.000000
 21
0.500000
 31
0.000000
  0
LINE
  8
0
 10
0.000000
 20
0.500000
 30
0.000000
 11
0.500000
 21
0.500000
 31
0.000000
  0
ATTDEF
  5
6
330
64
  8
0
 10
0.000000
 20
0.587000
 30
0.000000
 40
0.125000
  1
segundo
  3
primeiro
  2
NOME
 70
     0
280
0
  0
ATTDEF
  5
6
330
64
  8
0
 10
0.182000
 20
0.229000
 30
0.000000
 40
0.125000
  1
segundo
  3
primeiro
  2
NOME
 70
     1
280
0
  0
ENDBLK
  0
ENDSEC
  0
SECTION
  2
ENTITIES
  0
LINE
  8

 10
10.000000
 20
5.150000
 30
0.000000
 11
10.000000
 21
8.850000
 31
0.000000
  0
LINE
  8

 10
5.150000
 20
5.150000
 30
0.000000
 11
5.150000
 21
8.850000
 31
0.000000
  0
LINE
  8

 10
5.000000
 20
5.000000
 30
0.000000
 11
5.000000
 21
9.850000
 31
0.000000
  0
LINE
  8

 10
8.038338
 20
5.000000
 30
0.000000
 11
5.000000
 21
5.000000
 31
0.000000
  0
LINE
  8

 10
7.150000
 20
5.150000
 30
0.000000
 11
5.150000
 21
5.150000
 31
0.000000
  0
LINE
  8

 10
11.884688
 20
5.000000
 30
0.000000
 11
7.927157
 21
5.000000
 31
0.000000
  0
LINE
  8

 10
10.000000
 20
5.150000
 30
0.000000
 11
7.908733
 21
5.150000
 31
0.000000
  0
LINE
  8

 10
8.038338
 20
5.150000
 30
0.000000
 11
7.300000
 21
5.150000
 31
0.000000
  0
LINE
  8

 10
7.300000
 20
5.250000
 30
0.000000
 11
7.150000
 21
5.250000
 31
0.000000
  0
LINE
  8

 10
7.150000
 20
5.250000
 30
0.000000
 11
7.150000
 21
5.150000
 31
0.000000
  0
LINE
  8

 10
7.300000
 20
5.250000
 30
0.000000
 11
7.300000
 21
5.150000
 31
0.000000
  0
LINE
  8

 10
8.038338
 20
5.000000
 30
0.000000
 11
8.038338
 21
5.150000
 31
0.000000
  0
LINE
  8

 10
11.884688
 20
5.150000
 30
0.000000
 11
10.150000
 21
5.150000
 31
0.000000
  0
LINE
  8

 10
9.238338
 20
5.000000
 30
0.000000
 11
9.238338
 21
5.150000
 31
0.000000
  0
LINE
  8

 10
11.884688
 20
5.000000
 30
0.000000
 11
11.884688
 21
5.150000
 31
0.000000
  0
LINE
  8

 10
15.217188
 20
5.150000
 30
0.000000
 11
13.084688
 21
5.150000
 31
0.000000
  0
LINE
  8

 10
15.217188
 20
5.000000
 30
0.000000
 11
13.084688
 21
5.000000
 31
0.000000
  0
LINE
  8

 10
13.084688
 20
5.000000
 30
0.000000
 11
13.084688
 21
5.150000
 31
0.000000
  0
LINE
  8

 10
15.217188
 20
5.000000
 30
0.000000
 11
15.217188
 21
5.150000
 31
0.000000
  0
LINE
  8

 10
16.417188
 20
5.000000
 30
0.000000
 11
16.417188
 21
5.150000
 31
0.000000
  0
LINE
  8

 10
5.150000
 20
8.850000
 30
0.000000
 11
6.300000
 21
8.850000
 31
0.000000
  0
LINE
  8

 10
5.150000
 20
9.000000
 30
0.000000
 11
8.350000
 21
9.000000
 31
0.000000
  0
LINE
  8

 10
5.150000
 20
12.850000
 30
0.000000
 11
6.240938
 21
12.850000
 31
0.000000
  0
LINE
  8

 10
5.000000
 20
13.000000
 30
0.000000
 11
6.240938
 21
13.000000
 31
0.000000
  0
LINE
  8

 10
5.000000
 20
11.850000
 30
0.000000
 11
5.000000
 21
13.000000
 31
0.000000
  0
LINE
  8

 10
5.150000
 20
11.850000
 30
0.000000
 11
5.150000
 21
12.850000
 31
0.000000
  0
LINE
  8

 10
5.150000
 20
9.000000
 30
0.000000
 11
5.150000
 21
9.850000
 31
0.000000
  0
LINE
  8

 10
16.415625
 20
12.850000
 30
0.000000
 11
16.415625
 21
10.150000
 31
0.000000
  0
LINE
  8

 10
16.255625
 20
12.850000
 30
0.000000
 11
16.255625
 21
10.150000
 31
0.000000
  0
LINE
  8

 10
13.292501
 20
12.850000
 30
0.000000
 11
13.292501
 21
10.150000
 31
0.000000
  0
LINE
  8

 10
13.142501
 20
12.850000
 30
0.000000
 11
13.142501
 21
10.150000
 31
0.000000
  0
LINE
  8

 10
10.350000
 20
12.850000
 30
0.000000
 11
10.350000
 21
10.150000
 31
0.000000
  0
LINE
  8

 10
10.200000
 20
12.850000
 30
0.000000
 11
10.200000
 21
10.150000
 31
0.000000
  0
LINE
  8

 10
8.500000
 20
12.850000
 30
0.000000
 11
8.500000
 21
10.150000
 31
0.000000
  0
LINE
  8

 10
8.350000
 20
12.850000
 30
0.000000
 11
8.350000
 21
9.900000
 31
0.000000
  0
LINE
  8

 10
9.950878
 20
9.000000
 30
0.000000
 11
11.950313
 21
9.000000
 31
0.000000
  0
LINE
  8

 10
11.250000
 20
10.000000
 30
0.000000
 11
13.392501
 21
10.000000
 31
0.000000
  0
LINE
  8

 10
11.250000
 20
10.150000
 30
0.000000
 11
13.142501
 21
10.150000
 31
0.000000
  0
LINE
  8

 10
10.150000
 20
8.850000
 30
0.000000
 11
11.950313
 21
8.850000
 31
0.000000
  0
LINE
  8

 10
6.300000
 20
8.333296
 30
0.000000
 11
6.300000
 21
6.805010
 31
0.000000
  0
LINE
  8

 10
6.450000
 20
8.333296
 30
0.000000
 11
6.450000
 21
6.805010
 31
0.000000
  0
LINE
  8

 10
7.150000
 20
6.150000
 30
0.000000
 11
7.150000
 21
6.050000
 31
0.000000
  0
LINE
  8

 10
7.300000
 20
6.300000
 30
0.000000
 11
7.300000
 21
6.050000
 31
0.000000
  0
LINE
  8

 10
7.300000
 20
6.050000
 30
0.000000
 11
7.150000
 21
6.050000
 31
0.000000
  0
LINE
  8

 10
6.300000
 20
6.150000
 30
0.000000
 11
7.150000
 21
6.150000
 31
0.000000
  0
LINE
  8

 10
6.450000
 20
6.300000
 30
0.000000
 11
7.300000
 21
6.300000
 31
0.000000
  0
LINE
  8

 10
6.450000
 20
6.405010
 30
0.000000
 11
6.300000
 21
6.405010
 31
0.000000
  0
LINE
  8

 10
6.450000
 20
6.805010
 30
0.000000
 11
6.300000
 21
6.805010
 31
0.000000
  0
LINE
  8

 10
6.300000
 20
6.405010
 30
0.000000
 11
6.300000
 21
6.150000
 31
0.000000
  0
LINE
  8

 10
6.450000
 20
6.405010
 30
0.000000
 11
6.450000
 21
6.300000
 31
0.000000
  0
LINE
  8

 10
6.450000
 20
8.333296
 30
0.000000
 11
6.300000
 21
8.333296
 31
0.000000
  0
LINE
  8

 10
6.450000
 20
8.850000
 30
0.000000
 11
9.150878
 21
8.850000
 31
0.000000
  0
LINE
  8

 10
8.500000
 20
9.000000
 30
0.000000
 11
9.150878
 21
9.000000
 31
0.000000
  0
LINE
  8

 10
6.450000
 20
8.733296
 30
0.000000
 11
6.300000
 21
8.733296
 31
0.000000
  0
LINE
  8

 10
6.450000
 20
8.850000
 30
0.000000
 11
6.450000
 21
8.733296
 31
0.000000
  0
LINE
  8

 10
6.300000
 20
8.850000
 30
0.000000
 11
6.300000
 21
8.733296
 31
0.000000
  0
LINE
  8

 10
8.350000
 20
9.100000
 30
0.000000
 11
8.500000
 21
9.100000
 31
0.000000
  0
LINE
  8

 10
8.500000
 20
9.100000
 30
0.000000
 11
8.500000
 21
9.000000
 31
0.000000
  0
LINE
  8

 10
8.350000
 20
9.100000
 30
0.000000
 11
8.350000
 21
9.000000
 31
0.000000
  0
LINE
  8

 10
8.350000
 20
9.900000
 30
0.000000
 11
8.500000
 21
9.900000
 31
0.000000
  0
LINE
  8

 10
8.600000
 20
10.150000
 30
0.000000
 11
8.600000
 21
10.000000
 31
0.000000
  0
LINE
  8

 10
8.500000
 20
10.000000
 30
0.000000
 11
8.500000
 21
9.900000
 31
0.000000
  0
LINE
  8

 10
8.500000
 20
10.000000
 30
0.000000
 11
8.600000
 21
10.000000
 31
0.000000
  0
LINE
  8

 10
8.500000
 20
10.150000
 30
0.000000
 11
8.601334
 21
10.150000
 31
0.000000
  0
LINE
  8

 10
9.150878
 20
8.850000
 30
0.000000
 11
9.150878
 21
9.000000
 31
0.000000
  0
LINE
  8

 10
9.950878
 20
8.850000
 30
0.000000
 11
9.950878
 21
9.000000
 31
0.000000
  0
LINE
  8

 10
9.950878
 20
8.850000
 30
0.000000
 11
10.000000
 21
8.850000
 31
0.000000
  0
LINE
  8

 10
9.198161
 20
10.150000
 30
0.000000
 11
10.200000
 21
10.150000
 31
0.000000
  0
LINE
  8

 10
9.200000
 20
10.000000
 30
0.000000
 11
10.450000
 21
10.000000
 31
0.000000
  0
LINE
  8

 10
9.200000
 20
10.150000
 30
0.000000
 11
9.200000
 21
10.000000
 31
0.000000
  0
LINE
  8

 10
10.450000
 20
10.150000
 30
0.000000
 11
10.450000
 21
10.000000
 31
0.000000
  0
LINE
  8

 10
10.350000
 20
10.150000
 30
0.000000
 11
10.450000
 21
10.150000
 31
0.000000
  0
LINE
  8

 10
11.250000
 20
10.150000
 30
0.000000
 11
11.250000
 21
10.000000
 31
0.000000
  0
LINE
  8

 10
14.192218
 20
10.150000
 30
0.000000
 11
16.255625
 21
10.150000
 31
0.000000
  0
LINE
  8

 10
14.192501
 20
10.000000
 30
0.000000
 11
16.515625
 21
10.000000
 31
0.000000
  0
LINE
  8

 10
13.292501
 20
10.150000
 30
0.000000
 11
13.392348
 21
10.150000
 31
0.000000
  0
LINE
  8

 10
11.950313
 20
8.850000
 30
0.000000
 11
11.950313
 21
9.000000
 31
0.000000
  0
LINE
  8

 10
12.750313
 20
8.850000
 30
0.000000
 11
12.750313
 21
9.000000
 31
0.000000
  0
LINE
  8

 10
13.392501
 20
10.150000
 30
0.000000
 11
13.392501
 21
10.000000
 31
0.000000
  0
LINE
  8

 10
14.192501
 20
10.150000
 30
0.000000
 11
14.192501
 21
10.000000
 31
0.000000
  0
LINE
  8

 10
16.515625
 20
10.150000
 30
0.000000
 11
16.515625
 21
10.000000
 31
0.000000
  0
LINE
  8

 10
16.415625
 20
10.150000
 30
0.000000
 11
16.515625
 21
10.150000
 31
0.000000
  0
LINE
  8

 10
17.115625
 20
10.150000
 30
0.000000
 11
17.115625
 21
10.000000
 31
0.000000
  0
LINE
  8

 10
7.440938
 20
12.850000
 30
0.000000
 11
8.350000
 21
12.850000
 31
0.000000
  0
LINE
  8

 10
7.440938
 20
13.000000
 30
0.000000
 11
8.986563
 21
13.000000
 31
0.000000
  0
LINE
  8

 10
6.240938
 20
13.000000
 30
0.000000
 11
6.240938
 21
12.850000
 31
0.000000
  0
LINE
  8

 10
7.440938
 20
13.000000
 30
0.000000
 11
7.440938
 21
12.850000
 31
0.000000
  0
LINE
  8

 10
8.986563
 20
12.850000
 30
0.000000
 11
8.986563
 21
13.000000
 31
0.000000
  0
LINE
  8

 10
8.500000
 20
12.850000
 30
0.000000
 11
8.986563
 21
12.850000
 31
0.000000
  0
LINE
  8

 10
9.586563
 20
13.000000
 30
0.000000
 11
10.970938
 21
13.000000
 31
0.000000
  0
LINE
  8

 10
10.350000
 20
12.850000
 30
0.000000
 11
10.970938
 21
12.850000
 31
0.000000
  0
LINE
  8

 10
9.586563
 20
12.850000
 30
0.000000
 11
10.200000
 21
12.850000
 31
0.000000
  0
LINE
  8

 10
9.586563
 20
12.850000
 30
0.000000
 11
9.586563
 21
13.000000
 31
0.000000
  0
LINE
  8

 10
10.970938
 20
12.850000
 30
0.000000
 11
10.970938
 21
13.000000
 31
0.000000
  0
LINE
  8

 10
13.292501
 20
12.850000
 30
0.000000
 11
14.222813
 21
12.850000
 31
0.000000
  0
LINE
  8

 10
12.170938
 20
13.000000
 30
0.000000
 11
14.222813
 21
13.000000
 31
0.000000
  0
LINE
  8

 10
12.170938
 20
12.850000
 30
0.000000
 11
13.142501
 21
12.850000
 31
0.000000
  0
LINE
  8

 10
12.170938
 20
12.850000
 30
0.000000
 11
12.170938
 21
13.000000
 31
0.000000
  0
LINE
  8

 10
14.222813
 20
12.850000
 30
0.000000
 11
14.222813
 21
13.000000
 31
0.000000
  0
LINE
  8

 10
15.422813
 20
13.000000
 30
0.000000
 11
16.968438
 21
13.000000
 31
0.000000
  0
LINE
  8

 10
15.422813
 20
12.850000
 30
0.000000
 11
16.255625
 21
12.850000
 31
0.000000
  0
LINE
  8

 10
15.422813
 20
12.850000
 30
0.000000
 11
15.422813
 21
13.000000
 31
0.000000
  0
LINE
  8

 10
16.415625
 20
12.850000
 30
0.000000
 11
16.968438
 21
12.850000
 31
0.000000
  0
LINE
  8

 10
16.968438
 20
12.850000
 30
0.000000
 11
16.968438
 21
13.000000
 31
0.000000
  0
LINE
  8

 10
17.568438
 20
12.850000
 30
0.000000
 11
17.568438
 21
13.000000
 31
0.000000
  0
LINE
  8

 10
18.200000
 20
6.144207
 30
0.000000
 11
18.200000
 21
5.150000
 31
0.000000
  0
LINE
  8

 10
18.050000
 20
6.144207
 30
0.000000
 11
18.050000
 21
5.150000
 31
0.000000
  0
LINE
  8

 10
21.000000
 20
7.500000
 30
0.000000
 11
21.000000
 21
5.000000
 31
0.000000
  0
LINE
  8

 10
20.850000
 20
7.000000
 30
0.000000
 11
20.850000
 21
5.150000
 31
0.000000
  0
LINE
  8

 10
20.850000
 20
5.150000
 30
0.000000
 11
18.200000
 21
5.150000
 31
0.000000
  0
LINE
  8

 10
18.200000
 20
12.850000
 30
0.000000
 11
18.200000
 21
10.150000
 31
0.000000
  0
LINE
  8

 10
18.050000
 20
12.850000
 30
0.000000
 11
18.050000
 21
10.150000
 31
0.000000
  0
LINE
  8

 10
26.350000
 20
12.850000
 30
0.000000
 11
26.350000
 21
7.650000
 31
0.000000
  0
LINE
  8

 10
20.850000
 20
12.850000
 30
0.000000
 11
20.850000
 21
10.150000
 31
0.000000
  0
LINE
  8

 10
21.000000
 20
12.850000
 30
0.000000
 11
21.000000
 21
9.907623
 31
0.000000
  0
LINE
  8

 10
26.500000
 20
13.000000
 30
0.000000
 11
26.500000
 21
7.500000
 31
0.000000
  0
LINE
  8

 10
26.350000
 20
7.650000
 30
0.000000
 11
21.000000
 21
7.650000
 31
0.000000
  0
LINE
  8

 10
26.500000
 20
7.500000
 30
0.000000
 11
21.000000
 21
7.500000
 31
0.000000
  0
LINE
  8

 10
21.000000
 20
9.103383
 30
0.000000
 11
21.000000
 21
7.650000
 31
0.000000
  0
LINE
  8

 10
20.850000
 20
9.103383
 30
0.000000
 11
20.850000
 21
7.150000
 31
0.000000
  0
LINE
  8

 10
18.200000
 20
9.000000
 30
0.000000
 11
18.200000
 21
8.716688
 31
0.000000
  0
LINE
  8

 10
18.050000
 20
8.850000
 30
0.000000
 11
18.050000
 21
8.716688
 31
0.000000
  0
LINE
  8

 10
20.287188
 20
7.150000
 30
0.000000
 11
20.850000
 21
7.150000
 31
0.000000
  0
LINE
  8

 10
20.287188
 20
7.000000
 30
0.000000
 11
20.850000
 21
7.000000
 31
0.000000
  0
LINE
  8

 10
18.050000
 20
7.916688
 30
0.000000
 11
18.050000
 21
6.944207
 31
0.000000
  0
LINE
  8

 10
18.200000
 20
7.000000
 30
0.000000
 11
18.200000
 21
6.944207
 31
0.000000
  0
LINE
  8

 10
18.050000
 20
6.944207
 30
0.000000
 11
18.200000
 21
6.944207
 31
0.000000
  0
LINE
  8

 10
18.050000
 20
6.144207
 30
0.000000
 11
18.200000
 21
6.144207
 31
0.000000
  0
LINE
  8

 10
18.200000
 20
7.150000
 30
0.000000
 11
19.087188
 21
7.150000
 31
0.000000
  0
LINE
  8

 10
18.200000
 20
7.000000
 30
0.000000
 11
19.087188
 21
7.000000
 31
0.000000
  0
LINE
  8

 10
18.200000
 20
7.916688
 30
0.000000
 11
18.200000
 21
7.150000
 31
0.000000
  0
LINE
  8

 10
18.050000
 20
8.716688
 30
0.000000
 11
18.200000
 21
8.716688
 31
0.000000
  0
LINE
  8

 10
18.050000
 20
7.916688
 30
0.000000
 11
18.200000
 21
7.916688
 31
0.000000
  0
LINE
  8

 10
19.087188
 20
7.000000
 30
0.000000
 11
19.087188
 21
7.150000
 31
0.000000
  0
LINE
  8

 10
20.287188
 20
7.000000
 30
0.000000
 11
20.287188
 21
7.150000
 31
0.000000
  0
LINE
  8

 10
18.200000
 20
10.150000
 30
0.000000
 11
19.949000
 21
10.150000
 31
0.000000
  0
LINE
  8

 10
18.200000
 20
10.000000
 30
0.000000
 11
19.953324
 21
10.000000
 31
0.000000
  0
LINE
  8

 10
19.950000
 20
10.150000
 30
0.000000
 11
19.950000
 21
10.000000
 31
0.000000
  0
LINE
  8

 10
20.850000
 20
9.103383
 30
0.000000
 11
21.000000
 21
9.103383
 31
0.000000
  0
LINE
  8

 10
20.850000
 20
9.903383
 30
0.000000
 11
21.000000
 21
9.903383
 31
0.000000
  0
LINE
  8

 10
20.749842
 20
10.000000
 30
0.000000
 11
20.850000
 21
10.000000
 31
0.000000
  0
LINE
  8

 10
20.750018
 20
10.150000
 30
0.000000
 11
20.850000
 21
10.150000
 31
0.000000
  0
LINE
  8

 10
20.750000
 20
10.150000
 30
0.000000
 11
20.750000
 21
10.000000
 31
0.000000
  0
LINE
  8

 10
20.850000
 20
10.000000
 30
0.000000
 11
20.850000
 21
9.903325
 31
0.000000
  0
LINE
  8

 10
19.830313
 20
13.000000
 30
0.000000
 11
24.274063
 21
13.000000
 31
0.000000
  0
LINE
  8

 10
21.000000
 20
12.850000
 30
0.000000
 11
24.274063
 21
12.850000
 31
0.000000
  0
LINE
  8

 10
19.830313
 20
12.850000
 30
0.000000
 11
20.850000
 21
12.850000
 31
0.000000
  0
LINE
  8

 10
18.200000
 20
12.850000
 30
0.000000
 11
18.630313
 21
12.850000
 31
0.000000
  0
LINE
  8

 10
18.630313
 20
12.850000
 30
0.000000
 11
18.630313
 21
13.000000
 31
0.000000
  0
LINE
  8

 10
19.830313
 20
12.850000
 30
0.000000
 11
19.830313
 21
13.000000
 31
0.000000
  0
LINE
  8

 10
25.474063
 20
13.000000
 30
0.000000
 11
26.500000
 21
13.000000
 31
0.000000
  0
LINE
  8

 10
25.474063
 20
12.850000
 30
0.000000
 11
26.350000
 21
12.850000
 31
0.000000
  0
LINE
  8

 10
24.274063
 20
12.850000
 30
0.000000
 11
24.274063
 21
13.000000
 31
0.000000
  0
LINE
  8

 10
25.474063
 20
12.850000
 30
0.000000
 11
25.474063
 21
13.000000
 31
0.000000
  0
LINE
  8

 10
20.750000
 20
10.950000
 30
0.000000
 11
20.710000
 21
10.950000
 31
0.000000
  0
LINE
  8

 10
10.970938
 20
12.925000
 30
0.000000
 11
12.170938
 21
12.925000
 31
0.000000
  0
LINE
  8

 10
10.970938
 20
13.000000
 30
0.000000
 11
12.170938
 21
13.000000
 31
0.000000
  0
LINE
  8

 10
10.970938
 20
12.850000
 30
0.000000
 11
12.170938
 21
12.850000
 31
0.000000
  0
LINE
  8

 10
8.986563
 20
12.925000
 30
0.000000
 11
9.586563
 21
12.925000
 31
0.000000
  0
LINE
  8

 10
8.986563
 20
13.000000
 30
0.000000
 11
9.586563
 21
13.000000
 31
0.000000
  0
LINE
  8

 10
8.986563
 20
12.850000
 30
0.000000
 11
9.586563
 21
12.850000
 31
0.000000
  0
LINE
  8

 10
14.222813
 20
12.925000
 30
0.000000
 11
15.422813
 21
12.925000
 31
0.000000
  0
LINE
  8

 10
14.222813
 20
13.000000
 30
0.000000
 11
15.422813
 21
13.000000
 31
0.000000
  0
LINE
  8

 10
14.222813
 20
12.850000
 30
0.000000
 11
15.422813
 21
12.850000
 31
0.000000
  0
LINE
  8

 10
16.968438
 20
12.925000
 30
0.000000
 11
17.568438
 21
12.925000
 31
0.000000
  0
LINE
  8

 10
16.968438
 20
13.000000
 30
0.000000
 11
17.568438
 21
13.000000
 31
0.000000
  0
LINE
  8

 10
16.968438
 20
12.850000
 30
0.000000
 11
17.568438
 21
12.850000
 31
0.000000
  0
LINE
  8

 10
18.630313
 20
12.925000
 30
0.000000
 11
19.830313
 21
12.925000
 31
0.000000
  0
LINE
  8

 10
18.630313
 20
13.000000
 30
0.000000
 11
19.830313
 21
13.000000
 31
0.000000
  0
LINE
  8

 10
18.630313
 20
12.850000
 30
0.000000
 11
19.830313
 21
12.850000
 31
0.000000
  0
LINE
  8

 10
11.884688
 20
5.075000
 30
0.000000
 11
13.084688
 21
5.075000
 31
0.000000
  0
LINE
  8

 10
11.884688
 20
5.150000
 30
0.000000
 11
13.084688
 21
5.150000
 31
0.000000
  0
LINE
  8

 10
11.884688
 20
5.000000
 30
0.000000
 11
13.084688
 21
5.000000
 31
0.000000
  0
LINE
  8

 10
8.038338
 20
5.075000
 30
0.000000
 11
9.238338
 21
5.075000
 31
0.000000
  0
LINE
  8

 10
8.038338
 20
5.150000
 30
0.000000
 11
9.238338
 21
5.150000
 31
0.000000
  0
LINE
  8

 10
8.038338
 20
5.000000
 30
0.000000
 11
9.238338
 21
5.000000
 31
0.000000
  0
LINE
  8

 10
15.217188
 20
5.075000
 30
0.000000
 11
16.417188
 21
5.075000
 31
0.000000
  0
LINE
  8

 10
15.217188
 20
5.150000
 30
0.000000
 11
16.417188
 21
5.150000
 31
0.000000
  0
LINE
  8

 10
15.217188
 20
5.000000
 30
0.000000
 11
16.417188
 21
5.000000
 31
0.000000
  0
LINE
  8

 10
19.087188
 20
7.075000
 30
0.000000
 11
20.287188
 21
7.075000
 31
0.000000
  0
LINE
  8

 10
19.087188
 20
7.150000
 30
0.000000
 11
20.287188
 21
7.150000
 31
0.000000
  0
LINE
  8

 10
19.087188
 20
7.000000
 30
0.000000
 11
20.287188
 21
7.000000
 31
0.000000
  0
LINE
  8

 10
6.375000
 20
8.333296
 30
0.000000
 11
6.375000
 21
8.733296
 31
0.000000
  0
LINE
  8

 10
6.300000
 20
8.333296
 30
0.000000
 11
6.300000
 21
8.733296
 31
0.000000
  0
LINE
  8

 10
6.450000
 20
8.333296
 30
0.000000
 11
6.450000
 21
8.733296
 31
0.000000
  0
LINE
  8

 10
6.375000
 20
6.405010
 30
0.000000
 11
6.375000
 21
6.805010
 31
0.000000
  0
LINE
  8

 10
6.300000
 20
6.405010
 30
0.000000
 11
6.300000
 21
6.805010
 31
0.000000
  0
LINE
  8

 10
6.450000
 20
6.405010
 30
0.000000
 11
6.450000
 21
6.805010
 31
0.000000
  0
LINE
  8

 10
24.274063
 20
12.925000
 30
0.000000
 11
25.474063
 21
12.925000
 31
0.000000
  0
LINE
  8

 10
24.274063
 20
13.000000
 30
0.000000
 11
25.474063
 21
13.000000
 31
0.000000
  0
LINE
  8

 10
24.274063
 20
12.850000
 30
0.000000
 11
25.474063
 21
12.850000
 31
0.000000
  0
LINE
  8

 10
10.200000
 20
10.954301
 30
0.000000
 11
10.200000
 21
10.400549
 31
0.000000
  0
LINE
  8

 10
10.200000
 20
10.400549
 30
0.000000
 11
10.138752
 21
10.400549
 31
0.000000
  0
LINE
  8

 10
10.138752
 20
10.400549
 30
0.000000
 11
10.138752
 21
10.954301
 31
0.000000
  0
LINE
  8

 10
10.138752
 20
10.954301
 30
0.000000
 11
10.200000
 21
10.954301
 31
0.000000
  0
LINE
  8

 10
10.128750
 20
10.589303
 30
0.000000
 11
10.128750
 21
10.583051
 31
0.000000
  0
LINE
  8

 10
10.128750
 20
10.793051
 30
0.000000
 11
10.128750
 21
10.786799
 31
0.000000
  0
LINE
  8

 10
10.198397
 20
11.417532
 30
0.000000
 11
10.198397
 21
11.825034
 31
0.000000
  0
LINE
  8

 10
10.182149
 20
11.811282
 30
0.000000
 11
10.182149
 21
11.431284
 31
0.000000
  0
LINE
  8

 10
10.182149
 20
11.431284
 30
0.000000
 11
10.182149
 21
11.431284
 31
0.000000
  0
LINE
  8

 10
10.182149
 20
11.431284
 30
0.000000
 11
10.182149
 21
11.431284
 31
0.000000
  0
LINE
  8

 10
18.049659
 20
10.972533
 30
0.000000
 11
18.049659
 21
10.418881
 31
0.000000
  0
LINE
  8

 10
18.028654
 20
11.414323
 30
0.000000
 11
18.028654
 21
11.414323
 31
0.000000
  0
LINE
  8

 10
18.028654
 20
11.414323
 30
0.000000
 11
18.028654
 21
11.414323
 31
0.000000
  0
LINE
  8

 10
8.350000
 20
9.140000
 30
0.000000
 11
7.550000
 21
9.140000
 31
0.000000
  0
LINE
  8

 10
8.350000
 20
9.100000
 30
0.000000
 11
7.550000
 21
9.100000
 31
0.000000
  0
LINE
  8

 10
7.550000
 20
9.100000
 30
0.000000
 11
7.550000
 21
9.140000
 31
0.000000
  0
LINE
  8

 10
8.350000
 20
9.140000
 30
0.000000
 11
8.350000
 21
9.100000
 31
0.000000
  0
LINE
  8

 10
20.750000
 20
10.150000
 30
0.000000
 11
20.750000
 21
10.950000
 31
0.000000
  0
LINE
  8

 10
20.710000
 20
10.150000
 30
0.000000
 11
20.710000
 21
10.950000
 31
0.000000
  0
LINE
  8

 10
20.710000
 20
10.150000
 30
0.000000
 11
20.750000
 21
10.150000
 31
0.000000
  0
LINE
  8

 10
20.850000
 20
9.103383
 30
0.000000
 11
20.050000
 21
9.103383
 31
0.000000
  0
LINE
  8

 10
20.850000
 20
9.143383
 30
0.000000
 11
20.050000
 21
9.143383
 31
0.000000
  0
LINE
  8

 10
20.850000
 20
9.143383
 30
0.000000
 11
20.850000
 21
9.103383
 31
0.000000
  0
LINE
  8

 10
20.050000
 20
9.103383
 30
0.000000
 11
20.050000
 21
9.143383
 31
0.000000
  0
LINE
  8

 10
16.515625
 20
10.150000
 30
0.000000
 11
16.515625
 21
10.750000
 31
0.000000
  0
LINE
  8

 10
16.545625
 20
10.150000
 30
0.000000
 11
16.545625
 21
10.750000
 31
0.000000
  0
LINE
  8

 10
16.545625
 20
10.150000
 30
0.000000
 11
16.515625
 21
10.150000
 31
0.000000
  0
LINE
  8

 10
16.515625
 20
10.750000
 30
0.000000
 11
16.545625
 21
10.750000
 31
0.000000
  0
LINE
  8

 10
13.392501
 20
10.150000
 30
0.000000
 11
13.392501
 21
10.950000
 31
0.000000
  0
LINE
  8

 10
13.432501
 20
10.150000
 30
0.000000
 11
13.432501
 21
10.950000
 31
0.000000
  0
LINE
  8

 10
13.432501
 20
10.150000
 30
0.000000
 11
13.392501
 21
10.150000
 31
0.000000
  0
LINE
  8

 10
13.392501
 20
10.950000
 30
0.000000
 11
13.432501
 21
10.950000
 31
0.000000
  0
LINE
  8

 10
11.990313
 20
8.850000
 30
0.000000
 11
11.990313
 21
8.050000
 31
0.000000
  0
LINE
  8

 10
11.950313
 20
8.850000
 30
0.000000
 11
11.950313
 21
8.050000
 31
0.000000
  0
LINE
  8

 10
11.990313
 20
8.850000
 30
0.000000
 11
11.950313
 21
8.850000
 31
0.000000
  0
LINE
  8

 10
11.950313
 20
8.050000
 30
0.000000
 11
11.990313
 21
8.050000
 31
0.000000
  0
LINE
  8

 10
10.450000
 20
10.150000
 30
0.000000
 11
10.450000
 21
10.950000
 31
0.000000
  0
LINE
  8

 10
10.490000
 20
10.150000
 30
0.000000
 11
10.490000
 21
10.950000
 31
0.000000
  0
LINE
  8

 10
10.490000
 20
10.150000
 30
0.000000
 11
10.450000
 21
10.150000
 31
0.000000
  0
LINE
  8

 10
10.450000
 20
10.950000
 30
0.000000
 11
10.490000
 21
10.950000
 31
0.000000
  0
LINE
  8

 10
8.630000
 20
10.150000
 30
0.000000
 11
8.600000
 21
10.150000
 31
0.000000
  0
LINE
  8

 10
9.950878
 20
8.850000
 30
0.000000
 11
9.950878
 21
8.050000
 31
0.000000
  0
LINE
  8

 10
9.910878
 20
8.850000
 30
0.000000
 11
9.910878
 21
8.050000
 31
0.000000
  0
LINE
  8

 10
9.910878
 20
8.850000
 30
0.000000
 11
9.950878
 21
8.850000
 31
0.000000
  0
LINE
  8

 10
9.950878
 20
8.050000
 30
0.000000
 11
9.910878
 21
8.050000
 31
0.000000
  0
LINE
  8

 10
7.300000
 20
5.250000
 30
0.000000
 11
8.100000
 21
5.250000
 31
0.000000
  0
LINE
  8

 10
7.300000
 20
5.290000
 30
0.000000
 11
8.100000
 21
5.290000
 31
0.000000
  0
LINE
  8

 10
7.300000
 20
5.290000
 30
0.000000
 11
7.300000
 21
5.250000
 31
0.000000
  0
LINE
  8

 10
8.100000
 20
5.250000
 30
0.000000
 11
8.100000
 21
5.290000
 31
0.000000
  0
LINE
  8

 10
18.050000
 20
6.904207
 30
0.000000
 11
17.250000
 21
6.904207
 31
0.000000
  0
LINE
  8

 10
18.050000
 20
6.944207
 30
0.000000
 11
17.250000
 21
6.944207
 31
0.000000
  0
LINE
  8

 10
18.050000
 20
6.904207
 30
0.000000
 11
18.050000
 21
6.944207
 31
0.000000
  0
LINE
  8

 10
17.250000
 20
6.944207
 30
0.000000
 11
17.250000
 21
6.904207
 31
0.000000
  0
LINE
  8

 10
18.050000
 20
8.676688
 30
0.000000
 11
17.250000
 21
8.676688
 31
0.000000
  0
LINE
  8

 10
18.050000
 20
8.716688
 30
0.000000
 11
17.250000
 21
8.716688
 31
0.000000
  0
LINE
  8

 10
18.050000
 20
8.676688
 30
0.000000
 11
18.050000
 21
8.716688
 31
0.000000
  0
LINE
  8

 10
17.250000
 20
8.716688
 30
0.000000
 11
17.250000
 21
8.676688
 31
0.000000
  0
CIRCLE
  8
LAYER 0
 10
17.234000
 20
11.513000
 30
0.000000
 40
0.300000
  0
LINE
  8
LAYER 0
 10
17.231469
 20
11.213168
 30
0.000000
 11
17.221389
 21
10.090000
 31
0.000000
  0
LINE
  8
LAYER 0
 10
17.418231
 20
11.276253
 30
0.000000
 11
18.110000
 21
10.385980
 31
0.000000
  0
LINE
  8
LAYER 0
 10
17.221389
 20
10.090000
 30
0.000000
 11
17.418803
 21
10.090000
 31
0.000000
  0
CIRCLE
  8
LAYER 0
 10
9.350000
 20
11.500000
 30
0.000000
 40
0.300000
  0
LINE
  8
LAYER 0
 10
9.300802
 20
10.090000
 30
0.000000
 11
9.500483
 21
10.090000
 31
0.000000
  0
LINE
  8
LAYER 0
 10
9.548077
 20
11.725312
 30
0.000000
 11
10.250000
 21
12.535126
 31
0.000000
  0
LINE
  8
LAYER 0
 10
9.530673
 20
11.250506
 30
0.000000
 11
10.250000
 21
10.293735
 31
0.000000
  0
LINE
  8
LAYER 0
 10
9.339539
 20
11.200182
 30
0.000000
 11
9.300802
 21
10.090000
 31
0.000000
  0
CIRCLE
  8
LAYER 0
 10
14.801000
 20
11.523000
 30
0.000000
 40
0.300000
  0
CIRCLE
  8
LAYER 0
 10
11.792000
 20
11.490000
 30
0.000000
 40
0.300000
  0
CIRCLE
  8
LAYER 0
 10
19.564000
 20
11.518000
 30
0.000000
 40
0.300000
  0
CIRCLE
  8
LAYER 0
 10
6.772000
 20
10.948000
 30
0.000000
 40
0.300000
  0
CIRCLE
  8
LAYER 0
 10
10.250000
 20
9.443000
 30
0.000000
 40
0.300000
  0
CIRCLE
  8
LAYER 0
 10
14.597000
 20
9.484000
 30
0.000000
 40
0.300000
  0
CIRCLE
  8
LAYER 0
 10
23.585000
 20
11.488000
 30
0.000000
 40
0.300000
  0
CIRCLE
  8
LAYER 0
 10
23.579000
 20
8.901000
 30
0.000000
 40
0.300000
  0
CIRCLE
  8
LAYER 0
 10
19.533000
 20
8.617000
 30
0.000000
 40
0.300000
  0
CIRCLE
  8
LAYER 0
 10
19.533000
 20
6.098000
 30
0.000000
 40
0.300000
  0
CIRCLE
  8
LAYER 0
 10
11.459000
 20
6.981000
 30
0.000000
 40
0.300000
  0
CIRCLE
  8
LAYER 0
 10
16.617000
 20
7.018000
 30
0.000000
 40
0.300000
  0
CIRCLE
  8
LAYER 0
 10
8.225000
 20
7.000000
 30
0.000000
 40
0.300000
  0
CIRCLE
  8
LAYER 0
 10
5.745000
 20
7.006000
 30
0.000000
 40
0.300000
  0
LINE
  8
LAYER 0
 10
11.792428
 20
11.490122
 30
0.000000
 11
11.792428
 21
11.490122
 31
0.000000
  0
LINE
  8
LAYER 0
 10
14.596598
 20
9.483857
 30
0.000000
 11
13.357523
 21
8.940000
 31
0.000000
  0
LINE
  8
LAYER 0
 10
6.622001
 20
11.207808
 30
0.000000
 11
5.639250
 21
12.910000
 31
0.000000
  0
LINE
  8
LAYER 0
 10
7.001633
 20
11.141051
 30
0.000000
 11
8.410000
 21
12.325052
 31
0.000000
  0
LINE
  8
LAYER 0
 10
7.039671
 20
10.812530
 30
0.000000
 11
8.410000
 21
10.119000
 31
0.000000
  0
LINE
  8
LAYER 0
 10
7.039671
 20
10.812530
 30
0.000000
 11
8.410000
 21
10.119000
 31
0.000000
  0
LINE
  8
LAYER 0
 10
11.529054
 20
11.634428
 30
0.000000
 11
10.290000
 21
12.315000
 31
0.000000
  0
LINE
  8
LAYER 0
 10
12.039790
 20
11.320885
 30
0.000000
 11
13.203000
 21
10.527000
 31
0.000000
  0
LINE
  8
LAYER 0
 10
11.720417
 20
11.198665
 30
0.000000
 11
11.448010
 21
10.090000
 31
0.000000
  0
LINE
  8
LAYER 0
 10
10.250000
 20
9.443000
 30
0.000000
 11
6.772000
 21
10.948000
 31
0.000000
  0
LINE
  8
LAYER 0
 10
11.792000
 20
11.490000
 30
0.000000
 11
13.357523
 21
8.940000
 31
0.000000
  0
LINE
  8
LAYER 0
 10
9.350000
 20
11.500000
 30
0.000000
 11
9.350000
 21
11.500000
 31
0.000000
  0
LINE
  8
LAYER 0
 10
15.048515
 20
11.692518
 30
0.000000
 11
16.325625
 21
12.567181
 31
0.000000
  0
LINE
  8
LAYER 0
 10
14.522853
 20
11.635403
 30
0.000000
 11
13.232501
 21
12.156855
 31
0.000000
  0
LINE
  8
LAYER 0
 10
15.071533
 20
11.393339
 30
0.000000
 11
16.325625
 21
10.792281
 31
0.000000
  0
ARC
  5
65
330
1F
100
AcDbEntity
  8
0
100
AcDbCircle
 10
14.419775
 20
15.018113
 30
0.000000
 40
6.170325
100
AcDbArc
 50
214.736789
 51
-99.903130
  0
LINE
  8
LAYER 0
 10
10.250000
 20
9.443000
 30
0.000000
 11
13.357523
 21
8.940000
 31
0.000000
  0
ARC
  5
65
330
1F
100
AcDbEntity
  8
0
100
AcDbCircle
 10
2.132685
 20
30.885081
 30
0.000000
 40
24.647730
100
AcDbArc
 50
284.310253
 51
-62.916242
  0
LINE
  8
LAYER 0
 10
8.225000
 20
7.000000
 30
0.000000
 11
5.745000
 21
7.006000
 31
0.000000
  0
LINE
  8
LAYER 0
 10
13.357523
 20
8.940000
 30
0.000000
 11
16.617000
 21
7.018000
 31
0.000000
  0
LINE
  8
LAYER 0
 10
11.459000
 20
6.981000
 30
0.000000
 11
16.617000
 21
7.018000
 31
0.000000
  0
LINE
  8
LAYER 0
 10
19.533000
 20
8.617000
 30
0.000000
 11
19.533000
 21
6.098000
 31
0.000000
  0
LINE
  8
LAYER 0
 10
19.564000
 20
11.518000
 30
0.000000
 11
23.585000
 21
11.488000
 31
0.000000
  0
LINE
  8
LAYER 0
 10
19.816407
 20
11.680143
 30
0.000000
 11
20.910000
 21
12.382554
 31
0.000000
  0
LINE
  8
LAYER 0
 10
19.614145
 20
11.222221
 30
0.000000
 11
19.806095
 21
10.090000
 31
0.000000
  0
LINE
  8
LAYER 0
 10
8.302549
 20
7.289777
 30
0.000000
 11
8.736808
 21
8.910000
 31
0.000000
  0
LINE
  8
LAYER 0
 10
8.071129
 20
7.257534
 30
0.000000
 11
7.083818
 21
8.910000
 31
0.000000
  0
LINE
  8
LAYER 0
 10
5.756166
 20
7.305792
 30
0.000000
 11
5.815919
 21
8.910000
 31
0.000000
  0
LINE
  8
LAYER 0
 10
5.984407
 20
6.825212
 30
0.000000
 11
6.958000
 21
6.090000
 31
0.000000
  0
LINE
  8
LAYER 0
 10
11.634064
 20
7.224624
 30
0.000000
 11
12.845151
 21
8.910000
 31
0.000000
  0
LINE
  8
LAYER 0
 10
19.554153
 20
8.916253
 30
0.000000
 11
19.635000
 21
10.060000
 31
0.000000
  0
LINE
  8
LAYER 0
 10
19.235426
 20
6.059927
 30
0.000000
 11
18.140000
 21
5.919774
 31
0.000000
  0
LINE
  8
LAYER 0
 10
23.306250
 20
11.377102
 30
0.000000
 11
20.940000
 21
10.435711
 31
0.000000
  0
LINE
  8
LAYER 0
 10
23.884621
 20
11.472919
 30
0.000000
 11
26.410000
 21
11.345811
 31
0.000000
  0
LINE
  8
LAYER 0
 10
23.281601
 20
8.861582
 30
0.000000
 11
20.940000
 21
8.551216
 31
0.000000
  0
LINE
  8
LAYER 0
 10
23.585000
 20
11.488000
 30
0.000000
 11
23.579000
 21
8.901000
 31
0.000000
  0
LINE
  8
LAYER 0
 10
19.805879
 20
8.492352
 30
0.000000
 11
20.910000
 21
7.988000
 31
0.000000
  0
LINE
  8
LAYER 0
 10
19.809501
 20
5.981608
 30
0.000000
 11
20.910000
 21
5.518357
 31
0.000000
  0
LINE
  8

 10
18.050000
 20
5.000000
 30
0.000000
 11
21.000000
 21
5.000000
 31
0.000000
  0
LINE
  8

 10
18.050000
 20
5.150000
 30
0.000000
 11
18.050000
 21
5.000000
 31
0.000000
  0
LINE
  8
LAYER 0
 10
19.533000
 20
8.617000
 30
0.000000
 11
14.597000
 21
9.484000
 31
0.000000
  0
LINE
  8
LAYER 0
 10
17.234000
 20
11.513000
 30
0.000000
 11
19.564000
 21
11.518000
 31
0.000000
  0
LINE
  8
LAYER 0
 10
11.459000
 20
6.981000
 30
0.000000
 11
10.898293
 21
5.215254
 31
0.000000
  0
LINE
  8

 10
17.115625
 20
10.000000
 30
0.000000
 11
18.200000
 21
10.000000
 31
0.000000
  0
LINE
  8

 10
18.630313
 20
13.000000
 30
0.000000
 11
17.568438
 21
13.000000
 31
0.000000
  0
LINE
  8

 10
18.050000
 20
12.850000
 30
0.000000
 11
17.568438
 21
12.850000
 31
0.000000
  0
LINE
  8

 10
58.875000
 20
0.709000
 30
0.000000
 11
50.200000
 21
0.709000
 31
0.000000
  0
LINE
  8

 10
58.875000
 20
1.129000
 30
0.000000
 11
50.200000
 21
1.129000
 31
0.000000
  0
LINE
  8

 10
58.875000
 20
1.735000
 30
0.000000
 11
50.200000
 21
1.735000
 31
0.000000
  0
LINE
  8

 10
58.875000
 20
2.158000
 30
0.000000
 11
50.200000
 21
2.158000
 31
0.000000
  0
LINE
  8

 10
58.875000
 20
4.116000
 30
0.000000
 11
50.200000
 21
4.116000
 31
0.000000
  0
LINE
  8

 10
58.875000
 20
2.580000
 30
0.000000
 11
50.200000
 21
2.580000
 31
0.000000
  0
TEXT
  5
64
330
1F
100
AcDbEntity
  8
0
100
AcDbText
 10
50.241000
 20
0.998000
 30
0.000000
 40
0.065000
  1
REVISOR:
 50
0.000000
100
AcDbText
  0
TEXT
  5
64
330
1F
100
AcDbEntity
  8
0
100
AcDbText
 10
50.241000
 20
2.031000
 30
0.000000
 40
0.065000
  1
CLIENTE:
 50
0.000000
100
AcDbText
  0
TEXT
  5
64
330
1F
100
AcDbEntity
  8
0
100
AcDbText
 10
50.241000
 20
1.581000
 30
0.000000
 40
0.065000
  1
ASSUNTO:
 50
0.000000
100
AcDbText
  0
TEXT
  5
64
330
1F
100
AcDbEntity
  8
0
100
AcDbText
 10
50.241000
 20
2.435000
 30
0.000000
 40
0.065000
  1
RESPONSVEL TCNICO:
 50
0.000000
100
AcDbText
  0
TEXT
  5
64
330
1F
100
AcDbEntity
  8
0
100
AcDbText
 10
57.546000
 20
1.581000
 30
0.000000
 40
0.065000
  1
FOLHA:
 50
0.000000
100
AcDbText
  0
TEXT
  5
64
330
1F
100
AcDbEntity
  8
0
100
AcDbText
 10
50.845000
 20
1.828000
 30
0.000000
 40
0.100000
  1
XXXXX
 50
0.000000
100
AcDbText
  0
TEXT
  5
64
330
1F
100
AcDbEntity
  8
0
100
AcDbText
 10
50.845000
 20
1.413000
 30
0.000000
 40
0.110000
  1
XXXXX
 50
0.000000
100
AcDbText
  0
TEXT
  5
64
330
1F
100
AcDbEntity
  8
0
100
AcDbText
 10
50.845000
 20
2.232000
 30
0.000000
 40
0.125000
  1
XXXXX
 50
0.000000
100
AcDbText
  0
TEXT
  5
64
330
1F
100
AcDbEntity
  8
0
100
AcDbText
 10
50.845000
 20
0.825000
 30
0.000000
 40
0.100000
  1
XXXXX
 50
0.000000
100
AcDbText
  0
TEXT
  5
64
330
1F
100
AcDbEntity
  8
0
100
AcDbText
 10
50.845000
 20
1.189000
 30
0.000000
 40
0.100000
  1
XXXXX
 50
0.000000
100
AcDbText
  0
TEXT
  5
64
330
1F
100
AcDbEntity
  8
0
100
AcDbText
 10
55.366000
 20
0.998000
 30
0.000000
 40
0.065000
  1
DATA:
 50
0.000000
100
AcDbText
  0
TEXT
  5
64
330
1F
100
AcDbEntity
  8
0
100
AcDbText
 10
55.709000
 20
0.825000
 30
0.000000
 40
0.100000
  1
XXXXX
 50
0.000000
100
AcDbText
  0
TEXT
  5
64
330
1F
100
AcDbEntity
  8
0
100
AcDbText
 10
57.544000
 20
0.998000
 30
0.000000
 40
0.065000
  1
ESCALA:
 50
0.000000
100
AcDbText
  0
TEXT
  5
64
330
1F
100
AcDbEntity
  8
0
100
AcDbText
 10
58.018000
 20
0.825000
 30
0.000000
 40
0.100000
  1
1:50
 50
0.000000
100
AcDbText
  0
LINE
  8

 10
58.875000
 20
2.940000
 30
0.000000
 11
50.200000
 21
2.940000
 31
0.000000
  0
TEXT
  5
64
330
1F
100
AcDbEntity
  8
0
100
AcDbText
 10
50.241000
 20
2.795000
 30
0.000000
 40
0.065000
  1
TTULO:
 50
0.000000
100
AcDbText
  0
TEXT
  5
64
330
1F
100
AcDbEntity
  8
0
100
AcDbText
 10
50.845000
 20
2.634000
 30
0.000000
 40
0.125000
  1
XXXXX
 50
0.000000
100
AcDbText
  0
TEXT
  5
64
330
1F
100
AcDbEntity
  8
0
100
AcDbText
 10
51.000000
 20
3.419000
 30
0.000000
 40
0.250000
  1
Semonetti Engenharia e Sistemas
 50
0.000000
100
AcDbText
  0
LINE
  8

 10
50.200000
 20
4.116000
 30
0.000000
 11
50.200000
 21
0.500000
 31
0.000000
  0
LINE
  8

 10
50.200000
 20
1.685000
 30
0.000000
 11
50.200000
 21
1.685000
 31
0.000000
  0
LINE
  8

 10
50.200000
 20
2.158000
 30
0.000000
 11
50.200000
 21
2.158000
 31
0.000000
  0
LINE
  8

 10
59.450000
 20
0.000000
 30
0.000000
 11
59.450000
 21
42.050000
 31
0.000000
  0
LINE
  8

 10
59.450000
 20
42.050000
 30
0.000000
 11
0.000000
 21
42.050000
 31
0.000000
  0
LINE
  8

 10
0.000000
 20
42.050000
 30
0.000000
 11
0.000000
 21
0.000000
 31
0.000000
  0
LINE
  8

 10
50.200000
 20
0.000000
 30
0.000000
 11
50.200000
 21
0.500000
 31
0.000000
  0
LINE
  8

 10
40.950000
 20
0.000000
 30
0.000000
 11
40.950000
 21
0.500000
 31
0.000000
  0
LINE
  8

 10
31.700000
 20
0.000000
 30
0.000000
 11
31.700000
 21
0.500000
 31
0.000000
  0
LINE
  8

 10
22.450000
 20
0.000000
 30
0.000000
 11
22.450000
 21
0.500000
 31
0.000000
  0
LINE
  8

 10
13.200000
 20
0.000000
 30
0.000000
 11
13.200000
 21
0.500000
 31
0.000000
  0
LINE
  8

 10
0.000000
 20
14.850000
 30
0.000000
 11
1.250000
 21
14.850000
 31
0.000000
  0
LINE
  8

 10
0.000000
 20
29.700000
 30
0.000000
 11
1.250000
 21
29.700000
 31
0.000000
  0
LINE
  8

 10
58.950000
 20
29.700000
 30
0.000000
 11
59.450000
 21
29.700000
 31
0.000000
  0
LINE
  8

 10
50.200000
 20
41.550000
 30
0.000000
 11
50.200000
 21
42.050000
 31
0.000000
  0
LINE
  8

 10
58.950000
 20
14.850000
 30
0.000000
 11
59.450000
 21
14.850000
 31
0.000000
  0
LINE
  8

 10
40.950000
 20
41.550000
 30
0.000000
 11
40.950000
 21
42.050000
 31
0.000000
  0
LINE
  8

 10
31.700000
 20
41.550000
 30
0.000000
 11
31.700000
 21
42.050000
 31
0.000000
  0
LINE
  8

 10
22.450000
 20
41.550000
 30
0.000000
 11
22.450000
 21
42.050000
 31
0.000000
  0
LINE
  8

 10
13.200000
 20
41.550000
 30
0.000000
 11
13.200000
 21
42.050000
 31
0.000000
  0
LINE
  8

 10
58.950000
 20
41.550000
 30
0.000000
 11
1.250000
 21
41.550000
 31
0.000000
  0
LINE
  8

 10
1.250000
 20
41.550000
 30
0.000000
 11
1.250000
 21
0.500000
 31
0.000000
  0
LINE
  8

 10
1.250000
 20
0.500000
 30
0.000000
 11
58.950000
 21
0.500000
 31
0.000000
  0
LINE
  8

 10
58.950000
 20
0.500000
 30
0.000000
 11
58.950000
 21
41.550000
 31
0.000000
  0
LINE
  8

 10
0.000000
 20
0.000000
 30
0.000000
 11
59.450000
 21
0.000000
 31
0.000000
  0
LINE
  8
LAYER 0
 10
14.597000
 20
9.484000
 30
0.000000
 11
14.801000
 21
11.523000
 31
0.000000
  0
LINE
  8
LAYER 0
 10
19.533000
 20
8.617000
 30
0.000000
 11
18.110000
 21
10.385980
 31
0.000000
  0
LINE
  8

 10
0.000000
 20
0.000000
 30
0.000000
 11
0.000000
 21
0.000000
 31
0.000000
  0
LINE
  8

 10
18.630313
 20
13.000000
 30
0.000000
 11
18.050000
 21
13.000000
 31
0.000000
  0
LINE
  8

 10
18.050000
 20
13.000000
 30
0.000000
 11
18.050000
 21
12.850000
 31
0.000000
  0
LINE
  8
congela
 10
0.000000
 20
0.000000
 30
0.000000
 11
0.000000
 21
1.000000
 31
0.000000
  0
LINE
  8
congela
 10
0.000000
 20
0.000000
 30
0.000000
 11
0.000000
 21
-1.000000
 31
0.000000
  0
LINE
  8
congela
 10
0.000000
 20
0.000000
 30
0.000000
 11
1.000000
 21
0.000000
 31
0.000000
  0
LINE
  8
congela
 10
0.000000
 20
0.000000
 30
0.000000
 11
-1.000000
 21
0.000000
 31
0.000000
  0
LINE
  8
congela
 10
0.000000
 20
0.000000
 30
0.000000
 11
0.000000
 21
1.000000
 31
0.000000
  0
LINE
  8
congela
 10
0.000000
 20
0.000000
 30
0.000000
 11
0.000000
 21
-1.000000
 31
0.000000
  0
LINE
  8
congela
 10
0.000000
 20
0.000000
 30
0.000000
 11
1.000000
 21
0.000000
 31
0.000000
  0
LINE
  8
congela
 10
0.000000
 20
0.000000
 30
0.000000
 11
-1.000000
 21
0.000000
 31
0.000000
  0
LINE
  8
congela
 10
0.000000
 20
0.000000
 30
0.000000
 11
0.000000
 21
1.000000
 31
0.000000
  0
LINE
  8
congela
 10
0.000000
 20
0.000000
 30
0.000000
 11
0.000000
 21
-1.000000
 31
0.000000
  0
LINE
  8
congela
 10
0.000000
 20
0.000000
 30
0.000000
 11
1.000000
 21
0.000000
 31
0.000000
  0
LINE
  8
congela
 10
0.000000
 20
0.000000
 30
0.000000
 11
-1.000000
 21
0.000000
 31
0.000000
  0
LINE
  8
LAYER 0
 10
17.234000
 20
11.513000
 30
0.000000
 11
18.110000
 21
12.430621
 31
0.000000
  0
LINE
  8
TOMADAS
 10
33.069202
 20
28.970762
 30
0.000000
 11
33.069202
 21
28.270762
 31
0.000000
  0
LINE
  8
TOMADAS
 10
33.069202
 20
28.270762
 30
0.000000
 11
33.069202
 21
28.370762
 31
0.000000
  0
LINE
  8
TOMADAS
 10
33.069202
 20
28.370762
 30
0.000000
 11
33.269202
 21
28.370762
 31
0.000000
  0
LINE
  8
TOMADAS
 10
33.269202
 20
28.370762
 30
0.000000
 11
33.269202
 21
28.870762
 31
0.000000
  0
LINE
  8
TOMADAS
 10
33.269202
 20
28.870762
 30
0.000000
 11
33.069202
 21
28.870762
 31
0.000000
  0
LINE
  8
TOMADAS
 10
33.069202
 20
28.870762
 30
0.000000
 11
33.269202
 21
28.370762
 31
0.000000
  0
LINE
  8
TOMADAS
 10
44.688202
 20
26.225762
 30
0.000000
 11
45.388202
 21
26.225762
 31
0.000000
  0
LINE
  8
TOMADAS
 10
45.388202
 20
26.225762
 30
0.000000
 11
45.288202
 21
26.225762
 31
0.000000
  0
LINE
  8
TOMADAS
 10
45.288202
 20
26.225762
 30
0.000000
 11
45.288202
 21
26.425762
 31
0.000000
  0
LINE
  8
TOMADAS
 10
45.288202
 20
26.425762
 30
0.000000
 11
44.788202
 21
26.425762
 31
0.000000
  0
LINE
  8
TOMADAS
 10
44.788202
 20
26.425762
 30
0.000000
 11
44.788202
 21
26.225762
 31
0.000000
  0
LINE
  8
TOMADAS
 10
44.788202
 20
26.225762
 30
0.000000
 11
45.288202
 21
26.425762
 31
0.000000
  0
CIRCLE
  8
LAYER 0
 10
44.444202
 20
33.273762
 30
0.000000
 40
0.038000
  0
CIRCLE
  8
LAYER 0
 10
44.749202
 20
33.273762
 30
0.000000
 40
0.038000
  0
ARC
  5
65
330
1F
100
AcDbEntity
  8
0
100
AcDbCircle
 10
44.597202
 20
33.312762
 30
0.000000
 40
0.152000
100
AcDbArc
 50
0.000000
 51
-180.000000
  0
LINE
  8
0
 10
44.787202
 20
33.273762
 30
0.000000
 11
44.883202
 21
33.273762
 31
0.000000
  0
LINE
  8
0
 10
44.406202
 20
33.273762
 30
0.000000
 11
43.833202
 21
33.273762
 31
0.000000
  0
CIRCLE
  8
LAYER 0
 10
45.035202
 20
33.273762
 30
0.000000
 40
0.152000
  0
TEXT
  5
64
330
1F
100
AcDbEntity
  8
0
100
AcDbText
 10
44.956202
 20
33.204762
 30
0.000000
 40
0.152000
  1
M
 50
0.000000
100
AcDbText
  0
LINE
  8
0
 10
45.188202
 20
33.273762
 30
0.000000
 11
45.760202
 21
33.273762
 31
0.000000
  0
LINE
  8
0
 10
45.760202
 20
33.273762
 30
0.000000
 11
46.142202
 21
33.273762
 31
0.000000
  0
CIRCLE
  8
LAYER 0
 10
46.180202
 20
33.273762
 30
0.000000
 40
0.038000
  0
CIRCLE
  8
LAYER 0
 10
46.485202
 20
33.273762
 30
0.000000
 40
0.038000
  0
ARC
  5
65
330
1F
100
AcDbEntity
  8
0
100
AcDbCircle
 10
46.333202
 20
33.312762
 30
0.000000
 40
0.152000
100
AcDbArc
 50
0.000000
 51
-180.000000
  0
LINE
  8
0
 10
46.524202
 20
33.273762
 30
0.000000
 11
46.905202
 21
33.273762
 31
0.000000
  0
LINE
  8
0
 10
46.905202
 20
33.273762
 30
0.000000
 11
46.905202
 21
33.655762
 31
0.000000
  0
LINE
  8
0
 10
46.905202
 20
33.655762
 30
0.000000
 11
46.905202
 21
34.037762
 31
0.000000
  0
LINE
  8
0
 10
46.905202
 20
34.037762
 30
0.000000
 11
46.905202
 21
34.418762
 31
0.000000
  0
LINE
  8
0
 10
46.905202
 20
33.273762
 30
0.000000
 11
46.905202
 21
32.892762
 31
0.000000
  0
LINE
  8
0
 10
46.905202
 20
32.892762
 30
0.000000
 11
46.905202
 21
32.510762
 31
0.000000
  0
LINE
  8
0
 10
46.905202
 20
32.510762
 30
0.000000
 11
46.905202
 21
32.129762
 31
0.000000
  0
LINE
  8
0
 10
46.905202
 20
33.273762
 30
0.000000
 11
47.287202
 21
33.273762
 31
0.000000
  0
CIRCLE
  8
LAYER 0
 10
47.325202
 20
33.273762
 30
0.000000
 40
0.038000
  0
CIRCLE
  8
LAYER 0
 10
47.630202
 20
33.273762
 30
0.000000
 40
0.038000
  0
ARC
  5
65
330
1F
100
AcDbEntity
  8
0
100
AcDbCircle
 10
47.478202
 20
33.312762
 30
0.000000
 40
0.152000
100
AcDbArc
 50
0.000000
 51
-180.000000
  0
LINE
  8
0
 10
46.905202
 20
33.655762
 30
0.000000
 11
47.287202
 21
33.655762
 31
0.000000
  0
CIRCLE
  8
LAYER 0
 10
47.325202
 20
33.655762
 30
0.000000
 40
0.038000
  0
CIRCLE
  8
LAYER 0
 10
47.630202
 20
33.655762
 30
0.000000
 40
0.038000
  0
ARC
  5
65
330
1F
100
AcDbEntity
  8
0
100
AcDbCircle
 10
47.478202
 20
33.693762
 30
0.000000
 40
0.152000
100
AcDbArc
 50
0.000000
 51
-180.000000
  0
LINE
  8
0
 10
46.905202
 20
34.037762
 30
0.000000
 11
47.287202
 21
34.037762
 31
0.000000
  0
CIRCLE
  8
LAYER 0
 10
47.325202
 20
34.037762
 30
0.000000
 40
0.038000
  0
CIRCLE
  8
LAYER 0
 10
47.630202
 20
34.037762
 30
0.000000
 40
0.038000
  0
ARC
  5
65
330
1F
100
AcDbEntity
  8
0
100
AcDbCircle
 10
47.478202
 20
34.075762
 30
0.000000
 40
0.152000
100
AcDbArc
 50
0.000000
 51
-180.000000
  0
LINE
  8
0
 10
46.905202
 20
34.418762
 30
0.000000
 11
47.287202
 21
34.418762
 31
0.000000
  0
CIRCLE
  8
LAYER 0
 10
47.325202
 20
34.418762
 30
0.000000
 40
0.038000
  0
CIRCLE
  8
LAYER 0
 10
47.630202
 20
34.418762
 30
0.000000
 40
0.038000
  0
ARC
  5
65
330
1F
100
AcDbEntity
  8
0
100
AcDbCircle
 10
47.478202
 20
34.456762
 30
0.000000
 40
0.152000
100
AcDbArc
 50
0.000000
 51
-180.000000
  0
LINE
  8
0
 10
46.905202
 20
32.892762
 30
0.000000
 11
47.287202
 21
32.892762
 31
0.000000
  0
CIRCLE
  8
LAYER 0
 10
47.325202
 20
32.892762
 30
0.000000
 40
0.038000
  0
CIRCLE
  8
LAYER 0
 10
47.630202
 20
32.892762
 30
0.000000
 40
0.038000
  0
ARC
  5
65
330
1F
100
AcDbEntity
  8
0
100
AcDbCircle
 10
47.478202
 20
32.930762
 30
0.000000
 40
0.152000
100
AcDbArc
 50
0.000000
 51
-180.000000
  0
LINE
  8
0
 10
46.905202
 20
32.510762
 30
0.000000
 11
47.287202
 21
32.510762
 31
0.000000
  0
CIRCLE
  8
LAYER 0
 10
47.325202
 20
32.510762
 30
0.000000
 40
0.038000
  0
CIRCLE
  8
LAYER 0
 10
47.630202
 20
32.510762
 30
0.000000
 40
0.038000
  0
ARC
  5
65
330
1F
100
AcDbEntity
  8
0
100
AcDbCircle
 10
47.478202
 20
32.548762
 30
0.000000
 40
0.152000
100
AcDbArc
 50
0.000000
 51
-180.000000
  0
LINE
  8
0
 10
46.905202
 20
32.129762
 30
0.000000
 11
47.287202
 21
32.129762
 31
0.000000
  0
CIRCLE
  8
LAYER 0
 10
47.325202
 20
32.129762
 30
0.000000
 40
0.038000
  0
CIRCLE
  8
LAYER 0
 10
47.630202
 20
32.129762
 30
0.000000
 40
0.038000
  0
ARC
  5
65
330
1F
100
AcDbEntity
  8
0
100
AcDbCircle
 10
47.478202
 20
32.167762
 30
0.000000
 40
0.152000
100
AcDbArc
 50
0.000000
 51
-180.000000
  0
LINE
  8
0
 10
47.478202
 20
34.227762
 30
0.000000
 11
47.478202
 21
34.285762
 31
0.000000
  0
LINE
  8
0
 10
47.478202
 20
34.227762
 30
0.000000
 11
47.478202
 21
34.170762
 31
0.000000
  0
LINE
  8
0
 10
47.478202
 20
34.609762
 30
0.000000
 11
47.478202
 21
34.666762
 31
0.000000
  0
LINE
  8
0
 10
47.478202
 20
34.609762
 30
0.000000
 11
47.478202
 21
34.552762
 31
0.000000
  0
LINE
  8
0
 10
47.478202
 20
33.846762
 30
0.000000
 11
47.478202
 21
33.903762
 31
0.000000
  0
LINE
  8
0
 10
47.478202
 20
33.846762
 30
0.000000
 11
47.478202
 21
33.789762
 31
0.000000
  0
LINE
  8
0
 10
47.478202
 20
33.464762
 30
0.000000
 11
47.478202
 21
33.521762
 31
0.000000
  0
LINE
  8
0
 10
47.478202
 20
33.464762
 30
0.000000
 11
47.478202
 21
33.407762
 31
0.000000
  0
LINE
  8
0
 10
47.478202
 20
33.083762
 30
0.000000
 11
47.478202
 21
33.140762
 31
0.000000
  0
LINE
  8
0
 10
47.478202
 20
33.083762
 30
0.000000
 11
47.478202
 21
33.025762
 31
0.000000
  0
LINE
  8
0
 10
47.478202
 20
32.701762
 30
0.000000
 11
47.478202
 21
32.758762
 31
0.000000
  0
LINE
  8
0
 10
47.478202
 20
32.701762
 30
0.000000
 11
47.478202
 21
32.644762
 31
0.000000
  0
LINE
  8
0
 10
47.478202
 20
32.319762
 30
0.000000
 11
47.478202
 21
32.377762
 31
0.000000
  0
LINE
  8
0
 10
47.478202
 20
32.319762
 30
0.000000
 11
47.478202
 21
32.262762
 31
0.000000
  0
LINE
  8
0
 10
46.333202
 20
33.464762
 30
0.000000
 11
46.333202
 21
33.521762
 31
0.000000
  0
LINE
  8
0
 10
46.333202
 20
33.464762
 30
0.000000
 11
46.333202
 21
33.407762
 31
0.000000
  0
LINE
  8
0
 10
44.597202
 20
33.464762
 30
0.000000
 11
44.597202
 21
33.521762
 31
0.000000
  0
LINE
  8
0
 10
44.597202
 20
33.464762
 30
0.000000
 11
44.597202
 21
33.407762
 31
0.000000
  0
TEXT
  5
64
330
1F
100
AcDbEntity
  8
0
100
AcDbText
 10
47.418202
 20
34.685762
 30
0.000000
 40
0.057000
  1
6 A
 50
0.000000
100
AcDbText
  0
TEXT
  5
64
330
1F
100
AcDbEntity
  8
0
100
AcDbText
 10
47.395202
 20
34.304762
 30
0.000000
 40
0.057000
  1
10 A
 50
0.000000
100
AcDbText
  0
TEXT
  5
64
330
1F
100
AcDbEntity
  8
0
100
AcDbText
 10
47.395202
 20
33.922762
 30
0.000000
 40
0.057000
  1
32 A
 50
0.000000
100
AcDbText
  0
TEXT
  5
64
330
1F
100
AcDbEntity
  8
0
100
AcDbText
 10
47.395202
 20
33.541762
 30
0.000000
 40
0.057000
  1
10 A
 50
0.000000
100
AcDbText
  0
TEXT
  5
64
330
1F
100
AcDbEntity
  8
0
100
AcDbText
 10
47.395202
 20
33.159762
 30
0.000000
 40
0.057000
  1
10 A
 50
0.000000
100
AcDbText
  0
TEXT
  5
64
330
1F
100
AcDbEntity
  8
0
100
AcDbText
 10
46.251202
 20
33.541762
 30
0.000000
 40
0.057000
  1
50 A
 50
0.000000
100
AcDbText
  0
TEXT
  5
64
330
1F
100
AcDbEntity
  8
0
100
AcDbText
 10
44.514202
 20
33.541762
 30
0.000000
 40
0.057000
  1
50 A
 50
0.000000
100
AcDbText
  0
TEXT
  5
64
330
1F
100
AcDbEntity
  8
0
100
AcDbText
 10
47.745202
 20
34.437762
 30
0.000000
 40
0.057000
  1
Circuito 1 - 1,5 mm
 50
0.000000
100
AcDbText
  0
LINE
  8
0
 10
47.668202
 20
34.418762
 30
0.000000
 11
48.584202
 21
34.418762
 31
0.000000
  0
TEXT
  5
64
330
1F
100
AcDbEntity
  8
0
100
AcDbText
 10
47.745202
 20
34.056762
 30
0.000000
 40
0.057000
  1
Circuito 2 - 2,5 mm
 50
0.000000
100
AcDbText
  0
LINE
  8
0
 10
47.668202
 20
34.037762
 30
0.000000
 11
48.584202
 21
34.037762
 31
0.000000
  0
TEXT
  5
64
330
1F
100
AcDbEntity
  8
0
100
AcDbText
 10
47.745202
 20
33.674762
 30
0.000000
 40
0.057000
  1
Circuito 3 - 6,0 mm
 50
0.000000
100
AcDbText
  0
LINE
  8
0
 10
47.668202
 20
33.655762
 30
0.000000
 11
48.584202
 21
33.655762
 31
0.000000
  0
TEXT
  5
64
330
1F
100
AcDbEntity
  8
0
100
AcDbText
 10
47.745202
 20
33.292762
 30
0.000000
 40
0.057000
  1
Circuito 4 - 4,0 mm
 50
0.000000
100
AcDbText
  0
LINE
  8
0
 10
47.668202
 20
33.273762
 30
0.000000
 11
48.584202
 21
33.273762
 31
0.000000
  0
TEXT
  5
64
330
1F
100
AcDbEntity
  8
0
100
AcDbText
 10
47.745202
 20
32.911762
 30
0.000000
 40
0.057000
  1
Circuito 5 - 4,0 mm
 50
0.000000
100
AcDbText
  0
LINE
  8
0
 10
47.668202
 20
32.892762
 30
0.000000
 11
48.584202
 21
32.892762
 31
0.000000
  0
TEXT
  5
64
330
1F
100
AcDbEntity
  8
0
100
AcDbText
 10
47.745202
 20
32.529762
 30
0.000000
 40
0.057000
  1
Circuito Reserva
 50
0.000000
100
AcDbText
  0
LINE
  8
0
 10
47.668202
 20
32.510762
 30
0.000000
 11
48.584202
 21
32.510762
 31
0.000000
  0
TEXT
  5
64
330
1F
100
AcDbEntity
  8
0
100
AcDbText
 10
47.745202
 20
32.148762
 30
0.000000
 40
0.057000
  1
Circuito Reserva
 50
0.000000
100
AcDbText
  0
LINE
  8
0
 10
47.668202
 20
32.129762
 30
0.000000
 11
48.584202
 21
32.129762
 31
0.000000
  0
LINE
  8
0
 10
46.905202
 20
32.129762
 30
0.000000
 11
46.905202
 21
31.747762
 31
0.000000
  0
LINE
  8
0
 10
46.905202
 20
31.747762
 30
0.000000
 11
47.287202
 21
31.747762
 31
0.000000
  0
CIRCLE
  8
LAYER 0
 10
47.325202
 20
31.747762
 30
0.000000
 40
0.038000
  0
CIRCLE
  8
LAYER 0
 10
47.630202
 20
31.747762
 30
0.000000
 40
0.038000
  0
ARC
  5
65
330
1F
100
AcDbEntity
  8
0
100
AcDbCircle
 10
47.478202
 20
31.785762
 30
0.000000
 40
0.152000
100
AcDbArc
 50
0.000000
 51
-180.000000
  0
LINE
  8
0
 10
47.478202
 20
31.938762
 30
0.000000
 11
47.478202
 21
31.995762
 31
0.000000
  0
LINE
  8
0
 10
47.478202
 20
31.938762
 30
0.000000
 11
47.478202
 21
31.881762
 31
0.000000
  0
TEXT
  5
64
330
1F
100
AcDbEntity
  8
0
100
AcDbText
 10
47.745202
 20
31.766762
 30
0.000000
 40
0.057000
  1
Circuito Reserva
 50
0.000000
100
AcDbText
  0
LINE
  8
0
 10
47.668202
 20
31.747762
 30
0.000000
 11
48.584202
 21
31.747762
 31
0.000000
  0
LINE
  8
0
 10
44.291202
 20
33.273762
 30
0.000000
 11
44.291202
 21
33.693762
 31
0.000000
  0
LINE
  8
0
 10
45.302202
 20
33.273762
 30
0.000000
 11
45.302202
 21
33.693762
 31
0.000000
  0
LINE
  8
0
 10
45.302202
 20
33.693762
 30
0.000000
 11
44.291202
 21
33.693762
 31
0.000000
  0
LINE
  8
0
 10
44.291202
 20
33.273762
 30
0.000000
 11
44.291202
 21
32.854762
 31
0.000000
  0
LINE
  8
0
 10
45.302202
 20
33.273762
 30
0.000000
 11
45.302202
 21
32.854762
 31
0.000000
  0
LINE
  8
0
 10
45.302202
 20
32.854762
 30
0.000000
 11
44.291202
 21
32.854762
 31
0.000000
  0
LINE
  8
0
 10
46.142202
 20
33.273762
 30
0.000000
 11
46.027202
 21
33.273762
 31
0.000000
  0
LINE
  8
0
 10
46.027202
 20
33.273762
 30
0.000000
 11
46.027202
 21
34.800762
 31
0.000000
  0
LINE
  8
0
 10
46.027202
 20
34.800762
 30
0.000000
 11
48.699202
 21
34.800762
 31
0.000000
  0
LINE
  8
0
 10
48.699202
 20
34.800762
 30
0.000000
 11
48.699202
 21
31.556762
 31
0.000000
  0
LINE
  8
0
 10
48.699202
 20
31.556762
 30
0.000000
 11
46.027202
 21
31.556762
 31
0.000000
  0
LINE
  8
0
 10
46.027202
 20
31.556762
 30
0.000000
 11
46.027202
 21
33.273762
 31
0.000000
  0
TEXT
  5
64
330
1F
100
AcDbEntity
  8
0
100
AcDbText
 10
48.737202
 20
34.418762
 30
0.000000
 40
0.057000
  1
Iluminao Geral
 50
0.000000
100
AcDbText
  0
TEXT
  5
64
330
1F
100
AcDbEntity
  8
0
100
AcDbText
 10
48.737202
 20
34.037762
 30
0.000000
 40
0.057000
  1
Tomadas de Uso Geral
 50
0.000000
100
AcDbText
  0
TEXT
  5
64
330
1F
100
AcDbEntity
  8
0
100
AcDbText
 10
48.737202
 20
33.655762
 30
0.000000
 40
0.057000
  1
Chuveiro
 50
0.000000
100
AcDbText
  0
TEXT
  5
64
330
1F
100
AcDbEntity
  8
0
100
AcDbText
 10
48.737202
 20
33.273762
 30
0.000000
 40
0.057000
  1
Ar Condicionado do Quarto
 50
0.000000
100
AcDbText
  0
TEXT
  5
64
330
1F
100
AcDbEntity
  8
0
100
AcDbText
 10
48.737202
 20
32.892762
 30
0.000000
 40
0.057000
  1
Ar Condicionado da Sala
 50
0.000000
100
AcDbText
  0
LINE
  8
0
 10
45.302202
 20
32.854762
 30
0.000000
 11
45.302202
 21
32.777762
 31
0.000000
  0
LINE
  8
0
 10
45.302202
 20
32.777762
 30
0.000000
 11
45.302202
 21
32.663762
 31
0.000000
  0
LINE
  8
0
 10
45.302202
 20
32.777762
 30
0.000000
 11
45.455202
 21
32.777762
 31
0.000000
  0
LINE
  8
0
 10
45.302202
 20
32.777762
 30
0.000000
 11
45.150202
 21
32.777762
 31
0.000000
  0
LINE
  8
0
 10
45.302202
 20
32.739762
 30
0.000000
 11
45.417202
 21
32.739762
 31
0.000000
  0
LINE
  8
0
 10
45.302202
 20
32.739762
 30
0.000000
 11
45.188202
 21
32.739762
 31
0.000000
  0
LINE
  8
0
 10
45.302202
 20
32.701762
 30
0.000000
 11
45.226202
 21
32.701762
 31
0.000000
  0
LINE
  8
0
 10
45.302202
 20
32.701762
 30
0.000000
 11
45.379202
 21
32.701762
 31
0.000000
  0
LINE
  8
0
 10
45.302202
 20
32.663762
 30
0.000000
 11
45.264202
 21
32.663762
 31
0.000000
  0
LINE
  8
0
 10
45.302202
 20
32.663762
 30
0.000000
 11
45.341202
 21
32.663762
 31
0.000000
  0
LINE
  8
0
 10
48.699202
 20
31.556762
 30
0.000000
 11
48.699202
 21
31.480762
 31
0.000000
  0
LINE
  8
0
 10
48.699202
 20
31.480762
 30
0.000000
 11
48.699202
 21
31.365762
 31
0.000000
  0
LINE
  8
0
 10
48.699202
 20
31.480762
 30
0.000000
 11
48.851202
 21
31.480762
 31
0.000000
  0
LINE
  8
0
 10
48.699202
 20
31.480762
 30
0.000000
 11
48.546202
 21
31.480762
 31
0.000000
  0
LINE
  8
0
 10
48.699202
 20
31.442762
 30
0.000000
 11
48.813202
 21
31.442762
 31
0.000000
  0
LINE
  8
0
 10
48.699202
 20
31.442762
 30
0.000000
 11
48.584202
 21
31.442762
 31
0.000000
  0
LINE
  8
0
 10
48.699202
 20
31.404762
 30
0.000000
 11
48.622202
 21
31.404762
 31
0.000000
  0
LINE
  8
0
 10
48.699202
 20
31.404762
 30
0.000000
 11
48.775202
 21
31.404762
 31
0.000000
  0
LINE
  8
0
 10
48.679202
 20
31.365762
 30
0.000000
 11
48.719202
 21
31.365762
 31
0.000000
  0
TEXT
  5
64
330
1F
100
AcDbEntity
  8
0
100
AcDbText
 10
46.027202
 20
34.876762
 30
0.000000
 40
0.057000
  1
Quadro de distribuio residencial
 50
0.000000
100
AcDbText
  0
TEXT
  5
64
330
1F
100
AcDbEntity
  8
0
100
AcDbText
 10
44.291202
 20
33.769762
 30
0.000000
 40
0.057000
  1
Quadro de medidor
 50
0.000000
100
AcDbText
  0
TEXT
  5
64
330
1F
100
AcDbEntity
  8
0
100
AcDbText
 10
45.362202
 20
33.407762
 30
0.000000
 40
0.057000
  1
+ Aterramento
 50
0.000000
100
AcDbText
  0
TEXT
  5
64
330
1F
100
AcDbEntity
  8
0
100
AcDbText
 10
43.871202
 20
33.407762
 30
0.000000
 40
0.057000
  1
10,0 mm
 50
0.000000
100
AcDbText
  0
TEXT
  5
64
330
1F
100
AcDbEntity
  8
0
100
AcDbText
 10
43.955202
 20
33.483762
 30
0.000000
 40
0.057000
  1
REDE
 50
0.000000
100
AcDbText
  0
TEXT
  5
64
330
1F
100
AcDbEntity
  8
0
100
AcDbText
 10
45.421202
 20
33.483762
 30
0.000000
 40
0.057000
  1
10,0 mm
 50
0.000000
100
AcDbText
  0
LINE
  8
0
 10
44.633202
 20
31.088762
 30
0.000000
 11
49.159202
 21
31.088762
 31
0.000000
  0
LINE
  8
0
 10
44.633202
 20
30.588762
 30
0.000000
 11
49.159202
 21
30.588762
 31
0.000000
  0
LINE
  8
0
 10
44.633202
 20
30.088762
 30
0.000000
 11
49.159202
 21
30.088762
 31
0.000000
  0
LINE
  8
0
 10
44.633202
 20
29.588762
 30
0.000000
 11
49.159202
 21
29.588762
 31
0.000000
  0
LINE
  8
0
 10
44.633202
 20
29.088762
 30
0.000000
 11
49.159202
 21
29.088762
 31
0.000000
  0
LINE
  8
0
 10
44.633202
 20
28.588762
 30
0.000000
 11
49.159202
 21
28.588762
 31
0.000000
  0
LINE
  8
0
 10
44.633202
 20
28.088762
 30
0.000000
 11
49.159202
 21
28.088762
 31
0.000000
  0
LINE
  8
0
 10
44.633202
 20
27.588762
 30
0.000000
 11
49.159202
 21
27.588762
 31
0.000000
  0
LINE
  8
0
 10
44.633202
 20
27.088762
 30
0.000000
 11
49.159202
 21
27.088762
 31
0.000000
  0
LINE
  8
0
 10
44.633202
 20
26.588762
 30
0.000000
 11
49.159202
 21
26.588762
 31
0.000000
  0
LINE
  8
0
 10
44.633202
 20
26.088762
 30
0.000000
 11
49.159202
 21
26.088762
 31
0.000000
  0
LINE
  8
0
 10
44.633202
 20
25.588762
 30
0.000000
 11
49.159202
 21
25.588762
 31
0.000000
  0
LINE
  8
0
 10
44.633202
 20
25.088762
 30
0.000000
 11
49.159202
 21
25.088762
 31
0.000000
  0
LINE
  8
0
 10
44.633202
 20
31.088762
 30
0.000000
 11
44.633202
 21
25.088762
 31
0.000000
  0
LINE
  8
0
 10
45.433202
 20
31.088762
 30
0.000000
 11
45.433202
 21
25.088762
 31
0.000000
  0
TEXT
  5
64
330
1F
100
AcDbEntity
  8
0
100
AcDbText
 10
45.533202
 20
30.913762
 30
0.000000
 40
0.075000
  1
LUMINRIA, COM INDICAO DA POTNCIA, COMANDO E  CIRCUITO.
 50
0.000000
100
AcDbText
  0
LINE
  8
0
 10
49.159202
 20
31.088762
 30
0.000000
 11
49.159202
 21
25.088762
 31
0.000000
  0
TEXT
  5
64
330
1F
100
AcDbEntity
  8
0
100
AcDbText
 10
45.533202
 20
30.413762
 30
0.000000
 40
0.075000
  1
INTERRUPTOR SIMPLES, COM INDICAO DO COMANDO.
 50
0.000000
100
AcDbText
  0
TEXT
  5
64
330
1F
100
AcDbEntity
  8
0
100
AcDbText
 10
45.533202
 20
29.913762
 30
0.000000
 40
0.075000
  1
INTERRUPTOR PARALELO, COM INDICAO DO COMANDO.
 50
0.000000
100
AcDbText
  0
TEXT
  5
64
330
1F
100
AcDbEntity
  8
0
100
AcDbText
 10
45.533202
 20
29.413762
 30
0.000000
 40
0.075000
  1
PONTO DE TOMADA BAIXO, COM INDICAO DO CIRCUITO 
 50
0.000000
100
AcDbText
  0
TEXT
  5
64
330
1F
100
AcDbEntity
  8
0
100
AcDbText
 10
45.533202
 20
27.913762
 30
0.000000
 40
0.075000
  1
CONDUTORES FASE, NEUTRO E TERRA, COM INDICAO
 50
0.000000
100
AcDbText
  0
TEXT
  5
64
330
1F
100
AcDbEntity
  8
0
100
AcDbText
 10
45.533202
 20
27.413762
 30
0.000000
 40
0.075000
  1
CONDUTORES FASE E NEUTRO, COM INDICAO DO CIRCUITO.
 50
0.000000
100
AcDbText
  0
TEXT
  5
64
330
1F
100
AcDbEntity
  8
0
100
AcDbText
 10
45.533202
 20
26.913762
 30
0.000000
 40
0.075000
  1
CONDUTORES FASE E RETORNO, COM INDICAO DO CIRCUITO E
 50
0.000000
100
AcDbText
  0
TEXT
  5
64
330
1F
100
AcDbEntity
  8
0
100
AcDbText
 10
45.533202
 20
26.413762
 30
0.000000
 40
0.075000
  1
QUADRO DE DISTRIBUIO RESIDENCIAL.
 50
0.000000
100
AcDbText
  0
TEXT
  5
64
330
1F
100
AcDbEntity
  8
0
100
AcDbText
 10
45.533202
 20
25.913762
 30
0.000000
 40
0.075000
  1
ELETRODUTO EMBUTIDO NO TETO.
 50
0.000000
100
AcDbText
  0
TEXT
  5
64
330
1F
100
AcDbEntity
  8
0
100
AcDbText
 10
45.533202
 20
25.413762
 30
0.000000
 40
0.075000
  1
ELETRODUTO EMBUTIDO NA PAREDE.
 50
0.000000
100
AcDbText
  0
TEXT
  5
64
330
1F
100
AcDbEntity
  8
0
100
AcDbText
 10
45.533202
 20
26.713762
 30
0.000000
 40
0.075000
  1
RETORNO, PODENDO SER SIMPLES OU PARALELO.
 50
0.000000
100
AcDbText
  0
TEXT
  5
64
330
1F
100
AcDbEntity
  8
0
100
AcDbText
 10
45.533202
 20
27.713762
 30
0.000000
 40
0.075000
  1
DO CIRCUITO.
 50
0.000000
100
AcDbText
  0
TEXT
  5
64
330
1F
100
AcDbEntity
  8
0
100
AcDbText
 10
45.533202
 20
29.213762
 30
0.000000
 40
0.075000
  1
E POTNCIA.
 50
0.000000
100
AcDbText
  0
TEXT
  5
64
330
1F
100
AcDbEntity
  8
0
100
AcDbText
 10
45.533202
 20
28.913762
 30
0.000000
 40
0.075000
  1
PONTO DE TOMADA MDIO, COM INDICAO DO CIRCUITO 
 50
0.000000
100
AcDbText
  0
TEXT
  5
64
330
1F
100
AcDbEntity
  8
0
100
AcDbText
 10
45.533202
 20
28.713762
 30
0.000000
 40
0.075000
  1
E POTNCIA.
 50
0.000000
100
AcDbText
  0
TEXT
  5
64
330
1F
100
AcDbEntity
  8
0
100
AcDbText
 10
45.533202
 20
28.413762
 30
0.000000
 40
0.075000
  1
PONTO DE TOMADA ALTO, COM INDICAO DO CIRCUITO 
 50
0.000000
100
AcDbText
  0
TEXT
  5
64
330
1F
100
AcDbEntity
  8
0
100
AcDbText
 10
45.533202
 20
28.213762
 30
0.000000
 40
0.075000
  1
E POTNCIA.
 50
0.000000
100
AcDbText
  0
CIRCLE
  8
LAYER 0
 10
35.069202
 20
32.161762
 30
0.000000
 40
0.200000
  0
LINE
  8
PAREDES
 10
30.669202
 20
35.561762
 30
0.000000
 11
43.769202
 21
35.561762
 31
0.000000
  0
LINE
  8
PAREDES
 10
43.769202
 20
35.561762
 30
0.000000
 11
43.769202
 21
24.611762
 31
0.000000
  0
LINE
  8
PAREDES
 10
43.769202
 20
24.611762
 30
0.000000
 11
30.669202
 21
24.611762
 31
0.000000
  0
LINE
  8
PAREDES
 10
30.669202
 20
24.611762
 30
0.000000
 11
30.669202
 21
35.561762
 31
0.000000
  0
LINE
  8
PAREDES
 10
43.519202
 20
35.311762
 30
0.000000
 11
43.519202
 21
24.861762
 31
0.000000
  0
LINE
  8
PAREDES
 10
30.919202
 20
35.311762
 30
0.000000
 11
32.919202
 21
35.311762
 31
0.000000
  0
LINE
  8
PAREDES
 10
30.919202
 20
24.861762
 30
0.000000
 11
30.919202
 21
35.311762
 31
0.000000
  0
LINE
  8
PAREDES
 10
43.519202
 20
24.861762
 30
0.000000
 11
33.069202
 21
24.861762
 31
0.000000
  0
LINE
  8
PAREDES
 10
32.919202
 20
24.861762
 30
0.000000
 11
32.919202
 21
24.961762
 31
0.000000
  0
LINE
  8
PAREDES
 10
41.519202
 20
34.311762
 30
0.000000
 11
41.519202
 21
29.911762
 31
0.000000
  0
LINE
  8
PAREDES
 10
33.069202
 20
34.311762
 30
0.000000
 11
41.519202
 21
34.311762
 31
0.000000
  0
LINE
  8
PAREDES
 10
41.519202
 20
25.861762
 30
0.000000
 11
33.069202
 21
25.861762
 31
0.000000
  0
LINE
  8
PAREDES
 10
33.069202
 20
34.161762
 30
0.000000
 11
37.069202
 21
34.161762
 31
0.000000
  0
LINE
  8
PAREDES
 10
41.369202
 20
34.161762
 30
0.000000
 11
41.369202
 21
30.161762
 31
0.000000
  0
LINE
  8
PAREDES
 10
33.069202
 20
24.861762
 30
0.000000
 11
33.069202
 21
24.961762
 31
0.000000
  0
LINE
  8
PAREDES
 10
41.369202
 20
26.011762
 30
0.000000
 11
37.219202
 21
26.011762
 31
0.000000
  0
LINE
  8
PAREDES
 10
33.069202
 20
34.311762
 30
0.000000
 11
33.069202
 21
35.311762
 31
0.000000
  0
LINE
  8
PAREDES
 10
33.069202
 20
26.011762
 30
0.000000
 11
33.069202
 21
29.111762
 31
0.000000
  0
LINE
  8
PAREDES
 10
33.069202
 20
25.761762
 30
0.000000
 11
32.919202
 21
25.761762
 31
0.000000
  0
LINE
  8
PAREDES
 10
33.069202
 20
24.961762
 30
0.000000
 11
32.919202
 21
24.961762
 31
0.000000
  0
LINE
  8
PAREDES
 10
33.069202
 20
25.761762
 30
0.000000
 11
33.069202
 21
25.861762
 31
0.000000
  0
LINE
  8
PAREDES
 10
32.919202
 20
25.761762
 30
0.000000
 11
32.919202
 21
29.111762
 31
0.000000
  0
LINE
  8
PAREDES
 10
32.919202
 20
24.861762
 30
0.000000
 11
30.919202
 21
24.861762
 31
0.000000
  0
LINE
  8
PAREDES
 10
41.369202
 20
30.011762
 30
0.000000
 11
40.069202
 21
30.011762
 31
0.000000
  0
LINE
  8
PAREDES
 10
33.069202
 20
30.161762
 30
0.000000
 11
37.069202
 21
30.161762
 31
0.000000
  0
LINE
  8
PAREDES
 10
37.069202
 20
26.011762
 30
0.000000
 11
37.069202
 21
29.111762
 31
0.000000
  0
LINE
  8
PAREDES
 10
37.219202
 20
26.011762
 30
0.000000
 11
37.219202
 21
29.111762
 31
0.000000
  0
LINE
  8
PAREDES
 10
37.069202
 20
26.011762
 30
0.000000
 11
33.069202
 21
26.011762
 31
0.000000
  0
LINE
  8
PAREDES
 10
33.069202
 20
30.161762
 30
0.000000
 11
33.069202
 21
34.161762
 31
0.000000
  0
LINE
  8
PAREDES
 10
37.219202
 20
34.161762
 30
0.000000
 11
39.219202
 21
34.161762
 31
0.000000
  0
LINE
  8
PAREDES
 10
39.219202
 20
30.011762
 30
0.000000
 11
39.219202
 21
32.011762
 31
0.000000
  0
LINE
  8
PAREDES
 10
39.369202
 20
34.161762
 30
0.000000
 11
39.369202
 21
30.161762
 31
0.000000
  0
LINE
  8
PAREDES
 10
39.369202
 20
34.161762
 30
0.000000
 11
41.369202
 21
34.161762
 31
0.000000
  0
LINE
  8
PAREDES
 10
41.369202
 20
29.011762
 30
0.000000
 11
39.219202
 21
29.011762
 31
0.000000
  0
LINE
  8
PAREDES
 10
39.369202
 20
30.161762
 30
0.000000
 11
39.469202
 21
30.161762
 31
0.000000
  0
LINE
  8
PAREDES
 10
37.069202
 20
30.011762
 30
0.000000
 11
33.069202
 21
30.011762
 31
0.000000
  0
LINE
  8
PAREDES
 10
39.469202
 20
30.161762
 30
0.000000
 11
39.469202
 21
30.011762
 31
0.000000
  0
LINE
  8
PAREDES
 10
40.069202
 20
30.161762
 30
0.000000
 11
41.369202
 21
30.161762
 31
0.000000
  0
LINE
  8
PAREDES
 10
39.469202
 20
30.011762
 30
0.000000
 11
39.219202
 21
30.011762
 31
0.000000
  0
LINE
  8
PAREDES
 10
37.219202
 20
32.161762
 30
0.000000
 11
37.319202
 21
32.161762
 31
0.000000
  0
LINE
  8
PAREDES
 10
37.219202
 20
32.011762
 30
0.000000
 11
37.319202
 21
32.011762
 31
0.000000
  0
LINE
  8
PAREDES
 10
37.319202
 20
32.011762
 30
0.000000
 11
37.319202
 21
32.161762
 31
0.000000
  0
LINE
  8
PAREDES
 10
37.919202
 20
32.011762
 30
0.000000
 11
39.219202
 21
32.011762
 31
0.000000
  0
LINE
  8
PAREDES
 10
37.919202
 20
32.161762
 30
0.000000
 11
39.219202
 21
32.161762
 31
0.000000
  0
LINE
  8
PAREDES
 10
37.219202
 20
32.161762
 30
0.000000
 11
37.219202
 21
34.161762
 31
0.000000
  0
LINE
  8
PAREDES
 10
37.069202
 20
30.261762
 30
0.000000
 11
37.219202
 21
30.261762
 31
0.000000
  0
LINE
  8
PAREDES
 10
37.069202
 20
31.061762
 30
0.000000
 11
37.219202
 21
31.061762
 31
0.000000
  0
LINE
  8
PAREDES
 10
37.069202
 20
31.061762
 30
0.000000
 11
37.069202
 21
34.161762
 31
0.000000
  0
LINE
  8
PAREDES
 10
37.219202
 20
31.061762
 30
0.000000
 11
37.219202
 21
32.011762
 31
0.000000
  0
LINE
  8
PAREDES
 10
37.069202
 20
30.161762
 30
0.000000
 11
37.069202
 21
30.261762
 31
0.000000
  0
LINE
  8
PAREDES
 10
37.219202
 20
29.911762
 30
0.000000
 11
37.069202
 21
29.911762
 31
0.000000
  0
LINE
  8
PAREDES
 10
37.219202
 20
29.111762
 30
0.000000
 11
37.069202
 21
29.111762
 31
0.000000
  0
LINE
  8
PAREDES
 10
37.069202
 20
29.911762
 30
0.000000
 11
37.069202
 21
30.011762
 31
0.000000
  0
LINE
  8
PAREDES
 10
37.219202
 20
29.911762
 30
0.000000
 11
37.219202
 21
30.261762
 31
0.000000
  0
LINE
  8
PAREDES
 10
41.369202
 20
29.161762
 30
0.000000
 11
39.219202
 21
29.161762
 31
0.000000
  0
LINE
  8
PAREDES
 10
39.219202
 20
29.161762
 30
0.000000
 11
39.219202
 21
29.011762
 31
0.000000
  0
LINE
  8
PAREDES
 10
41.369202
 20
29.911762
 30
0.000000
 11
41.519202
 21
29.911762
 31
0.000000
  0
LINE
  8
PAREDES
 10
41.369202
 20
29.311762
 30
0.000000
 11
41.519202
 21
29.311762
 31
0.000000
  0
LINE
  8
PAREDES
 10
41.369202
 20
29.311762
 30
0.000000
 11
41.369202
 21
29.161762
 31
0.000000
  0
LINE
  8
PAREDES
 10
41.519202
 20
29.311762
 30
0.000000
 11
41.519202
 21
25.861762
 31
0.000000
  0
LINE
  8
PAREDES
 10
41.369202
 20
29.011762
 30
0.000000
 11
41.369202
 21
26.011762
 31
0.000000
  0
LINE
  8
PAREDES
 10
41.369202
 20
30.011762
 30
0.000000
 11
41.369202
 21
29.911762
 31
0.000000
  0
LINE
  8
PAREDES
 10
33.069202
 20
29.911762
 30
0.000000
 11
32.919202
 21
29.911762
 31
0.000000
  0
LINE
  8
PAREDES
 10
33.069202
 20
29.111762
 30
0.000000
 11
32.919202
 21
29.111762
 31
0.000000
  0
LINE
  8
PAREDES
 10
33.069202
 20
29.911762
 30
0.000000
 11
33.069202
 21
30.011762
 31
0.000000
  0
LINE
  8
PAREDES
 10
32.919202
 20
29.911762
 30
0.000000
 11
32.919202
 21
35.311762
 31
0.000000
  0
LINE
  8
PAREDES
 10
33.069202
 20
35.311762
 30
0.000000
 11
43.519202
 21
35.311762
 31
0.000000
  0
LINE
  8
PAREDES
 10
37.919202
 20
32.011762
 30
0.000000
 11
37.919202
 21
32.161762
 31
0.000000
  0
LINE
  8
PAREDES
 10
40.069202
 20
30.161762
 30
0.000000
 11
40.069202
 21
30.011762
 31
0.000000
  0
LINE
  8
PAREDES
 10
39.219202
 20
32.161762
 30
0.000000
 11
39.219202
 21
34.161762
 31
0.000000
  0
LINE
  8
PAREDES
 10
33.069202
 20
34.161762
 30
0.000000
 11
32.919202
 21
34.161762
 31
0.000000
  0
ARC
  5
65
330
1F
100
AcDbEntity
  8
0
100
AcDbCircle
 10
35.337202
 20
31.644762
 30
0.000000
 40
3.663000
100
AcDbArc
 50
235.626000
 51
-97.374000
  0
ARC
  5
65
330
1F
100
AcDbEntity
  8
0
100
AcDbCircle
 10
30.392202
 20
27.719762
 30
0.000000
 40
2.950000
100
AcDbArc
 50
335.165000
 51
13.165000
  0
ARC
  5
65
330
1F
100
AcDbEntity
  8
0
100
AcDbCircle
 10
24.619202
 20
32.331762
 30
0.000000
 40
9.317000
100
AcDbArc
 50
338.193000
 51
12.193000
  0
ARC
  5
65
330
1F
100
AcDbEntity
  8
0
100
AcDbCircle
 10
42.252202
 20
29.784762
 30
0.000000
 40
7.506000
100
AcDbArc
 50
163.146000
 51
-167.854000
  0
ARC
  5
65
330
1F
100
AcDbEntity
  8
0
100
AcDbCircle
 10
37.877202
 20
29.268762
 30
0.000000
 40
3.895000
100
AcDbArc
 50
87.923000
 51
-228.077000
  0
ARC
  5
65
330
1F
100
AcDbEntity
  8
0
100
AcDbCircle
 10
40.927202
 20
28.735762
 30
0.000000
 40
3.382000
100
AcDbArc
 50
102.252000
 51
-217.748000
  0
ARC
  5
65
330
1F
100
AcDbEntity
  8
0
100
AcDbCircle
 10
43.186202
 20
30.926762
 30
0.000000
 40
5.179000
100
AcDbArc
 50
184.048000
 51
-140.952000
  0
ARC
  5
65
330
1F
100
AcDbEntity
  8
0
100
AcDbCircle
 10
37.553202
 20
31.231762
 30
0.000000
 40
4.081000
100
AcDbArc
 50
235.157000
 51
-67.843000
  0
ARC
  5
65
330
1F
100
AcDbEntity
  8
0
100
AcDbCircle
 10
36.431202
 20
27.055762
 30
0.000000
 40
1.717000
100
AcDbArc
 50
151.512000
 51
-143.488000
  0
ARC
  5
65
330
1F
100
AcDbEntity
  8
0
100
AcDbCircle
 10
42.056202
 20
15.165762
 30
0.000000
 40
14.529000
100
AcDbArc
 50
110.075000
 51
-242.925000
  0
ARC
  5
65
330
1F
100
AcDbEntity
  8
0
100
AcDbCircle
 10
36.583202
 20
32.970762
 30
0.000000
 40
1.680000
100
AcDbArc
 50
214.743000
 51
-73.257000
  0
ARC
  5
65
330
1F
100
AcDbEntity
  8
0
100
AcDbCircle
 10
35.504202
 20
35.425762
 30
0.000000
 40
3.325000
100
AcDbArc
 50
222.911000
 51
-101.089000
  0
ARC
  5
65
330
1F
100
AcDbEntity
  8
0
100
AcDbCircle
 10
37.765202
 20
31.753762
 30
0.000000
 40
2.763000
100
AcDbArc
 50
119.394000
 51
-193.606000
  0
ARC
  5
65
330
1F
100
AcDbEntity
  8
0
100
AcDbCircle
 10
34.246202
 20
29.006762
 30
0.000000
 40
1.297000
100
AcDbArc
 50
318.402000
 51
51.402000
  0
ARC
  5
65
330
1F
100
AcDbEntity
  8
0
100
AcDbCircle
 10
38.673202
 20
32.637762
 30
0.000000
 40
0.657000
100
AcDbArc
 50
147.678000
 51
-134.322000
  0
ARC
  5
65
330
1F
100
AcDbEntity
  8
0
100
AcDbCircle
 10
38.822202
 20
33.403762
 30
0.000000
 40
0.605000
100
AcDbArc
 50
49.086000
 51
-176.914000
  0
ARC
  5
65
330
1F
100
AcDbEntity
  8
0
100
AcDbCircle
 10
40.909202
 20
32.318762
 30
0.000000
 40
0.485000
100
AcDbArc
 50
216.553000
 51
-19.447000
  0
ARC
  5
65
330
1F
100
AcDbEntity
  8
0
100
AcDbCircle
 10
38.585202
 20
32.567762
 30
0.000000
 40
1.940000
100
AcDbArc
 50
352.233000
 51
56.233000
  0
ARC
  5
65
330
1F
100
AcDbEntity
  8
0
100
AcDbCircle
 10
43.051202
 20
31.061762
 30
0.000000
 40
2.829000
100
AcDbArc
 50
161.455000
 51
-161.545000
  0
ARC
  5
65
330
1F
100
AcDbEntity
  8
0
100
AcDbCircle
 10
39.934202
 20
31.294762
 30
0.000000
 40
1.034000
100
AcDbArc
 50
74.190000
 51
-237.810000
  0
ARC
  5
65
330
1F
100
AcDbEntity
  8
0
100
AcDbCircle
 10
38.703202
 20
30.990762
 30
0.000000
 40
0.515000
100
AcDbArc
 50
236.466000
 51
2.466000
  0
ARC
  5
65
330
1F
100
AcDbEntity
  8
0
100
AcDbCircle
 10
41.555202
 20
32.994762
 30
0.000000
 40
4.250000
100
AcDbArc
 50
218.281000
 51
-115.719000
  0
ARC
  5
65
330
1F
100
AcDbEntity
  8
0
100
AcDbCircle
 10
40.627202
 20
28.149762
 30
0.000000
 40
1.403000
100
AcDbArc
 50
142.143000
 51
-161.857000
  0
ARC
  5
65
330
1F
100
AcDbEntity
  8
0
100
AcDbCircle
 10
40.163202
 20
24.022762
 30
0.000000
 40
3.691000
100
AcDbArc
 50
70.942000
 51
-259.058000
  0
ARC
  5
65
330
1F
100
AcDbEntity
  8
0
100
AcDbCircle
 10
41.361202
 20
27.882762
 30
0.000000
 40
2.013000
100
AcDbArc
 50
195.209000
 51
-111.791000
  0
ARC
  5
65
330
1F
100
AcDbEntity
  8
0
100
AcDbCircle
 10
37.254202
 20
27.862762
 30
0.000000
 40
1.984000
100
AcDbArc
 50
291.110000
 51
-15.890000
  0
ARC
  5
65
330
1F
100
AcDbEntity
  8
0
100
AcDbCircle
 10
38.117202
 20
26.062762
 30
0.000000
 40
1.747000
100
AcDbArc
 50
56.009000
 51
-239.991000
  0
LINE
  8
ELETRODUTO_TETO
 10
44.680202
 20
25.818762
 30
0.000000
 11
45.380202
 21
25.818762
 31
0.000000
  0
LINE
  8
ELETRODUTO_PAREDE
 10
37.069202
 20
27.561762
 30
0.000000
 11
37.144202
 21
27.561762
 31
0.000000
  0
LINE
  8
ELETRODUTO_PAREDE
 10
35.069202
 20
30.011762
 30
0.000000
 11
35.069202
 21
30.161762
 31
0.000000
  0
LINE
  8
ELETRODUTO_PAREDE
 10
33.069202
 20
31.161762
 30
0.000000
 11
32.994202
 21
31.161762
 31
0.000000
  0
LINE
  8
ELETRODUTO_PAREDE
 10
32.994202
 20
31.161762
 30
0.000000
 11
32.994202
 21
33.161762
 31
0.000000
  0
LINE
  8
ELETRODUTO_PAREDE
 10
33.069202
 20
33.161762
 30
0.000000
 11
32.994202
 21
33.161762
 31
0.000000
  0
LINE
  8
ELETRODUTO_PAREDE
 10
37.069202
 20
31.360762
 30
0.000000
 11
37.144202
 21
31.360762
 31
0.000000
  0
LINE
  8
ELETRODUTO_PAREDE
 10
37.144202
 20
31.360762
 30
0.000000
 11
37.144202
 21
32.611762
 31
0.000000
  0
LINE
  8
ELETRODUTO_PAREDE
 10
37.069202
 20
32.611762
 30
0.000000
 11
37.144202
 21
32.611762
 31
0.000000
  0
LINE
  8
ELETRODUTO_PAREDE
 10
38.219202
 20
32.161762
 30
0.000000
 11
38.219202
 21
32.086762
 31
0.000000
  0
LINE
  8
ELETRODUTO_PAREDE
 10
38.219202
 20
32.086762
 30
0.000000
 11
38.718202
 21
32.086762
 31
0.000000
  0
LINE
  8
ELETRODUTO_PAREDE
 10
38.718202
 20
32.086762
 30
0.000000
 11
38.718202
 21
32.161762
 31
0.000000
  0
LINE
  8
ELETRODUTO_PAREDE
 10
39.719202
 20
29.161762
 30
0.000000
 11
39.719202
 21
29.086762
 31
0.000000
  0
LINE
  8
ELETRODUTO_PAREDE
 10
39.719202
 20
29.086762
 30
0.000000
 11
40.294202
 21
29.086762
 31
0.000000
  0
LINE
  8
ELETRODUTO_PAREDE
 10
40.294202
 20
29.161762
 30
0.000000
 11
40.294202
 21
29.086762
 31
0.000000
  0
LINE
  8
ELETRODUTO_PAREDE
 10
37.144202
 20
27.561762
 30
0.000000
 11
37.144202
 21
28.811762
 31
0.000000
  0
LINE
  8
ELETRODUTO_PAREDE
 10
37.069202
 20
28.811762
 30
0.000000
 11
37.144202
 21
28.811762
 31
0.000000
  0
LINE
  8
ELETRODUTO_PAREDE
 10
44.680202
 20
25.318762
 30
0.000000
 11
45.380202
 21
25.318762
 31
0.000000
  0
LINE
  8
CIRCUITOS
 10
33.963202
 20
27.430762
 30
0.000000
 11
33.438202
 21
27.430762
 31
0.000000
  0
LINE
  8
CIRCUITOS
 10
33.438202
 20
27.430762
 30
0.000000
 11
33.341202
 21
27.664762
 31
0.000000
  0
LINE
  8
CIRCUITOS
 10
37.732202
 20
33.811762
 30
0.000000
 11
38.225202
 21
33.811762
 31
0.000000
  0
LINE
  8
CIRCUITOS
 10
38.225202
 20
33.811762
 30
0.000000
 11
38.323202
 21
33.744762
 31
0.000000
  0
LINE
  8
CIRCUITOS
 10
33.632202
 20
32.278762
 30
0.000000
 11
33.128202
 21
32.278762
 31
0.000000
  0
LINE
  8
CIRCUITOS
 10
32.994202
 20
32.416762
 30
0.000000
 11
33.128202
 21
32.278762
 31
0.000000
  0
LINE
  8
CIRCUITOS
 10
36.507202
 20
27.987762
 30
0.000000
 11
36.972202
 21
27.987762
 31
0.000000
  0
LINE
  8
CIRCUITOS
 10
36.972202
 20
27.987762
 30
0.000000
 11
37.144202
 21
28.093762
 31
0.000000
  0
LINE
  8
CIRCUITOS
 10
35.994202
 20
30.329762
 30
0.000000
 11
35.506202
 21
30.329762
 31
0.000000
  0
LINE
  8
CIRCUITOS
 10
35.506202
 20
30.329762
 30
0.000000
 11
35.069202
 21
30.086762
 31
0.000000
  0
LINE
  8
CIRCUITOS
 10
36.506202
 20
31.931762
 30
0.000000
 11
37.011202
 21
31.931762
 31
0.000000
  0
LINE
  8
CIRCUITOS
 10
37.011202
 20
31.931762
 30
0.000000
 11
37.144202
 21
32.080762
 31
0.000000
  0
LINE
  8
CIRCUITOS
 10
39.178202
 20
32.852762
 30
0.000000
 11
38.347202
 21
32.852762
 31
0.000000
  0
LINE
  8
CIRCUITOS
 10
38.347202
 20
32.852762
 30
0.000000
 11
38.015202
 21
32.637762
 31
0.000000
  0
LINE
  8
CIRCUITOS
 10
37.777202
 20
31.670762
 30
0.000000
 11
38.326202
 21
31.670762
 31
0.000000
  0
LINE
  8
CIRCUITOS
 10
38.326202
 20
31.670762
 30
0.000000
 11
38.595202
 21
32.086762
 31
0.000000
  0
LINE
  8
CIRCUITOS
 10
40.774202
 20
28.662762
 30
0.000000
 11
40.265202
 21
28.662762
 31
0.000000
  0
LINE
  8
CIRCUITOS
 10
40.265202
 20
28.662762
 30
0.000000
 11
40.006202
 21
29.086762
 31
0.000000
  0
TEXT
  5
64
330
1F
100
AcDbEntity
  8
0
100
AcDbText
 10
40.223202
 20
32.187762
 30
0.000000
 40
0.075000
  1
100 W
 50
0.000000
100
AcDbText
  0
CIRCLE
  8
LAYER 0
 10
40.369202
 20
32.161762
 30
0.000000
 40
0.200000
  0
LINE
  8
CIRCUITOS
 10
40.569202
 20
32.161762
 30
0.000000
 11
40.169202
 21
32.161762
 31
0.000000
  0
TEXT
  5
64
330
1F
100
AcDbEntity
  8
0
100
AcDbText
 10
40.407202
 20
32.040762
 30
0.000000
 40
0.075000
  1
1
 50
0.000000
100
AcDbText
  0
LINE
  8
CIRCUITOS
 10
40.369202
 20
32.161762
 30
0.000000
 11
40.369202
 21
31.961762
 31
0.000000
  0
TEXT
  5
64
330
1F
100
AcDbEntity
  8
0
100
AcDbText
 10
40.265202
 20
32.040762
 30
0.000000
 40
0.075000
  1
D
 50
0.000000
100
AcDbText
  0
CIRCLE
  8
LAYER 0
 10
39.371202
 20
27.659762
 30
0.000000
 40
0.200000
  0
INSERT
  5
67
330
1F
100
AcDbEntity
  8
0
100
AcDbBlockReference
 66
     1
  2
TOMADA_MEDIA
 10
37.069202
 20
32.611762
 50
180.000000
  0
ATTRIB
  5
68
330
67
100
AcDbEntity
  8
0
100
AcDbText
 10
36.794202
 20
32.745762
 30
0.000000
 40
0.075000
  1
-2-
100
AcDbAttribute
  2
CIRC_NUM
 70
     0
  0
ATTRIB
  5
68
330
67
100
AcDbEntity
  8
0
100
AcDbText
 10
36.624202
 20
32.387762
 30
0.000000
 40
0.075000
  1
100VA
100
AcDbAttribute
  2
POT_TOM
 70
     0
  0
SEQEND
  0
INSERT
  5
67
330
1F
100
AcDbEntity
  8
0
100
AcDbBlockReference
 66
     1
  2
TOMADA_MEDIA
 10
35.069202
 20
30.161762
 50
90.000000
  0
ATTRIB
  5
68
330
67
100
AcDbEntity
  8
0
100
AcDbText
 10
34.919202
 20
30.311762
 30
0.000000
 40
0.075000
  1
-2-
100
AcDbAttribute
  2
CIRC_NUM
 70
     0
  0
ATTRIB
  5
68
330
67
100
AcDbEntity
  8
0
100
AcDbText
 10
35.294202
 20
30.311762
 30
0.000000
 40
0.075000
  1
100VA
100
AcDbAttribute
  2
POT_TOM
 70
     0
  0
SEQEND
  0
INSERT
  5
67
330
1F
100
AcDbEntity
  8
0
100
AcDbBlockReference
 66
     1
  2
TOMADA_MEDIA
 10
33.069202
 20
31.161762
 50
0.000000
  0
ATTRIB
  5
68
330
67
100
AcDbEntity
  8
0
100
AcDbText
 10
33.219202
 20
31.311762
 30
0.000000
 40
0.075000
  1
-2-
100
AcDbAttribute
  2
CIRC_NUM
 70
     0
  0
ATTRIB
  5
68
330
67
100
AcDbEntity
  8
0
100
AcDbText
 10
33.219202
 20
30.936762
 30
0.000000
 40
0.075000
  1
100VA
100
AcDbAttribute
  2
POT_TOM
 70
     0
  0
SEQEND
  0
INSERT
  5
67
330
1F
100
AcDbEntity
  8
0
100
AcDbBlockReference
 66
     1
  2
TOMADA_MEDIA
 10
35.069202
 20
26.011762
 50
90.017000
  0
ATTRIB
  5
68
330
67
100
AcDbEntity
  8
0
100
AcDbText
 10
34.919202
 20
26.161762
 30
0.000000
 40
0.075000
  1
-2-
100
AcDbAttribute
  2
CIRC_NUM
 70
     0
  0
ATTRIB
  5
68
330
67
100
AcDbEntity
  8
0
100
AcDbText
 10
35.294202
 20
26.161762
 30
0.000000
 40
0.075000
  1
100VA
100
AcDbAttribute
  2
POT_TOM
 70
     0
  0
SEQEND
  0
INSERT
  5
67
330
1F
100
AcDbEntity
  8
0
100
AcDbBlockReference
 66
     1
  2
TOMADA_MEDIA
 10
35.069202
 20
30.011762
 50
270.000000
  0
ATTRIB
  5
68
330
67
100
AcDbEntity
  8
0
100
AcDbText
 10
35.143202
 20
29.617762
 30
0.000000
 40
0.075000
  1
-2-
100
AcDbAttribute
  2
CIRC_NUM
 70
     0
  0
ATTRIB
  5
68
330
67
100
AcDbEntity
  8
0
100
AcDbText
 10
35.195202
 20
29.764762
 30
0.000000
 40
0.075000
  1
100VA
100
AcDbAttribute
  2
POT_TOM
 70
     0
  0
SEQEND
  0
INSERT
  5
67
330
1F
100
AcDbEntity
  8
0
100
AcDbBlockReference
 66
     1
  2
TOMADA_MEDIA
 10
37.219202
 20
27.561762
 50
0.000000
  0
ATTRIB
  5
68
330
67
100
AcDbEntity
  8
0
100
AcDbText
 10
37.310202
 20
27.696762
 30
0.000000
 40
0.075000
  1
-2-
100
AcDbAttribute
  2
CIRC_NUM
 70
     0
  0
ATTRIB
  5
68
330
67
100
AcDbEntity
  8
0
100
AcDbText
 10
37.369202
 20
27.336762
 30
0.000000
 40
0.075000
  1
600VA
100
AcDbAttribute
  2
POT_TOM
 70
     0
  0
SEQEND
  0
INSERT
  5
67
330
1F
100
AcDbEntity
  8
0
100
AcDbBlockReference
 66
     1
  2
TOMADA_MEDIA
 10
41.369202
 20
27.511762
 50
180.000000
  0
ATTRIB
  5
68
330
67
100
AcDbEntity
  8
0
100
AcDbText
 10
41.109202
 20
27.642762
 30
0.000000
 40
0.075000
  1
-2-
100
AcDbAttribute
  2
CIRC_NUM
 70
     0
  0
ATTRIB
  5
68
330
67
100
AcDbEntity
  8
0
100
AcDbText
 10
40.918202
 20
27.289762
 30
0.000000
 40
0.075000
  1
100VA
100
AcDbAttribute
  2
POT_TOM
 70
     0
  0
SEQEND
  0
INSERT
  5
67
330
1F
100
AcDbEntity
  8
0
100
AcDbBlockReference
 66
     1
  2
TOMADA_MEDIA
 10
39.219202
 20
31.011762
 50
180.000000
  0
ATTRIB
  5
68
330
67
100
AcDbEntity
  8
0
100
AcDbText
 10
38.944202
 20
31.152762
 30
0.000000
 40
0.075000
  1
-2-
100
AcDbAttribute
  2
CIRC_NUM
 70
     0
  0
ATTRIB
  5
68
330
67
100
AcDbEntity
  8
0
100
AcDbText
 10
38.782202
 20
30.781762
 30
0.000000
 40
0.075000
  1
100VA
100
AcDbAttribute
  2
POT_TOM
 70
     0
  0
SEQEND
  0
INSERT
  5
67
330
1F
100
AcDbEntity
  8
0
100
AcDbBlockReference
 66
     1
  2
TOMADA_MEDIA
 10
38.719202
 20
32.161762
 50
90.000000
  0
ATTRIB
  5
68
330
67
100
AcDbEntity
  8
0
100
AcDbText
 10
38.640202
 20
32.493762
 30
0.000000
 40
0.075000
  1
-2-
100
AcDbAttribute
  2
CIRC_NUM
 70
     0
  0
ATTRIB
  5
68
330
67
100
AcDbEntity
  8
0
100
AcDbText
 10
38.944202
 20
32.311762
 30
0.000000
 40
0.075000
  1
100VA
100
AcDbAttribute
  2
POT_TOM
 70
     0
  0
SEQEND
  0
INSERT
  5
67
330
1F
100
AcDbEntity
  8
0
100
AcDbBlockReference
 66
     1
  2
TOMADA_MEDIA
 10
39.369202
 20
32.161762
 50
0.000000
  0
ATTRIB
  5
68
330
67
100
AcDbEntity
  8
0
100
AcDbText
 10
39.519202
 20
32.311762
 30
0.000000
 40
0.075000
  1
2
100
AcDbAttribute
  2
CIRC_NUM
 70
     0
  0
ATTRIB
  5
68
330
67
100
AcDbEntity
  8
0
100
AcDbText
 10
39.519202
 20
31.936762
 30
0.000000
 40
0.075000
  1
600VA
100
AcDbAttribute
  2
POT_TOM
 70
     0
  0
SEQEND
  0
INSERT
  5
67
330
1F
100
AcDbEntity
  8
0
100
AcDbBlockReference
 66
     1
  2
TOMADA_MEDIA
 10
39.691202
 20
34.161762
 50
270.000000
  0
ATTRIB
  5
68
330
67
100
AcDbEntity
  8
0
100
AcDbText
 10
39.555202
 20
33.878762
 30
0.000000
 40
0.075000
  1
1
100
AcDbAttribute
  2
CIRC_NUM
 70
     0
  0
ATTRIB
  5
68
330
67
100
AcDbEntity
  8
0
100
AcDbText
 10
39.911202
 20
33.700762
 30
0.000000
 40
0.075000
  1
600VA
100
AcDbAttribute
  2
POT_TOM
 70
     0
  0
SEQEND
  0
INSERT
  5
67
330
1F
100
AcDbEntity
  8
0
100
AcDbBlockReference
 66
     1
  2
TOMADA_MEDIA
 10
41.369202
 20
32.161762
 50
180.000000
  0
ATTRIB
  5
68
330
67
100
AcDbEntity
  8
0
100
AcDbText
 10
41.101202
 20
31.967762
 30
0.000000
 40
0.075000
  1
3
100
AcDbAttribute
  2
CIRC_NUM
 70
     0
  0
ATTRIB
  5
68
330
67
100
AcDbEntity
  8
0
100
AcDbText
 10
41.038202
 20
32.291762
 30
0.000000
 40
0.075000
  1
600VA
100
AcDbAttribute
  2
POT_TOM
 70
     0
  0
SEQEND
  0
INSERT
  5
67
330
1F
100
AcDbEntity
  8
0
100
AcDbBlockReference
 66
     1
  2
TOMADA_MEDIA
 10
37.969202
 20
26.011762
 50
90.000000
  0
ATTRIB
  5
68
330
67
100
AcDbEntity
  8
0
100
AcDbText
 10
37.819202
 20
26.161762
 30
0.000000
 40
0.075000
  1
-2-
100
AcDbAttribute
  2
CIRC_NUM
 70
     0
  0
ATTRIB
  5
68
330
67
100
AcDbEntity
  8
0
100
AcDbText
 10
38.194202
 20
26.161762
 30
0.000000
 40
0.075000
  1
600VA
100
AcDbAttribute
  2
POT_TOM
 70
     0
  0
SEQEND
  0
INSERT
  5
67
330
1F
100
AcDbEntity
  8
0
100
AcDbBlockReference
 66
     1
  2
TOMADA_BAIXA
 10
36.408202
 20
34.161762
 50
270.000000
  0
ATTRIB
  5
68
330
67
100
AcDbEntity
  8
0
100
AcDbText
 10
36.275202
 20
33.880762
 30
0.000000
 40
0.075000
  1
-2-
100
AcDbAttribute
  2
CIRC_NUM
 70
     0
  0
ATTRIB
  5
68
330
67
100
AcDbEntity
  8
0
100
AcDbText
 10
36.639202
 20
33.698762
 30
0.000000
 40
0.075000
  1
100VA
100
AcDbAttribute
  2
POT_TOM
 70
     0
  0
SEQEND
  0
INSERT
  5
67
330
1F
100
AcDbEntity
  8
0
100
AcDbBlockReference
 66
     1
  2
TOMADA_BAIXA
 10
39.719202
 20
29.161762
 50
90.000000
  0
ATTRIB
  5
68
330
67
100
AcDbEntity
  8
0
100
AcDbText
 10
39.569202
 20
29.311762
 30
0.000000
 40
0.075000
  1
-2-
100
AcDbAttribute
  2
CIRC_NUM
 70
     0
  0
ATTRIB
  5
68
330
67
100
AcDbEntity
  8
0
100
AcDbText
 10
39.944202
 20
29.311762
 30
0.000000
 40
0.075000
  1
100VA
100
AcDbAttribute
  2
POT_TOM
 70
     0
  0
SEQEND
  0
INSERT
  5
67
330
1F
100
AcDbEntity
  8
0
100
AcDbBlockReference
 66
     1
  2
TOMADA_ALTA
 10
39.219202
 20
33.860762
 50
180.000000
  0
ATTRIB
  5
68
330
67
100
AcDbEntity
  8
0
100
AcDbText
 10
38.939202
 20
34.015762
 30
0.000000
 40
0.075000
  1
-3-
100
AcDbAttribute
  2
CIRC_NUM
 70
     0
  0
ATTRIB
  5
68
330
67
100
AcDbEntity
  8
0
100
AcDbText
 10
38.738202
 20
33.640762
 30
0.000000
 40
0.075000
  1
6500W
100
AcDbAttribute
  2
POT_TOM
 70
     0
  0
SEQEND
  0
INSERT
  5
67
330
1F
100
AcDbEntity
  8
0
100
AcDbBlockReference
 66
     1
  2
TOMADA_ALTA
 10
33.754202
 20
34.161762
 50
270.000000
  0
ATTRIB
  5
68
330
67
100
AcDbEntity
  8
0
100
AcDbText
 10
33.904202
 20
34.011762
 30
0.000000
 40
0.075000
  1
-4-
100
AcDbAttribute
  2
CIRC_NUM
 70
     0
  0
ATTRIB
  5
68
330
67
100
AcDbEntity
  8
0
100
AcDbText
 10
33.881202
 20
33.843762
 30
0.000000
 40
0.075000
  1
1800VA
100
AcDbAttribute
  2
POT_TOM
 70
     0
  0
SEQEND
  0
INSERT
  5
67
330
1F
100
AcDbEntity
  8
0
100
AcDbBlockReference
 66
     1
  2
TOMADA_ALTA
 10
33.069202
 20
26.480762
 50
0.000000
  0
ATTRIB
  5
68
330
67
100
AcDbEntity
  8
0
100
AcDbText
 10
33.219202
 20
26.630762
 30
0.000000
 40
0.075000
  1
-5-
100
AcDbAttribute
  2
CIRC_NUM
 70
     0
  0
ATTRIB
  5
68
330
67
100
AcDbEntity
  8
0
100
AcDbText
 10
33.219202
 20
26.255762
 30
0.000000
 40
0.075000
  1
1800VA
100
AcDbAttribute
  2
POT_TOM
 70
     0
  0
SEQEND
  0
INSERT
  5
67
330
1F
100
AcDbEntity
  8
0
100
AcDbBlockReference
 66
     1
  2
TOMADA_BAIXA
 10
37.069202
 20
27.561762
 50
180.000000
  0
ATTRIB
  5
68
330
67
100
AcDbEntity
  8
0
100
AcDbText
 10
36.778202
 20
27.701762
 30
0.000000
 40
0.075000
  1
-2-
100
AcDbAttribute
  2
CIRC_NUM
 70
     0
  0
ATTRIB
  5
68
330
67
100
AcDbEntity
  8
0
100
AcDbText
 10
36.614202
 20
27.343762
 30
0.000000
 40
0.075000
  1
100VA
100
AcDbAttribute
  2
POT_TOM
 70
     0
  0
SEQEND
  0
INSERT
  5
67
330
1F
100
AcDbEntity
  8
0
100
AcDbBlockReference
 66
     1
  2
TOMADA_MEDIA
 10
40.619202
 20
26.011762
 50
90.000000
  0
ATTRIB
  5
68
330
67
100
AcDbEntity
  8
0
100
AcDbText
 10
40.469202
 20
26.161762
 30
0.000000
 40
0.075000
  1
-2-
100
AcDbAttribute
  2
CIRC_NUM
 70
     0
  0
ATTRIB
  5
68
330
67
100
AcDbEntity
  8
0
100
AcDbText
 10
40.844202
 20
26.161762
 30
0.000000
 40
0.075000
  1
600VA
100
AcDbAttribute
  2
POT_TOM
 70
     0
  0
SEQEND
  0
INSERT
  5
67
330
1F
100
AcDbEntity
  8
0
100
AcDbBlockReference
 66
     1
  2
TOMADA_BAIXA
 10
44.840202
 20
29.320762
 50
0.000000
  0
ATTRIB
  5
68
330
67
100
AcDbEntity
  8
0
100
AcDbText
 10
45.073202
 20
29.428762
 30
0.000000
 40
0.075000
  1
-X-
100
AcDbAttribute
  2
CIRC_NUM
 70
     0
  0
ATTRIB
  5
68
330
67
100
AcDbEntity
  8
0
100
AcDbText
 10
44.966202
 20
29.126762
 30
0.000000
 40
0.075000
  1
XXXVA
100
AcDbAttribute
  2
POT_TOM
 70
     0
  0
SEQEND
  0
INSERT
  5
67
330
1F
100
AcDbEntity
  8
0
100
AcDbBlockReference
 66
     1
  2
TOMADA_MEDIA
 10
44.840202
 20
28.843762
 50
0.000000
  0
ATTRIB
  5
68
330
67
100
AcDbEntity
  8
0
100
AcDbText
 10
45.063202
 20
28.958762
 30
0.000000
 40
0.075000
  1
-X-
100
AcDbAttribute
  2
CIRC_NUM
 70
     0
  0
ATTRIB
  5
68
330
67
100
AcDbEntity
  8
0
100
AcDbText
 10
44.961202
 20
28.651762
 30
0.000000
 40
0.075000
  1
XXXVA
100
AcDbAttribute
  2
POT_TOM
 70
     0
  0
SEQEND
  0
INSERT
  5
67
330
1F
100
AcDbEntity
  8
0
100
AcDbBlockReference
 66
     1
  2
TOMADA_ALTA
 10
44.840202
 20
28.329762
 50
0.000000
  0
ATTRIB
  5
68
330
67
100
AcDbEntity
  8
0
100
AcDbText
 10
45.054202
 20
28.438762
 30
0.000000
 40
0.075000
  1
-X-
100
AcDbAttribute
  2
CIRC_NUM
 70
     0
  0
ATTRIB
  5
68
330
67
100
AcDbEntity
  8
0
100
AcDbText
 10
44.956202
 20
28.131762
 30
0.000000
 40
0.075000
  1
XXXVA
100
AcDbAttribute
  2
POT_TOM
 70
     0
  0
SEQEND
  0
INSERT
  5
67
330
1F
100
AcDbEntity
  8
0
100
AcDbBlockReference
 66
     1
  2
FASE_NEUTRO
 10
47.096202
 20
34.418762
 50
0.000000
  0
ATTRIB
  5
68
330
67
100
AcDbEntity
  8
0
100
AcDbText
 10
47.085202
 20
34.572762
 30
0.000000
 40
0.057000
  1
 
100
AcDbAttribute
  2
FN
 70
     0
  0
SEQEND
  0
INSERT
  5
67
330
1F
100
AcDbEntity
  8
0
100
AcDbBlockReference
 66
     1
  2
FASE_NEUTRO_TERRA
 10
47.096202
 20
34.037762
 50
0.000000
  0
ATTRIB
  5
68
330
67
100
AcDbEntity
  8
0
100
AcDbText
 10
47.085202
 20
34.191762
 30
0.000000
 40
0.057000
  1
 
100
AcDbAttribute
  2
FNT
 70
     0
  0
SEQEND
  0
INSERT
  5
67
330
1F
100
AcDbEntity
  8
0
100
AcDbBlockReference
 66
     1
  2
FASE_NEUTRO_TERRA
 10
47.096202
 20
33.655762
 50
0.000000
  0
ATTRIB
  5
68
330
67
100
AcDbEntity
  8
0
100
AcDbText
 10
47.085202
 20
33.809762
 30
0.000000
 40
0.057000
  1
 
100
AcDbAttribute
  2
FNT
 70
     0
  0
SEQEND
  0
INSERT
  5
67
330
1F
100
AcDbEntity
  8
0
100
AcDbBlockReference
 66
     1
  2
FASE_NEUTRO_TERRA
 10
47.096202
 20
33.273762
 50
0.000000
  0
ATTRIB
  5
68
330
67
100
AcDbEntity
  8
0
100
AcDbText
 10
47.085202
 20
33.427762
 30
0.000000
 40
0.057000
  1
 
100
AcDbAttribute
  2
FNT
 70
     0
  0
SEQEND
  0
INSERT
  5
67
330
1F
100
AcDbEntity
  8
0
100
AcDbBlockReference
 66
     1
  2
FASE_NEUTRO_TERRA
 10
47.096202
 20
32.892762
 50
0.000000
  0
ATTRIB
  5
68
330
67
100
AcDbEntity
  8
0
100
AcDbText
 10
47.085202
 20
33.046762
 30
0.000000
 40
0.057000
  1
 
100
AcDbAttribute
  2
FNT
 70
     0
  0
SEQEND
  0
INSERT
  5
67
330
1F
100
AcDbEntity
  8
0
100
AcDbBlockReference
 66
     1
  2
FASE_NEUTRO_TERRA
 10
45.616202
 20
33.273762
 50
0.000000
  0
ATTRIB
  5
68
330
67
100
AcDbEntity
  8
0
100
AcDbText
 10
45.605202
 20
33.427762
 30
0.000000
 40
0.057000
  1
 
100
AcDbAttribute
  2
FNT
 70
     0
  0
SEQEND
  0
INSERT
  5
67
330
1F
100
AcDbEntity
  8
0
100
AcDbBlockReference
 66
     1
  2
FASE_NEUTRO
 10
44.120202
 20
33.273762
 50
0.000000
  0
ATTRIB
  5
68
330
67
100
AcDbEntity
  8
0
100
AcDbText
 10
44.109202
 20
33.427762
 30
0.000000
 40
0.057000
  1
 
100
AcDbAttribute
  2
FN
 70
     0
  0
SEQEND
  0
INSERT
  5
67
330
1F
100
AcDbEntity
  8
0
100
AcDbBlockReference
 66
     1
  2
MeuBloco
 10
31.659202
 20
34.191762
 50
0.000000
  0
ATTRIB
  5
68
330
67
100
AcDbEntity
  8
0
100
AcDbText
 10
31.659202
 20
34.779762
 30
0.000000
 40
0.125000
  1
100W
100
AcDbAttribute
  2
POTENCIA_LAMPADA
 70
     0
  0
ATTRIB
  5
68
330
67
100
AcDbEntity
  8
0
100
AcDbText
 10
31.841202
 20
34.421762
 30
0.000000
 40
0.125000
  1
1
100
AcDbAttribute
  2
CIRCUITO_LAMPADA
 70
     0
  0
SEQEND
  0
INSERT
  5
67
330
1F
100
AcDbEntity
  8
0
100
AcDbBlockReference
 66
     1
  2
MeuBloco
 10
31.659202
 20
32.633762
 50
0.000000
  0
ATTRIB
  5
68
330
67
100
AcDbEntity
  8
0
100
AcDbText
 10
31.659202
 20
33.221762
 30
0.000000
 40
0.125000
  1
100W
100
AcDbAttribute
  2
POTENCIA_LAMPADA
 70
     0
  0
ATTRIB
  5
68
330
67
100
AcDbEntity
  8
0
100
AcDbText
 10
31.841202
 20
32.863762
 30
0.000000
 40
0.125000
  1
1
100
AcDbAttribute
  2
CIRCUITO_LAMPADA
 70
     0
  0
SEQEND
  0
INSERT
  5
67
330
1F
100
AcDbEntity
  8
0
100
AcDbBlockReference
 66
     1
  2
MeuBloco
 10
31.960202
 20
30.863762
 50
0.000000
  0
ATTRIB
  5
68
330
67
100
AcDbEntity
  8
0
100
AcDbText
 10
31.960202
 20
31.451762
 30
0.000000
 40
0.125000
  1
100W
100
AcDbAttribute
  2
POTENCIA_LAMPADA
 70
     0
  0
ATTRIB
  5
68
330
67
100
AcDbEntity
  8
0
100
AcDbText
 10
32.142202
 20
31.093762
 30
0.000000
 40
0.125000
  1
1
100
AcDbAttribute
  2
CIRCUITO_LAMPADA
 70
     0
  0
SEQEND
  0
INSERT
  5
67
330
1F
100
AcDbEntity
  8
0
100
AcDbBlockReference
 66
     1
  2
MeuBloco
 10
31.748202
 20
29.199762
 50
0.000000
  0
ATTRIB
  5
68
330
67
100
AcDbEntity
  8
0
100
AcDbText
 10
31.748202
 20
29.787762
 30
0.000000
 40
0.125000
  1
100W
100
AcDbAttribute
  2
POTENCIA_LAMPADA
 70
     0
  0
ATTRIB
  5
68
330
67
100
AcDbEntity
  8
0
100
AcDbText
 10
31.930202
 20
29.429762
 30
0.000000
 40
0.125000
  1
1
100
AcDbAttribute
  2
CIRCUITO_LAMPADA
 70
     0
  0
SEQEND
  0
INSERT
  5
67
330
1F
100
AcDbEntity
  8
0
100
AcDbBlockReference
 66
     1
  2
PORTA_80
 10
37.069202
 20
29.911762
 50
90.000000
  0
ATTRIB
  5
68
330
67
100
AcDbEntity
  8
0
100
AcDbText
 10
36.881202
 20
28.636762
 30
0.000000
 40
0.075000
  1
B
100
AcDbAttribute
  2
INT_LET
 70
     0
  0
SEQEND
  0
INSERT
  5
67
330
1F
100
AcDbEntity
  8
0
100
AcDbBlockReference
 66
     1
  2
INTERRUPTOR_SIMPLES
 10
38.219202
 20
32.161762
 50
90.000000
  0
ATTRIB
  5
68
330
67
100
AcDbEntity
  8
0
100
AcDbText
 10
38.319202
 20
32.273762
 30
0.000000
 40
0.075000
  1
E
100
AcDbAttribute
  2
INT_LET
 70
     0
  0
SEQEND
  0
INSERT
  5
67
330
1F
100
AcDbEntity
  8
0
100
AcDbBlockReference
 66
     1
  2
INTERRUPTOR_SIMPLES
 10
40.369202
 20
30.161762
 50
90.000000
  0
ATTRIB
  5
68
330
67
100
AcDbEntity
  8
0
100
AcDbText
 10
40.493202
 20
30.292762
 30
0.000000
 40
0.075000
  1
D
100
AcDbAttribute
  2
INT_LET
 70
     0
  0
SEQEND
  0
INSERT
  5
67
330
1F
100
AcDbEntity
  8
0
100
AcDbBlockReference
 66
     1
  2
INTERRUPTOR_SIMPLES
 10
39.519202
 20
29.011762
 50
270.000000
  0
ATTRIB
  5
68
330
67
100
AcDbEntity
  8
0
100
AcDbText
 10
39.653202
 20
28.735762
 30
0.000000
 40
0.075000
  1
C
100
AcDbAttribute
  2
INT_LET
 70
     0
  0
SEQEND
  0
INSERT
  5
67
330
1F
100
AcDbEntity
  8
0
100
AcDbBlockReference
 66
     1
  2
INTERRUPTOR_PARALELO
 10
37.069202
 20
31.360762
 50
0.000000
  0
ATTRIB
  5
68
330
67
100
AcDbEntity
  8
0
100
AcDbText
 10
36.888202
 20
31.485762
 30
0.000000
 40
0.075000
  1
A
100
AcDbAttribute
  2
INT_LET
 70
     0
  0
SEQEND
  0
INSERT
  5
67
330
1F
100
AcDbEntity
  8
0
100
AcDbBlockReference
 66
     1
  2
INTERRUPTOR_PARALELO
 10
33.069202
 20
33.161762
 50
180.000000
  0
ATTRIB
  5
68
330
67
100
AcDbEntity
  8
0
100
AcDbText
 10
33.376202
 20
33.014762
 30
0.000000
 40
0.075000
  1
A
100
AcDbAttribute
  2
INT_LET
 70
     0
  0
SEQEND
  0
INSERT
  5
67
330
1F
100
AcDbEntity
  8
0
100
AcDbBlockReference
 66
     1
  2
INTERRUPTOR_SIMPLES
 10
40.294202
 20
29.161762
 50
90.000000
  0
ATTRIB
  5
68
330
67
100
AcDbEntity
  8
0
100
AcDbText
 10
40.461202
 20
29.338762
 30
0.000000
 40
0.075000
  1
F
100
AcDbAttribute
  2
INT_LET
 70
     0
  0
SEQEND
  0
INSERT
  5
67
330
1F
100
AcDbEntity
  8
0
100
AcDbBlockReference
 66
     1
  2
INTERRUPTOR_SIMPLES
 10
44.840202
 20
30.329762
 50
0.000000
  0
ATTRIB
  5
68
330
67
100
AcDbEntity
  8
0
100
AcDbText
 10
45.065202
 20
30.437762
 30
0.000000
 40
0.075000
  1
X
100
AcDbAttribute
  2
INT_LET
 70
     0
  0
SEQEND
  0
INSERT
  5
67
330
1F
100
AcDbEntity
  8
0
100
AcDbBlockReference
 66
     1
  2
INTERRUPTOR_PARALELO
 10
44.840202
 20
29.807762
 50
180.000000
  0
ATTRIB
  5
68
330
67
100
AcDbEntity
  8
0
100
AcDbText
 10
45.223202
 20
29.995762
 30
0.000000
 40
0.075000
  1
X
100
AcDbAttribute
  2
INT_LET
 70
     0
  0
SEQEND
  0
INSERT
  5
67
330
1F
100
AcDbEntity
  8
0
100
AcDbBlockReference
 66
     1
  2
FASE_NEUTRO_TERRA
 10
33.913202
 20
31.692762
 50
86.759000
  0
ATTRIB
  5
68
330
67
100
AcDbEntity
  8
0
100
AcDbText
 10
33.708202
 20
31.641762
 30
0.000000
 40
0.075000
  1
-4-
100
AcDbAttribute
  2
FNT
 70
     0
  0
SEQEND
  0
INSERT
  5
67
330
1F
100
AcDbEntity
  8
0
100
AcDbBlockReference
 66
     1
  2
FASE_NEUTRO_TERRA
 10
33.668202
 20
27.430762
 50
0.000000
  0
ATTRIB
  5
68
330
67
100
AcDbEntity
  8
0
100
AcDbText
 10
33.605202
 20
27.632762
 30
0.000000
 40
0.075000
  1
-5-
100
AcDbAttribute
  2
FNT
 70
     0
  0
SEQEND
  0
INSERT
  5
67
330
1F
100
AcDbEntity
  8
0
100
AcDbBlockReference
 66
     1
  2
FASE_NEUTRO_TERRA
 10
37.963202
 20
33.811762
 50
0.000000
  0
ATTRIB
  5
68
330
67
100
AcDbEntity
  8
0
100
AcDbText
 10
37.900202
 20
34.013762
 30
0.000000
 40
0.075000
  1
-3-
100
AcDbAttribute
  2
FNT
 70
     0
  0
SEQEND
  0
INSERT
  5
67
330
1F
100
AcDbEntity
  8
0
100
AcDbBlockReference
 66
     1
  2
FASE_NEUTRO_TERRA
 10
36.422202
 20
32.881762
 50
17.990000
  0
ATTRIB
  5
68
330
67
100
AcDbEntity
  8
0
100
AcDbText
 10
36.300202
 20
33.054762
 30
0.000000
 40
0.075000
  1
-3-
100
AcDbAttribute
  2
FNT
 70
     0
  0
SEQEND
  0
INSERT
  5
67
330
1F
100
AcDbEntity
  8
0
100
AcDbBlockReference
 66
     1
  2
FASE_NEUTRO_TERRA
 10
34.965202
 20
31.583762
 50
76.460000
  0
ATTRIB
  5
68
330
67
100
AcDbEntity
  8
0
100
AcDbText
 10
34.755202
 20
31.569762
 30
0.000000
 40
0.075000
  1
-3-
100
AcDbAttribute
  2
FNT
 70
     0
  0
SEQEND
  0
INSERT
  5
67
330
1F
100
AcDbEntity
  8
0
100
AcDbBlockReference
 66
     1
  2
FASE_NEUTRO_TERRA
 10
34.377202
 20
28.108762
 50
348.059000
  0
ATTRIB
  5
68
330
67
100
AcDbEntity
  8
0
100
AcDbText
 10
34.356202
 20
28.306762
 30
0.000000
 40
0.075000
  1
-3-
100
AcDbAttribute
  2
FNT
 70
     0
  0
SEQEND
  0
INSERT
  5
67
330
1F
100
AcDbEntity
  8
0
100
AcDbBlockReference
 66
     1
  2
FASE_NEUTRO
 10
33.612202
 20
28.412762
 50
332.737000
  0
ATTRIB
  5
68
330
67
100
AcDbEntity
  8
0
100
AcDbText
 10
33.642202
 20
28.591762
 30
0.000000
 40
0.075000
  1
-1-
100
AcDbAttribute
  2
FN
 70
     0
  0
SEQEND
  0
INSERT
  5
67
330
1F
100
AcDbEntity
  8
0
100
AcDbBlockReference
 66
     1
  2
FASE_RETORNO
 10
36.004202
 20
28.373762
 50
23.096000
  0
ATTRIB
  5
68
330
67
100
AcDbEntity
  8
0
100
AcDbText
 10
35.792202
 20
28.502762
 30
0.000000
 40
0.075000
  1
-1-
100
AcDbAttribute
  2
F
 70
     0
  0
ATTRIB
  5
68
330
67
100
AcDbEntity
  8
0
100
AcDbText
 10
35.924202
 20
28.558762
 30
0.000000
 40
0.075000
  1
-B-
100
AcDbAttribute
  2
R
 70
     0
  0
SEQEND
  0
INSERT
  5
67
330
1F
100
AcDbEntity
  8
0
100
AcDbBlockReference
 66
     1
  2
FASE_PARALELO
 10
35.528202
 20
31.661762
 50
323.288000
  0
ATTRIB
  5
68
330
67
100
AcDbEntity
  8
0
100
AcDbText
 10
35.586202
 20
31.823762
 30
0.000000
 40
0.075000
  1
-1-
100
AcDbAttribute
  2
FP
 70
     0
  0
SEQEND
  0
INSERT
  5
67
330
1F
100
AcDbEntity
  8
0
100
AcDbBlockReference
 66
     1
  2
FASE_NEUTRO_TERRA
 10
36.029202
 20
31.383762
 50
344.186000
  0
ATTRIB
  5
68
330
67
100
AcDbEntity
  8
0
100
AcDbText
 10
36.022202
 20
31.577762
 30
0.000000
 40
0.075000
  1
-2-
100
AcDbAttribute
  2
FNT
 70
     0
  0
SEQEND
  0
INSERT
  5
67
330
1F
100
AcDbEntity
  8
0
100
AcDbBlockReference
 66
     1
  2
FASE_NEUTRO
 10
35.701202
 20
32.499762
 50
32.822000
  0
ATTRIB
  5
68
330
67
100
AcDbEntity
  8
0
100
AcDbText
 10
35.539202
 20
32.634762
 30
0.000000
 40
0.075000
  1
-1-
100
AcDbAttribute
  2
FN
 70
     0
  0
SEQEND
  0
INSERT
  5
67
330
1F
100
AcDbEntity
  8
0
100
AcDbBlockReference
 66
     1
  2
FASE_NEUTRO_TERRA
 10
35.996202
 20
32.678762
 50
27.043000
  0
ATTRIB
  5
68
330
67
100
AcDbEntity
  8
0
100
AcDbText
 10
35.848202
 20
32.829762
 30
0.000000
 40
0.075000
  1
-2-
100
AcDbAttribute
  2
FNT
 70
     0
  0
SEQEND
  0
INSERT
  5
67
330
1F
100
AcDbEntity
  8
0
100
AcDbBlockReference
 66
     1
  2
RETORNO_PARALELO
 10
34.620202
 20
32.219762
 50
346.072000
  0
ATTRIB
  5
68
330
67
100
AcDbEntity
  8
0
100
AcDbText
 10
34.600202
 20
32.415762
 30
0.000000
 40
0.075000
  1
-A-
100
AcDbAttribute
  2
RP
 70
     0
  0
SEQEND
  0
INSERT
  5
67
330
1F
100
AcDbEntity
  8
0
100
AcDbBlockReference
 66
     1
  2
FASE_NEUTRO_TERRA
 10
34.201202
 20
32.365762
 50
338.584000
  0
ATTRIB
  5
68
330
67
100
AcDbEntity
  8
0
100
AcDbText
 10
34.211202
 20
32.553762
 30
0.000000
 40
0.075000
  1
-2-
100
AcDbAttribute
  2
FNT
 70
     0
  0
SEQEND
  0
INSERT
  5
67
330
1F
100
AcDbEntity
  8
0
100
AcDbBlockReference
 66
     1
  2
FASE_NEUTRO_TERRA
 10
33.386202
 20
32.278762
 50
0.000000
  0
ATTRIB
  5
68
330
67
100
AcDbEntity
  8
0
100
AcDbText
 10
33.323202
 20
32.480762
 30
0.000000
 40
0.075000
  1
-2-
100
AcDbAttribute
  2
FNT
 70
     0
  0
SEQEND
  0
INSERT
  5
67
330
1F
100
AcDbEntity
  8
0
100
AcDbBlockReference
 66
     1
  2
FASE_NEUTRO_TERRA
 10
33.936202
 20
28.259762
 50
338.673000
  0
ATTRIB
  5
68
330
67
100
AcDbEntity
  8
0
100
AcDbText
 10
33.946202
 20
28.447762
 30
0.000000
 40
0.075000
  1
-2-
100
AcDbAttribute
  2
FNT
 70
     0
  0
SEQEND
  0
INSERT
  5
67
330
1F
100
AcDbEntity
  8
0
100
AcDbBlockReference
 66
     1
  2
FASE_NEUTRO_TERRA
 10
34.862202
 20
31.100762
 50
78.984000
  0
ATTRIB
  5
68
330
67
100
AcDbEntity
  8
0
100
AcDbText
 10
34.652202
 20
31.076762
 30
0.000000
 40
0.075000
  1
-2-
100
AcDbAttribute
  2
FNT
 70
     0
  0
SEQEND
  0
INSERT
  5
67
330
1F
100
AcDbEntity
  8
0
100
AcDbBlockReference
 66
     1
  2
FASE_NEUTRO
 10
34.803202
 20
30.710762
 50
82.296000
  0
ATTRIB
  5
68
330
67
100
AcDbEntity
  8
0
100
AcDbText
 10
34.595202
 20
30.675762
 30
0.000000
 40
0.075000
  1
-1-
100
AcDbAttribute
  2
FN
 70
     0
  0
SEQEND
  0
INSERT
  5
67
330
1F
100
AcDbEntity
  8
0
100
AcDbBlockReference
 66
     1
  2
FASE_NEUTRO_TERRA
 10
34.714202
 20
27.055762
 50
86.521000
  0
ATTRIB
  5
68
330
67
100
AcDbEntity
  8
0
100
AcDbText
 10
34.509202
 20
27.005762
 30
0.000000
 40
0.075000
  1
-2-
100
AcDbAttribute
  2
FNT
 70
     0
  0
SEQEND
  0
INSERT
  5
67
330
1F
100
AcDbEntity
  8
0
100
AcDbBlockReference
 66
     1
  2
FASE_NEUTRO_TERRA
 10
36.327202
 20
28.516762
 50
22.887000
  0
ATTRIB
  5
68
330
67
100
AcDbEntity
  8
0
100
AcDbText
 10
36.191202
 20
28.678762
 30
0.000000
 40
0.075000
  1
-2-
100
AcDbAttribute
  2
FNT
 70
     0
  0
SEQEND
  0
INSERT
  5
67
330
1F
100
AcDbEntity
  8
0
100
AcDbBlockReference
 66
     1
  2
FASE_NEUTRO_TERRA
 10
36.729202
 20
27.987762
 50
0.000000
  0
ATTRIB
  5
68
330
67
100
AcDbEntity
  8
0
100
AcDbText
 10
36.666202
 20
28.189762
 30
0.000000
 40
0.075000
  1
-2-
100
AcDbAttribute
  2
FNT
 70
     0
  0
SEQEND
  0
INSERT
  5
67
330
1F
100
AcDbEntity
  8
0
100
AcDbBlockReference
 66
     1
  2
FASE_NEUTRO_TERRA
 10
35.544202
 20
29.006762
 50
93.900000
  0
ATTRIB
  5
68
330
67
100
AcDbEntity
  8
0
100
AcDbText
 10
35.343202
 20
28.930762
 30
0.000000
 40
0.075000
  1
-2-
100
AcDbAttribute
  2
FNT
 70
     0
  0
SEQEND
  0
INSERT
  5
67
330
1F
100
AcDbEntity
  8
0
100
AcDbBlockReference
 66
     1
  2
FASE_NEUTRO
 10
35.684202
 20
27.603762
 50
333.675000
  0
ATTRIB
  5
68
330
67
100
AcDbEntity
  8
0
100
AcDbText
 10
35.711202
 20
27.783762
 30
0.000000
 40
0.075000
  1
-1-
100
AcDbAttribute
  2
FN
 70
     0
  0
SEQEND
  0
INSERT
  5
67
330
1F
100
AcDbEntity
  8
0
100
AcDbBlockReference
 66
     1
  2
FASE_NEUTRO_TERRA
 10
36.020202
 20
27.449762
 50
338.560000
  0
ATTRIB
  5
68
330
67
100
AcDbEntity
  8
0
100
AcDbText
 10
36.031202
 20
27.636762
 30
0.000000
 40
0.075000
  1
-2-
100
AcDbAttribute
  2
FNT
 70
     0
  0
SEQEND
  0
INSERT
  5
67
330
1F
100
AcDbEntity
  8
0
100
AcDbBlockReference
 66
     1
  2
FASE_NEUTRO_TERRA
 10
35.776202
 20
30.329762
 50
0.000000
  0
ATTRIB
  5
68
330
67
100
AcDbEntity
  8
0
100
AcDbText
 10
35.713202
 20
30.531762
 30
0.000000
 40
0.075000
  1
-2-
100
AcDbAttribute
  2
FNT
 70
     0
  0
SEQEND
  0
INSERT
  5
67
330
1F
100
AcDbEntity
  8
0
100
AcDbBlockReference
 66
     1
  2
FASE_NEUTRO_TERRA
 10
35.547202
 20
33.403762
 50
51.263000
  0
ATTRIB
  5
68
330
67
100
AcDbEntity
  8
0
100
AcDbText
 10
35.351202
 20
33.480762
 30
0.000000
 40
0.075000
  1
-2-
100
AcDbAttribute
  2
FNT
 70
     0
  0
SEQEND
  0
INSERT
  5
67
330
1F
100
AcDbEntity
  8
0
100
AcDbBlockReference
 66
     1
  2
FASE_NEUTRO_TERRA
 10
36.761202
 20
31.931762
 50
0.000000
  0
ATTRIB
  5
68
330
67
100
AcDbEntity
  8
0
100
AcDbText
 10
36.698202
 20
32.132762
 30
0.000000
 40
0.075000
  1
-2-
100
AcDbAttribute
  2
FNT
 70
     0
  0
SEQEND
  0
INSERT
  5
67
330
1F
100
AcDbEntity
  8
0
100
AcDbBlockReference
 66
     1
  2
FASE_RETORNO
 10
38.572202
 20
32.852762
 50
0.000000
  0
ATTRIB
  5
68
330
67
100
AcDbEntity
  8
0
100
AcDbText
 10
38.428202
 20
33.054762
 30
0.000000
 40
0.075000
  1
-1-
100
AcDbAttribute
  2
F
 70
     0
  0
ATTRIB
  5
68
330
67
100
AcDbEntity
  8
0
100
AcDbText
 10
38.572202
 20
33.054762
 30
0.000000
 40
0.075000
  1
-E-
100
AcDbAttribute
  2
R
 70
     0
  0
SEQEND
  0
INSERT
  5
67
330
1F
100
AcDbEntity
  8
0
100
AcDbBlockReference
 66
     1
  2
FASE_NEUTRO_TERRA
 10
38.921202
 20
32.852762
 50
0.000000
  0
ATTRIB
  5
68
330
67
100
AcDbEntity
  8
0
100
AcDbText
 10
38.858202
 20
33.054762
 30
0.000000
 40
0.075000
  1
-2-
100
AcDbAttribute
  2
FNT
 70
     0
  0
SEQEND
  0
INSERT
  5
67
330
1F
100
AcDbEntity
  8
0
100
AcDbBlockReference
 66
     1
  2
FASE_NEUTRO_TERRA
 10
38.029202
 20
31.670762
 50
0.000000
  0
ATTRIB
  5
68
330
67
100
AcDbEntity
  8
0
100
AcDbText
 10
37.967202
 20
31.872762
 30
0.000000
 40
0.075000
  1
-2-
100
AcDbAttribute
  2
FNT
 70
     0
  0
SEQEND
  0
INSERT
  5
67
330
1F
100
AcDbEntity
  8
0
100
AcDbBlockReference
 66
     1
  2
FASE_NEUTRO_TERRA
 10
38.163202
 20
27.808762
 50
355.978000
  0
ATTRIB
  5
68
330
67
100
AcDbEntity
  8
0
100
AcDbText
 10
38.115202
 20
28.010762
 30
0.000000
 40
0.075000
  1
-2-
100
AcDbAttribute
  2
FNT
 70
     0
  0
SEQEND
  0
INSERT
  5
67
330
1F
100
AcDbEntity
  8
0
100
AcDbBlockReference
 66
     1
  2
FASE_NEUTRO_TERRA
 10
38.731202
 20
26.537762
 50
51.834000
  0
ATTRIB
  5
68
330
67
100
AcDbEntity
  8
0
100
AcDbText
 10
38.534202
 20
26.612762
 30
0.000000
 40
0.075000
  1
-2-
100
AcDbAttribute
  2
FNT
 70
     0
  0
SEQEND
  0
INSERT
  5
67
330
1F
100
AcDbEntity
  8
0
100
AcDbBlockReference
 66
     1
  2
FASE_NEUTRO_TERRA
 10
39.736202
 20
26.693762
 50
308.369000
  0
ATTRIB
  5
68
330
67
100
AcDbEntity
  8
0
100
AcDbText
 10
39.903202
 20
26.813762
 30
0.000000
 40
0.075000
  1
-2-
100
AcDbAttribute
  2
FNT
 70
     0
  0
SEQEND
  0
INSERT
  5
67
330
1F
100
AcDbEntity
  8
0
100
AcDbBlockReference
 66
     1
  2
FASE_NEUTRO_TERRA
 10
40.354202
 20
27.708762
 50
355.765000
  0
ATTRIB
  5
68
330
67
100
AcDbEntity
  8
0
100
AcDbText
 10
40.306202
 20
27.909762
 30
0.000000
 40
0.075000
  1
-2-
100
AcDbAttribute
  2
FNT
 70
     0
  0
SEQEND
  0
INSERT
  5
67
330
1F
100
AcDbEntity
  8
0
100
AcDbBlockReference
 66
     1
  2
FASE_RETORNO
 10
39.244202
 20
28.389762
 50
78.397000
  0
ATTRIB
  5
68
330
67
100
AcDbEntity
  8
0
100
AcDbText
 10
39.017202
 20
28.288762
 30
0.000000
 40
0.075000
  1
-1-
100
AcDbAttribute
  2
F
 70
     0
  0
ATTRIB
  5
68
330
67
100
AcDbEntity
  8
0
100
AcDbText
 10
39.046202
 20
28.426762
 30
0.000000
 40
0.075000
  1
-C-
100
AcDbAttribute
  2
R
 70
     0
  0
SEQEND
  0
INSERT
  5
67
330
1F
100
AcDbEntity
  8
0
100
AcDbBlockReference
 66
     1
  2
FASE_NEUTRO
 10
38.598202
 20
28.522762
 50
116.979000
  0
ATTRIB
  5
68
330
67
100
AcDbEntity
  8
0
100
AcDbText
 10
38.318202
 20
28.386762
 30
0.000000
 40
0.075000
  1
-1-
100
AcDbAttribute
  2
FN
 70
     0
  0
SEQEND
  0
INSERT
  5
67
330
1F
100
AcDbEntity
  8
0
100
AcDbBlockReference
 66
     1
  2
FASE_NEUTRO_TERRA
 10
38.428202
 20
28.877762
 50
113.470000
  0
ATTRIB
  5
68
330
67
100
AcDbEntity
  8
0
100
AcDbText
 10
38.143202
 20
28.717762
 30
0.000000
 40
0.075000
  1
-2-
100
AcDbAttribute
  2
FNT
 70
     0
  0
SEQEND
  0
INSERT
  5
67
330
1F
100
AcDbEntity
  8
0
100
AcDbBlockReference
 66
     1
  2
FASE_RETORNO
 10
38.900202
 20
29.675762
 50
319.968000
  0
ATTRIB
  5
68
330
67
100
AcDbEntity
  8
0
100
AcDbText
 10
38.919202
 20
29.922762
 30
0.000000
 40
0.075000
  1
-1-
100
AcDbAttribute
  2
F
 70
     0
  0
ATTRIB
  5
68
330
67
100
AcDbEntity
  8
0
100
AcDbText
 10
39.031202
 20
29.828762
 30
0.000000
 40
0.075000
  1
-F-
100
AcDbAttribute
  2
R
 70
     0
  0
SEQEND
  0
INSERT
  5
67
330
1F
100
AcDbEntity
  8
0
100
AcDbBlockReference
 66
     1
  2
FASE_NEUTRO_TERRA
 10
39.196202
 20
29.458762
 50
325.304000
  0
ATTRIB
  5
68
330
67
100
AcDbEntity
  8
0
100
AcDbText
 10
39.259202
 20
29.660762
 30
0.000000
 40
0.075000
  1
-2-
100
AcDbAttribute
  2
FNT
 70
     0
  0
SEQEND
  0
INSERT
  5
67
330
1F
100
AcDbEntity
  8
0
100
AcDbBlockReference
 66
     1
  2
FASE_NEUTRO_TERRA
 10
40.520202
 20
28.662762
 50
0.000000
  0
ATTRIB
  5
68
330
67
100
AcDbEntity
  8
0
100
AcDbText
 10
40.457202
 20
28.863762
 30
0.000000
 40
0.075000
  1
-2-
100
AcDbAttribute
  2
FNT
 70
     0
  0
SEQEND
  0
INSERT
  5
67
330
1F
100
AcDbEntity
  8
0
100
AcDbBlockReference
 66
     1
  2
FASE_NEUTRO_TERRA
 10
38.642202
 20
30.478762
 50
0.000000
  0
ATTRIB
  5
68
330
67
100
AcDbEntity
  8
0
100
AcDbText
 10
38.579202
 20
30.680762
 30
0.000000
 40
0.075000
  1
-2-
100
AcDbAttribute
  2
FNT
 70
     0
  0
SEQEND
  0
INSERT
  5
67
330
1F
100
AcDbEntity
  8
0
100
AcDbBlockReference
 66
     1
  2
FASE_NEUTRO
 10
38.459202
 20
31.048762
 50
45.343000
  0
ATTRIB
  5
68
330
67
100
AcDbEntity
  8
0
100
AcDbText
 10
38.272202
 20
31.145762
 30
0.000000
 40
0.075000
  1
-1-
100
AcDbAttribute
  2
FN
 70
     0
  0
SEQEND
  0
INSERT
  5
67
330
1F
100
AcDbEntity
  8
0
100
AcDbBlockReference
 66
     1
  2
FASE_NEUTRO_TERRA
 10
38.707202
 20
31.286762
 50
39.577000
  0
ATTRIB
  5
68
330
67
100
AcDbEntity
  8
0
100
AcDbText
 10
38.530202
 20
31.402762
 30
0.000000
 40
0.075000
  1
-2-
100
AcDbAttribute
  2
FNT
 70
     0
  0
SEQEND
  0
INSERT
  5
67
330
1F
100
AcDbEntity
  8
0
100
AcDbBlockReference
 66
     1
  2
FASE_NEUTRO_TERRA
 10
40.783202
 20
31.848762
 50
354.349000
  0
ATTRIB
  5
68
330
67
100
AcDbEntity
  8
0
100
AcDbText
 10
40.740202
 20
32.049762
 30
0.000000
 40
0.075000
  1
-2-
100
AcDbAttribute
  2
FNT
 70
     0
  0
SEQEND
  0
INSERT
  5
67
330
1F
100
AcDbEntity
  8
0
100
AcDbBlockReference
 66
     1
  2
FASE_NEUTRO_TERRA
 10
39.957202
 20
32.328762
 50
354.240000
  0
ATTRIB
  5
68
330
67
100
AcDbEntity
  8
0
100
AcDbText
 10
39.915202
 20
32.529762
 30
0.000000
 40
0.075000
  1
-2-
100
AcDbAttribute
  2
FNT
 70
     0
  0
SEQEND
  0
INSERT
  5
67
330
1F
100
AcDbEntity
  8
0
100
AcDbBlockReference
 66
     1
  2
FASE_NEUTRO_TERRA
 10
40.420202
 20
33.197762
 50
111.347000
  0
ATTRIB
  5
68
330
67
100
AcDbEntity
  8
0
100
AcDbText
 10
40.135202
 20
33.074762
 30
0.000000
 40
0.075000
  1
-2-
100
AcDbAttribute
  2
FNT
 70
     0
  0
SEQEND
  0
INSERT
  5
67
330
1F
100
AcDbEntity
  8
0
100
AcDbBlockReference
 66
     1
  2
FASE_RETORNO
 10
40.250202
 20
31.459762
 50
80.871000
  0
ATTRIB
  5
68
330
67
100
AcDbEntity
  8
0
100
AcDbText
 10
40.028202
 20
31.349762
 30
0.000000
 40
0.075000
  1
-1-
100
AcDbAttribute
  2
F
 70
     0
  0
ATTRIB
  5
68
330
67
100
AcDbEntity
  8
0
100
AcDbText
 10
40.050202
 20
31.488762
 30
0.000000
 40
0.075000
  1
-D-
100
AcDbAttribute
  2
R
 70
     0
  0
SEQEND
  0
INSERT
  5
67
330
1F
100
AcDbEntity
  8
0
100
AcDbBlockReference
 66
     1
  2
FASE_NEUTRO_TERRA
 10
45.014202
 20
27.758762
 50
0.000000
  0
ATTRIB
  5
68
330
67
100
AcDbEntity
  8
0
100
AcDbText
 10
44.945202
 20
27.960762
 30
0.000000
 40
0.075000
  1
-X-
100
AcDbAttribute
  2
FNT
 70
     0
  0
SEQEND
  0
INSERT
  5
67
330
1F
100
AcDbEntity
  8
0
100
AcDbBlockReference
 66
     1
  2
FASE_NEUTRO
 10
45.014202
 20
27.259762
 50
0.000000
  0
ATTRIB
  5
68
330
67
100
AcDbEntity
  8
0
100
AcDbText
 10
44.945202
 20
27.461762
 30
0.000000
 40
0.075000
  1
-X-
100
AcDbAttribute
  2
FN
 70
     0
  0
SEQEND
  0
INSERT
  5
67
330
1F
100
AcDbEntity
  8
0
100
AcDbBlockReference
 66
     1
  2
FASE_RETORNO
 10
45.014202
 20
26.768762
 50
0.000000
  0
ATTRIB
  5
68
330
67
100
AcDbEntity
  8
0
100
AcDbText
 10
44.864202
 20
26.969762
 30
0.000000
 40
0.075000
  1
-X-
100
AcDbAttribute
  2
F
 70
     0
  0
ATTRIB
  5
68
330
67
100
AcDbEntity
  8
0
100
AcDbText
 10
45.014202
 20
26.969762
 30
0.000000
 40
0.075000
  1
-X-
100
AcDbAttribute
  2
R
 70
     0
  0
SEQEND
  0
ENDSEC
  0
EOF
