  0
SECTION
  2
HEADER
  9
$ANGDIR
 70
     0
  9
$EXTMAX
 10
59.450000
 20
42.050000
 30
0.000000
  9
$EXTMIN
 10
-1.000000
 20
-1.000000
 30
0.000000
  9
$CECOLOR
 62
   256
  9
$CELTYPE
  6
BYLAYER
  0
ENDSEC
  0
SECTION
  2
TABLES
  0
TABLE
  2
LTYPE
 70
     1
  0
LTYPE
  2
CONTINUOUS
 70
    64
  3
Solid line
 72
    65
 73
     0
 40
0.000000
  0
ENDTAB
  0
TABLE
  2
LAYER
 70
   257
  0
LAYER
  2
0
 70
    64
 62
     7
  6
CONTINUOUS
  0
LAYER
  2
Arquitetura
 70
    64
 62
     1
  6
CONTINUOUS
  0
LAYER
  2
Fiacao
 70
    64
 62
     2
  6
CONTINUOUS
  0
LAYER
  2
Tomada
 70
    64
 62
     3
  6
CONTINUOUS
  0
ENDTAB
  0
ENDSEC
  0
SECTION
  2
BLOCKS
  0
BLOCK
  5
65
330
64
100
AcDbEntity
  8
0
100
AcDbBlockBegin
  2
*P1
 70
     0
 10
0.000000
 20
0.000000
 30
0.000000
  3
*P1
  1
0
  0
ENDBLK
  0
BLOCK
  5
65
330
64
100
AcDbEntity
  8
0
100
AcDbBlockBegin
  2
FS_interruptor
 70
     0
 10
0.000000
 20
0.000000
 30
0.000000
  3
FS_interruptor
  1
0
  0
ATTDEF
  5
6
330
64
100
AcDbEntity
  8
0
100
AcDbText
 10
0.171000
 20
-0.240000
 30
0.000000
 40
0.100000
  1
segundo
100
AcDbAttributeDefinition
  3
primeiro
  2
NOME
 70
     0
280
0
  0
CIRCLE
  8
LAYER 0
 10
0.100000
 20
0.000000
 30
0.000000
 40
0.100000
  0
ATTDEF
  5
6
330
64
100
AcDbEntity
  8
0
100
AcDbText
 10
0.192000
 20
0.130000
 30
0.000000
 40
0.100000
  1
segundo
100
AcDbAttributeDefinition
  3
primeiro
  2
NOME
 70
     0
280
0
  0
ENDBLK
  0
BLOCK
  5
65
330
64
100
AcDbEntity
  8
0
100
AcDbBlockBegin
  2
FS_Lampada
 70
     0
 10
0.000000
 20
0.000000
 30
0.000000
  3
FS_Lampada
  1
0
  0
LINE
  8
0
 10
0.000000
 20
0.000000
 30
0.000000
 11
-0.250000
 21
0.000000
 31
0.000000
  0
LINE
  8
0
 10
0.000000
 20
0.000000
 30
0.000000
 11
0.250000
 21
0.000000
 31
0.000000
  0
CIRCLE
  8
LAYER 0
 10
0.000000
 20
0.000000
 30
0.000000
 40
0.250000
  0
LINE
  8
0
 10
0.000000
 20
-0.250000
 30
0.000000
 11
0.000000
 21
0.000000
 31
0.000000
  0
ATTDEF
  5
6
330
64
100
AcDbEntity
  8
0
100
AcDbText
 10
-0.170000
 20
0.035000
 30
0.000000
 40
0.150000
  1
segundo
100
AcDbAttributeDefinition
  3
primeiro
  2
NOME
 70
     0
280
0
  0
ATTDEF
  5
6
330
64
100
AcDbEntity
  8
0
100
AcDbText
 10
-0.172000
 20
-0.192000
 30
0.000000
 40
0.150000
  1
segundo
100
AcDbAttributeDefinition
  3
primeiro
  2
NOME
 70
     0
280
0
  0
ATTDEF
  5
6
330
64
100
AcDbEntity
  8
0
100
AcDbText
 10
0.023000
 20
-0.191000
 30
0.000000
 40
0.150000
  1
segundo
100
AcDbAttributeDefinition
  3
primeiro
  2
NOME
 70
     0
280
0
  0
ENDBLK
  0
BLOCK
  5
65
330
64
100
AcDbEntity
  8
0
100
AcDbBlockBegin
  2
FS_Tomada
 70
     0
 10
0.000000
 20
0.000000
 30
0.000000
  3
FS_Tomada
  1
0
  0
LINE
  8
0
 10
0.000000
 20
0.000000
 30
0.000000
 11
0.100000
 21
0.000000
 31
0.000000
  0
LINE
  8
0
 10
0.100000
 20
0.000000
 30
0.000000
 11
0.100000
 21
0.100000
 31
0.000000
  0
LINE
  8
0
 10
0.100000
 20
0.000000
 30
0.000000
 11
0.100000
 21
-0.100000
 31
0.000000
  0
LINE
  8
0
 10
0.200000
 20
0.000000
 30
0.000000
 11
0.100000
 21
0.100000
 31
0.000000
  0
LINE
  8
0
 10
0.100000
 20
-0.100000
 30
0.000000
 11
0.200000
 21
0.000000
 31
0.000000
  0
ATTDEF
  5
6
330
64
100
AcDbEntity
  8
0
100
AcDbText
 10
0.196000
 20
0.095000
 30
0.000000
 40
0.100000
  1
segundo
100
AcDbAttributeDefinition
  3
primeiro
  2
NOME
 70
     0
280
0
  0
ATTDEF
  5
6
330
64
100
AcDbEntity
  8
0
100
AcDbText
 10
0.176000
 20
-0.144000
 30
0.000000
 40
0.100000
  1
segundo
100
AcDbAttributeDefinition
  3
primeiro
  2
NOME
 70
     0
280
0
  0
ENDBLK
  0
BLOCK
  5
65
330
64
100
AcDbEntity
  8
0
100
AcDbBlockBegin
  2
FS_CaixaCD
 70
     0
 10
0.000000
 20
0.000000
 30
0.000000
  3
FS_CaixaCD
  1
0
  0
LINE
  8
0
 10
0.000000
 20
0.000000
 30
0.000000
 11
0.000000
 21
0.150000
 31
0.000000
  0
LINE
  8
0
 10
0.000000
 20
0.150000
 30
0.000000
 11
0.100000
 21
0.150000
 31
0.000000
  0
LINE
  8
0
 10
0.100000
 20
0.150000
 30
0.000000
 11
0.100000
 21
-0.150000
 31
0.000000
  0
LINE
  8
0
 10
0.100000
 20
-0.150000
 30
0.000000
 11
0.000000
 21
-0.150000
 31
0.000000
  0
LINE
  8
0
 10
0.000000
 20
-0.150000
 30
0.000000
 11
0.000000
 21
0.000000
 31
0.000000
  0
LINE
  8
0
 10
0.000000
 20
0.150000
 30
0.000000
 11
0.100000
 21
-0.150000
 31
0.000000
  0
ATTDEF
  5
6
330
64
100
AcDbEntity
  8
0
100
AcDbText
 10
0.106000
 20
0.132000
 30
0.000000
 40
0.100000
  1
segundo
100
AcDbAttributeDefinition
  3
primeiro
  2
NOME
 70
     0
280
0
  0
ENDBLK
  0
BLOCK
  5
65
330
64
100
AcDbEntity
  8
0
100
AcDbBlockBegin
  2
FS_CaixaCP
 70
     0
 10
0.000000
 20
0.000000
 30
0.000000
  3
FS_CaixaCP
  1
0
  0
LINE
  8
0
 10
0.000000
 20
0.000000
 30
0.000000
 11
0.000000
 21
0.050000
 31
0.000000
  0
LINE
  8
0
 10
0.000000
 20
0.050000
 30
0.000000
 11
0.050000
 21
0.050000
 31
0.000000
  0
LINE
  8
0
 10
0.050000
 20
0.050000
 30
0.000000
 11
0.050000
 21
-0.050000
 31
0.000000
  0
LINE
  8
0
 10
0.050000
 20
-0.050000
 30
0.000000
 11
0.000000
 21
-0.050000
 31
0.000000
  0
LINE
  8
0
 10
0.000000
 20
-0.050000
 30
0.000000
 11
0.000000
 21
0.000000
 31
0.000000
  0
ATTDEF
  5
6
330
64
100
AcDbEntity
  8
0
100
AcDbText
 10
0.069000
 20
0.049000
 30
0.000000
 40
0.100000
  1
segundo
100
AcDbAttributeDefinition
  3
primeiro
  2
NOME
 70
     0
280
0
  0
ENDBLK
  0
BLOCK
  5
65
330
64
100
AcDbEntity
  8
0
100
AcDbBlockBegin
  2
PORTA_80
 70
     0
 10
0.000000
 20
0.000000
 30
0.000000
  3
PORTA_80
  1
0
  0
ARC
  5
65
330
1F
100
AcDbEntity
  8
0
100
AcDbCircle
 10
-0.040000
 20
0.039000
 30
0.000000
 40
0.760000
100
AcDbArc
 50
90.000000
 51
-258.000000
  0
LINE
  8
0
 10
0.000000
 20
0.000000
 30
0.000000
 11
-0.040000
 21
0.000000
 31
0.000000
  0
LINE
  8
0
 10
0.000000
 20
0.800000
 30
0.000000
 11
0.000000
 21
0.000000
 31
0.000000
  0
LINE
  8
0
 10
-0.040000
 20
0.800000
 30
0.000000
 11
0.000000
 21
0.800000
 31
0.000000
  0
LINE
  8
0
 10
-0.040000
 20
0.000000
 30
0.000000
 11
-0.040000
 21
0.800000
 31
0.000000
  0
ENDBLK
  0
BLOCK
  5
65
330
64
100
AcDbEntity
  8
0
100
AcDbBlockBegin
  2
PORTA_60
 70
     0
 10
0.000000
 20
0.000000
 30
0.000000
  3
PORTA_60
  1
0
  0
ARC
  5
65
330
1F
100
AcDbEntity
  8
0
100
AcDbCircle
 10
-0.001000
 20
0.000000
 30
0.000000
 40
0.601000
100
AcDbArc
 50
0.000000
 51
-267.700000
  0
LINE
  8
0
 10
0.040000
 20
0.000000
 30
0.000000
 11
0.000000
 21
0.000000
 31
0.000000
  0
LINE
  8
0
 10
0.040000
 20
0.600000
 30
0.000000
 11
0.040000
 21
0.000000
 31
0.000000
  0
LINE
  8
0
 10
0.000000
 20
0.600000
 30
0.000000
 11
0.040000
 21
0.600000
 31
0.000000
  0
LINE
  8
0
 10
0.000000
 20
0.000000
 30
0.000000
 11
0.000000
 21
0.600000
 31
0.000000
  0
ENDBLK
  0
BLOCK
  5
65
330
64
100
AcDbEntity
  8
0
100
AcDbBlockBegin
  2
INTERRUPTOR_SIMPLES
 70
     0
 10
0.000000
 20
0.000000
 30
0.000000
  3
INTERRUPTOR_SIMPLES
  1
0
  0
LINE
  8
0
 10
0.000000
 20
-0.100000
 30
0.000000
 11
0.000000
 21
0.100000
 31
0.000000
  0
LINE
  8
0
 10
0.000000
 20
0.000000
 30
0.000000
 11
0.150000
 21
0.000000
 31
0.000000
  0
CIRCLE
  8
LAYER 0
 10
0.225000
 20
0.000000
 30
0.000000
 40
0.075000
  0
ATTDEF
  5
6
330
64
100
AcDbEntity
  8
0
100
AcDbText
 10
0.225000
 20
0.108000
 30
0.000000
 40
0.075000
  1
segundo
100
AcDbAttributeDefinition
  3
primeiro
  2
NOME
 70
     0
280
0
  0
ENDBLK
  0
BLOCK
  5
65
330
64
100
AcDbEntity
  8
0
100
AcDbBlockBegin
  2
INTERRUPTOR_PARALELO
 70
     0
 10
0.000000
 20
0.000000
 30
0.000000
  3
INTERRUPTOR_PARALELO
  1
0
  0
LINE
  8
0
 10
0.000000
 20
0.100000
 30
0.000000
 11
0.000000
 21
-0.100000
 31
0.000000
  0
LINE
  8
0
 10
0.000000
 20
0.000000
 30
0.000000
 11
-0.150000
 21
0.000000
 31
0.000000
  0
CIRCLE
  8
LAYER 0
 10
-0.225000
 20
0.000000
 30
0.000000
 40
0.075000
  0
ATTDEF
  5
6
330
64
100
AcDbEntity
  8
0
100
AcDbText
 10
-0.315000
 20
0.107000
 30
0.000000
 40
0.075000
  1
segundo
100
AcDbAttributeDefinition
  3
primeiro
  2
NOME
 70
     0
280
0
  0
ENDBLK
  0
BLOCK
  5
65
330
64
100
AcDbEntity
  8
0
100
AcDbBlockBegin
  2
TOMADA_MEDIA
 70
     0
 10
0.000000
 20
0.000000
 30
0.000000
  3
TOMADA_MEDIA
  1
0
  0
LINE
  8
0
 10
0.000000
 20
-0.100000
 30
0.000000
 11
0.000000
 21
0.100000
 31
0.000000
  0
LINE
  8
0
 10
0.000000
 20
0.000000
 30
0.000000
 11
0.150000
 21
0.000000
 31
0.000000
  0
LINE
  8
0
 10
0.150000
 20
0.000000
 30
0.000000
 11
0.150000
 21
0.100000
 31
0.000000
  0
LINE
  8
0
 10
0.150000
 20
0.000000
 30
0.000000
 11
0.150000
 21
-0.100000
 31
0.000000
  0
LINE
  8
0
 10
0.150000
 20
0.000000
 30
0.000000
 11
0.400000
 21
0.000000
 31
0.000000
  0
LINE
  8
0
 10
0.400000
 20
0.000000
 30
0.000000
 11
0.150000
 21
0.100000
 31
0.000000
  0
LINE
  8
0
 10
0.400000
 20
0.000000
 30
0.000000
 11
0.150000
 21
-0.100000
 31
0.000000
  0
ATTDEF
  5
6
330
64
100
AcDbEntity
  8
0
100
AcDbText
 10
0.150000
 20
0.150000
 30
0.000000
 40
0.075000
  1
segundo
100
AcDbAttributeDefinition
  3
primeiro
  2
NOME
 70
     0
280
0
  0
ATTDEF
  5
6
330
64
100
AcDbEntity
  8
0
100
AcDbText
 10
0.150000
 20
-0.225000
 30
0.000000
 40
0.075000
  1
segundo
100
AcDbAttributeDefinition
  3
primeiro
  2
NOME
 70
     0
280
0
  0
ENDBLK
  0
BLOCK
  5
65
330
64
100
AcDbEntity
  8
0
100
AcDbBlockBegin
  2
TOMADA_BAIXA
 70
     0
 10
0.000000
 20
0.000000
 30
0.000000
  3
TOMADA_BAIXA
  1
0
  0
LINE
  8
0
 10
0.000000
 20
-0.100000
 30
0.000000
 11
0.000000
 21
0.100000
 31
0.000000
  0
LINE
  8
0
 10
0.000000
 20
0.000000
 30
0.000000
 11
0.150000
 21
0.000000
 31
0.000000
  0
LINE
  8
0
 10
0.150000
 20
0.000000
 30
0.000000
 11
0.150000
 21
0.100000
 31
0.000000
  0
LINE
  8
0
 10
0.150000
 20
0.000000
 30
0.000000
 11
0.150000
 21
-0.100000
 31
0.000000
  0
LINE
  8
0
 10
0.400000
 20
0.000000
 30
0.000000
 11
0.150000
 21
0.100000
 31
0.000000
  0
LINE
  8
0
 10
0.400000
 20
0.000000
 30
0.000000
 11
0.150000
 21
-0.100000
 31
0.000000
  0
ATTDEF
  5
6
330
64
100
AcDbEntity
  8
0
100
AcDbText
 10
0.150000
 20
0.150000
 30
0.000000
 40
0.075000
  1
segundo
100
AcDbAttributeDefinition
  3
primeiro
  2
NOME
 70
     0
280
0
  0
ATTDEF
  5
6
330
64
100
AcDbEntity
  8
0
100
AcDbText
 10
0.150000
 20
-0.225000
 30
0.000000
 40
0.075000
  1
segundo
100
AcDbAttributeDefinition
  3
primeiro
  2
NOME
 70
     0
280
0
  0
ENDBLK
  0
BLOCK
  5
65
330
64
100
AcDbEntity
  8
0
100
AcDbBlockBegin
  2
TOMADA_ALTA
 70
     0
 10
0.000000
 20
0.000000
 30
0.000000
  3
TOMADA_ALTA
  1
0
  0
LINE
  8
0
 10
0.000000
 20
-0.100000
 30
0.000000
 11
0.000000
 21
0.100000
 31
0.000000
  0
LINE
  8
0
 10
0.000000
 20
0.000000
 30
0.000000
 11
0.150000
 21
0.000000
 31
0.000000
  0
LINE
  8
0
 10
0.150000
 20
0.000000
 30
0.000000
 11
0.150000
 21
0.100000
 31
0.000000
  0
LINE
  8
0
 10
0.150000
 20
0.000000
 30
0.000000
 11
0.150000
 21
-0.100000
 31
0.000000
  0
LINE
  8
0
 10
0.400000
 20
0.000000
 30
0.000000
 11
0.150000
 21
0.100000
 31
0.000000
  0
LINE
  8
0
 10
0.400000
 20
0.000000
 30
0.000000
 11
0.150000
 21
-0.100000
 31
0.000000
  0
ATTDEF
  5
6
330
64
100
AcDbEntity
  8
0
100
AcDbText
 10
0.150000
 20
0.150000
 30
0.000000
 40
0.075000
  1
segundo
100
AcDbAttributeDefinition
  3
primeiro
  2
NOME
 70
     0
280
0
  0
ATTDEF
  5
6
330
64
100
AcDbEntity
  8
0
100
AcDbText
 10
0.150000
 20
-0.225000
 30
0.000000
 40
0.075000
  1
segundo
100
AcDbAttributeDefinition
  3
primeiro
  2
NOME
 70
     0
280
0
  0
ENDBLK
  0
BLOCK
  5
65
330
64
100
AcDbEntity
  8
0
100
AcDbBlockBegin
  2
FASE_NEUTRO_TERRA
 70
     0
 10
0.000000
 20
0.000000
 30
0.000000
  3
FASE_NEUTRO_TERRA
  1
0
  0
LINE
  8
0
 10
-0.150000
 20
-0.150000
 30
0.000000
 11
-0.150000
 21
0.150000
 31
0.000000
  0
LINE
  8
0
 10
0.000000
 20
-0.150000
 30
0.000000
 11
0.000000
 21
0.150000
 31
0.000000
  0
LINE
  8
0
 10
0.150000
 20
0.000000
 30
0.000000
 11
0.150000
 21
0.150000
 31
0.000000
  0
LINE
  8
0
 10
0.000000
 20
0.150000
 30
0.000000
 11
-0.080000
 21
0.150000
 31
0.000000
  0
LINE
  8
0
 10
0.150000
 20
0.150000
 30
0.000000
 11
0.075000
 21
0.150000
 31
0.000000
  0
LINE
  8
0
 10
0.150000
 20
0.150000
 30
0.000000
 11
0.225000
 21
0.150000
 31
0.000000
  0
ATTDEF
  5
6
330
64
100
AcDbEntity
  8
0
100
AcDbText
 10
0.655000
 20
0.201000
 30
0.000000
 40
0.075000
  1
segundo
100
AcDbAttributeDefinition
  3
primeiro
  2
NOME
 70
     0
280
0
  0
ENDBLK
  0
BLOCK
  5
65
330
64
100
AcDbEntity
  8
0
100
AcDbBlockBegin
  2
FASE_NEUTRO
 70
     0
 10
0.000000
 20
0.000000
 30
0.000000
  3
FASE_NEUTRO
  1
0
  0
LINE
  8
0
 10
-0.070000
 20
-0.150000
 30
0.000000
 11
-0.070000
 21
0.150000
 31
0.000000
  0
LINE
  8
0
 10
0.080000
 20
-0.150000
 30
0.000000
 11
0.080000
 21
0.150000
 31
0.000000
  0
LINE
  8
0
 10
0.080000
 20
0.150000
 30
0.000000
 11
0.000000
 21
0.150000
 31
0.000000
  0
ATTDEF
  5
6
330
64
100
AcDbEntity
  8
0
100
AcDbText
 10
0.047000
 20
0.201000
 30
0.000000
 40
0.075000
  1
segundo
100
AcDbAttributeDefinition
  3
primeiro
  2
NOME
 70
     0
280
0
  0
ENDBLK
  0
BLOCK
  5
65
330
64
100
AcDbEntity
  8
0
100
AcDbBlockBegin
  2
FASE_RETORNO
 70
     0
 10
0.000000
 20
0.000000
 30
0.000000
  3
FASE_RETORNO
  1
0
  0
LINE
  8
0
 10
-0.081000
 20
-0.150000
 30
0.000000
 11
-0.081000
 21
0.150000
 31
0.000000
  0
LINE
  8
0
 10
0.068000
 20
0.000000
 30
0.000000
 11
0.068000
 21
0.150000
 31
0.000000
  0
ATTDEF
  5
6
330
64
100
AcDbEntity
  8
0
100
AcDbText
 10
-0.752000
 20
0.201000
 30
0.000000
 40
0.075000
  1
segundo
100
AcDbAttributeDefinition
  3
primeiro
  2
NOME
 70
     0
280
0
  0
ATTDEF
  5
6
330
64
100
AcDbEntity
  8
0
100
AcDbText
 10
-0.608000
 20
0.201000
 30
0.000000
 40
0.075000
  1
segundo
100
AcDbAttributeDefinition
  3
primeiro
  2
NOME
 70
     0
280
0
  0
ENDBLK
  0
BLOCK
  5
65
330
64
100
AcDbEntity
  8
0
100
AcDbBlockBegin
  2
FASE_PARALELO
 70
     0
 10
0.000000
 20
0.000000
 30
0.000000
  3
FASE_PARALELO
  1
0
  0
LINE
  8
0
 10
-0.150000
 20
-0.150000
 30
0.000000
 11
-0.150000
 21
0.150000
 31
0.000000
  0
LINE
  8
0
 10
0.000000
 20
0.000000
 30
0.000000
 11
0.000000
 21
0.150000
 31
0.000000
  0
LINE
  8
0
 10
0.150000
 20
0.000000
 30
0.000000
 11
0.150000
 21
0.150000
 31
0.000000
  0
ATTDEF
  5
6
330
64
100
AcDbEntity
  8
0
100
AcDbText
 10
-0.007000
 20
0.201000
 30
0.000000
 40
0.075000
  1
segundo
100
AcDbAttributeDefinition
  3
primeiro
  2
NOME
 70
     0
280
0
  0
ENDBLK
  0
BLOCK
  5
65
330
64
100
AcDbEntity
  8
0
100
AcDbBlockBegin
  2
RETORNO_PARALELO
 70
     0
 10
0.000000
 20
0.000000
 30
0.000000
  3
RETORNO_PARALELO
  1
0
  0
LINE
  8
0
 10
-0.150000
 20
0.000000
 30
0.000000
 11
-0.150000
 21
0.150000
 31
0.000000
  0
LINE
  8
0
 10
0.000000
 20
0.000000
 30
0.000000
 11
0.000000
 21
0.150000
 31
0.000000
  0
LINE
  8
0
 10
0.150000
 20
0.000000
 30
0.000000
 11
0.150000
 21
0.150000
 31
0.000000
  0
ATTDEF
  5
6
330
64
100
AcDbEntity
  8
0
100
AcDbText
 10
-0.013000
 20
0.201000
 30
0.000000
 40
0.075000
  1
segundo
100
AcDbAttributeDefinition
  3
primeiro
  2
NOME
 70
     0
280
0
  0
ENDBLK
  0
BLOCK
  5
65
330
64
100
AcDbEntity
  8
0
100
AcDbBlockBegin
  2
MeuBloco
 70
     0
 10
0.000000
 20
0.000000
 30
0.000000
  3
MeuBloco
  1
0
  0
LINE
  8
0
 10
0.000000
 20
0.000000
 30
0.000000
 11
0.000000
 21
0.500000
 31
0.000000
  0
LINE
  8
0
 10
0.000000
 20
0.500000
 30
0.000000
 11
0.500000
 21
0.500000
 31
0.000000
  0
ATTDEF
  5
6
330
64
100
AcDbEntity
  8
0
100
AcDbText
 10
0.000000
 20
0.587000
 30
0.000000
 40
0.125000
  1
segundo
100
AcDbAttributeDefinition
  3
primeiro
  2
NOME
 70
     0
280
0
  0
ATTDEF
  5
6
330
64
100
AcDbEntity
  8
0
100
AcDbText
 10
0.182000
 20
0.229000
 30
0.000000
 40
0.125000
  1
segundo
100
AcDbAttributeDefinition
  3
primeiro
  2
NOME
 70
     1
280
0
  0
ENDBLK
  0
ENDSEC
  0
SECTION
  2
ENTITIES
  0
LINE
  8

 10
10.000000
 20
5.150000
 30
0.000000
 11
10.000000
 21
8.850000
 31
0.000000
  0
LINE
  8

 10
5.150000
 20
5.150000
 30
0.000000
 11
5.150000
 21
8.850000
 31
0.000000
  0
LINE
  8

 10
5.000000
 20
5.000000
 30
0.000000
 11
5.000000
 21
9.850000
 31
0.000000
  0
LINE
  8

 10
8.038338
 20
5.000000
 30
0.000000
 11
5.000000
 21
5.000000
 31
0.000000
  0
LINE
  8

 10
7.150000
 20
5.150000
 30
0.000000
 11
5.150000
 21
5.150000
 31
0.000000
  0
LINE
  8

 10
11.884688
 20
5.000000
 30
0.000000
 11
7.927157
 21
5.000000
 31
0.000000
  0
LINE
  8

 10
10.000000
 20
5.150000
 30
0.000000
 11
7.908733
 21
5.150000
 31
0.000000
  0
LINE
  8

 10
8.038338
 20
5.150000
 30
0.000000
 11
7.300000
 21
5.150000
 31
0.000000
  0
LINE
  8

 10
7.300000
 20
5.250000
 30
0.000000
 11
7.150000
 21
5.250000
 31
0.000000
  0
LINE
  8

 10
7.150000
 20
5.250000
 30
0.000000
 11
7.150000
 21
5.150000
 31
0.000000
  0
LINE
  8

 10
7.300000
 20
5.250000
 30
0.000000
 11
7.300000
 21
5.150000
 31
0.000000
  0
LINE
  8

 10
8.038338
 20
5.000000
 30
0.000000
 11
8.038338
 21
5.150000
 31
0.000000
  0
LINE
  8

 10
11.884688
 20
5.150000
 30
0.000000
 11
10.150000
 21
5.150000
 31
0.000000
  0
LINE
  8

 10
9.238338
 20
5.000000
 30
0.000000
 11
9.238338
 21
5.150000
 31
0.000000
  0
LINE
  8

 10
11.884688
 20
5.000000
 30
0.000000
 11
11.884688
 21
5.150000
 31
0.000000
  0
LINE
  8

 10
15.217188
 20
5.150000
 30
0.000000
 11
13.084688
 21
5.150000
 31
0.000000
  0
LINE
  8

 10
15.217188
 20
5.000000
 30
0.000000
 11
13.084688
 21
5.000000
 31
0.000000
  0
LINE
  8

 10
13.084688
 20
5.000000
 30
0.000000
 11
13.084688
 21
5.150000
 31
0.000000
  0
LINE
  8

 10
15.217188
 20
5.000000
 30
0.000000
 11
15.217188
 21
5.150000
 31
0.000000
  0
LINE
  8

 10
16.417188
 20
5.000000
 30
0.000000
 11
16.417188
 21
5.150000
 31
0.000000
  0
LINE
  8

 10
5.150000
 20
8.850000
 30
0.000000
 11
6.300000
 21
8.850000
 31
0.000000
  0
LINE
  8

 10
5.150000
 20
9.000000
 30
0.000000
 11
8.350000
 21
9.000000
 31
0.000000
  0
LINE
  8

 10
5.150000
 20
12.850000
 30
0.000000
 11
6.240938
 21
12.850000
 31
0.000000
  0
LINE
  8

 10
5.000000
 20
13.000000
 30
0.000000
 11
6.240938
 21
13.000000
 31
0.000000
  0
LINE
  8

 10
5.000000
 20
11.850000
 30
0.000000
 11
5.000000
 21
13.000000
 31
0.000000
  0
LINE
  8

 10
5.150000
 20
11.850000
 30
0.000000
 11
5.150000
 21
12.850000
 31
0.000000
  0
LINE
  8

 10
5.150000
 20
9.000000
 30
0.000000
 11
5.150000
 21
9.850000
 31
0.000000
  0
LINE
  8

 10
16.415625
 20
12.850000
 30
0.000000
 11
16.415625
 21
10.150000
 31
0.000000
  0
LINE
  8

 10
16.255625
 20
12.850000
 30
0.000000
 11
16.255625
 21
10.150000
 31
0.000000
  0
LINE
  8

 10
13.292501
 20
12.850000
 30
0.000000
 11
13.292501
 21
10.150000
 31
0.000000
  0
LINE
  8

 10
13.142501
 20
12.850000
 30
0.000000
 11
13.142501
 21
10.150000
 31
0.000000
  0
LINE
  8

 10
10.350000
 20
12.850000
 30
0.000000
 11
10.350000
 21
10.150000
 31
0.000000
  0
LINE
  8

 10
10.200000
 20
12.850000
 30
0.000000
 11
10.200000
 21
10.150000
 31
0.000000
  0
LINE
  8

 10
8.500000
 20
12.850000
 30
0.000000
 11
8.500000
 21
10.150000
 31
0.000000
  0
LINE
  8

 10
8.350000
 20
12.850000
 30
0.000000
 11
8.350000
 21
9.900000
 31
0.000000
  0
LINE
  8

 10
9.950878
 20
9.000000
 30
0.000000
 11
11.950313
 21
9.000000
 31
0.000000
  0
LINE
  8

 10
11.250000
 20
10.000000
 30
0.000000
 11
13.392501
 21
10.000000
 31
0.000000
  0
LINE
  8

 10
11.250000
 20
10.150000
 30
0.000000
 11
13.142501
 21
10.150000
 31
0.000000
  0
LINE
  8

 10
10.150000
 20
8.850000
 30
0.000000
 11
11.950313
 21
8.850000
 31
0.000000
  0
LINE
  8

 10
6.300000
 20
8.333296
 30
0.000000
 11
6.300000
 21
6.805010
 31
0.000000
  0
LINE
  8

 10
6.450000
 20
8.333296
 30
0.000000
 11
6.450000
 21
6.805010
 31
0.000000
  0
LINE
  8

 10
7.150000
 20
6.150000
 30
0.000000
 11
7.150000
 21
6.050000
 31
0.000000
  0
LINE
  8

 10
7.300000
 20
6.300000
 30
0.000000
 11
7.300000
 21
6.050000
 31
0.000000
  0
LINE
  8

 10
7.300000
 20
6.050000
 30
0.000000
 11
7.150000
 21
6.050000
 31
0.000000
  0
LINE
  8

 10
6.300000
 20
6.150000
 30
0.000000
 11
7.150000
 21
6.150000
 31
0.000000
  0
LINE
  8

 10
6.450000
 20
6.300000
 30
0.000000
 11
7.300000
 21
6.300000
 31
0.000000
  0
LINE
  8

 10
6.450000
 20
6.405010
 30
0.000000
 11
6.300000
 21
6.405010
 31
0.000000
  0
LINE
  8

 10
6.450000
 20
6.805010
 30
0.000000
 11
6.300000
 21
6.805010
 31
0.000000
  0
LINE
  8

 10
6.300000
 20
6.405010
 30
0.000000
 11
6.300000
 21
6.150000
 31
0.000000
  0
LINE
  8

 10
6.450000
 20
6.405010
 30
0.000000
 11
6.450000
 21
6.300000
 31
0.000000
  0
LINE
  8

 10
6.450000
 20
8.333296
 30
0.000000
 11
6.300000
 21
8.333296
 31
0.000000
  0
LINE
  8

 10
6.450000
 20
8.850000
 30
0.000000
 11
9.150878
 21
8.850000
 31
0.000000
  0
LINE
  8

 10
8.500000
 20
9.000000
 30
0.000000
 11
9.150878
 21
9.000000
 31
0.000000
  0
LINE
  8

 10
6.450000
 20
8.733296
 30
0.000000
 11
6.300000
 21
8.733296
 31
0.000000
  0
LINE
  8

 10
6.450000
 20
8.850000
 30
0.000000
 11
6.450000
 21
8.733296
 31
0.000000
  0
LINE
  8

 10
6.300000
 20
8.850000
 30
0.000000
 11
6.300000
 21
8.733296
 31
0.000000
  0
LINE
  8

 10
8.350000
 20
9.100000
 30
0.000000
 11
8.500000
 21
9.100000
 31
0.000000
  0
LINE
  8

 10
8.500000
 20
9.100000
 30
0.000000
 11
8.500000
 21
9.000000
 31
0.000000
  0
LINE
  8

 10
8.350000
 20
9.100000
 30
0.000000
 11
8.350000
 21
9.000000
 31
0.000000
  0
LINE
  8

 10
8.350000
 20
9.900000
 30
0.000000
 11
8.500000
 21
9.900000
 31
0.000000
  0
LINE
  8

 10
8.600000
 20
10.150000
 30
0.000000
 11
8.600000
 21
10.000000
 31
0.000000
  0
LINE
  8

 10
8.500000
 20
10.000000
 30
0.000000
 11
8.500000
 21
9.900000
 31
0.000000
  0
LINE
  8

 10
8.500000
 20
10.000000
 30
0.000000
 11
8.600000
 21
10.000000
 31
0.000000
  0
LINE
  8

 10
8.500000
 20
10.150000
 30
0.000000
 11
8.601334
 21
10.150000
 31
0.000000
  0
LINE
  8

 10
9.150878
 20
8.850000
 30
0.000000
 11
9.150878
 21
9.000000
 31
0.000000
  0
LINE
  8

 10
9.950878
 20
8.850000
 30
0.000000
 11
9.950878
 21
9.000000
 31
0.000000
  0
LINE
  8

 10
9.950878
 20
8.850000
 30
0.000000
 11
10.000000
 21
8.850000
 31
0.000000
  0
LINE
  8

 10
9.198161
 20
10.150000
 30
0.000000
 11
10.200000
 21
10.150000
 31
0.000000
  0
LINE
  8

 10
9.200000
 20
10.000000
 30
0.000000
 11
10.450000
 21
10.000000
 31
0.000000
  0
LINE
  8

 10
9.200000
 20
10.150000
 30
0.000000
 11
9.200000
 21
10.000000
 31
0.000000
  0
LINE
  8

 10
10.450000
 20
10.150000
 30
0.000000
 11
10.450000
 21
10.000000
 31
0.000000
  0
LINE
  8

 10
10.350000
 20
10.150000
 30
0.000000
 11
10.450000
 21
10.150000
 31
0.000000
  0
LINE
  8

 10
11.250000
 20
10.150000
 30
0.000000
 11
11.250000
 21
10.000000
 31
0.000000
  0
LINE
  8

 10
14.192218
 20
10.150000
 30
0.000000
 11
16.255625
 21
10.150000
 31
0.000000
  0
LINE
  8

 10
14.192501
 20
10.000000
 30
0.000000
 11
16.515625
 21
10.000000
 31
0.000000
  0
LINE
  8

 10
13.292501
 20
10.150000
 30
0.000000
 11
13.392348
 21
10.150000
 31
0.000000
  0
LINE
  8

 10
11.950313
 20
8.850000
 30
0.000000
 11
11.950313
 21
9.000000
 31
0.000000
  0
LINE
  8

 10
12.750313
 20
8.850000
 30
0.000000
 11
12.750313
 21
9.000000
 31
0.000000
  0
LINE
  8

 10
13.392501
 20
10.150000
 30
0.000000
 11
13.392501
 21
10.000000
 31
0.000000
  0
LINE
  8

 10
14.192501
 20
10.150000
 30
0.000000
 11
14.192501
 21
10.000000
 31
0.000000
  0
LINE
  8

 10
16.515625
 20
10.150000
 30
0.000000
 11
16.515625
 21
10.000000
 31
0.000000
  0
LINE
  8

 10
16.415625
 20
10.150000
 30
0.000000
 11
16.515625
 21
10.150000
 31
0.000000
  0
LINE
  8

 10
17.115625
 20
10.150000
 30
0.000000
 11
17.115625
 21
10.000000
 31
0.000000
  0
LINE
  8

 10
7.440938
 20
12.850000
 30
0.000000
 11
8.350000
 21
12.850000
 31
0.000000
  0
LINE
  8

 10
7.440938
 20
13.000000
 30
0.000000
 11
8.986563
 21
13.000000
 31
0.000000
  0
LINE
  8

 10
6.240938
 20
13.000000
 30
0.000000
 11
6.240938
 21
12.850000
 31
0.000000
  0
LINE
  8

 10
7.440938
 20
13.000000
 30
0.000000
 11
7.440938
 21
12.850000
 31
0.000000
  0
LINE
  8

 10
8.986563
 20
12.850000
 30
0.000000
 11
8.986563
 21
13.000000
 31
0.000000
  0
LINE
  8

 10
8.500000
 20
12.850000
 30
0.000000
 11
8.986563
 21
12.850000
 31
0.000000
  0
LINE
  8

 10
9.586563
 20
13.000000
 30
0.000000
 11
10.970938
 21
13.000000
 31
0.000000
  0
LINE
  8

 10
10.350000
 20
12.850000
 30
0.000000
 11
10.970938
 21
12.850000
 31
0.000000
  0
LINE
  8

 10
9.586563
 20
12.850000
 30
0.000000
 11
10.200000
 21
12.850000
 31
0.000000
  0
LINE
  8

 10
9.586563
 20
12.850000
 30
0.000000
 11
9.586563
 21
13.000000
 31
0.000000
  0
LINE
  8

 10
10.970938
 20
12.850000
 30
0.000000
 11
10.970938
 21
13.000000
 31
0.000000
  0
LINE
  8

 10
13.292501
 20
12.850000
 30
0.000000
 11
14.222813
 21
12.850000
 31
0.000000
  0
LINE
  8

 10
12.170938
 20
13.000000
 30
0.000000
 11
14.222813
 21
13.000000
 31
0.000000
  0
LINE
  8

 10
12.170938
 20
12.850000
 30
0.000000
 11
13.142501
 21
12.850000
 31
0.000000
  0
LINE
  8

 10
12.170938
 20
12.850000
 30
0.000000
 11
12.170938
 21
13.000000
 31
0.000000
  0
LINE
  8

 10
14.222813
 20
12.850000
 30
0.000000
 11
14.222813
 21
13.000000
 31
0.000000
  0
LINE
  8

 10
15.422813
 20
13.000000
 30
0.000000
 11
16.968438
 21
13.000000
 31
0.000000
  0
LINE
  8

 10
15.422813
 20
12.850000
 30
0.000000
 11
16.255625
 21
12.850000
 31
0.000000
  0
LINE
  8

 10
15.422813
 20
12.850000
 30
0.000000
 11
15.422813
 21
13.000000
 31
0.000000
  0
LINE
  8

 10
16.415625
 20
12.850000
 30
0.000000
 11
16.968438
 21
12.850000
 31
0.000000
  0
LINE
  8

 10
16.968438
 20
12.850000
 30
0.000000
 11
16.968438
 21
13.000000
 31
0.000000
  0
LINE
  8

 10
17.568438
 20
12.850000
 30
0.000000
 11
17.568438
 21
13.000000
 31
0.000000
  0
LINE
  8

 10
18.200000
 20
6.144207
 30
0.000000
 11
18.200000
 21
5.150000
 31
0.000000
  0
LINE
  8

 10
18.050000
 20
6.144207
 30
0.000000
 11
18.050000
 21
5.150000
 31
0.000000
  0
LINE
  8

 10
21.000000
 20
7.500000
 30
0.000000
 11
21.000000
 21
5.000000
 31
0.000000
  0
LINE
  8

 10
20.850000
 20
7.000000
 30
0.000000
 11
20.850000
 21
5.150000
 31
0.000000
  0
LINE
  8

 10
20.850000
 20
5.150000
 30
0.000000
 11
18.200000
 21
5.150000
 31
0.000000
  0
LINE
  8

 10
18.200000
 20
12.850000
 30
0.000000
 11
18.200000
 21
10.150000
 31
0.000000
  0
LINE
  8

 10
18.050000
 20
12.850000
 30
0.000000
 11
18.050000
 21
10.150000
 31
0.000000
  0
LINE
  8

 10
26.350000
 20
12.850000
 30
0.000000
 11
26.350000
 21
7.650000
 31
0.000000
  0
LINE
  8

 10
20.850000
 20
12.850000
 30
0.000000
 11
20.850000
 21
10.150000
 31
0.000000
  0
LINE
  8

 10
21.000000
 20
12.850000
 30
0.000000
 11
21.000000
 21
9.907623
 31
0.000000
  0
LINE
  8

 10
26.500000
 20
13.000000
 30
0.000000
 11
26.500000
 21
7.500000
 31
0.000000
  0
LINE
  8

 10
26.350000
 20
7.650000
 30
0.000000
 11
21.000000
 21
7.650000
 31
0.000000
  0
LINE
  8

 10
26.500000
 20
7.500000
 30
0.000000
 11
21.000000
 21
7.500000
 31
0.000000
  0
LINE
  8

 10
21.000000
 20
9.103383
 30
0.000000
 11
21.000000
 21
7.650000
 31
0.000000
  0
LINE
  8

 10
20.850000
 20
9.103383
 30
0.000000
 11
20.850000
 21
7.150000
 31
0.000000
  0
LINE
  8

 10
18.200000
 20
9.000000
 30
0.000000
 11
18.200000
 21
8.716688
 31
0.000000
  0
LINE
  8

 10
18.050000
 20
8.850000
 30
0.000000
 11
18.050000
 21
8.716688
 31
0.000000
  0
LINE
  8

 10
20.287188
 20
7.150000
 30
0.000000
 11
20.850000
 21
7.150000
 31
0.000000
  0
LINE
  8

 10
20.287188
 20
7.000000
 30
0.000000
 11
20.850000
 21
7.000000
 31
0.000000
  0
LINE
  8

 10
18.050000
 20
7.916688
 30
0.000000
 11
18.050000
 21
6.944207
 31
0.000000
  0
LINE
  8

 10
18.200000
 20
7.000000
 30
0.000000
 11
18.200000
 21
6.944207
 31
0.000000
  0
LINE
  8

 10
18.050000
 20
6.944207
 30
0.000000
 11
18.200000
 21
6.944207
 31
0.000000
  0
LINE
  8

 10
18.050000
 20
6.144207
 30
0.000000
 11
18.200000
 21
6.144207
 31
0.000000
  0
LINE
  8

 10
18.200000
 20
7.150000
 30
0.000000
 11
19.087188
 21
7.150000
 31
0.000000
  0
LINE
  8

 10
18.200000
 20
7.000000
 30
0.000000
 11
19.087188
 21
7.000000
 31
0.000000
  0
LINE
  8

 10
18.200000
 20
7.916688
 30
0.000000
 11
18.200000
 21
7.150000
 31
0.000000
  0
LINE
  8

 10
18.050000
 20
8.716688
 30
0.000000
 11
18.200000
 21
8.716688
 31
0.000000
  0
LINE
  8

 10
18.050000
 20
7.916688
 30
0.000000
 11
18.200000
 21
7.916688
 31
0.000000
  0
LINE
  8

 10
19.087188
 20
7.000000
 30
0.000000
 11
19.087188
 21
7.150000
 31
0.000000
  0
LINE
  8

 10
20.287188
 20
7.000000
 30
0.000000
 11
20.287188
 21
7.150000
 31
0.000000
  0
LINE
  8

 10
18.200000
 20
10.150000
 30
0.000000
 11
19.949000
 21
10.150000
 31
0.000000
  0
LINE
  8

 10
18.200000
 20
10.000000
 30
0.000000
 11
19.953324
 21
10.000000
 31
0.000000
  0
LINE
  8

 10
19.950000
 20
10.150000
 30
0.000000
 11
19.950000
 21
10.000000
 31
0.000000
  0
LINE
  8

 10
20.850000
 20
9.103383
 30
0.000000
 11
21.000000
 21
9.103383
 31
0.000000
  0
LINE
  8

 10
20.850000
 20
9.903383
 30
0.000000
 11
21.000000
 21
9.903383
 31
0.000000
  0
LINE
  8

 10
20.749842
 20
10.000000
 30
0.000000
 11
20.850000
 21
10.000000
 31
0.000000
  0
LINE
  8

 10
20.750018
 20
10.150000
 30
0.000000
 11
20.850000
 21
10.150000
 31
0.000000
  0
LINE
  8

 10
20.750000
 20
10.150000
 30
0.000000
 11
20.750000
 21
10.000000
 31
0.000000
  0
LINE
  8

 10
20.850000
 20
10.000000
 30
0.000000
 11
20.850000
 21
9.903325
 31
0.000000
  0
LINE
  8

 10
19.830313
 20
13.000000
 30
0.000000
 11
24.274063
 21
13.000000
 31
0.000000
  0
LINE
  8

 10
21.000000
 20
12.850000
 30
0.000000
 11
24.274063
 21
12.850000
 31
0.000000
  0
LINE
  8

 10
19.830313
 20
12.850000
 30
0.000000
 11
20.850000
 21
12.850000
 31
0.000000
  0
LINE
  8

 10
18.200000
 20
12.850000
 30
0.000000
 11
18.630313
 21
12.850000
 31
0.000000
  0
LINE
  8

 10
18.630313
 20
12.850000
 30
0.000000
 11
18.630313
 21
13.000000
 31
0.000000
  0
LINE
  8

 10
19.830313
 20
12.850000
 30
0.000000
 11
19.830313
 21
13.000000
 31
0.000000
  0
LINE
  8

 10
25.474063
 20
13.000000
 30
0.000000
 11
26.500000
 21
13.000000
 31
0.000000
  0
LINE
  8

 10
25.474063
 20
12.850000
 30
0.000000
 11
26.350000
 21
12.850000
 31
0.000000
  0
LINE
  8

 10
24.274063
 20
12.850000
 30
0.000000
 11
24.274063
 21
13.000000
 31
0.000000
  0
LINE
  8

 10
25.474063
 20
12.850000
 30
0.000000
 11
25.474063
 21
13.000000
 31
0.000000
  0
LINE
  8

 10
20.750000
 20
10.950000
 30
0.000000
 11
20.710000
 21
10.950000
 31
0.000000
  0
LINE
  8

 10
10.970938
 20
12.925000
 30
0.000000
 11
12.170938
 21
12.925000
 31
0.000000
  0
LINE
  8

 10
10.970938
 20
13.000000
 30
0.000000
 11
12.170938
 21
13.000000
 31
0.000000
  0
LINE
  8

 10
10.970938
 20
12.850000
 30
0.000000
 11
12.170938
 21
12.850000
 31
0.000000
  0
LINE
  8

 10
8.986563
 20
12.925000
 30
0.000000
 11
9.586563
 21
12.925000
 31
0.000000
  0
LINE
  8

 10
8.986563
 20
13.000000
 30
0.000000
 11
9.586563
 21
13.000000
 31
0.000000
  0
LINE
  8

 10
8.986563
 20
12.850000
 30
0.000000
 11
9.586563
 21
12.850000
 31
0.000000
  0
LINE
  8

 10
14.222813
 20
12.925000
 30
0.000000
 11
15.422813
 21
12.925000
 31
0.000000
  0
LINE
  8

 10
14.222813
 20
13.000000
 30
0.000000
 11
15.422813
 21
13.000000
 31
0.000000
  0
LINE
  8

 10
14.222813
 20
12.850000
 30
0.000000
 11
15.422813
 21
12.850000
 31
0.000000
  0
LINE
  8

 10
16.968438
 20
12.925000
 30
0.000000
 11
17.568438
 21
12.925000
 31
0.000000
  0
LINE
  8

 10
16.968438
 20
13.000000
 30
0.000000
 11
17.568438
 21
13.000000
 31
0.000000
  0
LINE
  8

 10
16.968438
 20
12.850000
 30
0.000000
 11
17.568438
 21
12.850000
 31
0.000000
  0
LINE
  8

 10
18.630313
 20
12.925000
 30
0.000000
 11
19.830313
 21
12.925000
 31
0.000000
  0
LINE
  8

 10
18.630313
 20
13.000000
 30
0.000000
 11
19.830313
 21
13.000000
 31
0.000000
  0
LINE
  8

 10
18.630313
 20
12.850000
 30
0.000000
 11
19.830313
 21
12.850000
 31
0.000000
  0
LINE
  8

 10
11.884688
 20
5.075000
 30
0.000000
 11
13.084688
 21
5.075000
 31
0.000000
  0
LINE
  8

 10
11.884688
 20
5.150000
 30
0.000000
 11
13.084688
 21
5.150000
 31
0.000000
  0
LINE
  8

 10
11.884688
 20
5.000000
 30
0.000000
 11
13.084688
 21
5.000000
 31
0.000000
  0
LINE
  8

 10
8.038338
 20
5.075000
 30
0.000000
 11
9.238338
 21
5.075000
 31
0.000000
  0
LINE
  8

 10
8.038338
 20
5.150000
 30
0.000000
 11
9.238338
 21
5.150000
 31
0.000000
  0
LINE
  8

 10
8.038338
 20
5.000000
 30
0.000000
 11
9.238338
 21
5.000000
 31
0.000000
  0
LINE
  8

 10
15.217188
 20
5.075000
 30
0.000000
 11
16.417188
 21
5.075000
 31
0.000000
  0
LINE
  8

 10
15.217188
 20
5.150000
 30
0.000000
 11
16.417188
 21
5.150000
 31
0.000000
  0
LINE
  8

 10
15.217188
 20
5.000000
 30
0.000000
 11
16.417188
 21
5.000000
 31
0.000000
  0
LINE
  8

 10
19.087188
 20
7.075000
 30
0.000000
 11
20.287188
 21
7.075000
 31
0.000000
  0
LINE
  8

 10
19.087188
 20
7.150000
 30
0.000000
 11
20.287188
 21
7.150000
 31
0.000000
  0
LINE
  8

 10
19.087188
 20
7.000000
 30
0.000000
 11
20.287188
 21
7.000000
 31
0.000000
  0
LINE
  8

 10
6.375000
 20
8.333296
 30
0.000000
 11
6.375000
 21
8.733296
 31
0.000000
  0
LINE
  8

 10
6.300000
 20
8.333296
 30
0.000000
 11
6.300000
 21
8.733296
 31
0.000000
  0
LINE
  8

 10
6.450000
 20
8.333296
 30
0.000000
 11
6.450000
 21
8.733296
 31
0.000000
  0
LINE
  8

 10
6.375000
 20
6.405010
 30
0.000000
 11
6.375000
 21
6.805010
 31
0.000000
  0
LINE
  8

 10
6.300000
 20
6.405010
 30
0.000000
 11
6.300000
 21
6.805010
 31
0.000000
  0
LINE
  8

 10
6.450000
 20
6.405010
 30
0.000000
 11
6.450000
 21
6.805010
 31
0.000000
  0
LINE
  8

 10
24.274063
 20
12.925000
 30
0.000000
 11
25.474063
 21
12.925000
 31
0.000000
  0
LINE
  8

 10
24.274063
 20
13.000000
 30
0.000000
 11
25.474063
 21
13.000000
 31
0.000000
  0
LINE
  8

 10
24.274063
 20
12.850000
 30
0.000000
 11
25.474063
 21
12.850000
 31
0.000000
  0
LINE
  8

 10
10.200000
 20
10.954301
 30
0.000000
 11
10.200000
 21
10.400549
 31
0.000000
  0
LINE
  8

 10
10.200000
 20
10.400549
 30
0.000000
 11
10.138752
 21
10.400549
 31
0.000000
  0
LINE
  8

 10
10.138752
 20
10.400549
 30
0.000000
 11
10.138752
 21
10.954301
 31
0.000000
  0
LINE
  8

 10
10.138752
 20
10.954301
 30
0.000000
 11
10.200000
 21
10.954301
 31
0.000000
  0
LINE
  8

 10
10.128750
 20
10.589303
 30
0.000000
 11
10.128750
 21
10.583051
 31
0.000000
  0
LINE
  8

 10
10.128750
 20
10.793051
 30
0.000000
 11
10.128750
 21
10.786799
 31
0.000000
  0
LINE
  8

 10
10.198397
 20
11.417532
 30
0.000000
 11
10.198397
 21
11.825034
 31
0.000000
  0
LINE
  8

 10
10.182149
 20
11.811282
 30
0.000000
 11
10.182149
 21
11.431284
 31
0.000000
  0
LINE
  8

 10
10.182149
 20
11.431284
 30
0.000000
 11
10.182149
 21
11.431284
 31
0.000000
  0
LINE
  8

 10
10.182149
 20
11.431284
 30
0.000000
 11
10.182149
 21
11.431284
 31
0.000000
  0
LINE
  8

 10
18.049659
 20
10.972533
 30
0.000000
 11
18.049659
 21
10.418881
 31
0.000000
  0
LINE
  8

 10
18.028654
 20
11.414323
 30
0.000000
 11
18.028654
 21
11.414323
 31
0.000000
  0
LINE
  8

 10
18.028654
 20
11.414323
 30
0.000000
 11
18.028654
 21
11.414323
 31
0.000000
  0
LINE
  8

 10
8.350000
 20
9.140000
 30
0.000000
 11
7.550000
 21
9.140000
 31
0.000000
  0
LINE
  8

 10
8.350000
 20
9.100000
 30
0.000000
 11
7.550000
 21
9.100000
 31
0.000000
  0
LINE
  8

 10
7.550000
 20
9.100000
 30
0.000000
 11
7.550000
 21
9.140000
 31
0.000000
  0
LINE
  8

 10
8.350000
 20
9.140000
 30
0.000000
 11
8.350000
 21
9.100000
 31
0.000000
  0
LINE
  8

 10
20.750000
 20
10.150000
 30
0.000000
 11
20.750000
 21
10.950000
 31
0.000000
  0
LINE
  8

 10
20.710000
 20
10.150000
 30
0.000000
 11
20.710000
 21
10.950000
 31
0.000000
  0
LINE
  8

 10
20.710000
 20
10.150000
 30
0.000000
 11
20.750000
 21
10.150000
 31
0.000000
  0
LINE
  8

 10
20.850000
 20
9.103383
 30
0.000000
 11
20.050000
 21
9.103383
 31
0.000000
  0
LINE
  8

 10
20.850000
 20
9.143383
 30
0.000000
 11
20.050000
 21
9.143383
 31
0.000000
  0
LINE
  8

 10
20.850000
 20
9.143383
 30
0.000000
 11
20.850000
 21
9.103383
 31
0.000000
  0
LINE
  8

 10
20.050000
 20
9.103383
 30
0.000000
 11
20.050000
 21
9.143383
 31
0.000000
  0
LINE
  8

 10
16.515625
 20
10.150000
 30
0.000000
 11
16.515625
 21
10.750000
 31
0.000000
  0
LINE
  8

 10
16.545625
 20
10.150000
 30
0.000000
 11
16.545625
 21
10.750000
 31
0.000000
  0
LINE
  8

 10
16.545625
 20
10.150000
 30
0.000000
 11
16.515625
 21
10.150000
 31
0.000000
  0
LINE
  8

 10
16.515625
 20
10.750000
 30
0.000000
 11
16.545625
 21
10.750000
 31
0.000000
  0
LINE
  8

 10
13.392501
 20
10.150000
 30
0.000000
 11
13.392501
 21
10.950000
 31
0.000000
  0
LINE
  8

 10
13.432501
 20
10.150000
 30
0.000000
 11
13.432501
 21
10.950000
 31
0.000000
  0
LINE
  8

 10
13.432501
 20
10.150000
 30
0.000000
 11
13.392501
 21
10.150000
 31
0.000000
  0
LINE
  8

 10
13.392501
 20
10.950000
 30
0.000000
 11
13.432501
 21
10.950000
 31
0.000000
  0
LINE
  8

 10
11.990313
 20
8.850000
 30
0.000000
 11
11.990313
 21
8.050000
 31
0.000000
  0
LINE
  8

 10
11.950313
 20
8.850000
 30
0.000000
 11
11.950313
 21
8.050000
 31
0.000000
  0
LINE
  8

 10
11.990313
 20
8.850000
 30
0.000000
 11
11.950313
 21
8.850000
 31
0.000000
  0
LINE
  8

 10
11.950313
 20
8.050000
 30
0.000000
 11
11.990313
 21
8.050000
 31
0.000000
  0
LINE
  8

 10
10.450000
 20
10.150000
 30
0.000000
 11
10.450000
 21
10.950000
 31
0.000000
  0
LINE
  8

 10
10.490000
 20
10.150000
 30
0.000000
 11
10.490000
 21
10.950000
 31
0.000000
  0
LINE
  8

 10
10.490000
 20
10.150000
 30
0.000000
 11
10.450000
 21
10.150000
 31
0.000000
  0
LINE
  8

 10
10.450000
 20
10.950000
 30
0.000000
 11
10.490000
 21
10.950000
 31
0.000000
  0
LINE
  8

 10
8.630000
 20
10.150000
 30
0.000000
 11
8.600000
 21
10.150000
 31
0.000000
  0
LINE
  8

 10
9.950878
 20
8.850000
 30
0.000000
 11
9.950878
 21
8.050000
 31
0.000000
  0
LINE
  8

 10
9.910878
 20
8.850000
 30
0.000000
 11
9.910878
 21
8.050000
 31
0.000000
  0
LINE
  8

 10
9.910878
 20
8.850000
 30
0.000000
 11
9.950878
 21
8.850000
 31
0.000000
  0
LINE
  8

 10
9.950878
 20
8.050000
 30
0.000000
 11
9.910878
 21
8.050000
 31
0.000000
  0
LINE
  8

 10
7.300000
 20
5.250000
 30
0.000000
 11
8.100000
 21
5.250000
 31
0.000000
  0
LINE
  8

 10
7.300000
 20
5.290000
 30
0.000000
 11
8.100000
 21
5.290000
 31
0.000000
  0
LINE
  8

 10
7.300000
 20
5.290000
 30
0.000000
 11
7.300000
 21
5.250000
 31
0.000000
  0
LINE
  8

 10
8.100000
 20
5.250000
 30
0.000000
 11
8.100000
 21
5.290000
 31
0.000000
  0
LINE
  8

 10
18.050000
 20
6.904207
 30
0.000000
 11
17.250000
 21
6.904207
 31
0.000000
  0
LINE
  8

 10
18.050000
 20
6.944207
 30
0.000000
 11
17.250000
 21
6.944207
 31
0.000000
  0
LINE
  8

 10
18.050000
 20
6.904207
 30
0.000000
 11
18.050000
 21
6.944207
 31
0.000000
  0
LINE
  8

 10
17.250000
 20
6.944207
 30
0.000000
 11
17.250000
 21
6.904207
 31
0.000000
  0
LINE
  8

 10
18.050000
 20
8.676688
 30
0.000000
 11
17.250000
 21
8.676688
 31
0.000000
  0
LINE
  8

 10
18.050000
 20
8.716688
 30
0.000000
 11
17.250000
 21
8.716688
 31
0.000000
  0
LINE
  8

 10
18.050000
 20
8.676688
 30
0.000000
 11
18.050000
 21
8.716688
 31
0.000000
  0
LINE
  8

 10
17.250000
 20
8.716688
 30
0.000000
 11
17.250000
 21
8.676688
 31
0.000000
  0
CIRCLE
  8
LAYER 0
 10
17.234000
 20
11.513000
 30
0.000000
 40
0.300000
  0
LINE
  8
LAYER 0
 10
17.231469
 20
11.213168
 30
0.000000
 11
17.221389
 21
10.090000
 31
0.000000
  0
LINE
  8
LAYER 0
 10
17.418231
 20
11.276253
 30
0.000000
 11
18.110000
 21
10.385980
 31
0.000000
  0
LINE
  8
LAYER 0
 10
17.221389
 20
10.090000
 30
0.000000
 11
17.418803
 21
10.090000
 31
0.000000
  0
CIRCLE
  8
LAYER 0
 10
9.350000
 20
11.500000
 30
0.000000
 40
0.300000
  0
LINE
  8
LAYER 0
 10
9.300802
 20
10.090000
 30
0.000000
 11
9.500483
 21
10.090000
 31
0.000000
  0
LINE
  8
LAYER 0
 10
9.548077
 20
11.725312
 30
0.000000
 11
10.250000
 21
12.535126
 31
0.000000
  0
LINE
  8
LAYER 0
 10
9.530673
 20
11.250506
 30
0.000000
 11
10.250000
 21
10.293735
 31
0.000000
  0
LINE
  8
LAYER 0
 10
9.339539
 20
11.200182
 30
0.000000
 11
9.300802
 21
10.090000
 31
0.000000
  0
CIRCLE
  8
LAYER 0
 10
14.801000
 20
11.523000
 30
0.000000
 40
0.300000
  0
CIRCLE
  8
LAYER 0
 10
11.792000
 20
11.490000
 30
0.000000
 40
0.300000
  0
CIRCLE
  8
LAYER 0
 10
19.564000
 20
11.518000
 30
0.000000
 40
0.300000
  0
CIRCLE
  8
LAYER 0
 10
6.772000
 20
10.948000
 30
0.000000
 40
0.300000
  0
CIRCLE
  8
LAYER 0
 10
10.250000
 20
9.443000
 30
0.000000
 40
0.300000
  0
CIRCLE
  8
LAYER 0
 10
14.597000
 20
9.484000
 30
0.000000
 40
0.300000
  0
CIRCLE
  8
LAYER 0
 10
23.585000
 20
11.488000
 30
0.000000
 40
0.300000
  0
CIRCLE
  8
LAYER 0
 10
23.579000
 20
8.901000
 30
0.000000
 40
0.300000
  0
CIRCLE
  8
LAYER 0
 10
19.533000
 20
8.617000
 30
0.000000
 40
0.300000
  0
CIRCLE
  8
LAYER 0
 10
19.533000
 20
6.098000
 30
0.000000
 40
0.300000
  0
CIRCLE
  8
LAYER 0
 10
11.459000
 20
6.981000
 30
0.000000
 40
0.300000
  0
CIRCLE
  8
LAYER 0
 10
16.617000
 20
7.018000
 30
0.000000
 40
0.300000
  0
CIRCLE
  8
LAYER 0
 10
8.225000
 20
7.000000
 30
0.000000
 40
0.300000
  0
CIRCLE
  8
LAYER 0
 10
5.745000
 20
7.006000
 30
0.000000
 40
0.300000
  0
LINE
  8
LAYER 0
 10
11.792428
 20
11.490122
 30
0.000000
 11
11.792428
 21
11.490122
 31
0.000000
  0
LINE
  8
LAYER 0
 10
14.596598
 20
9.483857
 30
0.000000
 11
13.357523
 21
8.940000
 31
0.000000
  0
LINE
  8
LAYER 0
 10
6.622001
 20
11.207808
 30
0.000000
 11
5.639250
 21
12.910000
 31
0.000000
  0
LINE
  8
LAYER 0
 10
7.001633
 20
11.141051
 30
0.000000
 11
8.410000
 21
12.325052
 31
0.000000
  0
LINE
  8
LAYER 0
 10
7.039671
 20
10.812530
 30
0.000000
 11
8.410000
 21
10.119000
 31
0.000000
  0
LINE
  8
LAYER 0
 10
7.039671
 20
10.812530
 30
0.000000
 11
8.410000
 21
10.119000
 31
0.000000
  0
LINE
  8
LAYER 0
 10
11.529054
 20
11.634428
 30
0.000000
 11
10.290000
 21
12.315000
 31
0.000000
  0
LINE
  8
LAYER 0
 10
12.040035
 20
11.658756
 30
0.000000
 11
13.203000
 21
12.450000
 31
0.000000
  0
LINE
  8
LAYER 0
 10
12.039790
 20
11.320885
 30
0.000000
 11
13.203000
 21
10.527000
 31
0.000000
  0
LINE
  8
LAYER 0
 10
11.720417
 20
11.198665
 30
0.000000
 11
11.448010
 21
10.090000
 31
0.000000
  0
LINE
  8
LAYER 0
 10
10.250000
 20
9.443000
 30
0.000000
 11
6.772000
 21
10.948000
 31
0.000000
  0
LINE
  8
LAYER 0
 10
11.792000
 20
11.490000
 30
0.000000
 11
13.357523
 21
8.940000
 31
0.000000
  0
LINE
  8
LAYER 0
 10
9.350000
 20
11.500000
 30
0.000000
 11
9.350000
 21
11.500000
 31
0.000000
  0
LINE
  8
LAYER 0
 10
15.048515
 20
11.692518
 30
0.000000
 11
16.325625
 21
12.567181
 31
0.000000
  0
LINE
  8
LAYER 0
 10
14.522853
 20
11.635403
 30
0.000000
 11
13.232501
 21
12.156855
 31
0.000000
  0
LINE
  8
LAYER 0
 10
15.071533
 20
11.393339
 30
0.000000
 11
16.325625
 21
10.792281
 31
0.000000
  0
ARC
  5
65
330
1F
100
AcDbEntity
  8
0
100
AcDbCircle
 10
14.419775
 20
15.018113
 30
0.000000
 40
6.170325
100
AcDbArc
 50
214.736789
 51
-99.903130
  0
LINE
  8
LAYER 0
 10
10.250000
 20
9.443000
 30
0.000000
 11
13.357523
 21
8.940000
 31
0.000000
  0
ARC
  5
65
330
1F
100
AcDbEntity
  8
0
100
AcDbCircle
 10
2.132685
 20
30.885081
 30
0.000000
 40
24.647730
100
AcDbArc
 50
284.310253
 51
-62.916242
  0
LINE
  8
LAYER 0
 10
8.225000
 20
7.000000
 30
0.000000
 11
5.745000
 21
7.006000
 31
0.000000
  0
LINE
  8
LAYER 0
 10
13.357523
 20
8.940000
 30
0.000000
 11
16.617000
 21
7.018000
 31
0.000000
  0
LINE
  8
LAYER 0
 10
11.459000
 20
6.981000
 30
0.000000
 11
16.617000
 21
7.018000
 31
0.000000
  0
LINE
  8
LAYER 0
 10
19.533000
 20
8.617000
 30
0.000000
 11
19.533000
 21
6.098000
 31
0.000000
  0
LINE
  8
LAYER 0
 10
19.564000
 20
11.518000
 30
0.000000
 11
23.585000
 21
11.488000
 31
0.000000
  0
LINE
  8
LAYER 0
 10
19.816407
 20
11.680143
 30
0.000000
 11
20.910000
 21
12.382554
 31
0.000000
  0
LINE
  8
LAYER 0
 10
19.614145
 20
11.222221
 30
0.000000
 11
19.806095
 21
10.090000
 31
0.000000
  0
LINE
  8
LAYER 0
 10
8.302549
 20
7.289777
 30
0.000000
 11
8.736808
 21
8.910000
 31
0.000000
  0
LINE
  8
LAYER 0
 10
8.071129
 20
7.257534
 30
0.000000
 11
7.083818
 21
8.910000
 31
0.000000
  0
LINE
  8
LAYER 0
 10
5.756166
 20
7.305792
 30
0.000000
 11
5.815919
 21
8.910000
 31
0.000000
  0
LINE
  8
LAYER 0
 10
5.984407
 20
6.825212
 30
0.000000
 11
6.958000
 21
6.090000
 31
0.000000
  0
LINE
  8
LAYER 0
 10
11.634064
 20
7.224624
 30
0.000000
 11
12.845151
 21
8.910000
 31
0.000000
  0
LINE
  8
LAYER 0
 10
19.554153
 20
8.916253
 30
0.000000
 11
19.635000
 21
10.060000
 31
0.000000
  0
LINE
  8
LAYER 0
 10
19.235426
 20
6.059927
 30
0.000000
 11
18.140000
 21
5.919774
 31
0.000000
  0
LINE
  8
LAYER 0
 10
23.306250
 20
11.377102
 30
0.000000
 11
20.940000
 21
10.435711
 31
0.000000
  0
LINE
  8
LAYER 0
 10
23.884621
 20
11.472919
 30
0.000000
 11
26.410000
 21
11.345811
 31
0.000000
  0
LINE
  8
LAYER 0
 10
23.281601
 20
8.861582
 30
0.000000
 11
20.940000
 21
8.551216
 31
0.000000
  0
LINE
  8
LAYER 0
 10
23.585000
 20
11.488000
 30
0.000000
 11
23.579000
 21
8.901000
 31
0.000000
  0
LINE
  8
LAYER 0
 10
19.805879
 20
8.492352
 30
0.000000
 11
20.910000
 21
7.988000
 31
0.000000
  0
LINE
  8
LAYER 0
 10
19.809501
 20
5.981608
 30
0.000000
 11
20.910000
 21
5.518357
 31
0.000000
  0
LINE
  8

 10
18.050000
 20
5.000000
 30
0.000000
 11
21.000000
 21
5.000000
 31
0.000000
  0
LINE
  8

 10
18.050000
 20
5.150000
 30
0.000000
 11
18.050000
 21
5.000000
 31
0.000000
  0
LINE
  8
LAYER 0
 10
19.533000
 20
8.617000
 30
0.000000
 11
14.597000
 21
9.484000
 31
0.000000
  0
LINE
  8
LAYER 0
 10
17.234000
 20
11.513000
 30
0.000000
 11
19.564000
 21
11.518000
 31
0.000000
  0
LINE
  8
LAYER 0
 10
11.459000
 20
6.981000
 30
0.000000
 11
10.898293
 21
5.215254
 31
0.000000
  0
LINE
  8

 10
17.115625
 20
10.000000
 30
0.000000
 11
18.200000
 21
10.000000
 31
0.000000
  0
LINE
  8

 10
18.630313
 20
13.000000
 30
0.000000
 11
17.568438
 21
13.000000
 31
0.000000
  0
LINE
  8

 10
18.050000
 20
12.850000
 30
0.000000
 11
17.568438
 21
12.850000
 31
0.000000
  0
LINE
  8

 10
58.875000
 20
0.709000
 30
0.000000
 11
50.200000
 21
0.709000
 31
0.000000
  0
LINE
  8

 10
58.875000
 20
1.129000
 30
0.000000
 11
50.200000
 21
1.129000
 31
0.000000
  0
LINE
  8

 10
58.875000
 20
1.735000
 30
0.000000
 11
50.200000
 21
1.735000
 31
0.000000
  0
LINE
  8

 10
58.875000
 20
2.158000
 30
0.000000
 11
50.200000
 21
2.158000
 31
0.000000
  0
LINE
  8

 10
58.875000
 20
4.116000
 30
0.000000
 11
50.200000
 21
4.116000
 31
0.000000
  0
LINE
  8

 10
58.875000
 20
2.580000
 30
0.000000
 11
50.200000
 21
2.580000
 31
0.000000
  0
TEXT
  5
64
330
1F
100
AcDbEntity
  8
0
100
AcDbText
 10
50.241000
 20
0.998000
 30
0.000000
 40
0.065000
  1
REVISOR:
 50
0.000000
100
AcDbText
  0
TEXT
  5
64
330
1F
100
AcDbEntity
  8
0
100
AcDbText
 10
50.241000
 20
2.031000
 30
0.000000
 40
0.065000
  1
CLIENTE:
 50
0.000000
100
AcDbText
  0
TEXT
  5
64
330
1F
100
AcDbEntity
  8
0
100
AcDbText
 10
50.241000
 20
1.581000
 30
0.000000
 40
0.065000
  1
ASSUNTO:
 50
0.000000
100
AcDbText
  0
TEXT
  5
64
330
1F
100
AcDbEntity
  8
0
100
AcDbText
 10
50.241000
 20
2.435000
 30
0.000000
 40
0.065000
  1
RESPONSVEL TCNICO:
 50
0.000000
100
AcDbText
  0
TEXT
  5
64
330
1F
100
AcDbEntity
  8
0
100
AcDbText
 10
57.546000
 20
1.581000
 30
0.000000
 40
0.065000
  1
FOLHA:
 50
0.000000
100
AcDbText
  0
TEXT
  5
64
330
1F
100
AcDbEntity
  8
0
100
AcDbText
 10
50.845000
 20
1.828000
 30
0.000000
 40
0.100000
  1
XXXXX
 50
0.000000
100
AcDbText
  0
TEXT
  5
64
330
1F
100
AcDbEntity
  8
0
100
AcDbText
 10
50.845000
 20
1.413000
 30
0.000000
 40
0.110000
  1
XXXXX
 50
0.000000
100
AcDbText
  0
TEXT
  5
64
330
1F
100
AcDbEntity
  8
0
100
AcDbText
 10
50.845000
 20
2.232000
 30
0.000000
 40
0.125000
  1
XXXXX
 50
0.000000
100
AcDbText
  0
TEXT
  5
64
330
1F
100
AcDbEntity
  8
0
100
AcDbText
 10
50.845000
 20
0.825000
 30
0.000000
 40
0.100000
  1
XXXXX
 50
0.000000
100
AcDbText
  0
TEXT
  5
64
330
1F
100
AcDbEntity
  8
0
100
AcDbText
 10
50.845000
 20
1.189000
 30
0.000000
 40
0.100000
  1
XXXXX
 50
0.000000
100
AcDbText
  0
TEXT
  5
64
330
1F
100
AcDbEntity
  8
0
100
AcDbText
 10
55.366000
 20
0.998000
 30
0.000000
 40
0.065000
  1
DATA:
 50
0.000000
100
AcDbText
  0
TEXT
  5
64
330
1F
100
AcDbEntity
  8
0
100
AcDbText
 10
55.709000
 20
0.825000
 30
0.000000
 40
0.100000
  1
XXXXX
 50
0.000000
100
AcDbText
  0
TEXT
  5
64
330
1F
100
AcDbEntity
  8
0
100
AcDbText
 10
57.544000
 20
0.998000
 30
0.000000
 40
0.065000
  1
ESCALA:
 50
0.000000
100
AcDbText
  0
TEXT
  5
64
330
1F
100
AcDbEntity
  8
0
100
AcDbText
 10
58.018000
 20
0.825000
 30
0.000000
 40
0.100000
  1
1:50
 50
0.000000
100
AcDbText
  0
LINE
  8

 10
58.875000
 20
2.940000
 30
0.000000
 11
50.200000
 21
2.940000
 31
0.000000
  0
TEXT
  5
64
330
1F
100
AcDbEntity
  8
0
100
AcDbText
 10
50.241000
 20
2.795000
 30
0.000000
 40
0.065000
  1
TTULO:
 50
0.000000
100
AcDbText
  0
TEXT
  5
64
330
1F
100
AcDbEntity
  8
0
100
AcDbText
 10
50.845000
 20
2.634000
 30
0.000000
 40
0.125000
  1
XXXXX
 50
0.000000
100
AcDbText
  0
TEXT
  5
64
330
1F
100
AcDbEntity
  8
0
100
AcDbText
 10
51.000000
 20
3.419000
 30
0.000000
 40
0.250000
  1
Semonetti Engenharia e Sistemas
 50
0.000000
100
AcDbText
  0
LINE
  8

 10
50.200000
 20
4.116000
 30
0.000000
 11
50.200000
 21
0.500000
 31
0.000000
  0
LINE
  8

 10
50.200000
 20
1.685000
 30
0.000000
 11
50.200000
 21
1.685000
 31
0.000000
  0
LINE
  8

 10
50.200000
 20
2.158000
 30
0.000000
 11
50.200000
 21
2.158000
 31
0.000000
  0
LINE
  8

 10
59.450000
 20
0.000000
 30
0.000000
 11
59.450000
 21
42.050000
 31
0.000000
  0
LINE
  8

 10
59.450000
 20
42.050000
 30
0.000000
 11
0.000000
 21
42.050000
 31
0.000000
  0
LINE
  8

 10
0.000000
 20
42.050000
 30
0.000000
 11
0.000000
 21
0.000000
 31
0.000000
  0
LINE
  8

 10
50.200000
 20
0.000000
 30
0.000000
 11
50.200000
 21
0.500000
 31
0.000000
  0
LINE
  8

 10
40.950000
 20
0.000000
 30
0.000000
 11
40.950000
 21
0.500000
 31
0.000000
  0
LINE
  8

 10
31.700000
 20
0.000000
 30
0.000000
 11
31.700000
 21
0.500000
 31
0.000000
  0
LINE
  8

 10
22.450000
 20
0.000000
 30
0.000000
 11
22.450000
 21
0.500000
 31
0.000000
  0
LINE
  8

 10
13.200000
 20
0.000000
 30
0.000000
 11
13.200000
 21
0.500000
 31
0.000000
  0
LINE
  8

 10
0.000000
 20
14.850000
 30
0.000000
 11
1.250000
 21
14.850000
 31
0.000000
  0
LINE
  8

 10
0.000000
 20
29.700000
 30
0.000000
 11
1.250000
 21
29.700000
 31
0.000000
  0
LINE
  8

 10
58.950000
 20
29.700000
 30
0.000000
 11
59.450000
 21
29.700000
 31
0.000000
  0
LINE
  8

 10
50.200000
 20
41.550000
 30
0.000000
 11
50.200000
 21
42.050000
 31
0.000000
  0
LINE
  8

 10
58.950000
 20
14.850000
 30
0.000000
 11
59.450000
 21
14.850000
 31
0.000000
  0
LINE
  8

 10
40.950000
 20
41.550000
 30
0.000000
 11
40.950000
 21
42.050000
 31
0.000000
  0
LINE
  8

 10
31.700000
 20
41.550000
 30
0.000000
 11
31.700000
 21
42.050000
 31
0.000000
  0
LINE
  8

 10
22.450000
 20
41.550000
 30
0.000000
 11
22.450000
 21
42.050000
 31
0.000000
  0
LINE
  8

 10
13.200000
 20
41.550000
 30
0.000000
 11
13.200000
 21
42.050000
 31
0.000000
  0
LINE
  8

 10
58.950000
 20
41.550000
 30
0.000000
 11
1.250000
 21
41.550000
 31
0.000000
  0
LINE
  8

 10
1.250000
 20
41.550000
 30
0.000000
 11
1.250000
 21
0.500000
 31
0.000000
  0
LINE
  8

 10
1.250000
 20
0.500000
 30
0.000000
 11
58.950000
 21
0.500000
 31
0.000000
  0
LINE
  8

 10
58.950000
 20
0.500000
 30
0.000000
 11
58.950000
 21
41.550000
 31
0.000000
  0
LINE
  8

 10
0.000000
 20
0.000000
 30
0.000000
 11
59.450000
 21
0.000000
 31
0.000000
  0
LINE
  8
LAYER 0
 10
14.597000
 20
9.484000
 30
0.000000
 11
14.801000
 21
11.523000
 31
0.000000
  0
LINE
  8
LAYER 0
 10
19.533000
 20
8.617000
 30
0.000000
 11
18.110000
 21
10.385980
 31
0.000000
  0
LINE
  8

 10
0.000000
 20
0.000000
 30
0.000000
 11
0.000000
 21
0.000000
 31
0.000000
  0
LINE
  8

 10
18.630313
 20
13.000000
 30
0.000000
 11
18.050000
 21
13.000000
 31
0.000000
  0
LINE
  8

 10
18.050000
 20
13.000000
 30
0.000000
 11
18.050000
 21
12.850000
 31
0.000000
  0
LINE
  8
congela
 10
0.000000
 20
0.000000
 30
0.000000
 11
0.000000
 21
1.000000
 31
0.000000
  0
LINE
  8
congela
 10
0.000000
 20
0.000000
 30
0.000000
 11
0.000000
 21
-1.000000
 31
0.000000
  0
LINE
  8
congela
 10
0.000000
 20
0.000000
 30
0.000000
 11
1.000000
 21
0.000000
 31
0.000000
  0
LINE
  8
congela
 10
0.000000
 20
0.000000
 30
0.000000
 11
-1.000000
 21
0.000000
 31
0.000000
  0
LINE
  8
congela
 10
0.000000
 20
0.000000
 30
0.000000
 11
0.000000
 21
1.000000
 31
0.000000
  0
LINE
  8
congela
 10
0.000000
 20
0.000000
 30
0.000000
 11
0.000000
 21
-1.000000
 31
0.000000
  0
LINE
  8
congela
 10
0.000000
 20
0.000000
 30
0.000000
 11
1.000000
 21
0.000000
 31
0.000000
  0
LINE
  8
congela
 10
0.000000
 20
0.000000
 30
0.000000
 11
-1.000000
 21
0.000000
 31
0.000000
  0
LINE
  8
congela
 10
0.000000
 20
0.000000
 30
0.000000
 11
0.000000
 21
1.000000
 31
0.000000
  0
LINE
  8
congela
 10
0.000000
 20
0.000000
 30
0.000000
 11
0.000000
 21
-1.000000
 31
0.000000
  0
LINE
  8
congela
 10
0.000000
 20
0.000000
 30
0.000000
 11
1.000000
 21
0.000000
 31
0.000000
  0
LINE
  8
congela
 10
0.000000
 20
0.000000
 30
0.000000
 11
-1.000000
 21
0.000000
 31
0.000000
  0
LINE
  8
LAYER 0
 10
17.234000
 20
11.513000
 30
0.000000
 11
18.110000
 21
12.430621
 31
0.000000
  0
LINE
  8
TOMADAS
 10
27.400000
 20
29.359000
 30
0.000000
 11
27.400000
 21
28.659000
 31
0.000000
  0
LINE
  8
TOMADAS
 10
27.400000
 20
28.659000
 30
0.000000
 11
27.400000
 21
28.759000
 31
0.000000
  0
LINE
  8
TOMADAS
 10
27.400000
 20
28.759000
 30
0.000000
 11
27.600000
 21
28.759000
 31
0.000000
  0
LINE
  8
TOMADAS
 10
27.600000
 20
28.759000
 30
0.000000
 11
27.600000
 21
29.259000
 31
0.000000
  0
LINE
  8
TOMADAS
 10
27.600000
 20
29.259000
 30
0.000000
 11
27.400000
 21
29.259000
 31
0.000000
  0
LINE
  8
TOMADAS
 10
27.400000
 20
29.259000
 30
0.000000
 11
27.600000
 21
28.759000
 31
0.000000
  0
LINE
  8
TOMADAS
 10
39.019000
 20
26.614000
 30
0.000000
 11
39.719000
 21
26.614000
 31
0.000000
  0
LINE
  8
TOMADAS
 10
39.719000
 20
26.614000
 30
0.000000
 11
39.619000
 21
26.614000
 31
0.000000
  0
LINE
  8
TOMADAS
 10
39.619000
 20
26.614000
 30
0.000000
 11
39.619000
 21
26.814000
 31
0.000000
  0
LINE
  8
TOMADAS
 10
39.619000
 20
26.814000
 30
0.000000
 11
39.119000
 21
26.814000
 31
0.000000
  0
LINE
  8
TOMADAS
 10
39.119000
 20
26.814000
 30
0.000000
 11
39.119000
 21
26.614000
 31
0.000000
  0
LINE
  8
TOMADAS
 10
39.119000
 20
26.614000
 30
0.000000
 11
39.619000
 21
26.814000
 31
0.000000
  0
CIRCLE
  8
LAYER 0
 10
38.775000
 20
33.662000
 30
0.000000
 40
0.038000
  0
CIRCLE
  8
LAYER 0
 10
39.080000
 20
33.662000
 30
0.000000
 40
0.038000
  0
ARC
  5
65
330
1F
100
AcDbEntity
  8
0
100
AcDbCircle
 10
38.928000
 20
33.701000
 30
0.000000
 40
0.152000
100
AcDbArc
 50
0.000000
 51
-180.000000
  0
LINE
  8
0
 10
39.118000
 20
33.662000
 30
0.000000
 11
39.214000
 21
33.662000
 31
0.000000
  0
LINE
  8
0
 10
38.737000
 20
33.662000
 30
0.000000
 11
38.164000
 21
33.662000
 31
0.000000
  0
CIRCLE
  8
LAYER 0
 10
39.366000
 20
33.662000
 30
0.000000
 40
0.152000
  0
TEXT
  5
64
330
1F
100
AcDbEntity
  8
0
100
AcDbText
 10
39.287000
 20
33.593000
 30
0.000000
 40
0.152000
  1
M
 50
0.000000
100
AcDbText
  0
LINE
  8
0
 10
39.519000
 20
33.662000
 30
0.000000
 11
40.091000
 21
33.662000
 31
0.000000
  0
LINE
  8
0
 10
40.091000
 20
33.662000
 30
0.000000
 11
40.473000
 21
33.662000
 31
0.000000
  0
CIRCLE
  8
LAYER 0
 10
40.511000
 20
33.662000
 30
0.000000
 40
0.038000
  0
CIRCLE
  8
LAYER 0
 10
40.816000
 20
33.662000
 30
0.000000
 40
0.038000
  0
ARC
  5
65
330
1F
100
AcDbEntity
  8
0
100
AcDbCircle
 10
40.664000
 20
33.701000
 30
0.000000
 40
0.152000
100
AcDbArc
 50
0.000000
 51
-180.000000
  0
LINE
  8
0
 10
40.855000
 20
33.662000
 30
0.000000
 11
41.236000
 21
33.662000
 31
0.000000
  0
LINE
  8
0
 10
41.236000
 20
33.662000
 30
0.000000
 11
41.236000
 21
34.044000
 31
0.000000
  0
LINE
  8
0
 10
41.236000
 20
34.044000
 30
0.000000
 11
41.236000
 21
34.426000
 31
0.000000
  0
LINE
  8
0
 10
41.236000
 20
34.426000
 30
0.000000
 11
41.236000
 21
34.807000
 31
0.000000
  0
LINE
  8
0
 10
41.236000
 20
33.662000
 30
0.000000
 11
41.236000
 21
33.281000
 31
0.000000
  0
LINE
  8
0
 10
41.236000
 20
33.281000
 30
0.000000
 11
41.236000
 21
32.899000
 31
0.000000
  0
LINE
  8
0
 10
41.236000
 20
32.899000
 30
0.000000
 11
41.236000
 21
32.518000
 31
0.000000
  0
LINE
  8
0
 10
41.236000
 20
33.662000
 30
0.000000
 11
41.618000
 21
33.662000
 31
0.000000
  0
CIRCLE
  8
LAYER 0
 10
41.656000
 20
33.662000
 30
0.000000
 40
0.038000
  0
CIRCLE
  8
LAYER 0
 10
41.961000
 20
33.662000
 30
0.000000
 40
0.038000
  0
ARC
  5
65
330
1F
100
AcDbEntity
  8
0
100
AcDbCircle
 10
41.809000
 20
33.701000
 30
0.000000
 40
0.152000
100
AcDbArc
 50
0.000000
 51
-180.000000
  0
LINE
  8
0
 10
41.236000
 20
34.044000
 30
0.000000
 11
41.618000
 21
34.044000
 31
0.000000
  0
CIRCLE
  8
LAYER 0
 10
41.656000
 20
34.044000
 30
0.000000
 40
0.038000
  0
CIRCLE
  8
LAYER 0
 10
41.961000
 20
34.044000
 30
0.000000
 40
0.038000
  0
ARC
  5
65
330
1F
100
AcDbEntity
  8
0
100
AcDbCircle
 10
41.809000
 20
34.082000
 30
0.000000
 40
0.152000
100
AcDbArc
 50
0.000000
 51
-180.000000
  0
LINE
  8
0
 10
41.236000
 20
34.426000
 30
0.000000
 11
41.618000
 21
34.426000
 31
0.000000
  0
CIRCLE
  8
LAYER 0
 10
41.656000
 20
34.426000
 30
0.000000
 40
0.038000
  0
CIRCLE
  8
LAYER 0
 10
41.961000
 20
34.426000
 30
0.000000
 40
0.038000
  0
ARC
  5
65
330
1F
100
AcDbEntity
  8
0
100
AcDbCircle
 10
41.809000
 20
34.464000
 30
0.000000
 40
0.152000
100
AcDbArc
 50
0.000000
 51
-180.000000
  0
LINE
  8
0
 10
41.236000
 20
34.807000
 30
0.000000
 11
41.618000
 21
34.807000
 31
0.000000
  0
CIRCLE
  8
LAYER 0
 10
41.656000
 20
34.807000
 30
0.000000
 40
0.038000
  0
CIRCLE
  8
LAYER 0
 10
41.961000
 20
34.807000
 30
0.000000
 40
0.038000
  0
ARC
  5
65
330
1F
100
AcDbEntity
  8
0
100
AcDbCircle
 10
41.809000
 20
34.845000
 30
0.000000
 40
0.152000
100
AcDbArc
 50
0.000000
 51
-180.000000
  0
LINE
  8
0
 10
41.236000
 20
33.281000
 30
0.000000
 11
41.618000
 21
33.281000
 31
0.000000
  0
CIRCLE
  8
LAYER 0
 10
41.656000
 20
33.281000
 30
0.000000
 40
0.038000
  0
CIRCLE
  8
LAYER 0
 10
41.961000
 20
33.281000
 30
0.000000
 40
0.038000
  0
ARC
  5
65
330
1F
100
AcDbEntity
  8
0
100
AcDbCircle
 10
41.809000
 20
33.319000
 30
0.000000
 40
0.152000
100
AcDbArc
 50
0.000000
 51
-180.000000
  0
LINE
  8
0
 10
41.236000
 20
32.899000
 30
0.000000
 11
41.618000
 21
32.899000
 31
0.000000
  0
CIRCLE
  8
LAYER 0
 10
41.656000
 20
32.899000
 30
0.000000
 40
0.038000
  0
CIRCLE
  8
LAYER 0
 10
41.961000
 20
32.899000
 30
0.000000
 40
0.038000
  0
ARC
  5
65
330
1F
100
AcDbEntity
  8
0
100
AcDbCircle
 10
41.809000
 20
32.937000
 30
0.000000
 40
0.152000
100
AcDbArc
 50
0.000000
 51
-180.000000
  0
LINE
  8
0
 10
41.236000
 20
32.518000
 30
0.000000
 11
41.618000
 21
32.518000
 31
0.000000
  0
CIRCLE
  8
LAYER 0
 10
41.656000
 20
32.518000
 30
0.000000
 40
0.038000
  0
CIRCLE
  8
LAYER 0
 10
41.961000
 20
32.518000
 30
0.000000
 40
0.038000
  0
ARC
  5
65
330
1F
100
AcDbEntity
  8
0
100
AcDbCircle
 10
41.809000
 20
32.556000
 30
0.000000
 40
0.152000
100
AcDbArc
 50
0.000000
 51
-180.000000
  0
LINE
  8
0
 10
41.809000
 20
34.616000
 30
0.000000
 11
41.809000
 21
34.674000
 31
0.000000
  0
LINE
  8
0
 10
41.809000
 20
34.616000
 30
0.000000
 11
41.809000
 21
34.559000
 31
0.000000
  0
LINE
  8
0
 10
41.809000
 20
34.998000
 30
0.000000
 11
41.809000
 21
35.055000
 31
0.000000
  0
LINE
  8
0
 10
41.809000
 20
34.998000
 30
0.000000
 11
41.809000
 21
34.941000
 31
0.000000
  0
LINE
  8
0
 10
41.809000
 20
34.235000
 30
0.000000
 11
41.809000
 21
34.292000
 31
0.000000
  0
LINE
  8
0
 10
41.809000
 20
34.235000
 30
0.000000
 11
41.809000
 21
34.178000
 31
0.000000
  0
LINE
  8
0
 10
41.809000
 20
33.853000
 30
0.000000
 11
41.809000
 21
33.910000
 31
0.000000
  0
LINE
  8
0
 10
41.809000
 20
33.853000
 30
0.000000
 11
41.809000
 21
33.796000
 31
0.000000
  0
LINE
  8
0
 10
41.809000
 20
33.472000
 30
0.000000
 11
41.809000
 21
33.529000
 31
0.000000
  0
LINE
  8
0
 10
41.809000
 20
33.472000
 30
0.000000
 11
41.809000
 21
33.414000
 31
0.000000
  0
LINE
  8
0
 10
41.809000
 20
33.090000
 30
0.000000
 11
41.809000
 21
33.147000
 31
0.000000
  0
LINE
  8
0
 10
41.809000
 20
33.090000
 30
0.000000
 11
41.809000
 21
33.033000
 31
0.000000
  0
LINE
  8
0
 10
41.809000
 20
32.708000
 30
0.000000
 11
41.809000
 21
32.766000
 31
0.000000
  0
LINE
  8
0
 10
41.809000
 20
32.708000
 30
0.000000
 11
41.809000
 21
32.651000
 31
0.000000
  0
LINE
  8
0
 10
40.664000
 20
33.853000
 30
0.000000
 11
40.664000
 21
33.910000
 31
0.000000
  0
LINE
  8
0
 10
40.664000
 20
33.853000
 30
0.000000
 11
40.664000
 21
33.796000
 31
0.000000
  0
LINE
  8
0
 10
38.928000
 20
33.853000
 30
0.000000
 11
38.928000
 21
33.910000
 31
0.000000
  0
LINE
  8
0
 10
38.928000
 20
33.853000
 30
0.000000
 11
38.928000
 21
33.796000
 31
0.000000
  0
TEXT
  5
64
330
1F
100
AcDbEntity
  8
0
100
AcDbText
 10
41.749000
 20
35.074000
 30
0.000000
 40
0.057000
  1
6 A
 50
0.000000
100
AcDbText
  0
TEXT
  5
64
330
1F
100
AcDbEntity
  8
0
100
AcDbText
 10
41.726000
 20
34.693000
 30
0.000000
 40
0.057000
  1
10 A
 50
0.000000
100
AcDbText
  0
TEXT
  5
64
330
1F
100
AcDbEntity
  8
0
100
AcDbText
 10
41.726000
 20
34.311000
 30
0.000000
 40
0.057000
  1
32 A
 50
0.000000
100
AcDbText
  0
TEXT
  5
64
330
1F
100
AcDbEntity
  8
0
100
AcDbText
 10
41.726000
 20
33.930000
 30
0.000000
 40
0.057000
  1
10 A
 50
0.000000
100
AcDbText
  0
TEXT
  5
64
330
1F
100
AcDbEntity
  8
0
100
AcDbText
 10
41.726000
 20
33.548000
 30
0.000000
 40
0.057000
  1
10 A
 50
0.000000
100
AcDbText
  0
TEXT
  5
64
330
1F
100
AcDbEntity
  8
0
100
AcDbText
 10
40.582000
 20
33.930000
 30
0.000000
 40
0.057000
  1
50 A
 50
0.000000
100
AcDbText
  0
TEXT
  5
64
330
1F
100
AcDbEntity
  8
0
100
AcDbText
 10
38.845000
 20
33.930000
 30
0.000000
 40
0.057000
  1
50 A
 50
0.000000
100
AcDbText
  0
TEXT
  5
64
330
1F
100
AcDbEntity
  8
0
100
AcDbText
 10
42.076000
 20
34.826000
 30
0.000000
 40
0.057000
  1
Circuito 1 - 1,5 mm
 50
0.000000
100
AcDbText
  0
LINE
  8
0
 10
41.999000
 20
34.807000
 30
0.000000
 11
42.915000
 21
34.807000
 31
0.000000
  0
TEXT
  5
64
330
1F
100
AcDbEntity
  8
0
100
AcDbText
 10
42.076000
 20
34.445000
 30
0.000000
 40
0.057000
  1
Circuito 2 - 2,5 mm
 50
0.000000
100
AcDbText
  0
LINE
  8
0
 10
41.999000
 20
34.426000
 30
0.000000
 11
42.915000
 21
34.426000
 31
0.000000
  0
TEXT
  5
64
330
1F
100
AcDbEntity
  8
0
100
AcDbText
 10
42.076000
 20
34.063000
 30
0.000000
 40
0.057000
  1
Circuito 3 - 6,0 mm
 50
0.000000
100
AcDbText
  0
LINE
  8
0
 10
41.999000
 20
34.044000
 30
0.000000
 11
42.915000
 21
34.044000
 31
0.000000
  0
TEXT
  5
64
330
1F
100
AcDbEntity
  8
0
100
AcDbText
 10
42.076000
 20
33.681000
 30
0.000000
 40
0.057000
  1
Circuito 4 - 4,0 mm
 50
0.000000
100
AcDbText
  0
LINE
  8
0
 10
41.999000
 20
33.662000
 30
0.000000
 11
42.915000
 21
33.662000
 31
0.000000
  0
TEXT
  5
64
330
1F
100
AcDbEntity
  8
0
100
AcDbText
 10
42.076000
 20
33.300000
 30
0.000000
 40
0.057000
  1
Circuito 5 - 4,0 mm
 50
0.000000
100
AcDbText
  0
LINE
  8
0
 10
41.999000
 20
33.281000
 30
0.000000
 11
42.915000
 21
33.281000
 31
0.000000
  0
TEXT
  5
64
330
1F
100
AcDbEntity
  8
0
100
AcDbText
 10
42.076000
 20
32.918000
 30
0.000000
 40
0.057000
  1
Circuito Reserva
 50
0.000000
100
AcDbText
  0
LINE
  8
0
 10
41.999000
 20
32.899000
 30
0.000000
 11
42.915000
 21
32.899000
 31
0.000000
  0
TEXT
  5
64
330
1F
100
AcDbEntity
  8
0
100
AcDbText
 10
42.076000
 20
32.537000
 30
0.000000
 40
0.057000
  1
Circuito Reserva
 50
0.000000
100
AcDbText
  0
LINE
  8
0
 10
41.999000
 20
32.518000
 30
0.000000
 11
42.915000
 21
32.518000
 31
0.000000
  0
LINE
  8
0
 10
41.236000
 20
32.518000
 30
0.000000
 11
41.236000
 21
32.136000
 31
0.000000
  0
LINE
  8
0
 10
41.236000
 20
32.136000
 30
0.000000
 11
41.618000
 21
32.136000
 31
0.000000
  0
CIRCLE
  8
LAYER 0
 10
41.656000
 20
32.136000
 30
0.000000
 40
0.038000
  0
CIRCLE
  8
LAYER 0
 10
41.961000
 20
32.136000
 30
0.000000
 40
0.038000
  0
ARC
  5
65
330
1F
100
AcDbEntity
  8
0
100
AcDbCircle
 10
41.809000
 20
32.174000
 30
0.000000
 40
0.152000
100
AcDbArc
 50
0.000000
 51
-180.000000
  0
LINE
  8
0
 10
41.809000
 20
32.327000
 30
0.000000
 11
41.809000
 21
32.384000
 31
0.000000
  0
LINE
  8
0
 10
41.809000
 20
32.327000
 30
0.000000
 11
41.809000
 21
32.270000
 31
0.000000
  0
TEXT
  5
64
330
1F
100
AcDbEntity
  8
0
100
AcDbText
 10
42.076000
 20
32.155000
 30
0.000000
 40
0.057000
  1
Circuito Reserva
 50
0.000000
100
AcDbText
  0
LINE
  8
0
 10
41.999000
 20
32.136000
 30
0.000000
 11
42.915000
 21
32.136000
 31
0.000000
  0
LINE
  8
0
 10
38.622000
 20
33.662000
 30
0.000000
 11
38.622000
 21
34.082000
 31
0.000000
  0
LINE
  8
0
 10
39.633000
 20
33.662000
 30
0.000000
 11
39.633000
 21
34.082000
 31
0.000000
  0
LINE
  8
0
 10
39.633000
 20
34.082000
 30
0.000000
 11
38.622000
 21
34.082000
 31
0.000000
  0
LINE
  8
0
 10
38.622000
 20
33.662000
 30
0.000000
 11
38.622000
 21
33.243000
 31
0.000000
  0
LINE
  8
0
 10
39.633000
 20
33.662000
 30
0.000000
 11
39.633000
 21
33.243000
 31
0.000000
  0
LINE
  8
0
 10
39.633000
 20
33.243000
 30
0.000000
 11
38.622000
 21
33.243000
 31
0.000000
  0
LINE
  8
0
 10
40.473000
 20
33.662000
 30
0.000000
 11
40.358000
 21
33.662000
 31
0.000000
  0
LINE
  8
0
 10
40.358000
 20
33.662000
 30
0.000000
 11
40.358000
 21
35.189000
 31
0.000000
  0
LINE
  8
0
 10
40.358000
 20
35.189000
 30
0.000000
 11
43.030000
 21
35.189000
 31
0.000000
  0
LINE
  8
0
 10
43.030000
 20
35.189000
 30
0.000000
 11
43.030000
 21
31.945000
 31
0.000000
  0
LINE
  8
0
 10
43.030000
 20
31.945000
 30
0.000000
 11
40.358000
 21
31.945000
 31
0.000000
  0
LINE
  8
0
 10
40.358000
 20
31.945000
 30
0.000000
 11
40.358000
 21
33.662000
 31
0.000000
  0
TEXT
  5
64
330
1F
100
AcDbEntity
  8
0
100
AcDbText
 10
43.068000
 20
34.807000
 30
0.000000
 40
0.057000
  1
Iluminao Geral
 50
0.000000
100
AcDbText
  0
TEXT
  5
64
330
1F
100
AcDbEntity
  8
0
100
AcDbText
 10
43.068000
 20
34.426000
 30
0.000000
 40
0.057000
  1
Tomadas de Uso Geral
 50
0.000000
100
AcDbText
  0
TEXT
  5
64
330
1F
100
AcDbEntity
  8
0
100
AcDbText
 10
43.068000
 20
34.044000
 30
0.000000
 40
0.057000
  1
Chuveiro
 50
0.000000
100
AcDbText
  0
TEXT
  5
64
330
1F
100
AcDbEntity
  8
0
100
AcDbText
 10
43.068000
 20
33.662000
 30
0.000000
 40
0.057000
  1
Ar Condicionado do Quarto
 50
0.000000
100
AcDbText
  0
TEXT
  5
64
330
1F
100
AcDbEntity
  8
0
100
AcDbText
 10
43.068000
 20
33.281000
 30
0.000000
 40
0.057000
  1
Ar Condicionado da Sala
 50
0.000000
100
AcDbText
  0
LINE
  8
0
 10
39.633000
 20
33.243000
 30
0.000000
 11
39.633000
 21
33.166000
 31
0.000000
  0
LINE
  8
0
 10
39.633000
 20
33.166000
 30
0.000000
 11
39.633000
 21
33.052000
 31
0.000000
  0
LINE
  8
0
 10
39.633000
 20
33.166000
 30
0.000000
 11
39.786000
 21
33.166000
 31
0.000000
  0
LINE
  8
0
 10
39.633000
 20
33.166000
 30
0.000000
 11
39.481000
 21
33.166000
 31
0.000000
  0
LINE
  8
0
 10
39.633000
 20
33.128000
 30
0.000000
 11
39.748000
 21
33.128000
 31
0.000000
  0
LINE
  8
0
 10
39.633000
 20
33.128000
 30
0.000000
 11
39.519000
 21
33.128000
 31
0.000000
  0
LINE
  8
0
 10
39.633000
 20
33.090000
 30
0.000000
 11
39.557000
 21
33.090000
 31
0.000000
  0
LINE
  8
0
 10
39.633000
 20
33.090000
 30
0.000000
 11
39.710000
 21
33.090000
 31
0.000000
  0
LINE
  8
0
 10
39.633000
 20
33.052000
 30
0.000000
 11
39.595000
 21
33.052000
 31
0.000000
  0
LINE
  8
0
 10
39.633000
 20
33.052000
 30
0.000000
 11
39.672000
 21
33.052000
 31
0.000000
  0
LINE
  8
0
 10
43.030000
 20
31.945000
 30
0.000000
 11
43.030000
 21
31.869000
 31
0.000000
  0
LINE
  8
0
 10
43.030000
 20
31.869000
 30
0.000000
 11
43.030000
 21
31.754000
 31
0.000000
  0
LINE
  8
0
 10
43.030000
 20
31.869000
 30
0.000000
 11
43.182000
 21
31.869000
 31
0.000000
  0
LINE
  8
0
 10
43.030000
 20
31.869000
 30
0.000000
 11
42.877000
 21
31.869000
 31
0.000000
  0
LINE
  8
0
 10
43.030000
 20
31.831000
 30
0.000000
 11
43.144000
 21
31.831000
 31
0.000000
  0
LINE
  8
0
 10
43.030000
 20
31.831000
 30
0.000000
 11
42.915000
 21
31.831000
 31
0.000000
  0
LINE
  8
0
 10
43.030000
 20
31.793000
 30
0.000000
 11
42.953000
 21
31.793000
 31
0.000000
  0
LINE
  8
0
 10
43.030000
 20
31.793000
 30
0.000000
 11
43.106000
 21
31.793000
 31
0.000000
  0
LINE
  8
0
 10
43.010000
 20
31.754000
 30
0.000000
 11
43.050000
 21
31.754000
 31
0.000000
  0
TEXT
  5
64
330
1F
100
AcDbEntity
  8
0
100
AcDbText
 10
40.358000
 20
35.265000
 30
0.000000
 40
0.057000
  1
Quadro de distribuio residencial
 50
0.000000
100
AcDbText
  0
TEXT
  5
64
330
1F
100
AcDbEntity
  8
0
100
AcDbText
 10
38.622000
 20
34.158000
 30
0.000000
 40
0.057000
  1
Quadro de medidor
 50
0.000000
100
AcDbText
  0
TEXT
  5
64
330
1F
100
AcDbEntity
  8
0
100
AcDbText
 10
39.693000
 20
33.796000
 30
0.000000
 40
0.057000
  1
+ Aterramento
 50
0.000000
100
AcDbText
  0
TEXT
  5
64
330
1F
100
AcDbEntity
  8
0
100
AcDbText
 10
38.202000
 20
33.796000
 30
0.000000
 40
0.057000
  1
10,0 mm
 50
0.000000
100
AcDbText
  0
TEXT
  5
64
330
1F
100
AcDbEntity
  8
0
100
AcDbText
 10
38.286000
 20
33.872000
 30
0.000000
 40
0.057000
  1
REDE
 50
0.000000
100
AcDbText
  0
TEXT
  5
64
330
1F
100
AcDbEntity
  8
0
100
AcDbText
 10
39.752000
 20
33.872000
 30
0.000000
 40
0.057000
  1
10,0 mm
 50
0.000000
100
AcDbText
  0
LINE
  8
0
 10
38.964000
 20
31.477000
 30
0.000000
 11
43.490000
 21
31.477000
 31
0.000000
  0
LINE
  8
0
 10
38.964000
 20
30.977000
 30
0.000000
 11
43.490000
 21
30.977000
 31
0.000000
  0
LINE
  8
0
 10
38.964000
 20
30.477000
 30
0.000000
 11
43.490000
 21
30.477000
 31
0.000000
  0
LINE
  8
0
 10
38.964000
 20
29.977000
 30
0.000000
 11
43.490000
 21
29.977000
 31
0.000000
  0
LINE
  8
0
 10
38.964000
 20
29.477000
 30
0.000000
 11
43.490000
 21
29.477000
 31
0.000000
  0
LINE
  8
0
 10
38.964000
 20
28.977000
 30
0.000000
 11
43.490000
 21
28.977000
 31
0.000000
  0
LINE
  8
0
 10
38.964000
 20
28.477000
 30
0.000000
 11
43.490000
 21
28.477000
 31
0.000000
  0
LINE
  8
0
 10
38.964000
 20
27.977000
 30
0.000000
 11
43.490000
 21
27.977000
 31
0.000000
  0
LINE
  8
0
 10
38.964000
 20
27.477000
 30
0.000000
 11
43.490000
 21
27.477000
 31
0.000000
  0
LINE
  8
0
 10
38.964000
 20
26.977000
 30
0.000000
 11
43.490000
 21
26.977000
 31
0.000000
  0
LINE
  8
0
 10
38.964000
 20
26.477000
 30
0.000000
 11
43.490000
 21
26.477000
 31
0.000000
  0
LINE
  8
0
 10
38.964000
 20
25.977000
 30
0.000000
 11
43.490000
 21
25.977000
 31
0.000000
  0
LINE
  8
0
 10
38.964000
 20
25.477000
 30
0.000000
 11
43.490000
 21
25.477000
 31
0.000000
  0
LINE
  8
0
 10
38.964000
 20
31.477000
 30
0.000000
 11
38.964000
 21
25.477000
 31
0.000000
  0
LINE
  8
0
 10
39.764000
 20
31.477000
 30
0.000000
 11
39.764000
 21
25.477000
 31
0.000000
  0
TEXT
  5
64
330
1F
100
AcDbEntity
  8
0
100
AcDbText
 10
39.864000
 20
31.302000
 30
0.000000
 40
0.075000
  1
LUMINRIA, COM INDICAO DA POTNCIA, COMANDO E  CIRCUITO.
 50
0.000000
100
AcDbText
  0
LINE
  8
0
 10
43.490000
 20
31.477000
 30
0.000000
 11
43.490000
 21
25.477000
 31
0.000000
  0
TEXT
  5
64
330
1F
100
AcDbEntity
  8
0
100
AcDbText
 10
39.864000
 20
30.802000
 30
0.000000
 40
0.075000
  1
INTERRUPTOR SIMPLES, COM INDICAO DO COMANDO.
 50
0.000000
100
AcDbText
  0
TEXT
  5
64
330
1F
100
AcDbEntity
  8
0
100
AcDbText
 10
39.864000
 20
30.302000
 30
0.000000
 40
0.075000
  1
INTERRUPTOR PARALELO, COM INDICAO DO COMANDO.
 50
0.000000
100
AcDbText
  0
TEXT
  5
64
330
1F
100
AcDbEntity
  8
0
100
AcDbText
 10
39.864000
 20
29.802000
 30
0.000000
 40
0.075000
  1
PONTO DE TOMADA BAIXO, COM INDICAO DO CIRCUITO 
 50
0.000000
100
AcDbText
  0
TEXT
  5
64
330
1F
100
AcDbEntity
  8
0
100
AcDbText
 10
39.864000
 20
28.302000
 30
0.000000
 40
0.075000
  1
CONDUTORES FASE, NEUTRO E TERRA, COM INDICAO
 50
0.000000
100
AcDbText
  0
TEXT
  5
64
330
1F
100
AcDbEntity
  8
0
100
AcDbText
 10
39.864000
 20
27.802000
 30
0.000000
 40
0.075000
  1
CONDUTORES FASE E NEUTRO, COM INDICAO DO CIRCUITO.
 50
0.000000
100
AcDbText
  0
TEXT
  5
64
330
1F
100
AcDbEntity
  8
0
100
AcDbText
 10
39.864000
 20
27.302000
 30
0.000000
 40
0.075000
  1
CONDUTORES FASE E RETORNO, COM INDICAO DO CIRCUITO E
 50
0.000000
100
AcDbText
  0
TEXT
  5
64
330
1F
100
AcDbEntity
  8
0
100
AcDbText
 10
39.864000
 20
26.802000
 30
0.000000
 40
0.075000
  1
QUADRO DE DISTRIBUIO RESIDENCIAL.
 50
0.000000
100
AcDbText
  0
TEXT
  5
64
330
1F
100
AcDbEntity
  8
0
100
AcDbText
 10
39.864000
 20
26.302000
 30
0.000000
 40
0.075000
  1
ELETRODUTO EMBUTIDO NO TETO.
 50
0.000000
100
AcDbText
  0
TEXT
  5
64
330
1F
100
AcDbEntity
  8
0
100
AcDbText
 10
39.864000
 20
25.802000
 30
0.000000
 40
0.075000
  1
ELETRODUTO EMBUTIDO NA PAREDE.
 50
0.000000
100
AcDbText
  0
TEXT
  5
64
330
1F
100
AcDbEntity
  8
0
100
AcDbText
 10
39.864000
 20
27.102000
 30
0.000000
 40
0.075000
  1
RETORNO, PODENDO SER SIMPLES OU PARALELO.
 50
0.000000
100
AcDbText
  0
TEXT
  5
64
330
1F
100
AcDbEntity
  8
0
100
AcDbText
 10
39.864000
 20
28.102000
 30
0.000000
 40
0.075000
  1
DO CIRCUITO.
 50
0.000000
100
AcDbText
  0
TEXT
  5
64
330
1F
100
AcDbEntity
  8
0
100
AcDbText
 10
39.864000
 20
29.602000
 30
0.000000
 40
0.075000
  1
E POTNCIA.
 50
0.000000
100
AcDbText
  0
TEXT
  5
64
330
1F
100
AcDbEntity
  8
0
100
AcDbText
 10
39.864000
 20
29.302000
 30
0.000000
 40
0.075000
  1
PONTO DE TOMADA MDIO, COM INDICAO DO CIRCUITO 
 50
0.000000
100
AcDbText
  0
TEXT
  5
64
330
1F
100
AcDbEntity
  8
0
100
AcDbText
 10
39.864000
 20
29.102000
 30
0.000000
 40
0.075000
  1
E POTNCIA.
 50
0.000000
100
AcDbText
  0
TEXT
  5
64
330
1F
100
AcDbEntity
  8
0
100
AcDbText
 10
39.864000
 20
28.802000
 30
0.000000
 40
0.075000
  1
PONTO DE TOMADA ALTO, COM INDICAO DO CIRCUITO 
 50
0.000000
100
AcDbText
  0
TEXT
  5
64
330
1F
100
AcDbEntity
  8
0
100
AcDbText
 10
39.864000
 20
28.602000
 30
0.000000
 40
0.075000
  1
E POTNCIA.
 50
0.000000
100
AcDbText
  0
CIRCLE
  8
LAYER 0
 10
31.553000
 20
34.958000
 30
0.000000
 40
0.620000
  0
CIRCLE
  8
LAYER 0
 10
29.400000
 20
32.550000
 30
0.000000
 40
0.200000
  0
LINE
  8
PAREDES
 10
25.000000
 20
35.950000
 30
0.000000
 11
38.100000
 21
35.950000
 31
0.000000
  0
LINE
  8
PAREDES
 10
38.100000
 20
35.950000
 30
0.000000
 11
38.100000
 21
25.000000
 31
0.000000
  0
LINE
  8
PAREDES
 10
38.100000
 20
25.000000
 30
0.000000
 11
25.000000
 21
25.000000
 31
0.000000
  0
LINE
  8
PAREDES
 10
25.000000
 20
25.000000
 30
0.000000
 11
25.000000
 21
35.950000
 31
0.000000
  0
LINE
  8
PAREDES
 10
37.850000
 20
35.700000
 30
0.000000
 11
37.850000
 21
25.250000
 31
0.000000
  0
LINE
  8
PAREDES
 10
25.250000
 20
35.700000
 30
0.000000
 11
27.250000
 21
35.700000
 31
0.000000
  0
LINE
  8
PAREDES
 10
25.250000
 20
25.250000
 30
0.000000
 11
25.250000
 21
35.700000
 31
0.000000
  0
LINE
  8
PAREDES
 10
37.850000
 20
25.250000
 30
0.000000
 11
27.400000
 21
25.250000
 31
0.000000
  0
LINE
  8
PAREDES
 10
27.250000
 20
25.250000
 30
0.000000
 11
27.250000
 21
25.350000
 31
0.000000
  0
LINE
  8
PAREDES
 10
35.850000
 20
34.700000
 30
0.000000
 11
35.850000
 21
30.300000
 31
0.000000
  0
LINE
  8
PAREDES
 10
27.400000
 20
34.700000
 30
0.000000
 11
35.850000
 21
34.700000
 31
0.000000
  0
LINE
  8
PAREDES
 10
35.850000
 20
26.250000
 30
0.000000
 11
27.400000
 21
26.250000
 31
0.000000
  0
LINE
  8
PAREDES
 10
27.400000
 20
34.550000
 30
0.000000
 11
31.400000
 21
34.550000
 31
0.000000
  0
LINE
  8
PAREDES
 10
35.700000
 20
34.550000
 30
0.000000
 11
35.700000
 21
30.550000
 31
0.000000
  0
LINE
  8
PAREDES
 10
27.400000
 20
25.250000
 30
0.000000
 11
27.400000
 21
25.350000
 31
0.000000
  0
LINE
  8
PAREDES
 10
35.700000
 20
26.400000
 30
0.000000
 11
31.550000
 21
26.400000
 31
0.000000
  0
LINE
  8
PAREDES
 10
27.400000
 20
34.700000
 30
0.000000
 11
27.400000
 21
35.700000
 31
0.000000
  0
LINE
  8
PAREDES
 10
27.400000
 20
26.400000
 30
0.000000
 11
27.400000
 21
29.500000
 31
0.000000
  0
LINE
  8
PAREDES
 10
27.400000
 20
26.150000
 30
0.000000
 11
27.250000
 21
26.150000
 31
0.000000
  0
LINE
  8
PAREDES
 10
27.400000
 20
25.350000
 30
0.000000
 11
27.250000
 21
25.350000
 31
0.000000
  0
LINE
  8
PAREDES
 10
27.400000
 20
26.150000
 30
0.000000
 11
27.400000
 21
26.250000
 31
0.000000
  0
LINE
  8
PAREDES
 10
27.250000
 20
26.150000
 30
0.000000
 11
27.250000
 21
29.500000
 31
0.000000
  0
LINE
  8
PAREDES
 10
27.250000
 20
25.250000
 30
0.000000
 11
25.250000
 21
25.250000
 31
0.000000
  0
LINE
  8
PAREDES
 10
35.700000
 20
30.400000
 30
0.000000
 11
34.400000
 21
30.400000
 31
0.000000
  0
LINE
  8
PAREDES
 10
27.400000
 20
30.550000
 30
0.000000
 11
31.400000
 21
30.550000
 31
0.000000
  0
LINE
  8
PAREDES
 10
31.400000
 20
26.400000
 30
0.000000
 11
31.400000
 21
29.500000
 31
0.000000
  0
LINE
  8
PAREDES
 10
31.550000
 20
26.400000
 30
0.000000
 11
31.550000
 21
29.500000
 31
0.000000
  0
LINE
  8
PAREDES
 10
31.400000
 20
26.400000
 30
0.000000
 11
27.400000
 21
26.400000
 31
0.000000
  0
LINE
  8
PAREDES
 10
27.400000
 20
30.550000
 30
0.000000
 11
27.400000
 21
34.550000
 31
0.000000
  0
LINE
  8
PAREDES
 10
31.550000
 20
34.550000
 30
0.000000
 11
33.550000
 21
34.550000
 31
0.000000
  0
LINE
  8
PAREDES
 10
33.550000
 20
30.400000
 30
0.000000
 11
33.550000
 21
32.400000
 31
0.000000
  0
LINE
  8
PAREDES
 10
33.700000
 20
34.550000
 30
0.000000
 11
33.700000
 21
30.550000
 31
0.000000
  0
LINE
  8
PAREDES
 10
33.700000
 20
34.550000
 30
0.000000
 11
35.700000
 21
34.550000
 31
0.000000
  0
LINE
  8
PAREDES
 10
35.700000
 20
29.400000
 30
0.000000
 11
33.550000
 21
29.400000
 31
0.000000
  0
LINE
  8
PAREDES
 10
33.700000
 20
30.550000
 30
0.000000
 11
33.800000
 21
30.550000
 31
0.000000
  0
LINE
  8
PAREDES
 10
31.400000
 20
30.400000
 30
0.000000
 11
27.400000
 21
30.400000
 31
0.000000
  0
LINE
  8
PAREDES
 10
33.800000
 20
30.550000
 30
0.000000
 11
33.800000
 21
30.400000
 31
0.000000
  0
LINE
  8
PAREDES
 10
34.400000
 20
30.550000
 30
0.000000
 11
35.700000
 21
30.550000
 31
0.000000
  0
LINE
  8
PAREDES
 10
33.800000
 20
30.400000
 30
0.000000
 11
33.550000
 21
30.400000
 31
0.000000
  0
LINE
  8
PAREDES
 10
31.550000
 20
32.550000
 30
0.000000
 11
31.650000
 21
32.550000
 31
0.000000
  0
LINE
  8
PAREDES
 10
31.550000
 20
32.400000
 30
0.000000
 11
31.650000
 21
32.400000
 31
0.000000
  0
LINE
  8
PAREDES
 10
31.650000
 20
32.400000
 30
0.000000
 11
31.650000
 21
32.550000
 31
0.000000
  0
LINE
  8
PAREDES
 10
32.250000
 20
32.400000
 30
0.000000
 11
33.550000
 21
32.400000
 31
0.000000
  0
LINE
  8
PAREDES
 10
32.250000
 20
32.550000
 30
0.000000
 11
33.550000
 21
32.550000
 31
0.000000
  0
LINE
  8
PAREDES
 10
31.550000
 20
32.550000
 30
0.000000
 11
31.550000
 21
34.550000
 31
0.000000
  0
LINE
  8
PAREDES
 10
31.400000
 20
30.650000
 30
0.000000
 11
31.550000
 21
30.650000
 31
0.000000
  0
LINE
  8
PAREDES
 10
31.400000
 20
31.450000
 30
0.000000
 11
31.550000
 21
31.450000
 31
0.000000
  0
LINE
  8
PAREDES
 10
31.400000
 20
31.450000
 30
0.000000
 11
31.400000
 21
34.550000
 31
0.000000
  0
LINE
  8
PAREDES
 10
31.550000
 20
31.450000
 30
0.000000
 11
31.550000
 21
32.400000
 31
0.000000
  0
LINE
  8
PAREDES
 10
31.400000
 20
30.550000
 30
0.000000
 11
31.400000
 21
30.650000
 31
0.000000
  0
LINE
  8
PAREDES
 10
31.550000
 20
30.300000
 30
0.000000
 11
31.400000
 21
30.300000
 31
0.000000
  0
LINE
  8
PAREDES
 10
31.550000
 20
29.500000
 30
0.000000
 11
31.400000
 21
29.500000
 31
0.000000
  0
LINE
  8
PAREDES
 10
31.400000
 20
30.300000
 30
0.000000
 11
31.400000
 21
30.400000
 31
0.000000
  0
LINE
  8
PAREDES
 10
31.550000
 20
30.300000
 30
0.000000
 11
31.550000
 21
30.650000
 31
0.000000
  0
LINE
  8
PAREDES
 10
35.700000
 20
29.550000
 30
0.000000
 11
33.550000
 21
29.550000
 31
0.000000
  0
LINE
  8
PAREDES
 10
33.550000
 20
29.550000
 30
0.000000
 11
33.550000
 21
29.400000
 31
0.000000
  0
LINE
  8
PAREDES
 10
35.700000
 20
30.300000
 30
0.000000
 11
35.850000
 21
30.300000
 31
0.000000
  0
LINE
  8
PAREDES
 10
35.700000
 20
29.700000
 30
0.000000
 11
35.850000
 21
29.700000
 31
0.000000
  0
LINE
  8
PAREDES
 10
35.700000
 20
29.700000
 30
0.000000
 11
35.700000
 21
29.550000
 31
0.000000
  0
LINE
  8
PAREDES
 10
35.850000
 20
29.700000
 30
0.000000
 11
35.850000
 21
26.250000
 31
0.000000
  0
LINE
  8
PAREDES
 10
35.700000
 20
29.400000
 30
0.000000
 11
35.700000
 21
26.400000
 31
0.000000
  0
LINE
  8
PAREDES
 10
35.700000
 20
30.400000
 30
0.000000
 11
35.700000
 21
30.300000
 31
0.000000
  0
LINE
  8
PAREDES
 10
27.400000
 20
30.300000
 30
0.000000
 11
27.250000
 21
30.300000
 31
0.000000
  0
LINE
  8
PAREDES
 10
27.400000
 20
29.500000
 30
0.000000
 11
27.250000
 21
29.500000
 31
0.000000
  0
LINE
  8
PAREDES
 10
27.400000
 20
30.300000
 30
0.000000
 11
27.400000
 21
30.400000
 31
0.000000
  0
LINE
  8
PAREDES
 10
27.250000
 20
30.300000
 30
0.000000
 11
27.250000
 21
35.700000
 31
0.000000
  0
LINE
  8
PAREDES
 10
27.400000
 20
35.700000
 30
0.000000
 11
37.850000
 21
35.700000
 31
0.000000
  0
LINE
  8
PAREDES
 10
32.250000
 20
32.400000
 30
0.000000
 11
32.250000
 21
32.550000
 31
0.000000
  0
LINE
  8
PAREDES
 10
34.400000
 20
30.550000
 30
0.000000
 11
34.400000
 21
30.400000
 31
0.000000
  0
LINE
  8
PAREDES
 10
33.550000
 20
32.550000
 30
0.000000
 11
33.550000
 21
34.550000
 31
0.000000
  0
LINE
  8
PAREDES
 10
27.400000
 20
34.550000
 30
0.000000
 11
27.250000
 21
34.550000
 31
0.000000
  0
ARC
  5
65
330
1F
100
AcDbEntity
  8
0
100
AcDbCircle
 10
29.668000
 20
32.033000
 30
0.000000
 40
3.663000
100
AcDbArc
 50
235.626000
 51
-97.374000
  0
ARC
  5
65
330
1F
100
AcDbEntity
  8
0
100
AcDbCircle
 10
24.723000
 20
28.108000
 30
0.000000
 40
2.950000
100
AcDbArc
 50
335.165000
 51
13.165000
  0
ARC
  5
65
330
1F
100
AcDbEntity
  8
0
100
AcDbCircle
 10
18.950000
 20
32.720000
 30
0.000000
 40
9.317000
100
AcDbArc
 50
338.193000
 51
12.193000
  0
ARC
  5
65
330
1F
100
AcDbEntity
  8
0
100
AcDbCircle
 10
36.583000
 20
30.173000
 30
0.000000
 40
7.506000
100
AcDbArc
 50
163.146000
 51
-167.854000
  0
ARC
  5
65
330
1F
100
AcDbEntity
  8
0
100
AcDbCircle
 10
32.208000
 20
29.657000
 30
0.000000
 40
3.895000
100
AcDbArc
 50
87.923000
 51
-228.077000
  0
ARC
  5
65
330
1F
100
AcDbEntity
  8
0
100
AcDbCircle
 10
35.258000
 20
29.124000
 30
0.000000
 40
3.382000
100
AcDbArc
 50
102.252000
 51
-217.748000
  0
ARC
  5
65
330
1F
100
AcDbEntity
  8
0
100
AcDbCircle
 10
37.517000
 20
31.315000
 30
0.000000
 40
5.179000
100
AcDbArc
 50
184.048000
 51
-140.952000
  0
ARC
  5
65
330
1F
100
AcDbEntity
  8
0
100
AcDbCircle
 10
31.884000
 20
31.620000
 30
0.000000
 40
4.081000
100
AcDbArc
 50
235.157000
 51
-67.843000
  0
ARC
  5
65
330
1F
100
AcDbEntity
  8
0
100
AcDbCircle
 10
30.762000
 20
27.444000
 30
0.000000
 40
1.717000
100
AcDbArc
 50
151.512000
 51
-143.488000
  0
ARC
  5
65
330
1F
100
AcDbEntity
  8
0
100
AcDbCircle
 10
36.387000
 20
15.554000
 30
0.000000
 40
14.529000
100
AcDbArc
 50
110.075000
 51
-242.925000
  0
ARC
  5
65
330
1F
100
AcDbEntity
  8
0
100
AcDbCircle
 10
30.914000
 20
33.359000
 30
0.000000
 40
1.680000
100
AcDbArc
 50
214.743000
 51
-73.257000
  0
ARC
  5
65
330
1F
100
AcDbEntity
  8
0
100
AcDbCircle
 10
29.835000
 20
35.814000
 30
0.000000
 40
3.325000
100
AcDbArc
 50
222.911000
 51
-101.089000
  0
ARC
  5
65
330
1F
100
AcDbEntity
  8
0
100
AcDbCircle
 10
32.096000
 20
32.142000
 30
0.000000
 40
2.763000
100
AcDbArc
 50
119.394000
 51
-193.606000
  0
ARC
  5
65
330
1F
100
AcDbEntity
  8
0
100
AcDbCircle
 10
28.577000
 20
29.395000
 30
0.000000
 40
1.297000
100
AcDbArc
 50
318.402000
 51
51.402000
  0
ARC
  5
65
330
1F
100
AcDbEntity
  8
0
100
AcDbCircle
 10
33.004000
 20
33.026000
 30
0.000000
 40
0.657000
100
AcDbArc
 50
147.678000
 51
-134.322000
  0
ARC
  5
65
330
1F
100
AcDbEntity
  8
0
100
AcDbCircle
 10
33.153000
 20
33.792000
 30
0.000000
 40
0.605000
100
AcDbArc
 50
49.086000
 51
-176.914000
  0
ARC
  5
65
330
1F
100
AcDbEntity
  8
0
100
AcDbCircle
 10
35.240000
 20
32.707000
 30
0.000000
 40
0.485000
100
AcDbArc
 50
216.553000
 51
-19.447000
  0
ARC
  5
65
330
1F
100
AcDbEntity
  8
0
100
AcDbCircle
 10
32.916000
 20
32.956000
 30
0.000000
 40
1.940000
100
AcDbArc
 50
352.233000
 51
56.233000
  0
ARC
  5
65
330
1F
100
AcDbEntity
  8
0
100
AcDbCircle
 10
37.382000
 20
31.450000
 30
0.000000
 40
2.829000
100
AcDbArc
 50
161.455000
 51
-161.545000
  0
ARC
  5
65
330
1F
100
AcDbEntity
  8
0
100
AcDbCircle
 10
34.265000
 20
31.683000
 30
0.000000
 40
1.034000
100
AcDbArc
 50
74.190000
 51
-237.810000
  0
ARC
  5
65
330
1F
100
AcDbEntity
  8
0
100
AcDbCircle
 10
33.034000
 20
31.379000
 30
0.000000
 40
0.515000
100
AcDbArc
 50
236.466000
 51
2.466000
  0
ARC
  5
65
330
1F
100
AcDbEntity
  8
0
100
AcDbCircle
 10
35.886000
 20
33.383000
 30
0.000000
 40
4.250000
100
AcDbArc
 50
218.281000
 51
-115.719000
  0
ARC
  5
65
330
1F
100
AcDbEntity
  8
0
100
AcDbCircle
 10
34.958000
 20
28.538000
 30
0.000000
 40
1.403000
100
AcDbArc
 50
142.143000
 51
-161.857000
  0
ARC
  5
65
330
1F
100
AcDbEntity
  8
0
100
AcDbCircle
 10
34.494000
 20
24.411000
 30
0.000000
 40
3.691000
100
AcDbArc
 50
70.942000
 51
-259.058000
  0
ARC
  5
65
330
1F
100
AcDbEntity
  8
0
100
AcDbCircle
 10
35.692000
 20
28.271000
 30
0.000000
 40
2.013000
100
AcDbArc
 50
195.209000
 51
-111.791000
  0
ARC
  5
65
330
1F
100
AcDbEntity
  8
0
100
AcDbCircle
 10
31.585000
 20
28.251000
 30
0.000000
 40
1.984000
100
AcDbArc
 50
291.110000
 51
-15.890000
  0
ARC
  5
65
330
1F
100
AcDbEntity
  8
0
100
AcDbCircle
 10
32.448000
 20
26.451000
 30
0.000000
 40
1.747000
100
AcDbArc
 50
56.009000
 51
-239.991000
  0
LINE
  8
ELETRODUTO_TETO
 10
39.011000
 20
26.207000
 30
0.000000
 11
39.711000
 21
26.207000
 31
0.000000
  0
LINE
  8
ELETRODUTO_PAREDE
 10
31.400000
 20
27.950000
 30
0.000000
 11
31.475000
 21
27.950000
 31
0.000000
  0
LINE
  8
ELETRODUTO_PAREDE
 10
29.400000
 20
30.400000
 30
0.000000
 11
29.400000
 21
30.550000
 31
0.000000
  0
LINE
  8
ELETRODUTO_PAREDE
 10
27.400000
 20
31.550000
 30
0.000000
 11
27.325000
 21
31.550000
 31
0.000000
  0
LINE
  8
ELETRODUTO_PAREDE
 10
27.325000
 20
31.550000
 30
0.000000
 11
27.325000
 21
33.550000
 31
0.000000
  0
LINE
  8
ELETRODUTO_PAREDE
 10
27.400000
 20
33.550000
 30
0.000000
 11
27.325000
 21
33.550000
 31
0.000000
  0
LINE
  8
ELETRODUTO_PAREDE
 10
31.400000
 20
31.749000
 30
0.000000
 11
31.475000
 21
31.749000
 31
0.000000
  0
LINE
  8
ELETRODUTO_PAREDE
 10
31.475000
 20
31.749000
 30
0.000000
 11
31.475000
 21
33.000000
 31
0.000000
  0
LINE
  8
ELETRODUTO_PAREDE
 10
31.400000
 20
33.000000
 30
0.000000
 11
31.475000
 21
33.000000
 31
0.000000
  0
LINE
  8
ELETRODUTO_PAREDE
 10
32.550000
 20
32.550000
 30
0.000000
 11
32.550000
 21
32.475000
 31
0.000000
  0
LINE
  8
ELETRODUTO_PAREDE
 10
32.550000
 20
32.475000
 30
0.000000
 11
33.049000
 21
32.475000
 31
0.000000
  0
LINE
  8
ELETRODUTO_PAREDE
 10
33.049000
 20
32.475000
 30
0.000000
 11
33.049000
 21
32.550000
 31
0.000000
  0
LINE
  8
ELETRODUTO_PAREDE
 10
34.050000
 20
29.550000
 30
0.000000
 11
34.050000
 21
29.475000
 31
0.000000
  0
LINE
  8
ELETRODUTO_PAREDE
 10
34.050000
 20
29.475000
 30
0.000000
 11
34.625000
 21
29.475000
 31
0.000000
  0
LINE
  8
ELETRODUTO_PAREDE
 10
34.625000
 20
29.550000
 30
0.000000
 11
34.625000
 21
29.475000
 31
0.000000
  0
LINE
  8
ELETRODUTO_PAREDE
 10
31.475000
 20
27.950000
 30
0.000000
 11
31.475000
 21
29.200000
 31
0.000000
  0
LINE
  8
ELETRODUTO_PAREDE
 10
31.400000
 20
29.200000
 30
0.000000
 11
31.475000
 21
29.200000
 31
0.000000
  0
LINE
  8
ELETRODUTO_PAREDE
 10
39.011000
 20
25.707000
 30
0.000000
 11
39.711000
 21
25.707000
 31
0.000000
  0
LINE
  8
CIRCUITOS
 10
28.294000
 20
27.819000
 30
0.000000
 11
27.769000
 21
27.819000
 31
0.000000
  0
LINE
  8
CIRCUITOS
 10
27.769000
 20
27.819000
 30
0.000000
 11
27.672000
 21
28.053000
 31
0.000000
  0
LINE
  8
CIRCUITOS
 10
32.063000
 20
34.200000
 30
0.000000
 11
32.556000
 21
34.200000
 31
0.000000
  0
LINE
  8
CIRCUITOS
 10
32.556000
 20
34.200000
 30
0.000000
 11
32.654000
 21
34.133000
 31
0.000000
  0
LINE
  8
CIRCUITOS
 10
27.963000
 20
32.667000
 30
0.000000
 11
27.459000
 21
32.667000
 31
0.000000
  0
LINE
  8
CIRCUITOS
 10
27.325000
 20
32.805000
 30
0.000000
 11
27.459000
 21
32.667000
 31
0.000000
  0
LINE
  8
CIRCUITOS
 10
30.838000
 20
28.376000
 30
0.000000
 11
31.303000
 21
28.376000
 31
0.000000
  0
LINE
  8
CIRCUITOS
 10
31.303000
 20
28.376000
 30
0.000000
 11
31.475000
 21
28.482000
 31
0.000000
  0
LINE
  8
CIRCUITOS
 10
30.325000
 20
30.718000
 30
0.000000
 11
29.837000
 21
30.718000
 31
0.000000
  0
LINE
  8
CIRCUITOS
 10
29.837000
 20
30.718000
 30
0.000000
 11
29.400000
 21
30.475000
 31
0.000000
  0
LINE
  8
CIRCUITOS
 10
30.837000
 20
32.320000
 30
0.000000
 11
31.342000
 21
32.320000
 31
0.000000
  0
LINE
  8
CIRCUITOS
 10
31.342000
 20
32.320000
 30
0.000000
 11
31.475000
 21
32.469000
 31
0.000000
  0
LINE
  8
CIRCUITOS
 10
33.509000
 20
33.241000
 30
0.000000
 11
32.678000
 21
33.241000
 31
0.000000
  0
LINE
  8
CIRCUITOS
 10
32.678000
 20
33.241000
 30
0.000000
 11
32.346000
 21
33.026000
 31
0.000000
  0
LINE
  8
CIRCUITOS
 10
32.108000
 20
32.059000
 30
0.000000
 11
32.657000
 21
32.059000
 31
0.000000
  0
LINE
  8
CIRCUITOS
 10
32.657000
 20
32.059000
 30
0.000000
 11
32.926000
 21
32.475000
 31
0.000000
  0
LINE
  8
CIRCUITOS
 10
35.105000
 20
29.051000
 30
0.000000
 11
34.596000
 21
29.051000
 31
0.000000
  0
LINE
  8
CIRCUITOS
 10
34.596000
 20
29.051000
 30
0.000000
 11
34.337000
 21
29.475000
 31
0.000000
  0
TEXT
  5
64
330
1F
100
AcDbEntity
  8
0
100
AcDbText
 10
34.554000
 20
32.576000
 30
0.000000
 40
0.075000
  1
100 W
 50
0.000000
100
AcDbText
  0
CIRCLE
  8
LAYER 0
 10
34.700000
 20
32.550000
 30
0.000000
 40
0.200000
  0
LINE
  8
CIRCUITOS
 10
34.900000
 20
32.550000
 30
0.000000
 11
34.500000
 21
32.550000
 31
0.000000
  0
TEXT
  5
64
330
1F
100
AcDbEntity
  8
0
100
AcDbText
 10
34.738000
 20
32.429000
 30
0.000000
 40
0.075000
  1
1
 50
0.000000
100
AcDbText
  0
LINE
  8
CIRCUITOS
 10
34.700000
 20
32.550000
 30
0.000000
 11
34.700000
 21
32.350000
 31
0.000000
  0
TEXT
  5
64
330
1F
100
AcDbEntity
  8
0
100
AcDbText
 10
34.596000
 20
32.429000
 30
0.000000
 40
0.075000
  1
D
 50
0.000000
100
AcDbText
  0
CIRCLE
  8
LAYER 0
 10
33.702000
 20
28.048000
 30
0.000000
 40
0.200000
  0
INSERT
  5
67
330
1F
100
AcDbEntity
  8
0
100
AcDbBlockReference
 66
     1
  2
FS_Lampada
 10
4.370000
 20
0.301000
 30
0.000000
  0
SEQEND
  0
INSERT
  5
67
330
1F
100
AcDbEntity
  8
0
100
AcDbBlockReference
 66
     1
  2
TOMADA_MEDIA
 10
31.400000
 20
33.000000
 30
0.000000
  0
ATTRIB
  5
68
330
67
100
AcDbEntity
  8
0
100
AcDbText
 10
31.125000
 20
33.134000
 30
0.000000
 40
0.075000
  1
-2-
100
AcDbAttribute
  2
CIRC_NUM
 70
     0
  0
ATTRIB
  5
68
330
67
100
AcDbEntity
  8
0
100
AcDbText
 10
30.955000
 20
32.776000
 30
0.000000
 40
0.075000
  1
100VA
100
AcDbAttribute
  2
POT_TOM
 70
     0
  0
SEQEND
  0
INSERT
  5
67
330
1F
100
AcDbEntity
  8
0
100
AcDbBlockReference
 66
     1
  2
TOMADA_MEDIA
 10
29.400000
 20
30.550000
 30
0.000000
  0
ATTRIB
  5
68
330
67
100
AcDbEntity
  8
0
100
AcDbText
 10
29.250000
 20
30.700000
 30
0.000000
 40
0.075000
  1
-2-
100
AcDbAttribute
  2
CIRC_NUM
 70
     0
  0
ATTRIB
  5
68
330
67
100
AcDbEntity
  8
0
100
AcDbText
 10
29.625000
 20
30.700000
 30
0.000000
 40
0.075000
  1
100VA
100
AcDbAttribute
  2
POT_TOM
 70
     0
  0
SEQEND
  0
INSERT
  5
67
330
1F
100
AcDbEntity
  8
0
100
AcDbBlockReference
 66
     1
  2
TOMADA_MEDIA
 10
27.400000
 20
31.550000
 30
0.000000
  0
ATTRIB
  5
68
330
67
100
AcDbEntity
  8
0
100
AcDbText
 10
27.550000
 20
31.700000
 30
0.000000
 40
0.075000
  1
-2-
100
AcDbAttribute
  2
CIRC_NUM
 70
     0
  0
ATTRIB
  5
68
330
67
100
AcDbEntity
  8
0
100
AcDbText
 10
27.550000
 20
31.325000
 30
0.000000
 40
0.075000
  1
100VA
100
AcDbAttribute
  2
POT_TOM
 70
     0
  0
SEQEND
  0
INSERT
  5
67
330
1F
100
AcDbEntity
  8
0
100
AcDbBlockReference
 66
     1
  2
TOMADA_MEDIA
 10
29.400000
 20
26.400000
 30
0.000000
  0
ATTRIB
  5
68
330
67
100
AcDbEntity
  8
0
100
AcDbText
 10
29.250000
 20
26.550000
 30
0.000000
 40
0.075000
  1
-2-
100
AcDbAttribute
  2
CIRC_NUM
 70
     0
  0
ATTRIB
  5
68
330
67
100
AcDbEntity
  8
0
100
AcDbText
 10
29.625000
 20
26.550000
 30
0.000000
 40
0.075000
  1
100VA
100
AcDbAttribute
  2
POT_TOM
 70
     0
  0
SEQEND
  0
INSERT
  5
67
330
1F
100
AcDbEntity
  8
0
100
AcDbBlockReference
 66
     1
  2
TOMADA_MEDIA
 10
29.400000
 20
30.400000
 30
0.000000
  0
ATTRIB
  5
68
330
67
100
AcDbEntity
  8
0
100
AcDbText
 10
29.474000
 20
30.006000
 30
0.000000
 40
0.075000
  1
-2-
100
AcDbAttribute
  2
CIRC_NUM
 70
     0
  0
ATTRIB
  5
68
330
67
100
AcDbEntity
  8
0
100
AcDbText
 10
29.526000
 20
30.153000
 30
0.000000
 40
0.075000
  1
100VA
100
AcDbAttribute
  2
POT_TOM
 70
     0
  0
SEQEND
  0
INSERT
  5
67
330
1F
100
AcDbEntity
  8
0
100
AcDbBlockReference
 66
     1
  2
TOMADA_MEDIA
 10
31.550000
 20
27.950000
 30
0.000000
  0
ATTRIB
  5
68
330
67
100
AcDbEntity
  8
0
100
AcDbText
 10
31.641000
 20
28.085000
 30
0.000000
 40
0.075000
  1
-2-
100
AcDbAttribute
  2
CIRC_NUM
 70
     0
  0
ATTRIB
  5
68
330
67
100
AcDbEntity
  8
0
100
AcDbText
 10
31.700000
 20
27.725000
 30
0.000000
 40
0.075000
  1
600VA
100
AcDbAttribute
  2
POT_TOM
 70
     0
  0
SEQEND
  0
INSERT
  5
67
330
1F
100
AcDbEntity
  8
0
100
AcDbBlockReference
 66
     1
  2
TOMADA_MEDIA
 10
35.700000
 20
27.900000
 30
0.000000
  0
ATTRIB
  5
68
330
67
100
AcDbEntity
  8
0
100
AcDbText
 10
35.440000
 20
28.031000
 30
0.000000
 40
0.075000
  1
-2-
100
AcDbAttribute
  2
CIRC_NUM
 70
     0
  0
ATTRIB
  5
68
330
67
100
AcDbEntity
  8
0
100
AcDbText
 10
35.249000
 20
27.678000
 30
0.000000
 40
0.075000
  1
100VA
100
AcDbAttribute
  2
POT_TOM
 70
     0
  0
SEQEND
  0
INSERT
  5
67
330
1F
100
AcDbEntity
  8
0
100
AcDbBlockReference
 66
     1
  2
TOMADA_MEDIA
 10
33.550000
 20
31.400000
 30
0.000000
  0
ATTRIB
  5
68
330
67
100
AcDbEntity
  8
0
100
AcDbText
 10
33.275000
 20
31.541000
 30
0.000000
 40
0.075000
  1
-2-
100
AcDbAttribute
  2
CIRC_NUM
 70
     0
  0
ATTRIB
  5
68
330
67
100
AcDbEntity
  8
0
100
AcDbText
 10
33.113000
 20
31.170000
 30
0.000000
 40
0.075000
  1
100VA
100
AcDbAttribute
  2
POT_TOM
 70
     0
  0
SEQEND
  0
INSERT
  5
67
330
1F
100
AcDbEntity
  8
0
100
AcDbBlockReference
 66
     1
  2
TOMADA_MEDIA
 10
33.050000
 20
32.550000
 30
0.000000
  0
ATTRIB
  5
68
330
67
100
AcDbEntity
  8
0
100
AcDbText
 10
32.971000
 20
32.882000
 30
0.000000
 40
0.075000
  1
-2-
100
AcDbAttribute
  2
CIRC_NUM
 70
     0
  0
ATTRIB
  5
68
330
67
100
AcDbEntity
  8
0
100
AcDbText
 10
33.275000
 20
32.700000
 30
0.000000
 40
0.075000
  1
100VA
100
AcDbAttribute
  2
POT_TOM
 70
     0
  0
SEQEND
  0
INSERT
  5
67
330
1F
100
AcDbEntity
  8
0
100
AcDbBlockReference
 66
     1
  2
TOMADA_MEDIA
 10
33.700000
 20
32.550000
 30
0.000000
  0
ATTRIB
  5
68
330
67
100
AcDbEntity
  8
0
100
AcDbText
 10
33.850000
 20
32.700000
 30
0.000000
 40
0.075000
  1
2
100
AcDbAttribute
  2
CIRC_NUM
 70
     0
  0
ATTRIB
  5
68
330
67
100
AcDbEntity
  8
0
100
AcDbText
 10
33.850000
 20
32.325000
 30
0.000000
 40
0.075000
  1
600VA
100
AcDbAttribute
  2
POT_TOM
 70
     0
  0
SEQEND
  0
INSERT
  5
67
330
1F
100
AcDbEntity
  8
0
100
AcDbBlockReference
 66
     1
  2
TOMADA_MEDIA
 10
34.022000
 20
34.550000
 30
0.000000
  0
ATTRIB
  5
68
330
67
100
AcDbEntity
  8
0
100
AcDbText
 10
33.886000
 20
34.267000
 30
0.000000
 40
0.075000
  1
1
100
AcDbAttribute
  2
CIRC_NUM
 70
     0
  0
ATTRIB
  5
68
330
67
100
AcDbEntity
  8
0
100
AcDbText
 10
34.242000
 20
34.089000
 30
0.000000
 40
0.075000
  1
600VA
100
AcDbAttribute
  2
POT_TOM
 70
     0
  0
SEQEND
  0
INSERT
  5
67
330
1F
100
AcDbEntity
  8
0
100
AcDbBlockReference
 66
     1
  2
TOMADA_MEDIA
 10
35.700000
 20
32.550000
 30
0.000000
  0
ATTRIB
  5
68
330
67
100
AcDbEntity
  8
0
100
AcDbText
 10
35.432000
 20
32.356000
 30
0.000000
 40
0.075000
  1
3
100
AcDbAttribute
  2
CIRC_NUM
 70
     0
  0
ATTRIB
  5
68
330
67
100
AcDbEntity
  8
0
100
AcDbText
 10
35.369000
 20
32.680000
 30
0.000000
 40
0.075000
  1
600VA
100
AcDbAttribute
  2
POT_TOM
 70
     0
  0
SEQEND
  0
INSERT
  5
67
330
1F
100
AcDbEntity
  8
0
100
AcDbBlockReference
 66
     1
  2
TOMADA_MEDIA
 10
32.300000
 20
26.400000
 30
0.000000
  0
ATTRIB
  5
68
330
67
100
AcDbEntity
  8
0
100
AcDbText
 10
32.150000
 20
26.550000
 30
0.000000
 40
0.075000
  1
-2-
100
AcDbAttribute
  2
CIRC_NUM
 70
     0
  0
ATTRIB
  5
68
330
67
100
AcDbEntity
  8
0
100
AcDbText
 10
32.525000
 20
26.550000
 30
0.000000
 40
0.075000
  1
600VA
100
AcDbAttribute
  2
POT_TOM
 70
     0
  0
SEQEND
  0
INSERT
  5
67
330
1F
100
AcDbEntity
  8
0
100
AcDbBlockReference
 66
     1
  2
TOMADA_BAIXA
 10
30.739000
 20
34.550000
 30
0.000000
  0
ATTRIB
  5
68
330
67
100
AcDbEntity
  8
0
100
AcDbText
 10
30.606000
 20
34.269000
 30
0.000000
 40
0.075000
  1
-2-
100
AcDbAttribute
  2
CIRC_NUM
 70
     0
  0
ATTRIB
  5
68
330
67
100
AcDbEntity
  8
0
100
AcDbText
 10
30.970000
 20
34.087000
 30
0.000000
 40
0.075000
  1
100VA
100
AcDbAttribute
  2
POT_TOM
 70
     0
  0
SEQEND
  0
INSERT
  5
67
330
1F
100
AcDbEntity
  8
0
100
AcDbBlockReference
 66
     1
  2
TOMADA_BAIXA
 10
34.050000
 20
29.550000
 30
0.000000
  0
ATTRIB
  5
68
330
67
100
AcDbEntity
  8
0
100
AcDbText
 10
33.900000
 20
29.700000
 30
0.000000
 40
0.075000
  1
-2-
100
AcDbAttribute
  2
CIRC_NUM
 70
     0
  0
ATTRIB
  5
68
330
67
100
AcDbEntity
  8
0
100
AcDbText
 10
34.275000
 20
29.700000
 30
0.000000
 40
0.075000
  1
100VA
100
AcDbAttribute
  2
POT_TOM
 70
     0
  0
SEQEND
  0
INSERT
  5
67
330
1F
100
AcDbEntity
  8
0
100
AcDbBlockReference
 66
     1
  2
TOMADA_ALTA
 10
33.550000
 20
34.249000
 30
0.000000
  0
ATTRIB
  5
68
330
67
100
AcDbEntity
  8
0
100
AcDbText
 10
33.270000
 20
34.404000
 30
0.000000
 40
0.075000
  1
-3-
100
AcDbAttribute
  2
CIRC_NUM
 70
     0
  0
ATTRIB
  5
68
330
67
100
AcDbEntity
  8
0
100
AcDbText
 10
33.069000
 20
34.029000
 30
0.000000
 40
0.075000
  1
6500W
100
AcDbAttribute
  2
POT_TOM
 70
     0
  0
SEQEND
  0
INSERT
  5
67
330
1F
100
AcDbEntity
  8
0
100
AcDbBlockReference
 66
     1
  2
TOMADA_ALTA
 10
28.085000
 20
34.550000
 30
0.000000
  0
ATTRIB
  5
68
330
67
100
AcDbEntity
  8
0
100
AcDbText
 10
28.235000
 20
34.400000
 30
0.000000
 40
0.075000
  1
-4-
100
AcDbAttribute
  2
CIRC_NUM
 70
     0
  0
ATTRIB
  5
68
330
67
100
AcDbEntity
  8
0
100
AcDbText
 10
28.212000
 20
34.232000
 30
0.000000
 40
0.075000
  1
1800VA
100
AcDbAttribute
  2
POT_TOM
 70
     0
  0
SEQEND
  0
INSERT
  5
67
330
1F
100
AcDbEntity
  8
0
100
AcDbBlockReference
 66
     1
  2
TOMADA_ALTA
 10
27.400000
 20
26.869000
 30
0.000000
  0
ATTRIB
  5
68
330
67
100
AcDbEntity
  8
0
100
AcDbText
 10
27.550000
 20
27.019000
 30
0.000000
 40
0.075000
  1
-5-
100
AcDbAttribute
  2
CIRC_NUM
 70
     0
  0
ATTRIB
  5
68
330
67
100
AcDbEntity
  8
0
100
AcDbText
 10
27.550000
 20
26.644000
 30
0.000000
 40
0.075000
  1
1800VA
100
AcDbAttribute
  2
POT_TOM
 70
     0
  0
SEQEND
  0
INSERT
  5
67
330
1F
100
AcDbEntity
  8
0
100
AcDbBlockReference
 66
     1
  2
TOMADA_BAIXA
 10
31.400000
 20
27.950000
 30
0.000000
  0
ATTRIB
  5
68
330
67
100
AcDbEntity
  8
0
100
AcDbText
 10
31.109000
 20
28.090000
 30
0.000000
 40
0.075000
  1
-2-
100
AcDbAttribute
  2
CIRC_NUM
 70
     0
  0
ATTRIB
  5
68
330
67
100
AcDbEntity
  8
0
100
AcDbText
 10
30.945000
 20
27.732000
 30
0.000000
 40
0.075000
  1
100VA
100
AcDbAttribute
  2
POT_TOM
 70
     0
  0
SEQEND
  0
INSERT
  5
67
330
1F
100
AcDbEntity
  8
0
100
AcDbBlockReference
 66
     1
  2
TOMADA_MEDIA
 10
34.950000
 20
26.400000
 30
0.000000
  0
ATTRIB
  5
68
330
67
100
AcDbEntity
  8
0
100
AcDbText
 10
34.800000
 20
26.550000
 30
0.000000
 40
0.075000
  1
-2-
100
AcDbAttribute
  2
CIRC_NUM
 70
     0
  0
ATTRIB
  5
68
330
67
100
AcDbEntity
  8
0
100
AcDbText
 10
35.175000
 20
26.550000
 30
0.000000
 40
0.075000
  1
600VA
100
AcDbAttribute
  2
POT_TOM
 70
     0
  0
SEQEND
  0
INSERT
  5
67
330
1F
100
AcDbEntity
  8
0
100
AcDbBlockReference
 66
     1
  2
TOMADA_BAIXA
 10
39.171000
 20
29.709000
 30
0.000000
  0
ATTRIB
  5
68
330
67
100
AcDbEntity
  8
0
100
AcDbText
 10
39.404000
 20
29.817000
 30
0.000000
 40
0.075000
  1
-X-
100
AcDbAttribute
  2
CIRC_NUM
 70
     0
  0
ATTRIB
  5
68
330
67
100
AcDbEntity
  8
0
100
AcDbText
 10
39.297000
 20
29.515000
 30
0.000000
 40
0.075000
  1
XXXVA
100
AcDbAttribute
  2
POT_TOM
 70
     0
  0
SEQEND
  0
INSERT
  5
67
330
1F
100
AcDbEntity
  8
0
100
AcDbBlockReference
 66
     1
  2
TOMADA_MEDIA
 10
39.171000
 20
29.232000
 30
0.000000
  0
ATTRIB
  5
68
330
67
100
AcDbEntity
  8
0
100
AcDbText
 10
39.394000
 20
29.347000
 30
0.000000
 40
0.075000
  1
-X-
100
AcDbAttribute
  2
CIRC_NUM
 70
     0
  0
ATTRIB
  5
68
330
67
100
AcDbEntity
  8
0
100
AcDbText
 10
39.292000
 20
29.040000
 30
0.000000
 40
0.075000
  1
XXXVA
100
AcDbAttribute
  2
POT_TOM
 70
     0
  0
SEQEND
  0
INSERT
  5
67
330
1F
100
AcDbEntity
  8
0
100
AcDbBlockReference
 66
     1
  2
TOMADA_ALTA
 10
39.171000
 20
28.718000
 30
0.000000
  0
ATTRIB
  5
68
330
67
100
AcDbEntity
  8
0
100
AcDbText
 10
39.385000
 20
28.827000
 30
0.000000
 40
0.075000
  1
-X-
100
AcDbAttribute
  2
CIRC_NUM
 70
     0
  0
ATTRIB
  5
68
330
67
100
AcDbEntity
  8
0
100
AcDbText
 10
39.287000
 20
28.520000
 30
0.000000
 40
0.075000
  1
XXXVA
100
AcDbAttribute
  2
POT_TOM
 70
     0
  0
SEQEND
  0
INSERT
  5
67
330
1F
100
AcDbEntity
  8
0
100
AcDbBlockReference
 66
     1
  2
FASE_NEUTRO
 10
41.427000
 20
34.807000
 30
0.000000
  0
ATTRIB
  5
68
330
67
100
AcDbEntity
  8
0
100
AcDbText
 10
41.416000
 20
34.961000
 30
0.000000
 40
0.057000
  1
 
100
AcDbAttribute
  2
FN
 70
     0
  0
SEQEND
  0
INSERT
  5
67
330
1F
100
AcDbEntity
  8
0
100
AcDbBlockReference
 66
     1
  2
FASE_NEUTRO_TERRA
 10
41.427000
 20
34.426000
 30
0.000000
  0
ATTRIB
  5
68
330
67
100
AcDbEntity
  8
0
100
AcDbText
 10
41.416000
 20
34.580000
 30
0.000000
 40
0.057000
  1
 
100
AcDbAttribute
  2
FNT
 70
     0
  0
SEQEND
  0
INSERT
  5
67
330
1F
100
AcDbEntity
  8
0
100
AcDbBlockReference
 66
     1
  2
FASE_NEUTRO_TERRA
 10
41.427000
 20
34.044000
 30
0.000000
  0
ATTRIB
  5
68
330
67
100
AcDbEntity
  8
0
100
AcDbText
 10
41.416000
 20
34.198000
 30
0.000000
 40
0.057000
  1
 
100
AcDbAttribute
  2
FNT
 70
     0
  0
SEQEND
  0
INSERT
  5
67
330
1F
100
AcDbEntity
  8
0
100
AcDbBlockReference
 66
     1
  2
FASE_NEUTRO_TERRA
 10
41.427000
 20
33.662000
 30
0.000000
  0
ATTRIB
  5
68
330
67
100
AcDbEntity
  8
0
100
AcDbText
 10
41.416000
 20
33.816000
 30
0.000000
 40
0.057000
  1
 
100
AcDbAttribute
  2
FNT
 70
     0
  0
SEQEND
  0
INSERT
  5
67
330
1F
100
AcDbEntity
  8
0
100
AcDbBlockReference
 66
     1
  2
FASE_NEUTRO_TERRA
 10
41.427000
 20
33.281000
 30
0.000000
  0
ATTRIB
  5
68
330
67
100
AcDbEntity
  8
0
100
AcDbText
 10
41.416000
 20
33.435000
 30
0.000000
 40
0.057000
  1
 
100
AcDbAttribute
  2
FNT
 70
     0
  0
SEQEND
  0
INSERT
  5
67
330
1F
100
AcDbEntity
  8
0
100
AcDbBlockReference
 66
     1
  2
FASE_NEUTRO_TERRA
 10
39.947000
 20
33.662000
 30
0.000000
  0
ATTRIB
  5
68
330
67
100
AcDbEntity
  8
0
100
AcDbText
 10
39.936000
 20
33.816000
 30
0.000000
 40
0.057000
  1
 
100
AcDbAttribute
  2
FNT
 70
     0
  0
SEQEND
  0
INSERT
  5
67
330
1F
100
AcDbEntity
  8
0
100
AcDbBlockReference
 66
     1
  2
FASE_NEUTRO
 10
38.451000
 20
33.662000
 30
0.000000
  0
ATTRIB
  5
68
330
67
100
AcDbEntity
  8
0
100
AcDbText
 10
38.440000
 20
33.816000
 30
0.000000
 40
0.057000
  1
 
100
AcDbAttribute
  2
FN
 70
     0
  0
SEQEND
  0
INSERT
  5
67
330
1F
100
AcDbEntity
  8
0
100
AcDbBlockReference
 66
     1
  2
MeuBloco
 10
25.990000
 20
34.580000
 30
0.000000
  0
ATTRIB
  5
68
330
67
100
AcDbEntity
  8
0
100
AcDbText
 10
25.990000
 20
35.168000
 30
0.000000
 40
0.125000
  1
100W
100
AcDbAttribute
  2
POTENCIA_LAMPADA
 70
     0
  0
ATTRIB
  5
68
330
67
100
AcDbEntity
  8
0
100
AcDbText
 10
26.172000
 20
34.810000
 30
0.000000
 40
0.125000
  1
1
100
AcDbAttribute
  2
CIRCUITO_LAMPADA
 70
     0
  0
SEQEND
  0
INSERT
  5
67
330
1F
100
AcDbEntity
  8
0
100
AcDbBlockReference
 66
     1
  2
MeuBloco
 10
25.990000
 20
33.022000
 30
0.000000
  0
ATTRIB
  5
68
330
67
100
AcDbEntity
  8
0
100
AcDbText
 10
25.990000
 20
33.610000
 30
0.000000
 40
0.125000
  1
100W
100
AcDbAttribute
  2
POTENCIA_LAMPADA
 70
     0
  0
ATTRIB
  5
68
330
67
100
AcDbEntity
  8
0
100
AcDbText
 10
26.172000
 20
33.252000
 30
0.000000
 40
0.125000
  1
1
100
AcDbAttribute
  2
CIRCUITO_LAMPADA
 70
     0
  0
SEQEND
  0
INSERT
  5
67
330
1F
100
AcDbEntity
  8
0
100
AcDbBlockReference
 66
     1
  2
MeuBloco
 10
26.291000
 20
31.252000
 30
0.000000
  0
ATTRIB
  5
68
330
67
100
AcDbEntity
  8
0
100
AcDbText
 10
26.291000
 20
31.840000
 30
0.000000
 40
0.125000
  1
100W
100
AcDbAttribute
  2
POTENCIA_LAMPADA
 70
     0
  0
ATTRIB
  5
68
330
67
100
AcDbEntity
  8
0
100
AcDbText
 10
26.473000
 20
31.482000
 30
0.000000
 40
0.125000
  1
1
100
AcDbAttribute
  2
CIRCUITO_LAMPADA
 70
     0
  0
SEQEND
  0
INSERT
  5
67
330
1F
100
AcDbEntity
  8
0
100
AcDbBlockReference
 66
     1
  2
MeuBloco
 10
26.079000
 20
29.588000
 30
0.000000
  0
ATTRIB
  5
68
330
67
100
AcDbEntity
  8
0
100
AcDbText
 10
26.079000
 20
30.176000
 30
0.000000
 40
0.125000
  1
100W
100
AcDbAttribute
  2
POTENCIA_LAMPADA
 70
     0
  0
ATTRIB
  5
68
330
67
100
AcDbEntity
  8
0
100
AcDbText
 10
26.261000
 20
29.818000
 30
0.000000
 40
0.125000
  1
1
100
AcDbAttribute
  2
CIRCUITO_LAMPADA
 70
     0
  0
SEQEND
  0
INSERT
  5
67
330
1F
100
AcDbEntity
  8
0
100
AcDbBlockReference
 66
     1
  2
PORTA_80
 10
31.400000
 20
30.300000
 30
0.000000
  0
ATTRIB
  5
68
330
67
100
AcDbEntity
  8
0
100
AcDbText
 10
31.212000
 20
29.025000
 30
0.000000
 40
0.075000
  1
B
100
AcDbAttribute
  2
INT_LET
 70
     0
  0
SEQEND
  0
INSERT
  5
67
330
1F
100
AcDbEntity
  8
0
100
AcDbBlockReference
 66
     1
  2
INTERRUPTOR_SIMPLES
 10
32.550000
 20
32.550000
 30
0.000000
  0
ATTRIB
  5
68
330
67
100
AcDbEntity
  8
0
100
AcDbText
 10
32.650000
 20
32.662000
 30
0.000000
 40
0.075000
  1
E
100
AcDbAttribute
  2
INT_LET
 70
     0
  0
SEQEND
  0
INSERT
  5
67
330
1F
100
AcDbEntity
  8
0
100
AcDbBlockReference
 66
     1
  2
INTERRUPTOR_SIMPLES
 10
34.700000
 20
30.550000
 30
0.000000
  0
ATTRIB
  5
68
330
67
100
AcDbEntity
  8
0
100
AcDbText
 10
34.824000
 20
30.681000
 30
0.000000
 40
0.075000
  1
D
100
AcDbAttribute
  2
INT_LET
 70
     0
  0
SEQEND
  0
INSERT
  5
67
330
1F
100
AcDbEntity
  8
0
100
AcDbBlockReference
 66
     1
  2
INTERRUPTOR_SIMPLES
 10
33.850000
 20
29.400000
 30
0.000000
  0
ATTRIB
  5
68
330
67
100
AcDbEntity
  8
0
100
AcDbText
 10
33.984000
 20
29.124000
 30
0.000000
 40
0.075000
  1
C
100
AcDbAttribute
  2
INT_LET
 70
     0
  0
SEQEND
  0
INSERT
  5
67
330
1F
100
AcDbEntity
  8
0
100
AcDbBlockReference
 66
     1
  2
INTERRUPTOR_PARALELO
 10
31.400000
 20
31.749000
 30
0.000000
  0
ATTRIB
  5
68
330
67
100
AcDbEntity
  8
0
100
AcDbText
 10
31.219000
 20
31.874000
 30
0.000000
 40
0.075000
  1
A
100
AcDbAttribute
  2
INT_LET
 70
     0
  0
SEQEND
  0
INSERT
  5
67
330
1F
100
AcDbEntity
  8
0
100
AcDbBlockReference
 66
     1
  2
INTERRUPTOR_PARALELO
 10
27.400000
 20
33.550000
 30
0.000000
  0
ATTRIB
  5
68
330
67
100
AcDbEntity
  8
0
100
AcDbText
 10
27.707000
 20
33.403000
 30
0.000000
 40
0.075000
  1
A
100
AcDbAttribute
  2
INT_LET
 70
     0
  0
SEQEND
  0
INSERT
  5
67
330
1F
100
AcDbEntity
  8
0
100
AcDbBlockReference
 66
     1
  2
INTERRUPTOR_SIMPLES
 10
34.625000
 20
29.550000
 30
0.000000
  0
ATTRIB
  5
68
330
67
100
AcDbEntity
  8
0
100
AcDbText
 10
34.792000
 20
29.727000
 30
0.000000
 40
0.075000
  1
F
100
AcDbAttribute
  2
INT_LET
 70
     0
  0
SEQEND
  0
INSERT
  5
67
330
1F
100
AcDbEntity
  8
0
100
AcDbBlockReference
 66
     1
  2
INTERRUPTOR_SIMPLES
 10
39.171000
 20
30.718000
 30
0.000000
  0
ATTRIB
  5
68
330
67
100
AcDbEntity
  8
0
100
AcDbText
 10
39.396000
 20
30.826000
 30
0.000000
 40
0.075000
  1
X
100
AcDbAttribute
  2
INT_LET
 70
     0
  0
SEQEND
  0
INSERT
  5
67
330
1F
100
AcDbEntity
  8
0
100
AcDbBlockReference
 66
     1
  2
INTERRUPTOR_PARALELO
 10
39.171000
 20
30.196000
 30
0.000000
  0
ATTRIB
  5
68
330
67
100
AcDbEntity
  8
0
100
AcDbText
 10
39.554000
 20
30.384000
 30
0.000000
 40
0.075000
  1
X
100
AcDbAttribute
  2
INT_LET
 70
     0
  0
SEQEND
  0
INSERT
  5
67
330
1F
100
AcDbEntity
  8
0
100
AcDbBlockReference
 66
     1
  2
FASE_NEUTRO_TERRA
 10
28.244000
 20
32.081000
 30
0.000000
  0
ATTRIB
  5
68
330
67
100
AcDbEntity
  8
0
100
AcDbText
 10
28.039000
 20
32.030000
 30
0.000000
 40
0.075000
  1
-4-
100
AcDbAttribute
  2
FNT
 70
     0
  0
SEQEND
  0
INSERT
  5
67
330
1F
100
AcDbEntity
  8
0
100
AcDbBlockReference
 66
     1
  2
FASE_NEUTRO_TERRA
 10
27.999000
 20
27.819000
 30
0.000000
  0
ATTRIB
  5
68
330
67
100
AcDbEntity
  8
0
100
AcDbText
 10
27.936000
 20
28.021000
 30
0.000000
 40
0.075000
  1
-5-
100
AcDbAttribute
  2
FNT
 70
     0
  0
SEQEND
  0
INSERT
  5
67
330
1F
100
AcDbEntity
  8
0
100
AcDbBlockReference
 66
     1
  2
FASE_NEUTRO_TERRA
 10
32.294000
 20
34.200000
 30
0.000000
  0
ATTRIB
  5
68
330
67
100
AcDbEntity
  8
0
100
AcDbText
 10
32.231000
 20
34.402000
 30
0.000000
 40
0.075000
  1
-3-
100
AcDbAttribute
  2
FNT
 70
     0
  0
SEQEND
  0
INSERT
  5
67
330
1F
100
AcDbEntity
  8
0
100
AcDbBlockReference
 66
     1
  2
FASE_NEUTRO_TERRA
 10
30.753000
 20
33.270000
 30
0.000000
  0
ATTRIB
  5
68
330
67
100
AcDbEntity
  8
0
100
AcDbText
 10
30.631000
 20
33.443000
 30
0.000000
 40
0.075000
  1
-3-
100
AcDbAttribute
  2
FNT
 70
     0
  0
SEQEND
  0
INSERT
  5
67
330
1F
100
AcDbEntity
  8
0
100
AcDbBlockReference
 66
     1
  2
FASE_NEUTRO_TERRA
 10
29.296000
 20
31.972000
 30
0.000000
  0
ATTRIB
  5
68
330
67
100
AcDbEntity
  8
0
100
AcDbText
 10
29.086000
 20
31.958000
 30
0.000000
 40
0.075000
  1
-3-
100
AcDbAttribute
  2
FNT
 70
     0
  0
SEQEND
  0
INSERT
  5
67
330
1F
100
AcDbEntity
  8
0
100
AcDbBlockReference
 66
     1
  2
FASE_NEUTRO_TERRA
 10
28.708000
 20
28.497000
 30
0.000000
  0
ATTRIB
  5
68
330
67
100
AcDbEntity
  8
0
100
AcDbText
 10
28.687000
 20
28.695000
 30
0.000000
 40
0.075000
  1
-3-
100
AcDbAttribute
  2
FNT
 70
     0
  0
SEQEND
  0
INSERT
  5
67
330
1F
100
AcDbEntity
  8
0
100
AcDbBlockReference
 66
     1
  2
FASE_NEUTRO
 10
27.943000
 20
28.801000
 30
0.000000
  0
ATTRIB
  5
68
330
67
100
AcDbEntity
  8
0
100
AcDbText
 10
27.973000
 20
28.980000
 30
0.000000
 40
0.075000
  1
-1-
100
AcDbAttribute
  2
FN
 70
     0
  0
SEQEND
  0
INSERT
  5
67
330
1F
100
AcDbEntity
  8
0
100
AcDbBlockReference
 66
     1
  2
FASE_RETORNO
 10
30.335000
 20
28.762000
 30
0.000000
  0
ATTRIB
  5
68
330
67
100
AcDbEntity
  8
0
100
AcDbText
 10
30.123000
 20
28.891000
 30
0.000000
 40
0.075000
  1
-1-
100
AcDbAttribute
  2
F
 70
     0
  0
ATTRIB
  5
68
330
67
100
AcDbEntity
  8
0
100
AcDbText
 10
30.255000
 20
28.947000
 30
0.000000
 40
0.075000
  1
-B-
100
AcDbAttribute
  2
R
 70
     0
  0
SEQEND
  0
INSERT
  5
67
330
1F
100
AcDbEntity
  8
0
100
AcDbBlockReference
 66
     1
  2
FASE_PARALELO
 10
29.859000
 20
32.050000
 30
0.000000
  0
ATTRIB
  5
68
330
67
100
AcDbEntity
  8
0
100
AcDbText
 10
29.917000
 20
32.212000
 30
0.000000
 40
0.075000
  1
-1-
100
AcDbAttribute
  2
FP
 70
     0
  0
SEQEND
  0
INSERT
  5
67
330
1F
100
AcDbEntity
  8
0
100
AcDbBlockReference
 66
     1
  2
FASE_NEUTRO_TERRA
 10
30.360000
 20
31.772000
 30
0.000000
  0
ATTRIB
  5
68
330
67
100
AcDbEntity
  8
0
100
AcDbText
 10
30.353000
 20
31.966000
 30
0.000000
 40
0.075000
  1
-2-
100
AcDbAttribute
  2
FNT
 70
     0
  0
SEQEND
  0
INSERT
  5
67
330
1F
100
AcDbEntity
  8
0
100
AcDbBlockReference
 66
     1
  2
FASE_NEUTRO
 10
30.032000
 20
32.888000
 30
0.000000
  0
ATTRIB
  5
68
330
67
100
AcDbEntity
  8
0
100
AcDbText
 10
29.870000
 20
33.023000
 30
0.000000
 40
0.075000
  1
-1-
100
AcDbAttribute
  2
FN
 70
     0
  0
SEQEND
  0
INSERT
  5
67
330
1F
100
AcDbEntity
  8
0
100
AcDbBlockReference
 66
     1
  2
FASE_NEUTRO_TERRA
 10
30.327000
 20
33.067000
 30
0.000000
  0
ATTRIB
  5
68
330
67
100
AcDbEntity
  8
0
100
AcDbText
 10
30.179000
 20
33.218000
 30
0.000000
 40
0.075000
  1
-2-
100
AcDbAttribute
  2
FNT
 70
     0
  0
SEQEND
  0
INSERT
  5
67
330
1F
100
AcDbEntity
  8
0
100
AcDbBlockReference
 66
     1
  2
RETORNO_PARALELO
 10
28.951000
 20
32.608000
 30
0.000000
  0
ATTRIB
  5
68
330
67
100
AcDbEntity
  8
0
100
AcDbText
 10
28.931000
 20
32.804000
 30
0.000000
 40
0.075000
  1
-A-
100
AcDbAttribute
  2
RP
 70
     0
  0
SEQEND
  0
INSERT
  5
67
330
1F
100
AcDbEntity
  8
0
100
AcDbBlockReference
 66
     1
  2
FASE_NEUTRO_TERRA
 10
28.532000
 20
32.754000
 30
0.000000
  0
ATTRIB
  5
68
330
67
100
AcDbEntity
  8
0
100
AcDbText
 10
28.542000
 20
32.942000
 30
0.000000
 40
0.075000
  1
-2-
100
AcDbAttribute
  2
FNT
 70
     0
  0
SEQEND
  0
INSERT
  5
67
330
1F
100
AcDbEntity
  8
0
100
AcDbBlockReference
 66
     1
  2
FASE_NEUTRO_TERRA
 10
27.717000
 20
32.667000
 30
0.000000
  0
ATTRIB
  5
68
330
67
100
AcDbEntity
  8
0
100
AcDbText
 10
27.654000
 20
32.869000
 30
0.000000
 40
0.075000
  1
-2-
100
AcDbAttribute
  2
FNT
 70
     0
  0
SEQEND
  0
INSERT
  5
67
330
1F
100
AcDbEntity
  8
0
100
AcDbBlockReference
 66
     1
  2
FASE_NEUTRO_TERRA
 10
28.267000
 20
28.648000
 30
0.000000
  0
ATTRIB
  5
68
330
67
100
AcDbEntity
  8
0
100
AcDbText
 10
28.277000
 20
28.836000
 30
0.000000
 40
0.075000
  1
-2-
100
AcDbAttribute
  2
FNT
 70
     0
  0
SEQEND
  0
INSERT
  5
67
330
1F
100
AcDbEntity
  8
0
100
AcDbBlockReference
 66
     1
  2
FASE_NEUTRO_TERRA
 10
29.193000
 20
31.489000
 30
0.000000
  0
ATTRIB
  5
68
330
67
100
AcDbEntity
  8
0
100
AcDbText
 10
28.983000
 20
31.465000
 30
0.000000
 40
0.075000
  1
-2-
100
AcDbAttribute
  2
FNT
 70
     0
  0
SEQEND
  0
INSERT
  5
67
330
1F
100
AcDbEntity
  8
0
100
AcDbBlockReference
 66
     1
  2
FASE_NEUTRO
 10
29.134000
 20
31.099000
 30
0.000000
  0
ATTRIB
  5
68
330
67
100
AcDbEntity
  8
0
100
AcDbText
 10
28.926000
 20
31.064000
 30
0.000000
 40
0.075000
  1
-1-
100
AcDbAttribute
  2
FN
 70
     0
  0
SEQEND
  0
INSERT
  5
67
330
1F
100
AcDbEntity
  8
0
100
AcDbBlockReference
 66
     1
  2
FASE_NEUTRO_TERRA
 10
29.045000
 20
27.444000
 30
0.000000
  0
ATTRIB
  5
68
330
67
100
AcDbEntity
  8
0
100
AcDbText
 10
28.840000
 20
27.394000
 30
0.000000
 40
0.075000
  1
-2-
100
AcDbAttribute
  2
FNT
 70
     0
  0
SEQEND
  0
INSERT
  5
67
330
1F
100
AcDbEntity
  8
0
100
AcDbBlockReference
 66
     1
  2
FASE_NEUTRO_TERRA
 10
30.658000
 20
28.905000
 30
0.000000
  0
ATTRIB
  5
68
330
67
100
AcDbEntity
  8
0
100
AcDbText
 10
30.522000
 20
29.067000
 30
0.000000
 40
0.075000
  1
-2-
100
AcDbAttribute
  2
FNT
 70
     0
  0
SEQEND
  0
INSERT
  5
67
330
1F
100
AcDbEntity
  8
0
100
AcDbBlockReference
 66
     1
  2
FASE_NEUTRO_TERRA
 10
31.060000
 20
28.376000
 30
0.000000
  0
ATTRIB
  5
68
330
67
100
AcDbEntity
  8
0
100
AcDbText
 10
30.997000
 20
28.578000
 30
0.000000
 40
0.075000
  1
-2-
100
AcDbAttribute
  2
FNT
 70
     0
  0
SEQEND
  0
INSERT
  5
67
330
1F
100
AcDbEntity
  8
0
100
AcDbBlockReference
 66
     1
  2
FASE_NEUTRO_TERRA
 10
29.875000
 20
29.395000
 30
0.000000
  0
ATTRIB
  5
68
330
67
100
AcDbEntity
  8
0
100
AcDbText
 10
29.674000
 20
29.319000
 30
0.000000
 40
0.075000
  1
-2-
100
AcDbAttribute
  2
FNT
 70
     0
  0
SEQEND
  0
INSERT
  5
67
330
1F
100
AcDbEntity
  8
0
100
AcDbBlockReference
 66
     1
  2
FASE_NEUTRO
 10
30.015000
 20
27.992000
 30
0.000000
  0
ATTRIB
  5
68
330
67
100
AcDbEntity
  8
0
100
AcDbText
 10
30.042000
 20
28.172000
 30
0.000000
 40
0.075000
  1
-1-
100
AcDbAttribute
  2
FN
 70
     0
  0
SEQEND
  0
INSERT
  5
67
330
1F
100
AcDbEntity
  8
0
100
AcDbBlockReference
 66
     1
  2
FASE_NEUTRO_TERRA
 10
30.351000
 20
27.838000
 30
0.000000
  0
ATTRIB
  5
68
330
67
100
AcDbEntity
  8
0
100
AcDbText
 10
30.362000
 20
28.025000
 30
0.000000
 40
0.075000
  1
-2-
100
AcDbAttribute
  2
FNT
 70
     0
  0
SEQEND
  0
INSERT
  5
67
330
1F
100
AcDbEntity
  8
0
100
AcDbBlockReference
 66
     1
  2
FASE_NEUTRO_TERRA
 10
30.107000
 20
30.718000
 30
0.000000
  0
ATTRIB
  5
68
330
67
100
AcDbEntity
  8
0
100
AcDbText
 10
30.044000
 20
30.920000
 30
0.000000
 40
0.075000
  1
-2-
100
AcDbAttribute
  2
FNT
 70
     0
  0
SEQEND
  0
INSERT
  5
67
330
1F
100
AcDbEntity
  8
0
100
AcDbBlockReference
 66
     1
  2
FASE_NEUTRO_TERRA
 10
29.878000
 20
33.792000
 30
0.000000
  0
ATTRIB
  5
68
330
67
100
AcDbEntity
  8
0
100
AcDbText
 10
29.682000
 20
33.869000
 30
0.000000
 40
0.075000
  1
-2-
100
AcDbAttribute
  2
FNT
 70
     0
  0
SEQEND
  0
INSERT
  5
67
330
1F
100
AcDbEntity
  8
0
100
AcDbBlockReference
 66
     1
  2
FASE_NEUTRO_TERRA
 10
31.092000
 20
32.320000
 30
0.000000
  0
ATTRIB
  5
68
330
67
100
AcDbEntity
  8
0
100
AcDbText
 10
31.029000
 20
32.521000
 30
0.000000
 40
0.075000
  1
-2-
100
AcDbAttribute
  2
FNT
 70
     0
  0
SEQEND
  0
INSERT
  5
67
330
1F
100
AcDbEntity
  8
0
100
AcDbBlockReference
 66
     1
  2
FASE_RETORNO
 10
32.903000
 20
33.241000
 30
0.000000
  0
ATTRIB
  5
68
330
67
100
AcDbEntity
  8
0
100
AcDbText
 10
32.759000
 20
33.443000
 30
0.000000
 40
0.075000
  1
-1-
100
AcDbAttribute
  2
F
 70
     0
  0
ATTRIB
  5
68
330
67
100
AcDbEntity
  8
0
100
AcDbText
 10
32.903000
 20
33.443000
 30
0.000000
 40
0.075000
  1
-E-
100
AcDbAttribute
  2
R
 70
     0
  0
SEQEND
  0
INSERT
  5
67
330
1F
100
AcDbEntity
  8
0
100
AcDbBlockReference
 66
     1
  2
FASE_NEUTRO_TERRA
 10
33.252000
 20
33.241000
 30
0.000000
  0
ATTRIB
  5
68
330
67
100
AcDbEntity
  8
0
100
AcDbText
 10
33.189000
 20
33.443000
 30
0.000000
 40
0.075000
  1
-2-
100
AcDbAttribute
  2
FNT
 70
     0
  0
SEQEND
  0
INSERT
  5
67
330
1F
100
AcDbEntity
  8
0
100
AcDbBlockReference
 66
     1
  2
FASE_NEUTRO_TERRA
 10
32.360000
 20
32.059000
 30
0.000000
  0
ATTRIB
  5
68
330
67
100
AcDbEntity
  8
0
100
AcDbText
 10
32.298000
 20
32.261000
 30
0.000000
 40
0.075000
  1
-2-
100
AcDbAttribute
  2
FNT
 70
     0
  0
SEQEND
  0
INSERT
  5
67
330
1F
100
AcDbEntity
  8
0
100
AcDbBlockReference
 66
     1
  2
FASE_NEUTRO_TERRA
 10
32.494000
 20
28.197000
 30
0.000000
  0
ATTRIB
  5
68
330
67
100
AcDbEntity
  8
0
100
AcDbText
 10
32.446000
 20
28.399000
 30
0.000000
 40
0.075000
  1
-2-
100
AcDbAttribute
  2
FNT
 70
     0
  0
SEQEND
  0
INSERT
  5
67
330
1F
100
AcDbEntity
  8
0
100
AcDbBlockReference
 66
     1
  2
FASE_NEUTRO_TERRA
 10
33.062000
 20
26.926000
 30
0.000000
  0
ATTRIB
  5
68
330
67
100
AcDbEntity
  8
0
100
AcDbText
 10
32.865000
 20
27.001000
 30
0.000000
 40
0.075000
  1
-2-
100
AcDbAttribute
  2
FNT
 70
     0
  0
SEQEND
  0
INSERT
  5
67
330
1F
100
AcDbEntity
  8
0
100
AcDbBlockReference
 66
     1
  2
FASE_NEUTRO_TERRA
 10
34.067000
 20
27.082000
 30
0.000000
  0
ATTRIB
  5
68
330
67
100
AcDbEntity
  8
0
100
AcDbText
 10
34.234000
 20
27.202000
 30
0.000000
 40
0.075000
  1
-2-
100
AcDbAttribute
  2
FNT
 70
     0
  0
SEQEND
  0
INSERT
  5
67
330
1F
100
AcDbEntity
  8
0
100
AcDbBlockReference
 66
     1
  2
FASE_NEUTRO_TERRA
 10
34.685000
 20
28.097000
 30
0.000000
  0
ATTRIB
  5
68
330
67
100
AcDbEntity
  8
0
100
AcDbText
 10
34.637000
 20
28.298000
 30
0.000000
 40
0.075000
  1
-2-
100
AcDbAttribute
  2
FNT
 70
     0
  0
SEQEND
  0
INSERT
  5
67
330
1F
100
AcDbEntity
  8
0
100
AcDbBlockReference
 66
     1
  2
FASE_RETORNO
 10
33.575000
 20
28.778000
 30
0.000000
  0
ATTRIB
  5
68
330
67
100
AcDbEntity
  8
0
100
AcDbText
 10
33.348000
 20
28.677000
 30
0.000000
 40
0.075000
  1
-1-
100
AcDbAttribute
  2
F
 70
     0
  0
ATTRIB
  5
68
330
67
100
AcDbEntity
  8
0
100
AcDbText
 10
33.377000
 20
28.815000
 30
0.000000
 40
0.075000
  1
-C-
100
AcDbAttribute
  2
R
 70
     0
  0
SEQEND
  0
INSERT
  5
67
330
1F
100
AcDbEntity
  8
0
100
AcDbBlockReference
 66
     1
  2
FASE_NEUTRO
 10
32.929000
 20
28.911000
 30
0.000000
  0
ATTRIB
  5
68
330
67
100
AcDbEntity
  8
0
100
AcDbText
 10
32.649000
 20
28.775000
 30
0.000000
 40
0.075000
  1
-1-
100
AcDbAttribute
  2
FN
 70
     0
  0
SEQEND
  0
INSERT
  5
67
330
1F
100
AcDbEntity
  8
0
100
AcDbBlockReference
 66
     1
  2
FASE_NEUTRO_TERRA
 10
32.759000
 20
29.266000
 30
0.000000
  0
ATTRIB
  5
68
330
67
100
AcDbEntity
  8
0
100
AcDbText
 10
32.474000
 20
29.106000
 30
0.000000
 40
0.075000
  1
-2-
100
AcDbAttribute
  2
FNT
 70
     0
  0
SEQEND
  0
INSERT
  5
67
330
1F
100
AcDbEntity
  8
0
100
AcDbBlockReference
 66
     1
  2
FASE_RETORNO
 10
33.231000
 20
30.064000
 30
0.000000
  0
ATTRIB
  5
68
330
67
100
AcDbEntity
  8
0
100
AcDbText
 10
33.250000
 20
30.311000
 30
0.000000
 40
0.075000
  1
-1-
100
AcDbAttribute
  2
F
 70
     0
  0
ATTRIB
  5
68
330
67
100
AcDbEntity
  8
0
100
AcDbText
 10
33.362000
 20
30.217000
 30
0.000000
 40
0.075000
  1
-F-
100
AcDbAttribute
  2
R
 70
     0
  0
SEQEND
  0
INSERT
  5
67
330
1F
100
AcDbEntity
  8
0
100
AcDbBlockReference
 66
     1
  2
FASE_NEUTRO_TERRA
 10
33.527000
 20
29.847000
 30
0.000000
  0
ATTRIB
  5
68
330
67
100
AcDbEntity
  8
0
100
AcDbText
 10
33.590000
 20
30.049000
 30
0.000000
 40
0.075000
  1
-2-
100
AcDbAttribute
  2
FNT
 70
     0
  0
SEQEND
  0
INSERT
  5
67
330
1F
100
AcDbEntity
  8
0
100
AcDbBlockReference
 66
     1
  2
FASE_NEUTRO_TERRA
 10
34.851000
 20
29.051000
 30
0.000000
  0
ATTRIB
  5
68
330
67
100
AcDbEntity
  8
0
100
AcDbText
 10
34.788000
 20
29.252000
 30
0.000000
 40
0.075000
  1
-2-
100
AcDbAttribute
  2
FNT
 70
     0
  0
SEQEND
  0
INSERT
  5
67
330
1F
100
AcDbEntity
  8
0
100
AcDbBlockReference
 66
     1
  2
FASE_NEUTRO_TERRA
 10
32.973000
 20
30.867000
 30
0.000000
  0
ATTRIB
  5
68
330
67
100
AcDbEntity
  8
0
100
AcDbText
 10
32.910000
 20
31.069000
 30
0.000000
 40
0.075000
  1
-2-
100
AcDbAttribute
  2
FNT
 70
     0
  0
SEQEND
  0
INSERT
  5
67
330
1F
100
AcDbEntity
  8
0
100
AcDbBlockReference
 66
     1
  2
FASE_NEUTRO
 10
32.790000
 20
31.437000
 30
0.000000
  0
ATTRIB
  5
68
330
67
100
AcDbEntity
  8
0
100
AcDbText
 10
32.603000
 20
31.534000
 30
0.000000
 40
0.075000
  1
-1-
100
AcDbAttribute
  2
FN
 70
     0
  0
SEQEND
  0
INSERT
  5
67
330
1F
100
AcDbEntity
  8
0
100
AcDbBlockReference
 66
     1
  2
FASE_NEUTRO_TERRA
 10
33.038000
 20
31.675000
 30
0.000000
  0
ATTRIB
  5
68
330
67
100
AcDbEntity
  8
0
100
AcDbText
 10
32.861000
 20
31.791000
 30
0.000000
 40
0.075000
  1
-2-
100
AcDbAttribute
  2
FNT
 70
     0
  0
SEQEND
  0
INSERT
  5
67
330
1F
100
AcDbEntity
  8
0
100
AcDbBlockReference
 66
     1
  2
FASE_NEUTRO_TERRA
 10
35.114000
 20
32.237000
 30
0.000000
  0
ATTRIB
  5
68
330
67
100
AcDbEntity
  8
0
100
AcDbText
 10
35.071000
 20
32.438000
 30
0.000000
 40
0.075000
  1
-2-
100
AcDbAttribute
  2
FNT
 70
     0
  0
SEQEND
  0
INSERT
  5
67
330
1F
100
AcDbEntity
  8
0
100
AcDbBlockReference
 66
     1
  2
FASE_NEUTRO_TERRA
 10
34.288000
 20
32.717000
 30
0.000000
  0
ATTRIB
  5
68
330
67
100
AcDbEntity
  8
0
100
AcDbText
 10
34.246000
 20
32.918000
 30
0.000000
 40
0.075000
  1
-2-
100
AcDbAttribute
  2
FNT
 70
     0
  0
SEQEND
  0
INSERT
  5
67
330
1F
100
AcDbEntity
  8
0
100
AcDbBlockReference
 66
     1
  2
FASE_NEUTRO_TERRA
 10
34.751000
 20
33.586000
 30
0.000000
  0
ATTRIB
  5
68
330
67
100
AcDbEntity
  8
0
100
AcDbText
 10
34.466000
 20
33.463000
 30
0.000000
 40
0.075000
  1
-2-
100
AcDbAttribute
  2
FNT
 70
     0
  0
SEQEND
  0
INSERT
  5
67
330
1F
100
AcDbEntity
  8
0
100
AcDbBlockReference
 66
     1
  2
FASE_RETORNO
 10
34.581000
 20
31.848000
 30
0.000000
  0
ATTRIB
  5
68
330
67
100
AcDbEntity
  8
0
100
AcDbText
 10
34.359000
 20
31.738000
 30
0.000000
 40
0.075000
  1
-1-
100
AcDbAttribute
  2
F
 70
     0
  0
ATTRIB
  5
68
330
67
100
AcDbEntity
  8
0
100
AcDbText
 10
34.381000
 20
31.877000
 30
0.000000
 40
0.075000
  1
-D-
100
AcDbAttribute
  2
R
 70
     0
  0
SEQEND
  0
INSERT
  5
67
330
1F
100
AcDbEntity
  8
0
100
AcDbBlockReference
 66
     1
  2
FASE_NEUTRO_TERRA
 10
39.345000
 20
28.147000
 30
0.000000
  0
ATTRIB
  5
68
330
67
100
AcDbEntity
  8
0
100
AcDbText
 10
39.276000
 20
28.349000
 30
0.000000
 40
0.075000
  1
-X-
100
AcDbAttribute
  2
FNT
 70
     0
  0
SEQEND
  0
INSERT
  5
67
330
1F
100
AcDbEntity
  8
0
100
AcDbBlockReference
 66
     1
  2
FASE_NEUTRO
 10
39.345000
 20
27.648000
 30
0.000000
  0
ATTRIB
  5
68
330
67
100
AcDbEntity
  8
0
100
AcDbText
 10
39.276000
 20
27.850000
 30
0.000000
 40
0.075000
  1
-X-
100
AcDbAttribute
  2
FN
 70
     0
  0
SEQEND
  0
INSERT
  5
67
330
1F
100
AcDbEntity
  8
0
100
AcDbBlockReference
 66
     1
  2
FASE_RETORNO
 10
39.345000
 20
27.157000
 30
0.000000
  0
ATTRIB
  5
68
330
67
100
AcDbEntity
  8
0
100
AcDbText
 10
39.195000
 20
27.358000
 30
0.000000
 40
0.075000
  1
-X-
100
AcDbAttribute
  2
F
 70
     0
  0
ATTRIB
  5
68
330
67
100
AcDbEntity
  8
0
100
AcDbText
 10
39.345000
 20
27.358000
 30
0.000000
 40
0.075000
  1
-X-
100
AcDbAttribute
  2
R
 70
     0
  0
SEQEND
  0
ENDSEC
  0
EOF
